<?xml version="1.0" encoding="utf-8"?>
<!-- Generator: Adobe Illustrator 25.3.1, SVG Export Plug-In . SVG Version: 6.00 Build 0)  -->
<svg version="1.1" id="Layer_1" xmlns="http://www.w3.org/2000/svg" xmlns:xlink="http://www.w3.org/1999/xlink" x="0px" y="0px"
	 viewBox="0 0 250 167" style="enable-background:new 0 0 250 167;" xml:space="preserve">
<style type="text/css">
	.st0{fill:#F7F7F7;}
	.st1{fill:#1B1937;stroke:#1B1937;stroke-miterlimit:10;}
	.st2{fill:#FFFFFF;}
	.st3{fill:#1B1937;}
	.st4{fill:#F2F2F2;}
	.st5{fill:#333333;}
	.st6{opacity:0.47;}
	.st7{fill:#DD3A7D;}
	.st8{fill:#DD3A7D;stroke:#DD3A7D;stroke-miterlimit:10;}
	.st9{fill:#85AFDE;}
	.st10{fill:#85AFDE;stroke:#85AFDE;stroke-miterlimit:10;}
	.st11{fill:#5F4F9C;stroke:#5F4F9C;stroke-miterlimit:10;}
	.st12{fill:#F2C257;}
	.st13{fill:#F2C257;stroke:#F2C257;stroke-miterlimit:10;}
	.st14{fill:#22B573;stroke:#22B573;stroke-width:0.581;stroke-miterlimit:10;}
	.st15{fill:#22B573;stroke:#22B573;stroke-width:0.5863;stroke-miterlimit:10;}
	.st16{fill:#422918;}
	.st17{fill:none;stroke:#FFFFFF;stroke-width:0.2824;stroke-miterlimit:10;}
	.st18{fill:#E5B15A;}
	.st19{fill:#262626;}
	.st20{fill:none;stroke:#333333;stroke-width:0.2824;stroke-miterlimit:10;}
	.st21{fill:#895D3B;}
</style>
<rect x="-0.5" class="st0" width="250" height="167"/>
<rect x="19.9" y="11.6" class="st1" width="210.2" height="17.2"/>
<rect x="213.3" y="11.7" class="st2" width="12.7" height="17.3"/>
<g>
	<path class="st3" d="M217.7,25.5c-0.2,0-0.4-0.1-0.6-0.3l-2.9-4.1c-0.2-0.3-0.2-0.8,0.2-1c0.3-0.2,0.8-0.2,1,0.2l2.3,3.3l6.2-8.8
		c0.2-0.3,0.7-0.4,1-0.2s0.4,0.7,0.2,1l-6.8,9.6C218.1,25.4,217.9,25.5,217.7,25.5L217.7,25.5z"/>
</g>
<g>
	<path class="st4" d="M32.9,19.6v2.8c0,0.7-0.1,1.2-0.4,1.6s-0.7,0.6-1.3,0.6c-0.2,0-0.4,0-0.7-0.1l-0.2-1l0.1-0.1
		c0.3,0.1,0.5,0.1,0.8,0.1c0.4,0,0.6-0.3,0.6-0.8v-3h1.1V19.6z"/>
	<path class="st4" d="M35.5,21.6v1.1l-0.1,0.1h-1.7V17h1.1v4.6H35.5L35.5,21.6z"/>
	<path class="st4" d="M40.5,21.7v1l-0.1,0.1h-0.7c-0.6,0-1.2-0.1-1.7-0.4c-0.6,0.3-1.3,0.4-2.2,0.4h-0.3l-0.1-0.1v-1l0.1-0.1h0.7
		c0.3,0,0.6,0,0.8,0c-0.2-0.3-0.5-0.7-0.6-1.2H36l-0.1-0.1l0.1-1c0.8-0.2,1.4-0.3,2-0.3c0.5,0,1.1,0.1,1.8,0.3l0.2,1.2
		c-0.2,0.4-0.4,0.8-0.8,1.1h0.2h1L40.5,21.7z M38.9,20.3c-0.3-0.1-0.6-0.1-1-0.1c-0.2,0-0.4,0-0.6,0c0.1,0.5,0.4,0.9,0.7,1.2
		C38.5,21.1,38.8,20.7,38.9,20.3z"/>
	<path class="st4" d="M47.1,21.6v1.1L47,22.8l0,0c-0.2,0-0.4,0-0.5-0.1s-0.3-0.2-0.5-0.4l-0.4,0.6c-0.6,0-1.2-0.2-1.9-0.6l-0.4,0.6
		c-0.5,0-0.9-0.2-1.3-0.5l-0.1,0.5h-1.5l-0.1-0.1v-1.1l0.1-0.1H41l0.2-1.9h1.1l-0.2,1.6c0.3,0.1,0.6,0.2,0.9,0.2l0.2-1.9h1L44,21.3
		c0.3,0.1,0.7,0.2,1.2,0.2c-0.1-0.7-0.2-1.4-0.3-2l1.1-0.2c0.1,0.7,0.2,1.4,0.3,2.1c0.1,0.1,0.3,0.2,0.6,0.2L47.1,21.6L47.1,21.6z
		 M43.1,18.9l-0.7-0.8l0.8-0.7l0.5,0.6l0.7-0.6l0.6,0.8l-0.8,0.7l-0.5-0.6L43.1,18.9z M43.7,17.7l-0.6-0.8l0.8-0.7l0.6,0.8
		L43.7,17.7z"/>
	<path class="st4" d="M49,17v5.8h-2l-0.1-0.1v-1.1l0.1-0.1h0.8V17H49z"/>
	<path class="st4" d="M51.1,22.8H50V17h1.1V22.8z"/>
	<path class="st4" d="M59.5,21.6v1.1l-0.1,0.1h-0.1c-0.3,0-0.6-0.1-0.9-0.3v0.1c0.3,0.2,0.6,0.5,0.7,0.7l-0.3,1
		c-0.3,0.2-0.7,0.3-1.2,0.5c-0.5,0.1-1,0.2-1.5,0.2c-1.8,0-2.7-0.8-2.7-2.3c0-0.5,0.1-0.9,0.3-1.3l0.8-0.2l0.1,0.1
		c-0.1,0.4-0.2,0.8-0.2,1.2c0,0.5,0.1,0.8,0.4,1s0.8,0.3,1.4,0.3c0.7,0,1.3-0.1,1.8-0.3c-0.4-0.5-1-0.9-1.7-1.3l0.4-1h0.1
		c0.5,0.2,1.1,0.3,1.7,0.3L59.5,21.6L59.5,21.6z M56.6,25.3l0.7,0.8l-0.9,0.7l-0.5-0.6l-0.8,0.6L54.4,26l0.9-0.7l0.5,0.6L56.6,25.3z
		"/>
	<path class="st4" d="M61.2,18.3c0.5,0,0.9,0.2,1.2,0.7s0.4,1,0.4,1.6c0,0.7-0.1,1.4-0.3,2.1h-3.4L59,22.6v-1l0.1-0.1h2.6v-0.2
		c-0.5,0-0.9-0.1-1.3-0.2c-0.4-0.1-0.7-0.3-1.1-0.6c0.1-0.7,0.3-1.2,0.6-1.7S60.8,18.3,61.2,18.3z M61,17.8L60.3,17l0.9-0.7l0.7,0.8
		L61,17.8z M61.1,19.6c-0.1,0-0.2,0.1-0.4,0.2c-0.1,0.1-0.2,0.2-0.3,0.4c0.3,0.2,0.7,0.2,1.3,0.3c0-0.3-0.1-0.5-0.3-0.6
		S61.3,19.6,61.1,19.6z"/>
	<path class="st4" d="M69,21.7v1l-0.1,0.1h-1.6v-0.5c-0.4,0.3-0.8,0.4-1.1,0.4c-0.4,0-0.8-0.1-1-0.4s-0.3-0.6-0.3-0.9
		c0-0.4,0.1-0.8,0.3-1.2l2.1-0.6V19h1.1v2.7H69L69,21.7z M65.8,18.7l-0.7-0.8l0.9-0.7l0.5,0.6l0.7-0.5l0.7,0.8L67,18.8l-0.5-0.6
		L65.8,18.7z M66.4,21.5c0.3,0,0.6-0.1,0.9-0.2v-0.8l-1.4,0.4c0,0.1,0,0.2,0,0.3C65.9,21.3,66,21.5,66.4,21.5z"/>
	<path class="st4" d="M71.5,19.4c0.4,0,0.7,0.2,0.9,0.5c0.2,0.3,0.4,0.7,0.4,1.2c0,0.4-0.1,0.8-0.3,1.1L71.7,23L70,22.2
		c-0.2,0.2-0.3,0.3-0.5,0.4c-0.1,0.1-0.3,0.1-0.6,0.1l0,0l-0.1-0.1v-1l0.1-0.2H69c0.1,0,0.2-0.1,0.3-0.2c0.1-0.1,0.3-0.4,0.5-0.7
		c0.3-0.4,0.5-0.7,0.8-0.9C70.9,19.5,71.2,19.4,71.5,19.4z M71.2,20.6c-0.1,0-0.2,0.1-0.3,0.2c-0.1,0.1-0.2,0.3-0.4,0.6l1.1,0.5
		c0.1-0.2,0.1-0.4,0.1-0.6s-0.1-0.4-0.2-0.5C71.5,20.7,71.4,20.6,71.2,20.6z"/>
	<path class="st4" d="M77.4,21.6v1.1l-0.1,0.1h-0.2c-0.4,0-0.8-0.2-1.1-0.5c-0.5,0.3-1.1,0.5-1.8,0.5h-0.6l-0.3-1.2l0.1-0.1h1
		c0.4,0,0.8,0,1.1-0.1c-0.3-0.6-0.7-1.3-1-2.1l0.8-0.6h0.1c0.3,0.8,0.7,1.5,1,2.2c0.1,0.3,0.3,0.4,0.4,0.5s0.3,0.1,0.5,0.1
		L77.4,21.6L77.4,21.6z"/>
	<path class="st4" d="M82.2,21.6v1.1l-0.1,0.1H82c-0.5,0-0.9-0.2-1.2-0.7c-0.9,0.4-1.8,0.7-2.8,0.7h-0.7l-0.1-0.1v-0.9l0.1-0.2h0.9
		c0.5,0,0.9,0,1.2-0.1c0.3-0.1,0.6-0.2,0.9-0.3c-0.4-0.3-0.7-0.4-1-0.5c-0.2-0.1-0.5-0.1-0.8-0.1c-0.2,0-0.5,0.1-0.8,0.2h-0.1v-1.1
		c0.4-0.2,0.7-0.3,1.1-0.3c0.3,0,0.7,0.1,1.2,0.4c0.4,0.2,1,0.7,1.7,1.2l-0.2,0.6c0.1,0,0.2,0.1,0.4,0.1L82.2,21.6L82.2,21.6z
		 M78.9,18.4l-0.7-0.8l0.9-0.7l0.7,0.8L78.9,18.4z"/>
	<path class="st4" d="M85,21.6v1.1l-0.1,0.1h-0.1c-0.1,0-0.2,0-0.3,0s-0.2-0.1-0.3-0.2c-0.1-0.1-0.2-0.1-0.2-0.2
		c0,0-0.1-0.1-0.2-0.3l-0.4,0.6h-1.3L82,22.6v-1l0.2-0.1h1.1v-1.9h1.1v1.8C84.5,21.5,84.8,21.6,85,21.6L85,21.6L85,21.6z M82.9,18.9
		l-0.7-0.8l0.9-0.7l0.5,0.6l0.7-0.5l0.7,0.8l-1,0.6l-0.5-0.6L82.9,18.9z"/>
	<path class="st4" d="M91.6,21.6v1.1l-0.1,0.1h-0.1c-0.2,0-0.4,0-0.5-0.1s-0.3-0.2-0.5-0.4L90,22.9c-0.6,0-1.2-0.2-1.9-0.6l-0.4,0.6
		c-0.5,0-0.9-0.2-1.3-0.5l-0.1,0.5h-1.5l-0.1-0.1v-1.1l0.1-0.1h0.6l0.2-1.9h1.1l-0.2,1.6c0.3,0.1,0.6,0.2,0.9,0.2l0.2-1.9h1
		l-0.2,1.7c0.3,0.1,0.7,0.2,1.2,0.2c-0.1-0.7-0.2-1.4-0.3-2l1.1-0.2c0.1,0.7,0.2,1.4,0.3,2.1c0.1,0.1,0.3,0.2,0.6,0.2L91.6,21.6
		L91.6,21.6z"/>
	<path class="st4" d="M96,21.6v1.1l-0.1,0.1h-0.1c-0.2,0-0.3,0-0.5-0.1c-0.1-0.1-0.3-0.2-0.4-0.4L94.3,23l-1.7-0.7
		c-0.2,0.2-0.3,0.3-0.5,0.4s-0.3,0.1-0.6,0.1l0,0l-0.1-0.1v-1l0.1-0.2h0.1c0.1,0,0.2-0.1,0.3-0.2c0.1-0.1,0.3-0.4,0.5-0.7
		c0.3-0.4,0.5-0.7,0.8-0.9c0.3-0.2,0.5-0.3,0.9-0.3s0.7,0.2,0.9,0.5c0.2,0.3,0.4,0.7,0.4,1.2c0,0.1,0,0.2,0,0.3
		C95.5,21.5,95.7,21.6,96,21.6L96,21.6L96,21.6z M93.8,20.6c-0.1,0-0.2,0.1-0.3,0.2c-0.1,0.1-0.2,0.3-0.4,0.6l1.1,0.5
		c0.1-0.2,0.1-0.4,0.1-0.6s-0.1-0.4-0.2-0.5C94.1,20.7,94,20.6,93.8,20.6z"/>
	<path class="st4" d="M97.9,17v5.8H96l-0.1-0.1v-1.1l0.1-0.1h0.8V17H97.9z"/>
	<path class="st4" d="M100,22.8h-1.1V17h1.1V22.8z"/>
	<path class="st4" d="M106.2,19.1c0.5,0,0.8,0.2,1.1,0.7c0.3,0.5,0.5,1.1,0.5,1.8l-0.7,1.2h-4.4l-0.5-1.1l0.1-0.1h0.9V17h1.1v3.2
		C105.1,19.5,105.8,19.1,106.2,19.1z M104.2,21.5h2.7c-0.1-0.4-0.2-0.7-0.3-0.9s-0.3-0.3-0.6-0.3c-0.4,0-1,0.3-1.8,0.8
		C104.2,21.1,104.2,21.5,104.2,21.5z"/>
	<path class="st4" d="M112.6,21.6v1l-0.1,0.1H112c-0.2,1.2-0.9,1.8-2.1,1.8c-0.3,0-0.7-0.1-1-0.3l-0.1-1l0.1-0.1
		c0.4,0.1,0.8,0.2,1.2,0.2c0.3,0,0.5,0,0.7-0.1s0.3-0.3,0.3-0.5c-0.5-0.1-1-0.2-1.4-0.4c-0.4-0.2-0.8-0.5-1.1-0.8
		c0.1-0.7,0.4-1.3,0.7-1.8c0.3-0.5,0.7-0.7,1.1-0.7c0.3,0,0.6,0.1,0.9,0.4c0.2,0.2,0.4,0.5,0.6,0.9c0.1,0.4,0.2,0.8,0.3,1.2
		L112.6,21.6L112.6,21.6z M110.2,20.3c-0.1,0-0.2,0.1-0.3,0.2c-0.1,0.1-0.2,0.3-0.3,0.5c0.4,0.3,0.9,0.4,1.5,0.5
		c-0.1-0.4-0.2-0.7-0.3-0.9S110.4,20.3,110.2,20.3z"/>
	<path class="st4" d="M118.5,21.6v1.1l-0.1,0.1h-0.1c-0.2,0-0.4,0-0.5-0.1s-0.3-0.2-0.4-0.4l-0.3,0.5h-4.6l-0.1-0.1v-1.1l0.1-0.1
		h0.6V17h1.1v3.2c0.9-0.7,1.6-1.1,2.1-1.1c0.4,0,0.8,0.2,1.1,0.7c0.3,0.4,0.5,1,0.5,1.7C118,21.6,118.2,21.6,118.5,21.6L118.5,21.6
		L118.5,21.6z M114.1,21.5h2.7c-0.1-0.4-0.2-0.7-0.3-0.9s-0.3-0.3-0.6-0.3c-0.4,0-1,0.3-1.8,0.8C114.1,21.1,114.1,21.5,114.1,21.5z"
		/>
	<path class="st4" d="M123.3,21.6v1.1l-0.1,0.1h-0.1c-0.5,0-0.9-0.2-1.2-0.7c-0.9,0.4-1.8,0.7-2.8,0.7h-0.7l-0.1-0.1v-0.9l0.1-0.2
		h0.9c0.5,0,0.9,0,1.2-0.1c0.3-0.1,0.6-0.2,0.9-0.3c-0.4-0.3-0.7-0.4-1-0.5s-0.5-0.1-0.8-0.1c-0.2,0-0.5,0.1-0.8,0.2h-0.1v-1.1
		c0.4-0.2,0.7-0.3,1.1-0.3c0.3,0,0.7,0.1,1.2,0.4s1,0.7,1.7,1.2l-0.2,0.6c0.1,0,0.2,0.1,0.4,0.1L123.3,21.6L123.3,21.6z M120,18.4
		l-0.7-0.8l0.9-0.7l0.7,0.8L120,18.4z"/>
	<path class="st4" d="M125.2,17v5.8h-1.9l-0.1-0.1v-1.1l0.1-0.1h0.8V17H125.2z"/>
	<path class="st4" d="M127.3,22.8h-1.1V17h1.1V22.8z"/>
	<path class="st4" d="M129.9,19.1c0.3,0,0.5,0.1,0.8,0.3c0.2,0.2,0.4,0.4,0.5,0.7c0.1,0.3,0.2,0.6,0.3,0.9s0.1,0.7,0.1,1
		c0,1.7-0.7,2.5-2.1,2.5c-0.3,0-0.7-0.1-1-0.2l-0.2-1l0.1-0.1c0.4,0.1,0.8,0.2,1.3,0.2c0.3,0,0.5,0,0.7-0.1s0.3-0.3,0.3-0.5
		c-1.1-0.1-1.9-0.5-2.5-1.2c0.1-0.7,0.4-1.3,0.7-1.8C129.1,19.3,129.5,19.1,129.9,19.1z M129.8,20.3c-0.1,0-0.2,0.1-0.3,0.2
		s-0.2,0.3-0.3,0.6c0.4,0.3,0.9,0.5,1.5,0.5c-0.1-0.4-0.2-0.7-0.3-0.9C130.2,20.4,130,20.3,129.8,20.3z"/>
	<path class="st4" d="M138,19.7v3.9c-0.7,0.4-1.4,0.7-2.1,0.7c-0.6,0-1.2-0.2-1.6-0.6s-0.6-0.9-0.6-1.6c0-0.4,0.1-0.9,0.3-1.4
		l0.8-0.1l0.1,0.1c-0.1,0.4-0.2,0.8-0.2,1.1c0,0.5,0.1,0.8,0.3,1s0.6,0.3,1.1,0.3c0.3,0,0.6,0,0.9-0.1v-3.2L138,19.7L138,19.7z
		 M135.5,20.2l-0.7-0.8l0.9-0.7l0.7,0.8L135.5,20.2z"/>
	<path class="st4" d="M140,22.8h-1V17h1.1v5.8H140z"/>
	<path class="st4" d="M144.9,21.6v1l-0.1,0.1h-0.5c-0.2,1.2-0.9,1.8-2.1,1.8c-0.3,0-0.7-0.1-1-0.3l-0.1-1l0.1-0.1
		c0.4,0.1,0.8,0.2,1.2,0.2c0.3,0,0.5,0,0.7-0.1s0.3-0.3,0.3-0.5c-0.5-0.1-1-0.2-1.4-0.4c-0.4-0.2-0.8-0.5-1.1-0.8
		c0.1-0.7,0.4-1.3,0.7-1.8s0.7-0.7,1.1-0.7c0.3,0,0.6,0.1,0.9,0.4c0.2,0.2,0.4,0.5,0.6,0.9c0.1,0.4,0.2,0.8,0.3,1.2L144.9,21.6
		L144.9,21.6z M142.6,20.3c-0.1,0-0.2,0.1-0.3,0.2s-0.2,0.3-0.3,0.5c0.4,0.3,0.9,0.4,1.5,0.5c-0.1-0.4-0.2-0.7-0.3-0.9
		S142.7,20.3,142.6,20.3z"/>
	<path class="st4" d="M146.8,17v5.8h-1.9l-0.1-0.1v-1.1l0.1-0.1h0.8V17H146.8z"/>
	<path class="st4" d="M149.2,17.2l0.1,0.5c-0.2,0.1-0.6,0.1-1,0.1h-0.8v-0.6h0.4c-0.1-0.1-0.2-0.2-0.2-0.4c0-0.2,0.1-0.4,0.2-0.6
		c0.2-0.1,0.5-0.1,0.7-0.1s0.3,0,0.5,0.1l-0.1,0.5c-0.2,0-0.3,0-0.5,0c-0.1,0-0.2,0-0.3,0c0,0,0,0,0,0.1l0,0c0,0.2,0,0.3,0.1,0.5
		C148.7,17.3,149,17.3,149.2,17.2L149.2,17.2z M152.5,21.6v1.1l-0.1,0.1h-0.2c-0.3,0-0.6-0.1-0.8-0.2s-0.4-0.3-0.5-0.7
		c-0.8,0.7-1.7,1.1-2.9,1.2l-0.4-1.1l0.1-0.1c0.6-0.1,1.2-0.2,1.6-0.3c-0.2-0.7-0.7-1.7-1.4-2.9l1-0.6c0.6,1.1,1,2.2,1.3,3.2
		c0.2-0.1,0.4-0.2,0.6-0.3v-4h1.1v3.6c0,0.4,0,0.6,0.1,0.8C152.1,21.5,152.2,21.6,152.5,21.6L152.5,21.6L152.5,21.6z"/>
	<path class="st4" d="M154.4,17v5.8h-1.9l-0.1-0.1v-1.1l0.1-0.1h0.8V17H154.4z"/>
	<path class="st4" d="M162.7,21.6v1.1l-0.1,0.1h-0.1c-0.3,0-0.6-0.1-0.9-0.3v0.1c0.3,0.2,0.6,0.5,0.7,0.7l-0.3,1
		c-0.3,0.2-0.7,0.3-1.2,0.5c-0.5,0.1-1,0.2-1.5,0.2c-1.8,0-2.7-0.8-2.7-2.3c0-0.5,0.1-0.9,0.3-1.3l0.8-0.2l0.1,0.1
		c-0.1,0.4-0.2,0.8-0.2,1.2c0,0.5,0.1,0.8,0.4,1s0.8,0.3,1.4,0.3c0.7,0,1.3-0.1,1.8-0.3c-0.4-0.5-1-0.9-1.7-1.3l0.4-1h0.1
		c0.5,0.2,1.1,0.3,1.7,0.3L162.7,21.6L162.7,21.6z M159.9,25.3l0.7,0.8l-0.9,0.7l-0.5-0.6l-0.8,0.6l-0.7-0.8l0.9-0.7l0.5,0.6
		L159.9,25.3z"/>
	<path class="st4" d="M163.4,19.4h1.1v3.4h-2l-0.2-0.2v-1l0.2-0.1h0.9V19.4z M163.8,18.8l-0.7-0.8l0.9-0.7l0.7,0.8L163.8,18.8z"/>
	<path class="st4" d="M167.3,21.6v1.1l-0.1,0.1h-1.7V17h1.1v4.6H167.3L167.3,21.6z"/>
	<path class="st4" d="M170.1,21.6v1.1l-0.1,0.1l0,0c-0.1,0-0.2,0-0.3,0s-0.2-0.1-0.3-0.2s-0.2-0.1-0.2-0.2s-0.1-0.1-0.2-0.3
		l-0.4,0.6h-1.3l-0.2-0.2v-1l0.2-0.1h1.1v-1.9h1.1v1.8c0.1,0.1,0.3,0.2,0.6,0.2L170.1,21.6L170.1,21.6z M169.4,23.3l0.7,0.8
		l-0.9,0.7l-0.5-0.6l-0.8,0.6l-0.7-0.8l0.9-0.7l0.5,0.6L169.4,23.3z"/>
	<path class="st4" d="M172.9,21.6v1.1l-0.1,0.1h-0.1c-0.1,0-0.2,0-0.3,0s-0.2-0.1-0.3-0.2s-0.2-0.1-0.2-0.2s-0.1-0.1-0.2-0.3
		l-0.4,0.6H170l-0.2-0.2v-1l0.2-0.1h1.1v-1.9h1.1v1.8c0.1,0.1,0.3,0.2,0.6,0.2L172.9,21.6L172.9,21.6z M171.6,23.2l0.7,0.8l-0.9,0.7
		l-0.7-0.8L171.6,23.2z"/>
	<path class="st4" d="M174.8,17v5.8h-1.9l-0.1-0.1v-1.1l0.1-0.1h0.8V17H174.8z"/>
	<path class="st4" d="M176.9,22.8h-1.1V17h1.1V22.8z"/>
	<path class="st4" d="M185.4,21.6v1.1l-0.1,0.1h-0.1c-0.2,0-0.4,0-0.5-0.1s-0.3-0.2-0.4-0.4l-0.4,0.5h-4.4l-0.5-1.1l0.1-0.1h0.9V17
		h1.1v3.2c0.9-0.7,1.6-1.1,2.1-1.1s0.8,0.2,1.1,0.7c0.3,0.4,0.5,1,0.5,1.6C184.9,21.5,185.1,21.6,185.4,21.6L185.4,21.6L185.4,21.6z
		 M181.1,21.5h2.7c-0.1-0.4-0.2-0.7-0.3-0.9s-0.3-0.3-0.6-0.3c-0.4,0-1,0.3-1.8,0.8L181.1,21.5L181.1,21.5z"/>
	<path class="st4" d="M191.4,21.6v1.1l-0.1,0.1h-0.1c-0.2,0-0.4,0-0.5-0.1s-0.3-0.2-0.4-0.4l-0.3,0.5h-4.6l-0.1-0.1v-1.1l0.1-0.1
		h0.6V17h1.1v3.2c0.9-0.7,1.6-1.1,2.1-1.1c0.4,0,0.8,0.2,1.1,0.7c0.3,0.4,0.5,1,0.5,1.7C190.9,21.6,191.1,21.6,191.4,21.6
		L191.4,21.6L191.4,21.6z M187,21.5h2.7c-0.1-0.4-0.2-0.7-0.3-0.9s-0.3-0.3-0.6-0.3c-0.4,0-1,0.3-1.8,0.8L187,21.5L187,21.5z"/>
	<path class="st4" d="M196.2,21.6v1.1l-0.1,0.1H196c-0.5,0-0.9-0.2-1.2-0.7c-0.9,0.4-1.8,0.7-2.8,0.7h-0.7l-0.1-0.1v-0.9l0.1-0.2
		h0.9c0.5,0,0.9,0,1.2-0.1s0.6-0.2,0.9-0.3c-0.4-0.3-0.7-0.4-1-0.5s-0.5-0.1-0.8-0.1c-0.2,0-0.5,0.1-0.8,0.2h-0.1v-1.1
		c0.4-0.2,0.7-0.3,1.1-0.3c0.3,0,0.7,0.1,1.2,0.4s1,0.7,1.7,1.2l-0.2,0.6c0.1,0,0.2,0.1,0.4,0.1L196.2,21.6L196.2,21.6z M192.9,18.4
		l-0.7-0.8l0.9-0.7l0.7,0.8L192.9,18.4z"/>
	<path class="st4" d="M200.6,21.6v1.1l-0.1,0.1h-0.1c-0.2,0-0.3,0-0.5-0.1c-0.1-0.1-0.3-0.2-0.4-0.4l-0.7,0.7l-1.7-0.7
		c-0.2,0.2-0.3,0.3-0.5,0.4s-0.3,0.1-0.6,0.1l0,0l-0.1-0.1v-1l0.1-0.2h0.1c0.1,0,0.2-0.1,0.3-0.2s0.3-0.4,0.5-0.7
		c0.3-0.4,0.5-0.7,0.8-0.9c0.3-0.2,0.5-0.3,0.9-0.3s0.7,0.2,0.9,0.5s0.4,0.7,0.4,1.2c0,0.1,0,0.2,0,0.3c0.1,0.1,0.3,0.2,0.6,0.2
		H200.6L200.6,21.6z M198.4,20.6c-0.1,0-0.2,0.1-0.3,0.2s-0.2,0.3-0.4,0.6l1.1,0.5c0.1-0.2,0.1-0.4,0.1-0.6s-0.1-0.4-0.2-0.5
		C198.7,20.7,198.5,20.6,198.4,20.6z"/>
	<path class="st4" d="M202.5,17v5.8h-1.9l-0.1-0.1v-1.1l0.1-0.1h0.8V17H202.5z"/>
	<path class="st4" d="M204.5,22.8h-1.1V17h1.1V22.8z"/>
</g>
<g>
	<path class="st5" d="M20.2,44.4h-0.3v-2.9l-0.6,0.4v-0.3l0.5-0.3h0.5v3.1H20.2z"/>
	<path class="st5" d="M21.2,44.2C21,44,21,43.8,21,43.5V42c0-0.3,0.1-0.5,0.2-0.7c0.2-0.2,0.4-0.2,0.7-0.2c0.3,0,0.5,0.1,0.7,0.2
		c0.2,0.2,0.2,0.4,0.2,0.7v1.5c0,0.3-0.1,0.5-0.2,0.7c-0.2,0.2-0.4,0.2-0.7,0.2S21.4,44.4,21.2,44.2z M22.3,44
		c0.1-0.1,0.1-0.3,0.1-0.5V42c0-0.2,0-0.4-0.1-0.5s-0.2-0.2-0.5-0.2c-0.2,0-0.4,0.1-0.5,0.2c-0.1,0.1-0.1,0.3-0.1,0.5v1.5
		c0,0.2,0,0.4,0.1,0.5s0.2,0.2,0.5,0.2C22.1,44.2,22.2,44.1,22.3,44z"/>
	<path class="st5" d="M23.7,44.2c-0.2-0.2-0.2-0.4-0.2-0.7V42c0-0.3,0.1-0.5,0.2-0.7c0.2-0.2,0.4-0.2,0.7-0.2c0.3,0,0.5,0.1,0.7,0.2
		c0.2,0.2,0.2,0.4,0.2,0.7v1.5c0,0.3-0.1,0.5-0.2,0.7c-0.2,0.2-0.4,0.2-0.7,0.2S23.9,44.4,23.7,44.2z M24.8,44
		c0.1-0.1,0.1-0.3,0.1-0.5V42c0-0.2,0-0.4-0.1-0.5s-0.2-0.2-0.5-0.2c-0.2,0-0.4,0.1-0.5,0.2c-0.1,0.1-0.1,0.3-0.1,0.5v1.5
		c0,0.2,0,0.4,0.1,0.5s0.2,0.2,0.5,0.2C24.6,44.2,24.7,44.1,24.8,44z"/>
	<path class="st5" d="M21.6,50.8L21.6,50.8c0,0.1-0.1,0.2-0.2,0.2s-0.2,0-0.3,0c-0.2,0-0.3,0-0.4-0.1s-0.2-0.2-0.3-0.3
		c-0.1-0.1-0.1-0.3-0.1-0.5l0,0c0-0.2,0-0.4,0.1-0.5s0.2-0.3,0.3-0.3s0.3-0.1,0.5-0.1s0.4,0,0.5,0.1s0.2,0.2,0.3,0.3
		c0.1,0.1,0.1,0.3,0.1,0.5l0,0c0,0.1,0,0.2,0,0.4c0,0.1-0.1,0.3-0.1,0.4c0,0,0,0,0,0.1s0,0,0,0.1l-0.7,1.4h-0.4L21.6,50.8z
		 M21.6,50.6c0.1-0.1,0.2-0.3,0.2-0.5l0,0c0-0.2-0.1-0.4-0.2-0.5s-0.2-0.2-0.4-0.2c-0.2,0-0.3,0.1-0.4,0.2c-0.1,0.1-0.2,0.3-0.2,0.5
		l0,0c0,0.2,0.1,0.4,0.2,0.5s0.2,0.2,0.4,0.2S21.5,50.7,21.6,50.6z"/>
	<path class="st5" d="M22.9,52.2c-0.2-0.2-0.2-0.4-0.2-0.7V50c0-0.3,0.1-0.5,0.2-0.7c0.2-0.2,0.4-0.2,0.7-0.2c0.3,0,0.5,0.1,0.7,0.2
		c0.2,0.2,0.2,0.4,0.2,0.7v1.5c0,0.3-0.1,0.5-0.2,0.7c-0.2,0.2-0.4,0.2-0.7,0.2C23.2,52.4,23,52.4,22.9,52.2z M24,52
		c0.1-0.1,0.1-0.3,0.1-0.5V50c0-0.2,0-0.4-0.1-0.5s-0.2-0.2-0.5-0.2c-0.2,0-0.4,0.1-0.5,0.2c-0.1,0.1-0.1,0.3-0.1,0.5v1.5
		c0,0.2,0,0.4,0.1,0.5s0.2,0.2,0.5,0.2S23.9,52.1,24,52z"/>
	<path class="st5" d="M20.6,60.3c-0.1-0.1-0.3-0.2-0.3-0.3c-0.1-0.1-0.1-0.3-0.1-0.5l0,0c0-0.2,0-0.3,0.1-0.5
		c0.1-0.1,0.2-0.2,0.3-0.3c-0.1-0.1-0.2-0.2-0.3-0.3c-0.1-0.1-0.1-0.3-0.1-0.4l0,0c0-0.2,0-0.3,0.1-0.5c0.1-0.1,0.2-0.2,0.3-0.3
		c0.1-0.1,0.3-0.1,0.5-0.1s0.4,0,0.5,0.1s0.2,0.2,0.3,0.3C22,57.7,22,57.8,22,58l0,0c0,0.2,0,0.3-0.1,0.4c-0.1,0.1-0.2,0.2-0.3,0.3
		c0.1,0.1,0.3,0.2,0.3,0.3c0.1,0.1,0.1,0.3,0.1,0.5l0,0c0,0.2,0,0.3-0.1,0.5c-0.1,0.1-0.2,0.2-0.3,0.3s-0.3,0.1-0.5,0.1
		C20.9,60.4,20.8,60.4,20.6,60.3z M21.5,60.1c0.1,0,0.2-0.1,0.2-0.2s0.1-0.2,0.1-0.3l0,0c0-0.1,0-0.2-0.1-0.3S21.6,59,21.5,59
		s-0.2-0.1-0.4-0.1c-0.1,0-0.3,0-0.4,0.1s-0.2,0.1-0.2,0.2s-0.1,0.2-0.1,0.3l0,0c0,0.1,0,0.2,0.1,0.3s0.1,0.2,0.2,0.2
		s0.2,0.1,0.4,0.1C21.3,60.2,21.4,60.1,21.5,60.1z M21.5,58.6c0.1,0,0.2-0.1,0.2-0.2s0.1-0.2,0.1-0.3l0,0c0-0.1,0-0.2-0.1-0.3
		s-0.1-0.1-0.2-0.2c-0.1,0-0.2-0.1-0.3-0.1c-0.1,0-0.2,0-0.3,0.1c-0.1,0-0.2,0.1-0.2,0.2s-0.1,0.2-0.1,0.3l0,0c0,0.1,0,0.2,0.1,0.3
		s0.1,0.2,0.2,0.2s0.2,0.1,0.3,0.1C21.3,58.6,21.4,58.6,21.5,58.6z"/>
	<path class="st5" d="M23,60.2c-0.2-0.2-0.2-0.4-0.2-0.7V58c0-0.3,0.1-0.5,0.2-0.7c0.2-0.2,0.4-0.2,0.7-0.2c0.3,0,0.5,0.1,0.7,0.2
		c0.2,0.2,0.2,0.4,0.2,0.7v1.5c0,0.3-0.1,0.5-0.2,0.7c-0.2,0.2-0.4,0.2-0.7,0.2S23.1,60.4,23,60.2z M24.1,60
		c0.1-0.1,0.1-0.3,0.1-0.5V58c0-0.2,0-0.4-0.1-0.5s-0.2-0.2-0.5-0.2c-0.2,0-0.4,0.1-0.5,0.2C23,57.6,23,57.8,23,58v1.5
		c0,0.2,0,0.4,0.1,0.5s0.2,0.2,0.5,0.2S24,60.1,24.1,60z"/>
	<path class="st5" d="M22,65.5l-0.8,2.9h-0.3l0.8-2.9h-1.1v0.6h-0.3v-0.9H22V65.5z"/>
	<path class="st5" d="M22.8,68.2c-0.2-0.2-0.2-0.4-0.2-0.7V66c0-0.3,0.1-0.5,0.2-0.7c0.2-0.2,0.4-0.2,0.7-0.2c0.3,0,0.5,0.1,0.7,0.2
		c0.2,0.2,0.2,0.4,0.2,0.7v1.5c0,0.3-0.1,0.5-0.2,0.7c-0.2,0.2-0.4,0.2-0.7,0.2C23.2,68.4,23,68.4,22.8,68.2z M24,68
		c0.1-0.1,0.1-0.3,0.1-0.5V66c0-0.2,0-0.4-0.1-0.5s-0.2-0.2-0.5-0.2c-0.2,0-0.4,0.1-0.5,0.2s-0.1,0.3-0.1,0.5v1.5
		c0,0.2,0,0.4,0.1,0.5s0.2,0.2,0.5,0.2C23.7,68.2,23.9,68.1,24,68z"/>
	<path class="st5" d="M20.6,76.3c-0.1-0.1-0.2-0.2-0.3-0.3c-0.1-0.1-0.1-0.3-0.1-0.5l0,0c0-0.1,0-0.2,0-0.4c0-0.1,0.1-0.3,0.1-0.4
		c0,0,0,0,0-0.1s0,0,0-0.1l0.7-1.4h0.4l-0.8,1.6v-0.1c0-0.1,0.1-0.1,0.2-0.2c0.1,0,0.2-0.1,0.3-0.1c0.2,0,0.3,0,0.5,0.1
		c0.1,0.1,0.2,0.2,0.3,0.3C22,74.8,22,75,22,75.2l0,0c0,0.2,0,0.4-0.1,0.5S21.7,76,21.6,76c-0.1,0.1-0.3,0.1-0.5,0.1
		S20.8,76.4,20.6,76.3z M21.6,76c0.1-0.1,0.2-0.3,0.2-0.5l0,0c0-0.2-0.1-0.4-0.2-0.5s-0.3-0.2-0.4-0.2c-0.2,0-0.3,0.1-0.4,0.2
		s-0.1,0.3-0.1,0.5l0,0c0,0.2,0.1,0.4,0.2,0.5s0.2,0.2,0.4,0.2C21.3,76.1,21.5,76.1,21.6,76z"/>
	<path class="st5" d="M22.9,76.2c-0.2-0.2-0.2-0.4-0.2-0.7V74c0-0.3,0.1-0.5,0.2-0.7c0.2-0.2,0.4-0.2,0.7-0.2c0.3,0,0.5,0.1,0.7,0.2
		c0.2,0.2,0.2,0.4,0.2,0.7v1.5c0,0.3-0.1,0.5-0.2,0.7c-0.2,0.2-0.4,0.2-0.7,0.2C23.2,76.4,23,76.4,22.9,76.2z M24,76
		c0.1-0.1,0.1-0.3,0.1-0.5V74c0-0.2,0-0.4-0.1-0.5s-0.2-0.2-0.5-0.2c-0.2,0-0.4,0.1-0.5,0.2s-0.1,0.3-0.1,0.5v1.5
		c0,0.2,0,0.4,0.1,0.5s0.2,0.2,0.5,0.2S23.9,76.1,24,76z"/>
	<path class="st5" d="M20.7,84.4c-0.1-0.1-0.2-0.2-0.3-0.3c-0.1-0.1-0.1-0.3-0.2-0.4l0,0h0.3l0,0c0,0.2,0.1,0.3,0.2,0.4
		s0.2,0.1,0.4,0.1c0.2,0,0.3-0.1,0.4-0.2s0.2-0.3,0.2-0.4v-0.5c0-0.2,0-0.3-0.1-0.4s-0.2-0.1-0.4-0.1c-0.1,0-0.2,0-0.3,0.1
		c-0.1,0.1-0.2,0.2-0.3,0.3h-0.3v-1.7h1.6v0.3h-1.3v1c0.1-0.1,0.2-0.1,0.3-0.2c0.1,0,0.2-0.1,0.3-0.1c0.2,0,0.3,0,0.4,0.1
		s0.2,0.2,0.3,0.3C22,82.8,22,83,22,83.2v0.5c0,0.2,0,0.4-0.1,0.5s-0.2,0.2-0.3,0.3c-0.1,0.1-0.3,0.1-0.5,0.1
		C21,84.4,20.8,84.4,20.7,84.4z"/>
	<path class="st5" d="M22.9,84.2c-0.2-0.2-0.2-0.4-0.2-0.7V82c0-0.3,0.1-0.5,0.2-0.7c0.2-0.2,0.4-0.2,0.7-0.2c0.3,0,0.5,0.1,0.7,0.2
		c0.2,0.2,0.2,0.4,0.2,0.7v1.5c0,0.3-0.1,0.5-0.2,0.7c-0.2,0.2-0.4,0.2-0.7,0.2C23.3,84.4,23.1,84.4,22.9,84.2z M24.1,84
		c0.1-0.1,0.1-0.3,0.1-0.5V82c0-0.2,0-0.4-0.1-0.5s-0.2-0.2-0.5-0.2c-0.2,0-0.4,0.1-0.5,0.2S23,81.8,23,82v1.5c0,0.2,0,0.4,0.1,0.5
		s0.2,0.2,0.5,0.2C23.8,84.2,24,84.1,24.1,84z"/>
	<path class="st5" d="M20.1,91.7l1.1-2.5h0.3l-1.1,2.4h1.7v0.3H20v-0.2H20.1z M21.6,90.5h0.3v1.9h-0.3V90.5z"/>
	<path class="st5" d="M23,92.2c-0.2-0.2-0.2-0.4-0.2-0.7V90c0-0.3,0.1-0.5,0.2-0.7c0.2-0.2,0.4-0.2,0.7-0.2c0.3,0,0.5,0.1,0.7,0.2
		c0.2,0.2,0.2,0.4,0.2,0.7v1.5c0,0.3-0.1,0.5-0.2,0.7c-0.2,0.2-0.4,0.2-0.7,0.2C23.4,92.4,23.1,92.4,23,92.2z M24.1,92
		c0.1-0.1,0.1-0.3,0.1-0.5V90c0-0.2,0-0.4-0.1-0.5s-0.2-0.2-0.5-0.2c-0.2,0-0.4,0.1-0.5,0.2S23,89.8,23,90v1.5c0,0.2,0,0.4,0.1,0.5
		s0.2,0.2,0.5,0.2S24,92.1,24.1,92z"/>
	<path class="st5" d="M20.6,100.4c-0.1-0.1-0.2-0.2-0.3-0.3c-0.1-0.1-0.1-0.3-0.2-0.4h0.3c0,0.1,0.1,0.2,0.1,0.3
		c0.1,0.1,0.1,0.1,0.2,0.2c0.1,0,0.2,0.1,0.3,0.1c0.2,0,0.3-0.1,0.4-0.2s0.2-0.2,0.2-0.4v-0.1c0-0.2-0.1-0.3-0.2-0.4S21.2,99,21,99
		h-0.2v-0.3H21c0.2,0,0.3,0,0.4-0.1s0.1-0.2,0.1-0.4V98c0-0.2,0-0.3-0.1-0.4s-0.2-0.1-0.4-0.1c-0.1,0-0.2,0-0.3,0.1
		c-0.1,0-0.1,0.1-0.2,0.2s-0.1,0.2-0.1,0.3h-0.3c0-0.2,0.1-0.3,0.2-0.4s0.2-0.2,0.3-0.3c0.1-0.1,0.3-0.1,0.4-0.1
		c0.3,0,0.5,0.1,0.6,0.2S22,97.7,22,98v0.1c0,0.2,0,0.3-0.1,0.4s-0.2,0.2-0.3,0.2c0.1,0,0.3,0.1,0.3,0.2C22,99,22,99.2,22,99.4v0.1
		c0,0.2,0,0.3-0.1,0.5s-0.2,0.2-0.3,0.3c-0.1,0.1-0.3,0.1-0.5,0.1C20.9,100.4,20.8,100.4,20.6,100.4z"/>
	<path class="st5" d="M22.9,100.2c-0.2-0.2-0.2-0.4-0.2-0.7V98c0-0.3,0.1-0.5,0.2-0.7c0.2-0.2,0.4-0.2,0.7-0.2
		c0.3,0,0.5,0.1,0.7,0.2c0.2,0.2,0.2,0.4,0.2,0.7v1.5c0,0.3-0.1,0.5-0.2,0.7c-0.2,0.2-0.4,0.2-0.7,0.2
		C23.3,100.4,23.1,100.4,22.9,100.2z M24,100c0.1-0.1,0.1-0.3,0.1-0.5V98c0-0.2,0-0.4-0.1-0.5s-0.2-0.2-0.5-0.2
		c-0.2,0-0.4,0.1-0.5,0.2c0,0.2,0,0.4,0,0.6v1.5c0,0.2,0,0.4,0.1,0.5s0.2,0.2,0.5,0.2C23.8,100.2,23.9,100.1,24,100z"/>
	<path class="st5" d="M20.2,108.2l1.2-1.6c0.1-0.1,0.1-0.2,0.2-0.3s0.1-0.2,0.1-0.3l0,0c0-0.2,0-0.3-0.1-0.4s-0.2-0.1-0.4-0.1
		c-0.2,0-0.3,0-0.4,0.2s-0.2,0.2-0.2,0.4l0,0h-0.3l0,0c0-0.2,0.1-0.3,0.2-0.5s0.2-0.2,0.3-0.3s0.3-0.1,0.4-0.1c0.2,0,0.4,0,0.5,0.1
		s0.2,0.2,0.3,0.3c0.1,0.1,0.1,0.3,0.1,0.5l0,0c0,0.1,0,0.2-0.1,0.3c-0.1,0.1-0.1,0.3-0.2,0.4l-1.1,1.4h1.4v0.3h-1.8v-0.3H20.2z"/>
	<path class="st5" d="M22.9,108.2c-0.2-0.2-0.2-0.4-0.2-0.7V106c0-0.3,0.1-0.5,0.2-0.7c0.2-0.2,0.4-0.2,0.7-0.2
		c0.3,0,0.5,0.1,0.7,0.2c0.2,0.2,0.2,0.4,0.2,0.7v1.5c0,0.3-0.1,0.5-0.2,0.7c-0.2,0.2-0.4,0.2-0.7,0.2
		C23.3,108.4,23,108.4,22.9,108.2z M24,108c0.1-0.1,0.1-0.3,0.1-0.5V106c0-0.2,0-0.4-0.1-0.5s-0.2-0.2-0.5-0.2
		c-0.2,0-0.4,0.1-0.5,0.2s-0.1,0.3-0.1,0.5v1.5c0,0.2,0,0.4,0.1,0.5s0.2,0.2,0.5,0.2S23.9,108.1,24,108z"/>
	<path class="st5" d="M21.5,116.4h-0.3v-3l-0.6,0.4v-0.3l0.5-0.3h0.5v3.2H21.5z"/>
	<path class="st5" d="M22.5,116.2c-0.2-0.2-0.2-0.4-0.2-0.7V114c0-0.3,0.1-0.5,0.2-0.7c0.2-0.2,0.4-0.2,0.7-0.2
		c0.3,0,0.5,0.1,0.7,0.2c0.2,0.2,0.2,0.4,0.2,0.7v1.5c0,0.3-0.1,0.5-0.2,0.7c-0.2,0.2-0.4,0.2-0.7,0.2
		C22.8,116.4,22.6,116.4,22.5,116.2z M23.6,116c0.1-0.1,0.1-0.3,0.1-0.5V114c0-0.2,0-0.4-0.1-0.5s-0.2-0.2-0.5-0.2
		c-0.2,0-0.4,0.1-0.5,0.2s-0.1,0.3-0.1,0.5v1.5c0,0.2,0,0.4,0.1,0.5s0.2,0.2,0.5,0.2C23.3,116.2,23.5,116.1,23.6,116z"/>
	<path class="st5" d="M21.7,124.2c-0.2-0.2-0.2-0.4-0.2-0.7V122c0-0.3,0.1-0.5,0.2-0.7c0.2-0.2,0.4-0.2,0.7-0.2
		c0.3,0,0.5,0.1,0.7,0.2c0.2,0.2,0.2,0.4,0.2,0.7v1.5c0,0.3-0.1,0.5-0.2,0.7c-0.2,0.2-0.4,0.2-0.7,0.2
		C22.1,124.4,21.9,124.4,21.7,124.2z M22.8,124c0.1-0.1,0.1-0.3,0.1-0.5V122c0-0.2,0-0.4-0.1-0.5s-0.2-0.2-0.5-0.2
		c-0.2,0-0.4,0.1-0.5,0.2s-0.1,0.3-0.1,0.5v1.5c0,0.2,0,0.4,0.1,0.5s0.2,0.2,0.5,0.2C22.6,124.2,22.7,124.1,22.8,124z"/>
</g>
<g class="st6">
	<path class="st5" d="M167,43v0.3H29.5V43H167z"/>
	<path class="st5" d="M167,51v0.3H29.5V51H167z"/>
	<path class="st5" d="M167,58.9v0.3H29.5v-0.3H167z"/>
	<path class="st5" d="M167,66.9v0.3H29.5v-0.3H167z"/>
	<path class="st5" d="M167,74.9v0.3H29.5v-0.3H167z"/>
	<path class="st5" d="M167,82.8v0.3H29.5v-0.3H167z"/>
	<path class="st5" d="M167,90.8v0.3H29.5v-0.3H167z"/>
	<path class="st5" d="M167,98.8v0.3H29.5v-0.3H167z"/>
	<path class="st5" d="M167,106.7v0.3H29.5v-0.3H167z"/>
	<path class="st5" d="M167,114.7v0.3H29.5v-0.3H167z"/>
	<path class="st5" d="M167,122.7v0.3H29.5v-0.3H167z"/>
</g>
<polygon class="st1" points="45.1,126.8 44.1,124.5 43.1,126.8 38.6,126.8 38.6,126.8 38.6,136.9 49.7,136.9 49.7,136.9 49.7,126.8 
	"/>
<rect x="38.5" y="74.5" class="st1" width="11.5" height="48"/>
<g>
	<g>
		<path class="st4" d="M44.1,128.4h1l2,6.9h-1.2l-1.3-5.5l-1.3,5.5h-1.2L44.1,128.4z M43.4,132.9h2.5v0.8h-2.5V132.9z"/>
	</g>
</g>
<polygon class="st7" points="67.1,126.8 66.1,124.5 65.1,126.8 60.6,126.8 60.6,126.8 60.6,136.9 71.7,136.9 71.7,136.9 71.7,126.8 
	"/>
<rect x="60.5" y="103.5" class="st8" width="11.5" height="19"/>
<g>
	<g>
		<g>
			<path class="st4" d="M64.6,128.4h1.1v6.9h-1.1V128.4z M65.3,134.4h1.4c0.2,0,0.4-0.1,0.6-0.2c0.1-0.1,0.2-0.2,0.2-0.4V133
				c0-0.2,0-0.3-0.1-0.4c-0.1-0.1-0.2-0.2-0.3-0.3s-0.3-0.1-0.4-0.1h-1.3v-0.9h1.3c0.2,0,0.4-0.1,0.5-0.2c0.1-0.1,0.2-0.3,0.2-0.5
				v-0.7c0-0.2-0.1-0.3-0.2-0.4c-0.1-0.1-0.3-0.2-0.5-0.2h-1.3v-0.9h1.3c0.4,0,0.7,0.1,1,0.2c0.3,0.1,0.5,0.3,0.6,0.5
				s0.2,0.5,0.2,0.7v0.7c0,0.2,0,0.4-0.1,0.6c-0.1,0.2-0.2,0.3-0.4,0.4c-0.2,0.1-0.4,0.2-0.6,0.2c0.2,0,0.5,0.1,0.6,0.2
				c0.2,0.1,0.3,0.3,0.4,0.4s0.1,0.4,0.1,0.6v0.9c0,0.3-0.1,0.6-0.2,0.8s-0.3,0.4-0.6,0.5c-0.3,0.1-0.6,0.2-1,0.2h-1.5v-0.9H65.3z"
				/>
		</g>
	</g>
</g>
<polygon class="st9" points="89.1,126.8 88.1,124.5 87.1,126.8 82.6,126.8 82.6,126.8 82.6,136.9 93.7,136.9 93.7,136.9 93.7,126.8 
	"/>
<rect x="82.5" y="107.5" class="st10" width="11.5" height="15"/>
<polygon class="st11" points="111.1,126.8 110.1,124.5 109.1,126.8 104.6,126.8 104.6,126.8 104.6,136.9 115.7,136.9 115.7,136.9 
	115.7,126.8 "/>
<polygon class="st11" points="104.5,122.5 116,122.5 116,122.5 "/>
<polygon class="st12" points="133.1,126.8 132.1,124.5 131.1,126.8 126.6,126.8 126.6,126.8 126.6,136.9 137.7,136.9 137.7,136.9 
	137.7,126.8 "/>
<polygon class="st13" points="126.5,122.5 138,122.5 138,122.5 "/>
<polygon class="st14" points="155.1,126.8 154.1,124.5 153.1,126.8 148.6,126.8 148.6,126.8 148.6,136.9 159.7,136.9 159.7,136.9 
	159.7,126.8 "/>
<polygon class="st15" points="148.5,122.5 160,122.5 160,122.5 "/>
<path class="st3" d="M225,41.5h-40.6c-1.6,0-3,1.3-3,3v40.6c0,1.6,1.3,3,3,3h15.9l4.4,10l4.4-10H225c1.6,0,3-1.3,3-3V44.5
	C228,42.8,226.7,41.5,225,41.5z"/>
<g>
	<g>
		<path class="st2" d="M195.1,49.6h3.1l7.7,25.7h-3.7l-5.5-20.5l-5.5,20.5h-3.7L195.1,49.6z M191.5,66.3H202v3.3h-10.6v-3.3H191.5z"
			/>
		<path class="st2" d="M209.7,74.1c-0.9-0.9-1.4-2.2-1.4-4.1s0.5-3.4,1.5-4.3c1-1,2.5-1.4,4.5-1.4h3.8l0.2,2.9h-4
			c-0.9,0-1.5,0.2-2,0.7c-0.4,0.5-0.7,1.2-0.7,2.1c0,0.8,0.2,1.4,0.7,1.8s1.2,0.6,2.2,0.6c1.1,0,1.9-0.2,2.5-0.6
			c0.5-0.4,0.8-1,0.8-1.7l0.4,2.1c-0.2,0.7-0.4,1.3-0.8,1.8c-0.4,0.5-0.8,0.8-1.4,1c-0.6,0.2-1.3,0.3-2.1,0.3
			C212,75.5,210.6,75,209.7,74.1z M217.8,62.7c0-1-0.3-1.7-0.8-2.2s-1.2-0.8-2.2-0.8c-0.7,0-1.3,0.2-1.8,0.5s-0.9,0.8-1.2,1.3
			l-2.9-0.9c0.4-1.2,1-2.2,2.1-2.9c1-0.7,2.3-1,3.9-1c1.3,0,2.5,0.2,3.4,0.7s1.7,1.2,2.2,2.1c0.5,0.9,0.7,2,0.7,3.3v12.6h-3.3
			L217.8,62.7L217.8,62.7z"/>
	</g>
</g>
<rect x="20" y="145.2" class="st16" width="119" height="14.8"/>
<g>
	<g>
		<path class="st2" d="M35.4,148.2h0.3v1.6h-0.3V148.2z M35.6,148.9h0.7v0.3h-0.7V148.9z M36.1,148.2h0.3v1.6h-0.3V148.2z"/>
		<path class="st2" d="M36.7,148.2H37v1.6h-0.3V148.2z M36.8,148.2h0.8v0.3h-0.8V148.2z M36.8,148.9h0.7v0.3h-0.7V148.9z
			 M36.8,149.6h0.8v0.3h-0.8V149.6z"/>
		<path class="st2" d="M38.1,148.9l0.3-0.6h0.3l-0.4,0.9l-0.3,0.7h-0.3L38.1,148.9z M38.1,149.2L38.1,149.2l-0.5-1H38l0.3,0.6
			l0.1,0.1l0.5,0.9h-0.3L38.1,149.2z"/>
		<path class="st2" d="M39.8,149.8h-0.3v-1.3l-0.2,0.1v-0.3l0.2-0.1h0.3V149.8z"/>
		<path class="st2" d="M40.3,149.8c-0.1,0-0.1-0.1-0.2-0.1c0-0.1-0.1-0.1-0.1-0.2v-0.1c0-0.1,0-0.1,0.1-0.2c0-0.1,0.1-0.1,0.2-0.1
			c-0.1,0-0.1-0.1-0.1-0.1s-0.1-0.1-0.1-0.2v-0.1c0-0.1,0-0.1,0.1-0.2c0-0.1,0.1-0.1,0.1-0.1c0.1,0,0.1,0,0.2,0s0.2,0,0.2,0l0.1,0.1
			c0,0.1,0.1,0.1,0.1,0.2v0.1c0,0.1,0,0.1-0.1,0.2l-0.1,0.1c0.1,0,0.1,0.1,0.2,0.1c0,0.1,0.1,0.1,0.1,0.2v0.1c0,0.1,0,0.2-0.1,0.2
			c0,0.1-0.1,0.1-0.2,0.1s-0.1,0-0.2,0C40.4,149.9,40.3,149.8,40.3,149.8z M40.6,149.6C40.6,149.6,40.6,149.5,40.6,149.6
			c0.1-0.1,0.1-0.1,0.1-0.1v-0.1v-0.1c0,0,0,0-0.1,0h-0.1h-0.1c0,0,0,0-0.1,0s0,0,0,0.1v0.1v0.1c0,0,0,0,0.1,0
			S40.5,149.6,40.6,149.6C40.5,149.6,40.5,149.6,40.6,149.6z M40.6,148.9C40.6,148.9,40.6,148.8,40.6,148.9c0.1-0.1,0.1-0.1,0.1-0.1
			v-0.1v-0.1l0,0c0,0,0,0-0.1,0s-0.1,0-0.1,0l0,0c0,0,0,0,0,0.1v0.1L40.6,148.9c-0.1,0-0.1,0-0.1,0.1
			C40.4,148.9,40.5,148.9,40.6,148.9C40.5,148.9,40.5,148.9,40.6,148.9z"/>
		<path class="st2" d="M41.7,149.6l0.4-0.6c0-0.1,0.1-0.1,0.1-0.2s0-0.1,0-0.1l0,0v-0.1h-0.1H42v0.1l0,0h-0.3l0,0
			c0-0.1,0-0.2,0.1-0.2s0.1-0.1,0.1-0.2c0.1,0,0.1-0.1,0.2-0.1c0.1,0,0.2,0,0.2,0c0.1,0,0.1,0.1,0.1,0.1s0,0.1,0,0.2l0,0
			c0,0.1,0,0.1,0,0.2c0,0.1-0.1,0.2-0.1,0.2l-0.3,0.5h0.5v0.3L41.7,149.6C41.7,149.7,41.7,149.6,41.7,149.6z"/>
		<path class="st2" d="M43.2,149.1L43.2,149.1c0,0.1,0,0.1,0,0.1h-0.1c-0.1,0-0.1,0-0.2,0s-0.1-0.1-0.1-0.1c0-0.1,0-0.1,0-0.2v-0.1
			c0-0.1,0-0.2,0-0.2c0-0.1,0.1-0.1,0.1-0.1c0.1,0,0.1-0.1,0.2-0.1c0.1,0,0.2,0,0.2,0.1c0.1,0,0.1,0.1,0.1,0.1c0,0.1,0,0.1,0,0.2
			v0.1c0,0.1,0,0.1,0,0.2c0,0.1,0,0.1-0.1,0.2l0,0l0,0L43,150h-0.3L43.2,149.1z M43.2,148.9v-0.1v-0.1v-0.1h-0.1H43v0.1v0.1v0.1
			C43,148.9,43.1,148.9,43.2,148.9L43.2,148.9z"/>
		<path class="st2" d="M44.3,149.3l0.4-1.1H45l-0.4,1.1h0.6v0.3h-1v-0.3H44.3z M44.8,148.9h0.3v0.9h-0.3V148.9z"/>
		<path class="st2" d="M45.4,149.6l0.4-0.6c0-0.1,0.1-0.1,0.1-0.2s0-0.1,0-0.1l0,0v-0.1h-0.1h-0.1v0.1l0,0h-0.3l0,0
			c0-0.1,0-0.2,0.1-0.2s0.1-0.1,0.1-0.2c0.1,0,0.1-0.1,0.2-0.1c0.1,0,0.2,0,0.2,0c0.1,0,0.1,0.1,0.1,0.1s0,0.1,0,0.2l0,0
			c0,0.1,0,0.1,0,0.2c0,0.1-0.1,0.2-0.1,0.2l-0.3,0.5h0.5v0.3L45.4,149.6C45.4,149.7,45.4,149.6,45.4,149.6z"/>
		<path class="st2" d="M35.4,152.2h0.3v1.6h-0.3V152.2z M35.6,152.9H36h0.1c0,0,0,0,0-0.1c0,0,0,0,0-0.1v-0.1v-0.1c0,0,0,0,0-0.1
			c0,0,0,0-0.1,0h-0.4v-0.3H36c0.1,0,0.2,0,0.2,0.1c0.1,0,0.1,0.1,0.1,0.1c0,0.1,0.1,0.1,0.1,0.2v0.1c0,0.1,0,0.2-0.1,0.2
			c0,0.1-0.1,0.1-0.1,0.1c-0.1,0-0.1,0.1-0.2,0.1L35.6,152.9L35.6,152.9z M35.8,153.1l0.3-0.1l0.3,0.8h-0.3L35.8,153.1z"/>
		<path class="st2" d="M37.7,152.9v0.4c0,0.1,0,0.2-0.1,0.3c0,0.1-0.1,0.1-0.2,0.2c-0.1,0-0.2,0.1-0.3,0.1s-0.2,0-0.3-0.1
			c-0.1,0-0.1-0.1-0.2-0.2c0-0.1-0.1-0.2-0.1-0.3v-0.7c0-0.1,0-0.2,0.1-0.3s0.1-0.1,0.2-0.2c0.1,0,0.2-0.1,0.3-0.1s0.2,0,0.3,0.1
			c0.1,0,0.1,0.1,0.2,0.2c0,0.1,0.1,0.2,0.1,0.3h-0.3v-0.1c0,0,0-0.1-0.1-0.1h-0.1h-0.1c0,0-0.1,0-0.1,0.1v0.1v0.7v0.1
			c0,0,0,0,0.1,0.1h0.1h0.1c0,0,0.1,0,0.1-0.1s0-0.1,0-0.1v-0.1h-0.2v-0.3L37.7,152.9L37.7,152.9z"/>
		<path class="st2" d="M37.9,152.2h0.3v1.6h-0.3V152.2z M38.1,153.5h0.4c0.1,0,0.1,0,0.1,0v-0.1v-0.1v-0.1c0,0,0,0-0.1-0.1
			s-0.1,0-0.1,0H38v-0.3h0.4h0.1v-0.1v-0.1v-0.1h-0.1H38v-0.3h0.4c0.1,0,0.2,0,0.2,0l0.1,0.1c0,0.1,0,0.1,0,0.2v0.1
			c0,0.1,0,0.1,0,0.1l-0.1,0.1c0,0-0.1,0-0.1,0.1c0.1,0,0.1,0,0.2,0.1l0.1,0.1c0,0,0,0.1,0,0.2v0.1c0,0.1,0,0.2,0,0.2l-0.1,0.1
			c0,0-0.1,0-0.2,0h-0.4C38.1,153.7,38.1,153.5,38.1,153.5z"/>
		<path class="st2" d="M39.6,153.5l0.4-0.6c0-0.1,0.1-0.1,0.1-0.2s0-0.1,0-0.1l0,0v-0.1H40h-0.1v0.1l0,0h-0.3l0,0
			c0-0.1,0-0.2,0.1-0.2s0.1-0.1,0.1-0.2c0.1,0,0.1-0.1,0.2-0.1c0.1,0,0.2,0,0.2,0c0.1,0,0.1,0.1,0.1,0.1s0,0.1,0,0.2l0,0
			c0,0.1,0,0.1,0,0.2c0,0.1-0.1,0.2-0.1,0.2l-0.3,0.5h0.5v0.3L39.6,153.5C39.6,153.6,39.6,153.5,39.6,153.5z"/>
		<path class="st2" d="M40.9,153.8c-0.1,0-0.1-0.1-0.1-0.2c0-0.1,0-0.2-0.1-0.3l0,0H41l0,0c0,0.1,0,0.1,0,0.1h0.1h0.1v-0.1V153v-0.1
			c0,0,0,0-0.1,0H41c0,0,0,0,0,0.1h-0.3v-0.9h0.8v0.3H41v0.3h0.1h0.1c0.1,0,0.1,0,0.2,0l0.1,0.1c0,0.1,0,0.1,0,0.2v0.3
			c0,0.1,0,0.2,0,0.2l-0.1,0.1c-0.1,0-0.1,0-0.2,0C41,153.8,40.9,153.8,40.9,153.8z"/>
		<path class="st2" d="M42.2,153.3l0.4-1.1H43l-0.4,1.1h0.6v0.3h-1C42.2,153.6,42.2,153.3,42.2,153.3z M42.8,152.9h0.3v0.9h-0.3
			V152.9z"/>
		<path class="st2" d="M43.4,153.5l0.4-0.6c0-0.1,0.1-0.1,0.1-0.2s0-0.1,0-0.1l0,0v-0.1h-0.1h-0.1v0.1l0,0h-0.3l0,0
			c0-0.1,0-0.2,0.1-0.2s0.1-0.1,0.1-0.2c0.1,0,0.1-0.1,0.2-0.1c0.1,0,0.2,0,0.2,0c0.1,0,0.1,0.1,0.1,0.1s0,0.1,0,0.2l0,0
			c0,0.1,0,0.1,0,0.2c0,0.1-0.1,0.2-0.1,0.2l-0.3,0.5h0.5v0.3L43.4,153.5C43.4,153.6,43.4,153.5,43.4,153.5z"/>
		<path class="st2" d="M45.1,153.8c-0.1,0-0.1-0.1-0.1-0.1s0-0.1,0-0.2v-0.1c0-0.1,0-0.1,0-0.2c0-0.1,0-0.1,0.1-0.2l0,0l0,0l0.3-0.7
			h0.3l-0.3,0.8h-0.1c0,0,0-0.1,0.1-0.1h0.1c0.1,0,0.1,0,0.2,0c0.1,0,0.1,0.1,0.1,0.1c0,0.1,0,0.1,0,0.2v0.1c0,0.1,0,0.2,0,0.2
			c0,0.1-0.1,0.1-0.1,0.1c-0.1,0-0.1,0.1-0.2,0.1S45.2,153.8,45.1,153.8z M45.5,153.5v-0.1v-0.1v-0.1h-0.1h-0.1v0.1v0.1v0.1H45.5
			C45.4,153.5,45.4,153.5,45.5,153.5z"/>
		<path class="st2" d="M46.2,153.8c-0.1,0-0.1-0.1-0.2-0.1c0-0.1-0.1-0.1-0.1-0.2v-0.1c0-0.1,0-0.1,0.1-0.2c0-0.1,0.1-0.1,0.2-0.1
			c-0.1,0-0.1-0.1-0.1-0.1s-0.1-0.1-0.1-0.2v-0.1c0-0.1,0-0.1,0.1-0.2c0-0.1,0.1-0.1,0.1-0.1c0.1,0,0.1,0,0.2,0s0.2,0,0.2,0l0.1,0.1
			c0,0.1,0.1,0.1,0.1,0.2v0.1c0,0.1,0,0.1-0.1,0.2l-0.1,0.1c0.1,0,0.1,0.1,0.2,0.1c0,0.1,0.1,0.1,0.1,0.2v0.1c0,0.1,0,0.2-0.1,0.2
			c0,0.1-0.1,0.1-0.2,0.1s-0.1,0-0.2,0S46.2,153.8,46.2,153.8z M46.5,153.5L46.5,153.5c0.1-0.1,0.1-0.1,0.1-0.1v-0.1v-0.1
			c0,0,0,0-0.1,0h-0.1h-0.1c0,0,0,0-0.1,0s0,0,0,0.1v0.1v0.1c0,0,0,0,0.1,0S46.4,153.5,46.5,153.5C46.4,153.5,46.5,153.5,46.5,153.5
			z M46.5,152.8L46.5,152.8c0.1-0.1,0.1-0.1,0.1-0.1v-0.1v-0.1l0,0c0,0,0,0-0.1,0s-0.1,0-0.1,0l0,0c0,0,0,0,0,0.1v0.1L46.5,152.8
			c-0.1,0-0.1,0-0.1,0.1C46.4,152.8,46.4,152.8,46.5,152.8C46.4,152.8,46.5,152.8,46.5,152.8z"/>
		<path class="st2" d="M35.6,157.7c-0.1,0-0.1-0.1-0.2-0.2c0-0.1-0.1-0.2-0.1-0.3v-0.6c0-0.1,0-0.2,0.1-0.3c0-0.1,0.1-0.1,0.2-0.2
			c0.1,0,0.2-0.1,0.3-0.1s0.2,0,0.3,0.1c0.1,0,0.1,0.1,0.2,0.2c0,0.1,0.1,0.2,0.1,0.3h-0.3c0-0.1,0-0.1,0-0.1s0-0.1-0.1-0.1H36h-0.1
			c0,0,0,0-0.1,0.1s0,0.1,0,0.1v0.6v0.1c0,0,0,0.1,0.1,0.1H36h0.1c0,0,0,0,0.1-0.1v-0.1h0.3c0,0.1,0,0.2-0.1,0.3
			c0,0.1-0.1,0.1-0.2,0.2s-0.2,0.1-0.3,0.1S35.7,157.8,35.6,157.7z"/>
		<path class="st2" d="M37.5,156.2h0.3v1.6h-0.3v-1.2v0.1l-0.3,0.9H37l-0.3-0.9v-0.1v1.2h-0.3v-1.6h0.3l0.3,1L37.5,156.2z"/>
		<path class="st2" d="M38.6,157.1v0.6h-0.3v-0.6l-0.4-1h0.3l0.2,0.7l0.2-0.7H39L38.6,157.1z"/>
		<path class="st2" d="M39.1,156.2h0.3v1.6h-0.3V156.2z M39.3,157.1l0.5-0.9h0.3l-0.8,1.4V157.1z M39.5,156.9l0.2-0.2l0.5,1h-0.3
			L39.5,156.9z"/>
		<path class="st2" d="M41.6,156.4l-0.3,1.4H41l0.3-1.3H41v0.2h-0.3v-0.5h0.8L41.6,156.4L41.6,156.4z"/>
		<path class="st2" d="M41.9,157.7c-0.1-0.1-0.1-0.2-0.1-0.3v-0.8c0-0.1,0-0.2,0.1-0.3s0.2-0.1,0.3-0.1s0.2,0,0.3,0.1
			s0.1,0.2,0.1,0.3v0.8c0,0.1,0,0.2-0.1,0.3s-0.2,0.1-0.3,0.1C42.1,157.8,42,157.7,41.9,157.7z M42.3,157.4v-0.1v-0.7
			c0-0.1,0-0.1,0-0.1h-0.1h-0.1v0.1v0.7c0,0.1,0,0.1,0,0.1H42.3C42.3,157.5,42.3,157.5,42.3,157.4z"/>
		<path class="st2" d="M43.6,157.7c-0.1,0-0.1-0.1-0.2-0.1c0-0.1-0.1-0.1-0.1-0.2v-0.1c0-0.1,0-0.1,0.1-0.2c0-0.1,0.1-0.1,0.2-0.1
			c-0.1,0-0.1-0.1-0.1-0.1s-0.1-0.1-0.1-0.2v-0.1c0-0.1,0-0.1,0.1-0.2c0-0.1,0.1-0.1,0.1-0.1c0.1,0,0.1,0,0.2,0s0.2,0,0.2,0l0.1,0.1
			c0,0.1,0.1,0.1,0.1,0.2v0.1c0,0.1,0,0.1-0.1,0.2L44,157c0.1,0,0.1,0.1,0.2,0.1c0,0.1,0.1,0.1,0.1,0.2v0.1c0,0.1,0,0.2-0.1,0.2
			c0,0.1-0.1,0.1-0.2,0.1s-0.1,0-0.2,0C43.8,157.8,43.7,157.8,43.6,157.7z M43.9,157.5C44,157.5,44,157.4,43.9,157.5
			c0.1-0.1,0.1-0.1,0.1-0.1v-0.1v-0.1c0,0,0,0-0.1,0h-0.1h-0.1c0,0,0,0-0.1,0s0,0,0,0.1v0.1v0.1c0,0,0,0,0.1,0
			S43.8,157.5,43.9,157.5L43.9,157.5z M43.9,156.8C43.9,156.8,44,156.7,43.9,156.8c0.1-0.1,0.1-0.1,0.1-0.1v-0.1v-0.1l0,0
			c0,0,0,0-0.1,0s-0.1,0-0.1,0l0,0c0,0,0,0,0,0.1v0.1L43.9,156.8c-0.1,0-0.1,0-0.1,0.1C43.8,156.8,43.8,156.8,43.9,156.8L43.9,156.8
			z"/>
		<path class="st2" d="M44.6,157.7c-0.1-0.1-0.1-0.2-0.1-0.3v-0.8c0-0.1,0-0.2,0.1-0.3s0.2-0.1,0.3-0.1s0.2,0,0.3,0.1
			s0.1,0.2,0.1,0.3v0.8c0,0.1,0,0.2-0.1,0.3s-0.2,0.1-0.3,0.1S44.7,157.7,44.6,157.7z M45.1,157.4v-0.1v-0.7c0-0.1,0-0.1,0-0.1H45
			h-0.1v0.1v0.7c0,0.1,0,0.1,0,0.1H45.1C45,157.5,45,157.5,45.1,157.4z"/>
		<path class="st2" d="M46.9,156.4l-0.3,1.4h-0.3l0.3-1.3h-0.2v0.2h-0.3v-0.5h0.8V156.4z"/>
		<path class="st2" d="M47.3,157.7c-0.1-0.1-0.1-0.2-0.1-0.3v-0.8c0-0.1,0-0.2,0.1-0.3s0.2-0.1,0.3-0.1s0.2,0,0.3,0.1
			s0.1,0.2,0.1,0.3v0.8c0,0.1,0,0.2-0.1,0.3s-0.2,0.1-0.3,0.1C47.4,157.8,47.3,157.7,47.3,157.7z M47.7,157.4v-0.1v-0.7
			c0-0.1,0-0.1,0-0.1h-0.1h-0.1v0.1v0.7c0,0.1,0,0.1,0,0.1H47.7C47.6,157.5,47.6,157.5,47.7,157.4z"/>
		<path class="st2" d="M49,157.7c-0.1,0-0.1-0.1-0.1-0.2c0-0.1,0-0.2-0.1-0.3l0,0h0.3l0,0c0,0.1,0,0.1,0,0.1h0.1h0.1v-0.1v-0.3v-0.1
			c0,0,0,0-0.1,0h-0.1c0,0,0,0,0,0.1h-0.3V156h0.8v0.3h-0.5v0.3h0.1h0.1c0.1,0,0.1,0,0.2,0l0.1,0.1c0,0.1,0,0.1,0,0.2v0.3
			c0,0.1,0,0.2,0,0.2l-0.1,0.1c-0.1,0-0.1,0-0.2,0C49.1,157.8,49,157.8,49,157.7z"/>
		<path class="st2" d="M50,157.7c-0.1-0.1-0.1-0.2-0.1-0.3v-0.8c0-0.1,0-0.2,0.1-0.3s0.2-0.1,0.3-0.1s0.2,0,0.3,0.1s0.1,0.2,0.1,0.3
			v0.8c0,0.1,0,0.2-0.1,0.3s-0.2,0.1-0.3,0.1C50.1,157.8,50,157.7,50,157.7z M50.4,157.4v-0.1v-0.7c0-0.1,0-0.1,0-0.1h-0.1h-0.1v0.1
			v0.7c0,0.1,0,0.1,0,0.1H50.4C50.3,157.5,50.3,157.5,50.4,157.4z"/>
	</g>
</g>
<g>
	<path d="M180.9,103.4h1.7v0.6h-1.7V103.4z M181.3,102.9c0-0.3,0.1-0.6,0.2-0.7s0.4-0.2,0.7-0.2h0.5v0.7h-0.4c-0.1,0-0.1,0-0.2,0.1
		c0,0.1-0.1,0.1-0.1,0.2v4.1h-0.7V102.9z"/>
	<path d="M183.7,106.9c-0.2-0.1-0.3-0.3-0.4-0.4s-0.1-0.4-0.1-0.7v-1.1c0-0.3,0-0.5,0.1-0.7s0.2-0.3,0.4-0.4s0.4-0.2,0.7-0.2
		s0.5,0.1,0.7,0.2s0.3,0.2,0.4,0.4s0.1,0.4,0.1,0.7v1.1c0,0.3,0,0.5-0.1,0.7s-0.2,0.3-0.4,0.4s-0.4,0.2-0.7,0.2
		C184.1,107,183.9,107,183.7,106.9z M184.8,106.2c0.1-0.1,0.2-0.3,0.2-0.5v-1.1c0-0.2,0-0.4-0.2-0.5c-0.1-0.1-0.2-0.2-0.4-0.2
		s-0.3,0.1-0.4,0.2c-0.1,0.1-0.2,0.3-0.2,0.5v1.1c0,0.2,0.1,0.4,0.2,0.5c0.1,0.1,0.2,0.2,0.4,0.2
		C184.6,106.4,184.7,106.3,184.8,106.2z"/>
	<path d="M186.5,103.4h0.7v3.6h-0.7V103.4z M188.4,104.6c0-0.2-0.1-0.4-0.2-0.5c-0.1-0.1-0.3-0.2-0.4-0.2c-0.2,0-0.3,0.1-0.4,0.2
		c-0.1,0.1-0.1,0.3-0.1,0.5l-0.1-0.6c0.1-0.2,0.2-0.4,0.4-0.5s0.3-0.2,0.5-0.2c0.3,0,0.6,0.1,0.8,0.3c0.2,0.2,0.3,0.5,0.3,0.9v2.4
		h-0.7v-2.3H188.4z"/>
	<path d="M189.7,103.4h1.6v0.6h-1.6V103.4z M190.3,106.7c-0.1-0.2-0.2-0.4-0.2-0.7v-3.7h0.7v3.7c0,0.1,0,0.2,0.1,0.2
		c0,0.1,0.1,0.1,0.2,0.1h0.3v0.7H191C190.6,107,190.4,106.9,190.3,106.7z"/>
	<path d="M193.6,103.3h0.7v0.7h-0.7V103.3z M193.6,106.2h0.7v0.7h-0.7V106.2z"/>
	<path d="M198,101.9h0.6l1.5,5.1h-0.7l-1.1-4.1l-1.1,4.1h-0.7L198,101.9z M197.3,105.2h2.1v0.6h-2.1V105.2z"/>
	<path d="M200.7,103.4h0.7v3.6h-0.7V103.4z M202.5,104.6c0-0.2,0-0.4-0.1-0.5s-0.2-0.2-0.4-0.2s-0.3,0.1-0.4,0.2
		c-0.1,0.1-0.1,0.3-0.1,0.5l-0.1-0.6c0.1-0.2,0.2-0.4,0.4-0.5s0.3-0.2,0.5-0.2s0.4,0,0.5,0.1s0.3,0.2,0.3,0.4
		c0.1,0.2,0.1,0.4,0.1,0.7v2.5h-0.7V104.6z M204.4,104.6c0-0.2-0.1-0.4-0.2-0.5c-0.1-0.1-0.3-0.2-0.4-0.2c-0.2,0-0.3,0.1-0.4,0.2
		c-0.1,0.1-0.1,0.3-0.1,0.5l-0.1-0.6c0.1-0.2,0.2-0.4,0.4-0.5s0.4-0.2,0.6-0.2c0.2,0,0.4,0,0.5,0.1c0.2,0.1,0.3,0.2,0.3,0.4
		s0.1,0.4,0.1,0.7v2.4h-0.7L204.4,104.6L204.4,104.6z"/>
	<path d="M206,103.4h0.7v5.1H206V103.4z M207,106.9c-0.1-0.1-0.3-0.3-0.3-0.5v-0.7c0,0.1,0,0.3,0.1,0.4s0.1,0.2,0.2,0.2
		c0.1,0.1,0.2,0.1,0.3,0.1c0.2,0,0.3-0.1,0.4-0.2c0.1-0.1,0.2-0.3,0.2-0.5v-1.1c0-0.2-0.1-0.4-0.2-0.5c-0.1-0.1-0.2-0.2-0.4-0.2
		c-0.1,0-0.2,0-0.3,0.1c-0.1,0-0.1,0.1-0.2,0.2c0,0.1-0.1,0.2-0.1,0.3l-0.1-0.6c0.1-0.2,0.2-0.4,0.4-0.5s0.3-0.2,0.5-0.2
		s0.4,0.1,0.5,0.2c0.2,0.1,0.3,0.3,0.3,0.4s0.1,0.4,0.1,0.7v1.1c0,0.3,0,0.5-0.1,0.7s-0.2,0.3-0.4,0.4s-0.3,0.2-0.6,0.2
		C207.3,107,207.1,107,207,106.9z"/>
	<path d="M209.5,106.8c-0.2-0.2-0.3-0.4-0.3-0.8s0.1-0.7,0.3-0.9c0.2-0.2,0.5-0.3,0.9-0.3h0.7v0.6h-0.8c-0.2,0-0.3,0-0.4,0.1
		c-0.1,0.1-0.1,0.2-0.1,0.4c0,0.2,0,0.3,0.1,0.4s0.2,0.1,0.4,0.1s0.4,0,0.5-0.1s0.2-0.2,0.2-0.3l0.1,0.4c0,0.1-0.1,0.3-0.2,0.3
		s-0.2,0.2-0.3,0.2s-0.2,0.1-0.4,0.1C210,107,209.7,106.9,209.5,106.8z M211.1,104.5c0-0.2-0.1-0.3-0.2-0.4
		c-0.1-0.1-0.2-0.2-0.4-0.2c-0.1,0-0.3,0-0.4,0.1c-0.1,0.1-0.2,0.1-0.2,0.3l-0.6-0.2c0.1-0.2,0.2-0.4,0.4-0.6
		c0.2-0.1,0.5-0.2,0.8-0.2s0.5,0,0.7,0.1s0.3,0.2,0.4,0.4c0.1,0.2,0.1,0.4,0.1,0.6v2.5H211L211.1,104.5L211.1,104.5z"/>
	<path d="M213.2,106.9c-0.2-0.1-0.3-0.3-0.5-0.5c-0.1-0.2-0.2-0.4-0.2-0.7v-1.1c0-0.3,0.1-0.5,0.2-0.7c0.1-0.2,0.3-0.4,0.5-0.5
		s0.4-0.2,0.7-0.2c0.2,0,0.4,0,0.6,0.1s0.3,0.2,0.4,0.3s0.2,0.3,0.2,0.5l-0.6,0.2c0-0.2-0.1-0.3-0.2-0.4c-0.1-0.1-0.2-0.1-0.4-0.1
		s-0.4,0.1-0.5,0.2s-0.2,0.3-0.2,0.5v1.1c0,0.2,0.1,0.4,0.2,0.5c0.1,0.1,0.3,0.2,0.5,0.2s0.3,0,0.4-0.1c0.1-0.1,0.2-0.2,0.2-0.4
		l0.6,0.2c0,0.2-0.1,0.4-0.2,0.5c-0.1,0.1-0.2,0.2-0.4,0.3c-0.2,0.1-0.4,0.1-0.6,0.1C213.7,107,213.4,107,213.2,106.9z"/>
	<path d="M215.6,103.4h1.6v0.6h-1.6V103.4z M216.1,106.7c-0.1-0.2-0.2-0.4-0.2-0.7v-3.7h0.7v3.7c0,0.1,0,0.2,0.1,0.2
		c0,0.1,0.1,0.1,0.2,0.1h0.3v0.7h-0.4C216.5,107,216.3,106.9,216.1,106.7z"/>
	<path d="M180.9,112.6h0.7l0.5,2.6l0.7-2.6h0.5l0.7,2.6l0.5-2.6h0.7l-1,3.6h-0.5l-0.7-2.5l-0.7,2.5h-0.5L180.9,112.6z"/>
	<path d="M186.5,116.1c-0.2-0.1-0.4-0.3-0.5-0.5s-0.2-0.5-0.2-0.8V114c0-0.3,0.1-0.6,0.2-0.8c0.1-0.2,0.2-0.4,0.4-0.5
		s0.4-0.2,0.7-0.2s0.5,0.1,0.7,0.2s0.3,0.3,0.4,0.5c0.1,0.2,0.1,0.5,0.1,0.8v0.6h-2.1V114h1.4v-0.2c0-0.2-0.1-0.4-0.2-0.6
		c-0.1-0.1-0.3-0.2-0.4-0.2c-0.2,0-0.4,0.1-0.5,0.2s-0.2,0.3-0.2,0.6v0.9c0,0.2,0.1,0.4,0.2,0.5c0.1,0.1,0.3,0.2,0.5,0.2
		c0.1,0,0.3,0,0.3-0.1s0.2-0.2,0.2-0.3l0.6,0.2c-0.1,0.3-0.2,0.5-0.4,0.6s-0.5,0.2-0.8,0.2C186.9,116.3,186.7,116.2,186.5,116.1z"/>
	<path d="M189.3,111.2h0.7v0.7h-0.7V111.2z M189.3,112.6h0.7v3.6h-0.7V112.6z"/>
	<path d="M191.2,116.1c-0.2-0.1-0.3-0.2-0.3-0.4s-0.1-0.4-0.1-0.7v-1.2c0-0.3,0-0.5,0.1-0.7s0.2-0.3,0.3-0.4s0.3-0.2,0.5-0.2
		s0.4,0.1,0.5,0.2c0.2,0.1,0.3,0.3,0.4,0.5l-0.1,0.6c0-0.1,0-0.2-0.1-0.3s-0.1-0.2-0.2-0.2c-0.1-0.1-0.2-0.1-0.3-0.1
		c-0.2,0-0.3,0.1-0.4,0.2c-0.1,0.1-0.2,0.3-0.2,0.5v1.2c0,0.2,0.1,0.4,0.2,0.5c0.1,0.1,0.2,0.2,0.4,0.2c0.1,0,0.2,0,0.3-0.1
		s0.1-0.1,0.2-0.2c0-0.1,0.1-0.2,0.1-0.3v0.6c-0.1,0.2-0.2,0.3-0.3,0.5c-0.1,0.1-0.3,0.2-0.5,0.2
		C191.6,116.3,191.4,116.2,191.2,116.1z M191.2,117.5c-0.2-0.1-0.3-0.4-0.4-0.6l0.6-0.2c0,0.1,0.1,0.3,0.2,0.3
		c0.1,0.1,0.2,0.1,0.3,0.1c0.2,0,0.3-0.1,0.5-0.2c0.1-0.1,0.2-0.3,0.2-0.5v-3.8h0.7v3.8c0,0.3-0.1,0.5-0.2,0.7
		c-0.1,0.2-0.3,0.3-0.5,0.4s-0.4,0.2-0.7,0.2C191.6,117.7,191.4,117.6,191.2,117.5z"/>
	<path d="M194.2,111.2h0.7v5.1h-0.7V111.2z M196.1,113.9c0-0.2-0.1-0.4-0.2-0.5c-0.1-0.1-0.3-0.2-0.4-0.2c-0.2,0-0.3,0.1-0.4,0.2
		s-0.1,0.3-0.1,0.5l-0.1-0.6c0.1-0.2,0.2-0.4,0.4-0.5s0.3-0.2,0.5-0.2c0.3,0,0.6,0.1,0.8,0.3c0.2,0.2,0.3,0.5,0.3,0.9v2.4h-0.7v-2.3
		H196.1z"/>
	<path d="M197.4,112.6h1.6v0.6h-1.6V112.6z M198,116c-0.1-0.2-0.2-0.4-0.2-0.7v-3.7h0.7v3.7c0,0.1,0,0.2,0.1,0.2
		c0,0.1,0.1,0.1,0.2,0.1h0.3v0.7h-0.4C198.3,116.2,198.1,116.2,198,116z"/>
	<path d="M201.3,112.6h0.7v0.7h-0.7V112.6z M201.3,115.5h0.7v0.7h-0.7V115.5z"/>
	<path d="M204.5,112.6h0.7v3.6h-0.7V112.6z M206.2,113.3c-0.1,0-0.1,0-0.2,0c-0.2,0-0.4,0.1-0.6,0.2c-0.1,0.1-0.2,0.3-0.2,0.5
		l-0.1-0.7c0.1-0.2,0.3-0.4,0.4-0.5c0.2-0.1,0.4-0.2,0.6-0.2c0.1,0,0.2,0,0.2,0s0.1,0.1,0.2,0.1L206.2,113.3
		C206.3,113.3,206.3,113.3,206.2,113.3z"/>
	<path d="M207.7,116.1c-0.2-0.1-0.4-0.3-0.5-0.5s-0.2-0.5-0.2-0.8V114c0-0.3,0.1-0.6,0.2-0.8c0.1-0.2,0.2-0.4,0.4-0.5
		s0.4-0.2,0.7-0.2s0.5,0.1,0.7,0.2s0.3,0.3,0.4,0.5c0.1,0.2,0.1,0.5,0.1,0.8v0.6h-2.1V114h1.4v-0.2c0-0.2-0.1-0.4-0.2-0.6
		c-0.1-0.1-0.3-0.2-0.4-0.2c-0.2,0-0.4,0.1-0.5,0.2s-0.2,0.3-0.2,0.6v0.9c0,0.2,0.1,0.4,0.2,0.5c0.1,0.1,0.3,0.2,0.5,0.2
		c0.1,0,0.3,0,0.3-0.1s0.2-0.2,0.2-0.3l0.6,0.2c-0.1,0.3-0.2,0.5-0.4,0.6s-0.5,0.2-0.8,0.2C208.2,116.3,207.9,116.2,207.7,116.1z"/>
	<path d="M210.9,116.1c-0.2-0.1-0.3-0.2-0.3-0.4s-0.1-0.4-0.1-0.7v-1.2c0-0.3,0-0.5,0.1-0.7s0.2-0.3,0.3-0.4s0.3-0.2,0.5-0.2
		s0.4,0.1,0.5,0.2c0.2,0.1,0.3,0.3,0.4,0.5l-0.1,0.6c0-0.1,0-0.2-0.1-0.3s-0.1-0.2-0.2-0.2c-0.1-0.1-0.2-0.1-0.3-0.1
		c-0.2,0-0.3,0.1-0.4,0.2c-0.1,0.1-0.2,0.3-0.2,0.5v1.2c0,0.2,0.1,0.4,0.2,0.5c0.1,0.1,0.2,0.2,0.4,0.2c0.1,0,0.2,0,0.3-0.1
		s0.1-0.1,0.2-0.2c0-0.1,0.1-0.2,0.1-0.3v0.6c-0.1,0.2-0.2,0.3-0.3,0.5c-0.1,0.1-0.3,0.2-0.5,0.2C211.2,116.3,211,116.2,210.9,116.1
		z M210.8,117.5c-0.2-0.1-0.3-0.4-0.4-0.6l0.6-0.2c0,0.1,0.1,0.3,0.2,0.3c0.1,0.1,0.2,0.1,0.3,0.1c0.2,0,0.3-0.1,0.5-0.2
		c0.1-0.1,0.2-0.3,0.2-0.5v-3.8h0.7v3.8c0,0.3-0.1,0.5-0.2,0.7c-0.1,0.2-0.3,0.3-0.5,0.4s-0.4,0.2-0.7,0.2
		C211.3,117.7,211,117.6,210.8,117.5z"/>
	<path d="M214.5,115c0,0.2,0,0.3,0.1,0.4s0.2,0.2,0.4,0.2s0.3,0,0.4-0.1c0.1-0.1,0.1-0.2,0.1-0.4v0.6c-0.1,0.2-0.2,0.3-0.3,0.5
		s-0.3,0.2-0.5,0.2c-0.3,0-0.6-0.1-0.8-0.3c-0.2-0.2-0.3-0.5-0.3-0.9v-2.4h0.7v2.2H214.5z M215.7,112.6h0.7v3.6h-0.7V112.6z"/>
	<path d="M218,115.3c0,0.1,0,0.2,0.1,0.2c0,0.1,0.1,0.1,0.2,0.1h0.3v0.6h-0.3c-0.3,0-0.5-0.1-0.6-0.2c-0.1-0.2-0.2-0.4-0.2-0.7v-4.1
		h0.7v4.1H218z"/>
	<path d="M219.3,116c-0.2-0.2-0.3-0.4-0.3-0.8s0.1-0.7,0.3-0.9c0.2-0.2,0.5-0.3,0.9-0.3h0.7v0.6h-0.8c-0.2,0-0.3,0-0.4,0.1
		c-0.1,0.1-0.1,0.2-0.1,0.4c0,0.2,0,0.3,0.1,0.4s0.2,0.1,0.4,0.1s0.4,0,0.5-0.1s0.2-0.2,0.2-0.3l0.1,0.4c0,0.1-0.1,0.3-0.2,0.3
		s-0.2,0.2-0.3,0.2s-0.2,0.1-0.4,0.1C219.8,116.3,219.5,116.2,219.3,116z M220.9,113.8c0-0.2-0.1-0.3-0.2-0.4
		c-0.1-0.1-0.2-0.2-0.4-0.2c-0.1,0-0.3,0-0.4,0.1c-0.1,0.1-0.2,0.1-0.2,0.3l-0.6-0.2c0.1-0.2,0.2-0.4,0.4-0.6
		c0.2-0.1,0.5-0.2,0.8-0.2s0.5,0,0.7,0.1s0.3,0.2,0.4,0.4c0.1,0.2,0.1,0.4,0.1,0.6v2.5h-0.7L220.9,113.8L220.9,113.8z"/>
	<path d="M222.5,112.6h0.7v3.6h-0.7V112.6z M224.1,113.3c-0.1,0-0.1,0-0.2,0c-0.2,0-0.4,0.1-0.6,0.2c-0.1,0.1-0.2,0.3-0.2,0.5
		l-0.1-0.7c0.1-0.2,0.3-0.4,0.4-0.5c0.2-0.1,0.4-0.2,0.6-0.2c0.1,0,0.2,0,0.2,0s0.1,0.1,0.2,0.1L224.1,113.3
		C224.3,113.3,224.2,113.3,224.1,113.3z"/>
</g>
<g>
	<g>
		<path class="st4" d="M26.2,149.5H27l2.3,6.3h-1l-1.7-5.1l-1.7,5.1h-1L26.2,149.5z M25,153.6h3.3v0.8H25V153.6z"/>
	</g>
</g>
<line class="st17" x1="32" y1="148.1" x2="32" y2="157.7"/>
<rect x="137.9" y="145.2" class="st18" width="52.1" height="14.8"/>
<g>
	<g>
		<path class="st19" d="M153.3,148.3h0.3v1.6h-0.3V148.3z M153.4,149h0.7v0.3h-0.7V149z M154,148.3h0.3v1.6H154V148.3z"/>
		<path class="st19" d="M154.5,148.3h0.3v1.6h-0.3V148.3z M154.7,148.3h0.8v0.3h-0.8V148.3z M154.7,149h0.7v0.3h-0.7V149z
			 M154.7,149.6h0.8v0.3h-0.8V149.6z"/>
		<path class="st19" d="M156,149l0.3-0.6h0.3l-0.4,0.9l-0.3,0.7h-0.3L156,149z M156,149.3L156,149.3l-0.5-1h0.3l0.3,0.6l0.1,0.1
			l0.5,0.9h-0.3L156,149.3z"/>
		<path class="st19" d="M157.4,149.9c-0.1,0-0.1-0.1-0.2-0.1c0-0.1-0.1-0.1-0.1-0.2v-0.1c0-0.1,0-0.1,0.1-0.2c0-0.1,0.1-0.1,0.2-0.1
			c-0.1,0-0.1-0.1-0.1-0.1s-0.1-0.1-0.1-0.2v-0.1c0-0.1,0-0.1,0.1-0.2c0-0.1,0.1-0.1,0.1-0.1c0.1,0,0.1,0,0.2,0c0.1,0,0.2,0,0.2,0
			l0.1,0.1c0,0.1,0,0.1,0,0.2v0.1c0,0.1,0,0.1-0.1,0.2s-0.1,0.1-0.1,0.1c0.1,0,0.1,0.1,0.2,0.1c0,0.1,0.1,0.1,0.1,0.2v0.1
			c0,0.1,0,0.2-0.1,0.2c0,0.1-0.1,0.1-0.2,0.1S157.6,149.9,157.4,149.9C157.6,149.9,157.5,149.9,157.4,149.9z M157.8,149.6
			L157.8,149.6c0.1-0.1,0.1-0.1,0.1-0.1v-0.1v-0.1c0,0,0,0-0.1,0s-0.1,0-0.1,0h-0.1c0,0,0,0-0.1,0s0,0,0,0.1v0.1v0.1c0,0,0,0,0.1,0
			C157.6,149.7,157.6,149.7,157.8,149.6C157.7,149.7,157.7,149.7,157.8,149.6z M157.7,148.9C157.8,148.9,157.8,148.9,157.7,148.9
			c0.1-0.1,0.1-0.1,0.1-0.1v-0.1v-0.1l0,0c0,0,0,0-0.1,0h-0.1l0,0c0,0,0,0,0,0.1v0.1v0.1c0,0,0,0,0,0.1
			C157.6,149,157.6,149,157.7,148.9C157.7,149,157.7,149,157.7,148.9z"/>
		<path class="st19" d="M158.4,149.9c-0.1-0.1-0.1-0.1-0.1-0.3c0-0.1,0-0.2,0.1-0.3s0.2-0.1,0.3-0.1h0.2v0.2h-0.2h-0.1v0.1v0.1h0.1
			c0.1,0,0.1,0,0.1,0s0,0,0-0.1v0.1v0.1l-0.1,0.1h-0.1C158.5,149.9,158.4,149.9,158.4,149.9z M158.9,149.2
			C158.9,149.1,158.9,149.1,158.9,149.2c-0.1-0.1-0.1-0.1-0.1-0.1h-0.1c0,0-0.1,0-0.1,0.1l-0.2-0.1c0-0.1,0.1-0.1,0.1-0.2
			c0.1,0,0.2-0.1,0.3-0.1s0.2,0,0.2,0l0.1,0.1c0,0,0,0.1,0,0.2v0.8h-0.3v-0.7H158.9z"/>
		<path class="st19" d="M160.1,149.9c-0.1,0-0.1-0.1-0.1-0.2c0-0.1,0-0.2-0.1-0.3l0,0h0.3l0,0c0,0.1,0,0.1,0,0.1h0.1h0.1v-0.1v-0.3
			V149c0,0,0,0-0.1,0h-0.1c0,0,0,0,0,0.1H160v-0.9h0.8v0.3h-0.5v0.3h0.1h0.1c0.1,0,0.1,0,0.2,0l0.1,0.1c0,0.1,0,0.1,0,0.2v0.3
			c0,0.1,0,0.2,0,0.2c0,0.1-0.1,0.1-0.1,0.1c-0.1,0-0.1,0-0.2,0S160.2,149.9,160.1,149.9z"/>
		<path class="st19" d="M161.1,149.9l-0.1-0.1c0-0.1,0-0.1,0-0.2v-0.4c0-0.1,0-0.2,0-0.2c0-0.1,0.1-0.1,0.1-0.1s0.1,0,0.2,0
			c0.1,0,0.1,0,0.2,0.1c0,0,0.1,0.1,0.1,0.2v0.2v-0.1l0,0c0,0,0,0-0.1,0h-0.1v0.1v0.3c0,0.1,0,0.1,0,0.1h0.1h0.1l0,0c0,0,0,0,0-0.1
			v0.2c0,0.1-0.1,0.1-0.1,0.1s-0.1,0.1-0.2,0.1C161.2,149.9,161.2,149.9,161.1,149.9z M161.5,148.3h0.3v1.6h-0.3V148.3z"/>
		<path class="st19" d="M162.7,149.9c-0.1,0-0.1-0.1-0.1-0.1c0-0.1-0.1-0.2-0.1-0.3h0.3v0.1c0,0,0,0,0,0.1c0,0,0,0,0.1,0h0.1v-0.1
			v-0.1v-0.1h-0.1h-0.1V149h0.1h0.1v-0.1v-0.1v-0.1c0,0,0,0-0.1,0c0,0,0,0-0.1,0c0,0,0,0,0,0.1v0.1h-0.3c0-0.1,0-0.2,0.1-0.3
			c0-0.1,0.1-0.1,0.1-0.2c0.1,0,0.1,0,0.2,0c0.1,0,0.2,0,0.3,0.1s0.1,0.2,0.1,0.3v0.1c0,0.1,0,0.1,0,0.2l-0.1,0.1
			c0.1,0,0.1,0.1,0.2,0.1c0,0.1,0.1,0.1,0.1,0.2v0.1c0,0.1,0,0.2,0,0.2l-0.1,0.1c0,0-0.1,0-0.2,0
			C162.9,149.9,162.8,149.9,162.7,149.9z"/>
		<path class="st19" d="M163.7,148.3h0.3v1.6h-0.3V148.3z M164,149.9l-0.1-0.1v-0.2v0.1l0,0c0,0,0,0,0.1,0h0.1v-0.1v-0.3
			c0-0.1,0-0.1,0-0.1H164h-0.1l0,0c0,0,0,0,0,0.1v-0.2c0-0.1,0.1-0.1,0.1-0.2c0,0,0.1-0.1,0.2-0.1c0.1,0,0.1,0,0.2,0l0.1,0.1
			c0,0.1,0,0.1,0,0.2v0.4c0,0.1,0,0.2,0,0.2c0,0.1-0.1,0.1-0.1,0.1s-0.1,0-0.2,0C164.1,149.9,164.1,149.9,164,149.9z"/>
		<path class="st19" d="M153.3,152.3h0.3v1.6h-0.3V152.3z M153.4,152.9h0.4h0.1c0,0,0,0,0-0.1c0,0,0,0,0-0.1v-0.1v-0.1
			c0,0,0,0,0-0.1c0,0,0,0-0.1,0h-0.4v-0.3h0.4c0.1,0,0.2,0,0.2,0.1c0.1,0,0.1,0.1,0.1,0.1c0,0.1,0.1,0.1,0.1,0.2v0.1
			c0,0.1,0,0.2-0.1,0.2c0,0.1-0.1,0.1-0.1,0.1c-0.1,0-0.1,0.1-0.2,0.1L153.4,152.9L153.4,152.9z M153.7,153.2l0.3-0.1l0.3,0.8H154
			L153.7,153.2z"/>
		<path class="st19" d="M155.5,153v0.4c0,0.1,0,0.2-0.1,0.3c0,0.1-0.1,0.1-0.2,0.2c-0.1,0-0.2,0.1-0.3,0.1s-0.2,0-0.3-0.1
			c-0.1,0-0.1-0.1-0.2-0.2c0-0.1-0.1-0.2-0.1-0.3v-0.7c0-0.1,0-0.2,0.1-0.3s0.1-0.1,0.2-0.2c0.1,0,0.2-0.1,0.3-0.1s0.2,0,0.3,0.1
			c0.1,0,0.1,0.1,0.2,0.2c0,0.1,0.1,0.2,0.1,0.3h-0.3v-0.1c0,0,0-0.1-0.1-0.1s-0.1,0-0.1,0h-0.1c0,0-0.1,0-0.1,0.1v0.1v0.7v0.1
			c0,0,0,0,0.1,0.1h0.1h0.1c0,0,0.1,0,0.1-0.1s0-0.1,0-0.1v-0.1H155V153H155.5z"/>
		<path class="st19" d="M155.8,152.3h0.3v1.6h-0.3V152.3z M155.9,153.6h0.4c0.1,0,0.1,0,0.1,0v-0.1v-0.1v-0.1c0,0,0,0-0.1-0.1h-0.1
			h-0.4v-0.3h0.4h0.1v-0.1v-0.1v-0.1h-0.1h-0.4v-0.3h0.4c0.1,0,0.2,0,0.2,0l0.1,0.1c0,0.1,0,0.1,0,0.2v0.1c0,0.1,0,0.1,0,0.1
			l-0.1,0.1c0,0-0.1,0-0.1,0.1c0.1,0,0.1,0,0.2,0.1s0.1,0.1,0.1,0.1s0,0.1,0,0.2v0.1c0,0.1,0,0.2,0,0.2c0,0.1-0.1,0.1-0.1,0.1
			s-0.1,0-0.2,0h-0.4L155.9,153.6L155.9,153.6z"/>
		<path class="st19" d="M157.6,153.8c-0.1,0-0.1-0.1-0.1-0.1c0-0.1,0-0.1,0-0.2v-0.1c0-0.1,0-0.1,0-0.2c0-0.1,0-0.1,0.1-0.2l0,0l0,0
			l0.3-0.7h0.3l-0.3,0.8h-0.1c0,0,0-0.1,0.1-0.1h0.1c0.1,0,0.1,0,0.2,0c0.1,0,0.1,0.1,0.1,0.1c0,0.1,0,0.1,0,0.2v0.1
			c0,0.1,0,0.2,0,0.2l-0.1,0.1c-0.1,0-0.1,0.1-0.2,0.1C157.8,153.9,157.7,153.9,157.6,153.8z M158,153.6v-0.1v-0.1v-0.1h-0.1h-0.1
			v0.1v0.1v0.1h0.1H158z"/>
		<path class="st19" d="M158.9,153.9h-0.3v-1.3l-0.2,0.1v-0.3l0.2-0.1h0.3V153.9z"/>
		<path class="st19" d="M160.2,153.1L160.2,153.1c0,0.1,0,0.1,0,0.1h-0.1c-0.1,0-0.1,0-0.2,0s-0.1-0.1-0.1-0.1c0-0.1,0-0.1,0-0.2
			v-0.1c0-0.1,0-0.2,0-0.2c0-0.1,0.1-0.1,0.1-0.1c0.1,0,0.1-0.1,0.2-0.1c0.1,0,0.2,0,0.2,0.1c0.1,0,0.1,0.1,0.1,0.1s0,0.1,0,0.2v0.1
			c0,0.1,0,0.1,0,0.2c0,0.1,0,0.1-0.1,0.2l0,0l0,0L160,154h-0.3L160.2,153.1z M160.2,152.9v-0.1v-0.1v-0.1h-0.1H160v0.1v0.1v0.1
			C160,152.9,160.1,153,160.2,152.9C160.1,153,160.2,152.9,160.2,152.9z"/>
		<path class="st19" d="M160.7,153.4l0.4-1.1h0.3l-0.4,1.1h0.6v0.3h-1L160.7,153.4L160.7,153.4z M161.3,153h0.3v0.9h-0.3V153z"/>
		<path class="st19" d="M162.8,153.9h-0.3v-1.3l-0.2,0.1v-0.3l0.2-0.1h0.3V153.9z"/>
		<path class="st19" d="M163.2,153.8c-0.1,0-0.1-0.1-0.1-0.1c0-0.1-0.1-0.2-0.1-0.3h0.3v0.1c0,0,0,0,0,0.1c0,0,0,0,0.1,0h0.1v-0.1
			v-0.1v-0.1h-0.1h-0.1V153h0.1h0.1v-0.1v-0.1v-0.1c0,0,0,0-0.1,0c0,0,0,0-0.1,0c0,0,0,0,0,0.1v0.1H163c0-0.1,0-0.2,0.1-0.3
			c0-0.1,0.1-0.1,0.1-0.2c0.1,0,0.1,0,0.2,0c0.1,0,0.2,0,0.3,0.1s0.1,0.2,0.1,0.3v0.1c0,0.1,0,0.1,0,0.2l-0.1,0.1
			c0.1,0,0.1,0.1,0.2,0.1c0,0.1,0.1,0.1,0.1,0.2v0.1c0,0.1,0,0.2,0,0.2l-0.1,0.1c0,0-0.1,0-0.2,0
			C163.4,153.9,163.3,153.9,163.2,153.8z"/>
		<path class="st19" d="M164.3,153.8c-0.1,0-0.1-0.1-0.2-0.1c0-0.1-0.1-0.1-0.1-0.2v-0.1c0-0.1,0-0.1,0.1-0.2c0-0.1,0.1-0.1,0.2-0.1
			c-0.1,0-0.1-0.1-0.1-0.1s-0.1-0.1-0.1-0.2v-0.1c0-0.1,0-0.1,0.1-0.2c0-0.1,0.1-0.1,0.1-0.1c0.1,0,0.1,0,0.2,0c0.1,0,0.2,0,0.2,0
			l0.1,0.1c0,0.1,0,0.1,0,0.2v0.1c0,0.1,0,0.1-0.1,0.2s-0.1,0.1-0.1,0.1c0.1,0,0.1,0.1,0.2,0.1c0,0.1,0.1,0.1,0.1,0.2v0.1
			c0,0.1,0,0.2-0.1,0.2c0,0.1-0.1,0.1-0.2,0.1S164.5,153.8,164.3,153.8C164.5,153.9,164.4,153.9,164.3,153.8z M164.6,153.6
			C164.7,153.6,164.7,153.6,164.6,153.6c0.1-0.1,0.1-0.1,0.1-0.1v-0.1v-0.1c0,0,0,0-0.1,0s-0.1,0-0.1,0h-0.1c0,0,0,0-0.1,0
			s0,0,0,0.1v0.1v0.1c0,0,0,0,0.1,0S164.5,153.6,164.6,153.6L164.6,153.6z M164.6,152.9C164.6,152.9,164.7,152.9,164.6,152.9
			c0.1-0.1,0.1-0.1,0.1-0.1v-0.1v-0.1l0,0c0,0,0,0-0.1,0h-0.1l0,0c0,0,0,0,0,0.1v0.1v0.1c0,0,0,0,0,0.1
			C164.5,152.9,164.5,152.9,164.6,152.9L164.6,152.9z"/>
		<path class="st19" d="M153.5,157.8c-0.1,0-0.1-0.1-0.2-0.2s-0.1-0.2-0.1-0.3v-0.6c0-0.1,0-0.2,0.1-0.3s0.1-0.1,0.2-0.2
			s0.2-0.1,0.3-0.1s0.2,0,0.3,0.1c0.1,0,0.1,0.1,0.2,0.2c0,0.1,0.1,0.2,0.1,0.3h-0.3c0-0.1,0-0.1,0-0.1s0-0.1-0.1-0.1h-0.1h-0.1
			c0,0,0,0-0.1,0.1s0,0.1,0,0.1v0.6v0.1c0,0,0,0.1,0.1,0.1h0.1h0.1c0,0,0,0,0.1-0.1s0-0.1,0-0.1h0.3c0,0.1,0,0.2-0.1,0.3
			c0,0.1-0.1,0.1-0.2,0.2s-0.2,0.1-0.3,0.1C153.7,157.9,153.6,157.8,153.5,157.8z"/>
		<path class="st19" d="M155.4,156.2h0.3v1.6h-0.3v-1.2v0.1l-0.3,0.9H155l-0.3-0.9v-0.1v1.2h-0.3v-1.6h0.3l0.3,1L155.4,156.2z"/>
		<path class="st19" d="M156.5,157.2v0.6h-0.3v-0.6l-0.4-1h0.3l0.2,0.7l0.2-0.7h0.3L156.5,157.2z"/>
		<path class="st19" d="M156.9,156.2h0.3v1.6h-0.3V156.2z M157.1,157.2l0.5-0.9h0.3l-0.8,1.4V157.2z M157.3,157l0.2-0.2l0.5,1h-0.3
			L157.3,157z"/>
		<path class="st19" d="M158.8,157.8c-0.1,0-0.1-0.1-0.1-0.1c0-0.1-0.1-0.2-0.1-0.3h0.3v0.1c0,0,0,0,0,0.1c0,0,0,0,0.1,0h0.1v-0.1
			v-0.1v-0.1H159h-0.1V157h0.1h0.1v-0.1v-0.1v-0.1c0,0,0,0-0.1,0c0,0,0,0-0.1,0c0,0,0,0,0,0.1v0.1h-0.3c0-0.1,0-0.2,0.1-0.3
			c0-0.1,0.1-0.1,0.1-0.2c0.1,0,0.1,0,0.2,0c0.1,0,0.2,0,0.3,0.1s0.1,0.2,0.1,0.3v0.1c0,0.1,0,0.1,0,0.2l-0.1,0.1
			c0.1,0,0.1,0.1,0.2,0.1c0,0.1,0.1,0.1,0.1,0.2v0.1c0,0.1,0,0.2,0,0.2l-0.1,0.1c0,0-0.1,0-0.2,0
			C158.9,157.9,158.9,157.8,158.8,157.8z"/>
		<path class="st19" d="M159.7,157.3l0.4-1.1h0.3l-0.4,1.1h0.6v0.3h-1L159.7,157.3L159.7,157.3z M160.3,156.9h0.3v0.9h-0.3V156.9z"
			/>
		<path class="st19" d="M162.1,156.4l-0.3,1.4h-0.3l0.3-1.3h-0.2v0.2h-0.3v-0.5h0.8V156.4z"/>
		<path class="st19" d="M162.5,157.8c-0.1,0-0.1-0.1-0.1-0.1c0-0.1-0.1-0.2-0.1-0.3h0.3v0.1c0,0,0,0,0,0.1c0,0,0,0,0.1,0h0.1v-0.1
			v-0.1v-0.1h-0.1h-0.1V157h0.1h0.1v-0.1v-0.1v-0.1c0,0,0,0-0.1,0c0,0,0,0-0.1,0c0,0,0,0,0,0.1v0.1h-0.3c0-0.1,0-0.2,0.1-0.3
			c0-0.1,0.1-0.1,0.1-0.2c0.1,0,0.1,0,0.2,0c0.1,0,0.2,0,0.3,0.1s0.1,0.2,0.1,0.3v0.1c0,0.1,0,0.1,0,0.2l-0.1,0.1
			c0.1,0,0.1,0.1,0.2,0.1c0,0.1,0.1,0.1,0.1,0.2v0.1c0,0.1,0,0.2,0,0.2l-0.1,0.1c0,0-0.1,0-0.2,0
			C162.7,157.9,162.6,157.8,162.5,157.8z"/>
		<path class="st19" d="M164.1,157.8c-0.1,0-0.1-0.1-0.1-0.2c0-0.1,0-0.2-0.1-0.3l0,0h0.3l0,0c0,0.1,0,0.1,0,0.1h0.1h0.1v-0.1V157
			v-0.1c0,0,0,0-0.1,0h-0.1c0,0,0,0,0,0.1H164v-0.9h0.8v0.3h-0.5v0.3h0.1h0.1c0.1,0,0.1,0,0.2,0l0.1,0.1c0,0.1,0,0.1,0,0.2v0.3
			c0,0.1,0,0.2,0,0.2c0,0.1-0.1,0.1-0.1,0.1c-0.1,0-0.1,0-0.2,0S164.2,157.8,164.1,157.8z"/>
		<path class="st19" d="M165.8,156.4l-0.3,1.4h-0.3l0.3-1.3h-0.2v0.2H165v-0.5h0.8V156.4z"/>
		<path class="st19" d="M166.7,157.8c-0.1,0-0.1-0.1-0.1-0.1c0-0.1-0.1-0.2-0.1-0.3h0.3v0.1c0,0,0,0,0,0.1c0,0,0,0,0.1,0h0.1v-0.1
			v-0.1v-0.1h-0.1h-0.1V157h0.1h0.1v-0.1v-0.1v-0.1c0,0,0,0-0.1,0c0,0,0,0-0.1,0c0,0,0,0,0,0.1v0.1h-0.3c0-0.1,0-0.2,0.1-0.3
			c0-0.1,0.1-0.1,0.1-0.2c0.1,0,0.1,0,0.2,0c0.1,0,0.2,0,0.3,0.1s0.1,0.2,0.1,0.3v0.1c0,0.1,0,0.1,0,0.2l-0.1,0.1
			c0.1,0,0.1,0.1,0.2,0.1c0,0.1,0.1,0.1,0.1,0.2v0.1c0,0.1,0,0.2,0,0.2l-0.1,0.1c0,0-0.1,0-0.2,0
			C166.8,157.9,166.8,157.8,166.7,157.8z"/>
		<path class="st19" d="M167.6,157.6l0.4-0.6c0-0.1,0.1-0.1,0.1-0.2s0-0.1,0-0.1l0,0v-0.1H168h-0.1v0.1l0,0h-0.3l0,0
			c0-0.1,0-0.2,0.1-0.2s0.1-0.1,0.1-0.2s0.1-0.1,0.2-0.1c0.1,0,0.2,0,0.2,0c0.1,0,0.1,0.1,0.1,0.1s0,0.1,0,0.2l0,0
			c0,0.1,0,0.1,0,0.2c0,0.1-0.1,0.2-0.1,0.2l-0.3,0.5h0.5v0.3L167.6,157.6L167.6,157.6L167.6,157.6z"/>
	</g>
</g>
<g>
	<g>
		<g>
			<path class="st5" d="M142.4,149.5h0.9v6.3h-0.9V149.5z M142.9,155h1.7c0.4,0,0.8-0.1,1-0.3s0.3-0.4,0.3-0.7l0,0
				c0-0.2,0-0.4-0.1-0.5c-0.1-0.2-0.2-0.3-0.3-0.4s-0.4-0.1-0.6-0.1H143v-0.8h1.9c0.3,0,0.6-0.1,0.7-0.2c0.2-0.2,0.2-0.4,0.2-0.7
				s-0.1-0.5-0.3-0.7s-0.5-0.2-0.8-0.2h-1.8v-0.8h2c0.4,0,0.7,0.1,1,0.2c0.3,0.1,0.5,0.3,0.6,0.6s0.2,0.6,0.2,0.9
				c0,0.2,0,0.4-0.1,0.6s-0.2,0.4-0.4,0.5s-0.4,0.2-0.6,0.3c0.3,0,0.5,0.1,0.7,0.3c0.2,0.1,0.3,0.3,0.4,0.5s0.1,0.4,0.1,0.7l0,0
				c0,0.3-0.1,0.6-0.2,0.9c-0.1,0.3-0.4,0.5-0.6,0.6c-0.3,0.1-0.6,0.2-1,0.2h-2L142.9,155L142.9,155z"/>
		</g>
	</g>
</g>
<line class="st20" x1="149.8" y1="148.1" x2="149.8" y2="157.7"/>
<rect x="189.2" y="145.2" class="st21" width="40.8" height="14.8"/>
<g>
	<g>
		<path class="st2" d="M206.2,147.9h0.3v1.6h-0.3V147.9z M206.4,148.6h0.7v0.3h-0.7V148.6z M206.9,147.9h0.3v1.6h-0.3V147.9z"/>
		<path class="st2" d="M207.5,147.9h0.3v1.6h-0.3V147.9z M207.6,147.9h0.8v0.3h-0.8V147.9z M207.6,148.6h0.7v0.3h-0.7V148.6z
			 M207.6,149.2h0.8v0.3h-0.8V149.2z"/>
		<path class="st2" d="M208.9,148.5l0.3-0.6h0.3l-0.4,0.9l-0.3,0.7h-0.3L208.9,148.5z M208.9,148.8L208.9,148.8l-0.5-1h0.3l0.3,0.6
			l0.1,0.1l0.5,0.9h-0.3L208.9,148.8z"/>
		<path class="st2" d="M210.6,149.5h-0.3v-1.3l-0.2,0.1V148l0.2-0.1h0.3V149.5z"/>
		<path class="st2" d="M211.1,149.5c-0.1,0-0.1-0.1-0.2-0.1c0-0.1-0.1-0.1-0.1-0.2V149c0-0.1,0-0.1,0.1-0.2c0-0.1,0.1-0.1,0.2-0.1
			c-0.1,0-0.1-0.1-0.1-0.1s-0.1-0.1-0.1-0.2v-0.1c0-0.1,0-0.1,0.1-0.2c0-0.1,0.1-0.1,0.1-0.1c0.1,0,0.1,0,0.2,0c0.1,0,0.2,0,0.2,0
			l0.1,0.1c0,0.1,0,0.1,0,0.2v0.1c0,0.1,0,0.1-0.1,0.2s-0.1,0.1-0.1,0.1c0.1,0,0.1,0.1,0.2,0.1c0,0.1,0.1,0.1,0.1,0.2v0.1
			c0,0.1,0,0.2-0.1,0.2c0,0.1-0.1,0.1-0.2,0.1S211.3,149.4,211.1,149.5C211.2,149.5,211.1,149.5,211.1,149.5z M211.4,149.2
			L211.4,149.2c0.1-0.1,0.1-0.1,0.1-0.1V149v-0.1c0,0,0,0-0.1,0s-0.1,0-0.1,0h-0.1c0,0,0,0-0.1,0s0,0,0,0.1v0.1v0.1c0,0,0,0,0.1,0
			C211.2,149.2,211.3,149.2,211.4,149.2C211.3,149.2,211.3,149.2,211.4,149.2z M211.4,148.5L211.4,148.5c0.1-0.1,0.1-0.1,0.1-0.1
			v-0.1v-0.1l0,0c0,0,0,0-0.1,0h-0.1l0,0c0,0,0,0,0,0.1v0.1v0.1c0,0,0,0,0,0.1C211.2,148.5,211.3,148.5,211.4,148.5
			C211.3,148.5,211.3,148.5,211.4,148.5z"/>
		<path class="st2" d="M212.5,149.2l0.4-0.6c0-0.1,0.1-0.1,0.1-0.2s0-0.1,0-0.1l0,0v-0.1h-0.1h-0.1v0.1l0,0h-0.3l0,0
			c0-0.1,0-0.2,0.1-0.2s0.1-0.1,0.1-0.2s0.1-0.1,0.2-0.1c0.1,0,0.2,0,0.2,0c0.1,0,0.1,0.1,0.1,0.1s0,0.1,0,0.2l0,0
			c0,0.1,0,0.1,0,0.2c0,0.1-0.1,0.2-0.1,0.2l-0.3,0.5h0.5v0.3L212.5,149.2L212.5,149.2L212.5,149.2z"/>
		<path class="st2" d="M214,148.7L214,148.7c0,0.1,0,0.1,0,0.1h-0.1c-0.1,0-0.1,0-0.2,0s-0.1-0.1-0.1-0.1c0-0.1,0-0.1,0-0.2v-0.1
			c0-0.1,0-0.2,0-0.2c0-0.1,0.1-0.1,0.1-0.1c0.1,0,0.1-0.1,0.2-0.1c0.1,0,0.2,0,0.2,0.1c0.1,0,0.1,0.1,0.1,0.1s0,0.1,0,0.2v0.1
			c0,0.1,0,0.1,0,0.2c0,0.1,0,0.1-0.1,0.2l0,0l0,0l-0.3,0.7h-0.3L214,148.7z M214,148.5v-0.1v-0.1v-0.1h-0.1h-0.1v0.1v0.1v0.1
			C213.8,148.6,213.9,148.6,214,148.5C214,148.6,214,148.6,214,148.5z"/>
		<path class="st2" d="M215.1,149l0.4-1.1h0.3l-0.4,1.1h0.6v0.3h-1L215.1,149L215.1,149z M215.6,148.6h0.3v0.9h-0.3V148.6z"/>
		<path class="st2" d="M216.2,149.2l0.4-0.6c0-0.1,0.1-0.1,0.1-0.2s0-0.1,0-0.1l0,0v-0.1h-0.1h-0.1v0.1l0,0h-0.3l0,0
			c0-0.1,0-0.2,0.1-0.2s0.1-0.1,0.1-0.2s0.1-0.1,0.2-0.1c0.1,0,0.2,0,0.2,0c0.1,0,0.1,0.1,0.1,0.1s0,0.1,0,0.2l0,0
			c0,0.1,0,0.1,0,0.2c0,0.1-0.1,0.2-0.1,0.2l-0.3,0.5h0.5v0.3L216.2,149.2L216.2,149.2L216.2,149.2z"/>
		<path class="st2" d="M206.2,151.8h0.3v1.6h-0.3V151.8z M206.4,152.5h0.4h0.1c0,0,0,0,0-0.1c0,0,0,0,0-0.1v-0.1v-0.1c0,0,0,0,0-0.1
			c0,0,0,0-0.1,0h-0.4v-0.3h0.4c0.1,0,0.2,0,0.2,0.1c0.1,0,0.1,0.1,0.1,0.1c0,0.1,0.1,0.1,0.1,0.2v0.1c0,0.1,0,0.2-0.1,0.2
			c0,0.1-0.1,0.1-0.1,0.1c-0.1,0-0.1,0.1-0.2,0.1L206.4,152.5L206.4,152.5z M206.6,152.7l0.3-0.1l0.3,0.8h-0.3L206.6,152.7z"/>
		<path class="st2" d="M208.5,152.6v0.4c0,0.1,0,0.2-0.1,0.3c0,0.1-0.1,0.1-0.2,0.2c-0.1,0-0.2,0.1-0.3,0.1s-0.2,0-0.3-0.1
			c-0.1,0-0.1-0.1-0.2-0.2c0-0.1-0.1-0.2-0.1-0.3v-0.7c0-0.1,0-0.2,0.1-0.3s0.1-0.1,0.2-0.2c0.1,0,0.2-0.1,0.3-0.1s0.2,0,0.3,0.1
			c0.1,0,0.1,0.1,0.2,0.2c0,0.1,0.1,0.2,0.1,0.3h-0.3v-0.1c0,0,0-0.1-0.1-0.1s-0.1,0-0.1,0h-0.1c0,0-0.1,0-0.1,0.1v0.1v0.7v0.1
			c0,0,0,0,0.1,0.1h0.1h0.1c0,0,0.1,0,0.1-0.1s0-0.1,0-0.1v-0.1H208v-0.3L208.5,152.6L208.5,152.6z"/>
		<path class="st2" d="M208.7,151.8h0.3v1.6h-0.3V151.8z M208.9,153.2h0.4c0.1,0,0.1,0,0.1,0v-0.1V153v-0.1c0,0,0,0-0.1-0.1h-0.1
			h-0.4v-0.3h0.4h0.1v-0.1v-0.1v-0.1h-0.1h-0.4v-0.3h0.4c0.1,0,0.2,0,0.2,0l0.1,0.1c0,0.1,0,0.1,0,0.2v0.1c0,0.1,0,0.1,0,0.1
			l-0.1,0.1c0,0-0.1,0-0.1,0.1c0.1,0,0.1,0,0.2,0.1s0.1,0.1,0.1,0.1s0,0.1,0,0.2v0.1c0,0.1,0,0.2,0,0.2c0,0.1-0.1,0.1-0.1,0.1
			s-0.1,0-0.2,0h-0.4L208.9,153.2L208.9,153.2z"/>
		<path class="st2" d="M210.4,153.2l0.4-0.6c0-0.1,0.1-0.1,0.1-0.2s0-0.1,0-0.1l0,0v-0.1h-0.1h-0.1v0.1l0,0h-0.3l0,0
			c0-0.1,0-0.2,0.1-0.2s0.1-0.1,0.1-0.2s0.1-0.1,0.2-0.1c0.1,0,0.2,0,0.2,0c0.1,0,0.1,0.1,0.1,0.1s0,0.1,0,0.2l0,0
			c0,0.1,0,0.1,0,0.2c0,0.1-0.1,0.2-0.1,0.2l-0.3,0.5h0.5v0.3L210.4,153.2L210.4,153.2L210.4,153.2z"/>
		<path class="st2" d="M211.7,153.4c-0.1,0-0.1-0.1-0.1-0.2c0-0.1,0-0.2-0.1-0.3l0,0h0.3l0,0c0,0.1,0,0.1,0,0.1h0.1h0.1v-0.1v-0.3
			v-0.1c0,0,0,0-0.1,0h-0.1c0,0,0,0,0,0.1h-0.3v-0.9h0.8v0.3h-0.5v0.3h0.1h0.1c0.1,0,0.1,0,0.2,0l0.1,0.1c0,0.1,0,0.1,0,0.2v0.3
			c0,0.1,0,0.2,0,0.2c0,0.1-0.1,0.1-0.1,0.1c-0.1,0-0.1,0-0.2,0S211.7,153.4,211.7,153.4z"/>
		<path class="st2" d="M213,152.9l0.4-1.1h0.3l-0.4,1.1h0.6v0.3h-1L213,152.9L213,152.9z M213.6,152.5h0.3v0.9h-0.3V152.5z"/>
		<path class="st2" d="M214.2,153.2l0.4-0.6c0-0.1,0.1-0.1,0.1-0.2s0-0.1,0-0.1l0,0v-0.1h-0.1h-0.1v0.1l0,0h-0.3l0,0
			c0-0.1,0-0.2,0.1-0.2s0.1-0.1,0.1-0.2s0.1-0.1,0.2-0.1c0.1,0,0.2,0,0.2,0c0.1,0,0.1,0.1,0.1,0.1s0,0.1,0,0.2l0,0
			c0,0.1,0,0.1,0,0.2c0,0.1-0.1,0.2-0.1,0.2l-0.3,0.5h0.5v0.3L214.2,153.2L214.2,153.2L214.2,153.2z"/>
		<path class="st2" d="M215.9,153.4c-0.1,0-0.1-0.1-0.1-0.1c0-0.1,0-0.1,0-0.2V153c0-0.1,0-0.1,0-0.2c0-0.1,0-0.1,0.1-0.2l0,0l0,0
			l0.3-0.7h0.3l-0.3,0.8h-0.1c0,0,0-0.1,0.1-0.1h0.1c0.1,0,0.1,0,0.2,0c0.1,0,0.1,0.1,0.1,0.1c0,0.1,0,0.1,0,0.2v0.1
			c0,0.1,0,0.2,0,0.2l-0.1,0.1c-0.1,0-0.1,0.1-0.2,0.1C216.1,153.5,216,153.4,215.9,153.4z M216.3,153.1V153v-0.1v-0.1h-0.1h-0.1
			v0.1v0.1v0.1h0.1C216.2,153.2,216.2,153.2,216.3,153.1z"/>
		<path class="st2" d="M217,153.4c-0.1,0-0.1-0.1-0.2-0.1c0-0.1-0.1-0.1-0.1-0.2V153c0-0.1,0-0.1,0.1-0.2c0-0.1,0.1-0.1,0.2-0.1
			c-0.1,0-0.1-0.1-0.1-0.1s-0.1-0.1-0.1-0.2v-0.1c0-0.1,0-0.1,0.1-0.2c0-0.1,0.1-0.1,0.1-0.1c0.1,0,0.1,0,0.2,0c0.1,0,0.2,0,0.2,0
			l0.1,0.1c0,0.1,0,0.1,0,0.2v0.1c0,0.1,0,0.1-0.1,0.2s-0.1,0.1-0.1,0.1c0.1,0,0.1,0.1,0.2,0.1c0,0.1,0.1,0.1,0.1,0.2v0.1
			c0,0.1,0,0.2-0.1,0.2c0,0.1-0.1,0.1-0.2,0.1S217.2,153.4,217,153.4C217.1,153.5,217,153.4,217,153.4z M217.3,153.2
			C217.3,153.2,217.3,153.1,217.3,153.2c0.1-0.1,0.1-0.1,0.1-0.1V153v-0.1c0,0,0,0-0.1,0s-0.1,0-0.1,0h-0.1c0,0,0,0-0.1,0s0,0,0,0.1
			v0.1v0.1c0,0,0,0,0.1,0S217.2,153.2,217.3,153.2C217.2,153.2,217.3,153.2,217.3,153.2z M217.3,152.5
			C217.3,152.4,217.3,152.4,217.3,152.5c0.1-0.1,0.1-0.1,0.1-0.1v-0.1v-0.1l0,0c0,0,0,0-0.1,0h-0.1l0,0c0,0,0,0,0,0.1v0.1v0.1
			c0,0,0,0,0,0.1C217.2,152.5,217.2,152.5,217.3,152.5C217.2,152.5,217.3,152.5,217.3,152.5z"/>
		<path class="st2" d="M206.4,157.4c-0.1,0-0.1-0.1-0.2-0.2s-0.1-0.2-0.1-0.3v-0.6c0-0.1,0-0.2,0.1-0.3s0.1-0.1,0.2-0.2
			s0.2-0.1,0.3-0.1s0.2,0,0.3,0.1c0.1,0,0.1,0.1,0.2,0.2c0,0.1,0.1,0.2,0.1,0.3H207c0-0.1,0-0.1,0-0.1s0-0.1-0.1-0.1h-0.1h-0.1
			c0,0,0,0-0.1,0.1s0,0.1,0,0.1v0.6v0.1c0,0,0,0.1,0.1,0.1h0.1h0.1c0,0,0,0,0.1-0.1s0-0.1,0-0.1h0.3c0,0.1,0,0.2-0.1,0.3
			c0,0.1-0.1,0.1-0.2,0.2s-0.2,0.1-0.3,0.1C206.6,157.4,206.5,157.4,206.4,157.4z"/>
		<path class="st2" d="M208.3,155.8h0.3v1.6h-0.3v-1.2v0.1l-0.3,0.9h-0.2l-0.3-0.9v-0.1v1.2h-0.3v-1.6h0.3l0.3,1L208.3,155.8z"/>
		<path class="st2" d="M209.4,156.8v0.6h-0.3v-0.6l-0.4-1h0.3l0.2,0.7l0.2-0.7h0.3L209.4,156.8z"/>
		<path class="st2" d="M209.9,155.8h0.3v1.6h-0.3V155.8z M210.1,156.7l0.5-0.9h0.3l-0.8,1.4V156.7z M210.3,156.6l0.2-0.2l0.5,1h-0.3
			L210.3,156.6z"/>
		<path class="st2" d="M212.4,156l-0.3,1.4h-0.3l0.3-1.3h-0.2v0.2h-0.3v-0.5h0.8V156z"/>
		<path class="st2" d="M212.7,157.3c-0.1-0.1-0.1-0.2-0.1-0.3v-0.8c0-0.1,0-0.2,0.1-0.3s0.2-0.1,0.3-0.1s0.2,0,0.3,0.1
			s0.1,0.2,0.1,0.3v0.8c0,0.1,0,0.2-0.1,0.3s-0.2,0.1-0.3,0.1C212.9,157.4,212.8,157.4,212.7,157.3z M213.1,157.1V157v-0.7
			c0-0.1,0-0.1,0-0.1H213h-0.1v0.1v0.7c0,0.1,0,0.1,0,0.1h0.1H213.1z"/>
		<path class="st2" d="M214.4,157.4c-0.1,0-0.1-0.1-0.2-0.1c0-0.1-0.1-0.1-0.1-0.2V157c0-0.1,0-0.1,0.1-0.2c0-0.1,0.1-0.1,0.2-0.1
			c-0.1,0-0.1-0.1-0.1-0.1s-0.1-0.1-0.1-0.2v-0.1c0-0.1,0-0.1,0.1-0.2c0-0.1,0.1-0.1,0.1-0.1c0.1,0,0.1,0,0.2,0c0.1,0,0.2,0,0.2,0
			l0.1,0.1c0,0.1,0,0.1,0,0.2v0.1c0,0.1,0,0.1-0.1,0.2s-0.1,0.1-0.1,0.1c0.1,0,0.1,0.1,0.2,0.1c0,0.1,0.1,0.1,0.1,0.2v0.1
			c0,0.1,0,0.2-0.1,0.2c0,0.1-0.1,0.1-0.2,0.1S214.6,157.4,214.4,157.4C214.6,157.4,214.5,157.4,214.4,157.4z M214.7,157.1
			C214.8,157.1,214.8,157.1,214.7,157.1c0.1-0.1,0.1-0.1,0.1-0.1v-0.1v-0.1c0,0,0,0-0.1,0s-0.1,0-0.1,0h-0.1c0,0,0,0-0.1,0
			s0,0,0,0.1v0.1v0.1c0,0,0,0,0.1,0C214.6,157.1,214.6,157.1,214.7,157.1L214.7,157.1z M214.7,156.4
			C214.7,156.4,214.8,156.4,214.7,156.4c0.1-0.1,0.1-0.1,0.1-0.1v-0.1v-0.1l0,0c0,0,0,0-0.1,0h-0.1l0,0c0,0,0,0,0,0.1v0.1v0.1
			c0,0,0,0,0,0.1C214.6,156.4,214.6,156.4,214.7,156.4L214.7,156.4z"/>
		<path class="st2" d="M215.4,157.3c-0.1-0.1-0.1-0.2-0.1-0.3v-0.8c0-0.1,0-0.2,0.1-0.3s0.2-0.1,0.3-0.1s0.2,0,0.3,0.1
			s0.1,0.2,0.1,0.3v0.8c0,0.1,0,0.2-0.1,0.3s-0.2,0.1-0.3,0.1C215.6,157.4,215.5,157.4,215.4,157.3z M215.8,157.1V157v-0.7
			c0-0.1,0-0.1,0-0.1h-0.1h-0.1v0.1v0.7c0,0.1,0,0.1,0,0.1h0.1H215.8z"/>
		<path class="st2" d="M217.7,156l-0.3,1.4h-0.3l0.3-1.3h-0.2v0.2h-0.3v-0.5h0.8V156z"/>
		<path class="st2" d="M218.1,157.3c-0.1-0.1-0.1-0.2-0.1-0.3v-0.8c0-0.1,0-0.2,0.1-0.3s0.2-0.1,0.3-0.1s0.2,0,0.3,0.1
			s0.1,0.2,0.1,0.3v0.8c0,0.1,0,0.2-0.1,0.3s-0.2,0.1-0.3,0.1C218.2,157.4,218.1,157.4,218.1,157.3z M218.5,157.1V157v-0.7
			c0-0.1,0-0.1,0-0.1h-0.1h-0.1v0.1v0.7c0,0.1,0,0.1,0,0.1h0.1C218.4,157.1,218.4,157.1,218.5,157.1z"/>
		<path class="st2" d="M219.8,157.4c-0.1,0-0.1-0.1-0.1-0.2c0-0.1,0-0.2-0.1-0.3l0,0h0.3l0,0c0,0.1,0,0.1,0,0.1h0.1h0.1v-0.1v-0.3
			v-0.1c0,0,0,0-0.1,0h-0.1c0,0,0,0,0,0.1h-0.3v-0.9h0.8v0.3h-0.5v0.3h0.1h0.1c0.1,0,0.1,0,0.2,0l0.1,0.1c0,0.1,0,0.1,0,0.2v0.3
			c0,0.1,0,0.2,0,0.2c0,0.1-0.1,0.1-0.1,0.1c-0.1,0-0.1,0-0.2,0S219.8,157.4,219.8,157.4z"/>
		<path class="st2" d="M220.7,157.3c-0.1-0.1-0.1-0.2-0.1-0.3v-0.8c0-0.1,0-0.2,0.1-0.3s0.2-0.1,0.3-0.1s0.2,0,0.3,0.1
			s0.1,0.2,0.1,0.3v0.8c0,0.1,0,0.2-0.1,0.3s-0.2,0.1-0.3,0.1C220.9,157.4,220.8,157.4,220.7,157.3z M221.2,157.1V157v-0.7
			c0-0.1,0-0.1,0-0.1h-0.1H221v0.1v0.7c0,0.1,0,0.1,0,0.1h0.1C221.1,157.1,221.1,157.1,221.2,157.1z"/>
	</g>
</g>
<g>
	<g>
		<g>
			<path class="st4" d="M194.8,155.6c-0.3-0.2-0.6-0.5-0.8-0.8c-0.2-0.4-0.3-0.8-0.3-1.2v-1.7c0-0.5,0.1-0.9,0.3-1.2
				c0.2-0.4,0.4-0.6,0.8-0.8c0.3-0.2,0.7-0.3,1.1-0.3c0.4,0,0.7,0.1,1,0.2c0.3,0.2,0.6,0.4,0.8,0.7s0.3,0.6,0.4,1h-0.9
				c-0.1-0.2-0.1-0.4-0.3-0.5s-0.3-0.3-0.5-0.4s-0.4-0.1-0.5-0.1c-0.3,0-0.5,0.1-0.7,0.2c-0.2,0.1-0.3,0.3-0.4,0.5s-0.2,0.5-0.2,0.8
				v1.7c0,0.3,0.1,0.6,0.2,0.8s0.3,0.4,0.4,0.5c0.2,0.1,0.4,0.2,0.7,0.2c0.2,0,0.4,0,0.5-0.1c0.2-0.1,0.3-0.2,0.4-0.3
				c0.1-0.2,0.2-0.3,0.3-0.5h0.9c-0.1,0.4-0.2,0.7-0.4,1s-0.5,0.5-0.8,0.7s-0.6,0.2-1,0.2C195.5,155.9,195.1,155.8,194.8,155.6z"/>
		</g>
	</g>
</g>
<line class="st17" x1="201.5" y1="148.1" x2="201.5" y2="157.7"/>
<g>
	<path d="M20.5,176.4c-0.2-0.2-0.3-0.5-0.3-0.9V173c0-0.4,0.1-0.7,0.3-0.9s0.5-0.3,0.9-0.3s0.7,0.1,0.9,0.3c0.2,0.2,0.3,0.5,0.3,0.9
		v2.5c0,0.4-0.1,0.7-0.3,0.9c-0.2,0.2-0.5,0.3-0.9,0.3S20.7,176.6,20.5,176.4z M21.9,175.9c0.1-0.1,0.1-0.3,0.1-0.5v-2.5
		c0-0.2,0-0.4-0.1-0.5s-0.2-0.2-0.4-0.2c-0.2,0-0.3,0.1-0.4,0.2s-0.1,0.3-0.1,0.5v2.5c0,0.2,0,0.4,0.1,0.5s0.2,0.2,0.4,0.2
		C21.6,176.1,21.8,176,21.9,175.9z"/>
	<path d="M31.1,173.1h0.7v0.7h-0.7V173.1z M31.1,175.9h0.7v0.7h-0.7V175.9z"/>
	<path d="M41.3,176.6h-0.7v-4.2l-0.7,0.4v-0.7l0.7-0.5h0.7V176.6z"/>
	<path d="M49.8,173.1h0.7v0.7h-0.7V173.1z M49.8,175.9h0.7v0.7h-0.7V175.9z"/>
	<path d="M58.8,176.1l1.4-2.1c0.1-0.2,0.2-0.4,0.3-0.6c0.1-0.2,0.1-0.3,0.1-0.5l0,0c0-0.2,0-0.3-0.1-0.4c-0.1-0.1-0.2-0.2-0.4-0.2
		s-0.3,0.1-0.4,0.2s-0.2,0.3-0.2,0.5l0,0h-0.7l0,0c0-0.3,0.1-0.5,0.2-0.7c0.1-0.2,0.2-0.4,0.4-0.5s0.4-0.2,0.7-0.2s0.5,0,0.7,0.1
		s0.3,0.2,0.4,0.4c0.1,0.2,0.1,0.4,0.1,0.7l0,0c0,0.2,0,0.4-0.1,0.6s-0.2,0.4-0.3,0.7l-1.2,1.8h1.6v0.6h-2.5V176.1z"/>
	<path d="M69.5,173.1h0.7v0.7h-0.7V173.1z M69.5,175.9h0.7v0.7h-0.7V175.9z"/>
	<path d="M79.1,176.5c-0.2-0.1-0.3-0.2-0.4-0.4s-0.2-0.5-0.2-0.8h0.7c0,0.2,0,0.3,0.1,0.4s0.1,0.2,0.2,0.2s0.2,0.1,0.3,0.1
		c0.2,0,0.3-0.1,0.4-0.2c0.1-0.1,0.2-0.2,0.2-0.4V175c0-0.2,0-0.4-0.1-0.5s-0.2-0.2-0.4-0.2h-0.3v-0.6h0.3c0.1,0,0.3,0,0.3-0.1
		s0.1-0.2,0.1-0.4v-0.4c0-0.2,0-0.3-0.1-0.4c-0.1-0.1-0.2-0.1-0.4-0.1c-0.1,0-0.2,0-0.3,0.1c-0.1,0-0.1,0.1-0.2,0.2
		s-0.1,0.2-0.1,0.4h-0.7c0-0.3,0.1-0.6,0.2-0.8s0.2-0.3,0.4-0.4c0.2-0.1,0.4-0.1,0.7-0.1c0.4,0,0.7,0.1,0.9,0.3
		c0.2,0.2,0.3,0.5,0.3,0.8v0.4c0,0.2-0.1,0.4-0.2,0.5c-0.1,0.2-0.3,0.3-0.4,0.4c0.2,0.1,0.4,0.2,0.5,0.4s0.2,0.4,0.2,0.7v0.4
		c0,0.3,0,0.5-0.1,0.7s-0.2,0.3-0.4,0.4c-0.2,0.1-0.4,0.1-0.7,0.1C79.5,176.7,79.2,176.6,79.1,176.5z"/>
	<path d="M89.4,173.1h0.7v0.7h-0.7V173.1z M89.4,175.9h0.7v0.7h-0.7V175.9z"/>
	<path d="M98.4,175.3l1.4-3.6h0.7l-1.3,3.5h2.1v0.6h-2.9C98.4,175.8,98.4,175.3,98.4,175.3z M100.2,173.8h0.7v2.9h-0.7V173.8z"/>
	<path d="M109.4,173.1h0.7v0.7h-0.7V173.1z M109.4,175.9h0.7v0.7h-0.7V175.9z"/>
	<path d="M119.1,176.5c-0.2-0.1-0.3-0.2-0.4-0.4s-0.2-0.4-0.2-0.7l0,0h0.7l0,0c0,0.2,0.1,0.4,0.2,0.5s0.2,0.2,0.4,0.2
		c0.2,0,0.3-0.1,0.4-0.2c0.1-0.1,0.1-0.3,0.1-0.5v-0.8c0-0.2,0-0.4-0.1-0.5s-0.2-0.2-0.4-0.2c-0.1,0-0.2,0-0.3,0.1
		c-0.1,0.1-0.2,0.2-0.2,0.3h-0.6v-2.6h2.3v0.6h-1.6v1.1c0.1-0.1,0.2-0.1,0.3-0.2c0.1,0,0.2-0.1,0.3-0.1c0.2,0,0.4,0,0.6,0.2
		c0.2,0.1,0.3,0.2,0.4,0.4s0.1,0.4,0.1,0.7v0.8c0,0.3,0,0.5-0.1,0.7s-0.2,0.3-0.4,0.4s-0.4,0.2-0.7,0.2
		C119.5,176.7,119.3,176.6,119.1,176.5z"/>
	<path d="M129.4,173.1h0.7v0.7h-0.7V173.1z M129.4,175.9h0.7v0.7h-0.7V175.9z"/>
	<path d="M138.9,176.5c-0.2-0.1-0.3-0.3-0.4-0.5c-0.1-0.2-0.1-0.4-0.1-0.7V175c0-0.2,0-0.4,0.1-0.5s0.1-0.4,0.2-0.6v-0.1v-0.1l0.9-2
		h0.7l-1.2,2.5l-0.1-0.1c0.1-0.1,0.2-0.2,0.3-0.2s0.2-0.1,0.4-0.1s0.4,0,0.6,0.1c0.2,0.1,0.3,0.2,0.4,0.4s0.1,0.4,0.1,0.7v0.4
		c0,0.3,0,0.5-0.1,0.7s-0.2,0.4-0.4,0.5s-0.4,0.2-0.7,0.2C139.3,176.7,139.1,176.6,138.9,176.5z M140,175.9c0.1-0.1,0.1-0.3,0.1-0.5
		V175c0-0.2-0.1-0.4-0.2-0.5c-0.1-0.1-0.2-0.2-0.4-0.2s-0.3,0.1-0.4,0.2c-0.1,0.1-0.1,0.3-0.1,0.5v0.3c0,0.2,0,0.4,0.1,0.5
		s0.2,0.2,0.4,0.2C139.8,176,139.9,176,140,175.9z"/>
	<path d="M149.1,173.1h0.7v0.7h-0.7V173.1z M149.1,175.9h0.7v0.7h-0.7V175.9z"/>
	<path d="M160.5,172.3l-1.2,4.3h-0.7l1.2-4.3h-1.1v0.6H158v-1.3h2.4v0.7H160.5z"/>
	<path d="M168.8,173.1h0.7v0.7h-0.7V173.1z M168.8,175.9h0.7v0.7h-0.7V175.9z"/>
	<path d="M178.4,176.5c-0.2-0.1-0.3-0.2-0.5-0.4c-0.1-0.2-0.2-0.4-0.2-0.6V175c0-0.2,0.1-0.4,0.2-0.6c0.1-0.2,0.3-0.3,0.4-0.4
		c-0.2-0.1-0.3-0.2-0.4-0.3c-0.1-0.1-0.1-0.3-0.1-0.5v-0.4c0-0.2,0-0.4,0.1-0.6c0.1-0.2,0.2-0.3,0.4-0.4s0.4-0.1,0.6-0.1
		s0.5,0,0.6,0.1s0.3,0.2,0.4,0.4c0.1,0.2,0.1,0.4,0.1,0.6v0.4c0,0.2,0,0.3-0.1,0.5c-0.1,0.1-0.2,0.3-0.4,0.3
		c0.2,0.1,0.3,0.2,0.4,0.4c0.1,0.2,0.2,0.4,0.2,0.6v0.4c0,0.2-0.1,0.5-0.2,0.6c-0.1,0.2-0.3,0.3-0.4,0.4c-0.2,0.1-0.4,0.1-0.7,0.1
		C178.8,176.7,178.6,176.6,178.4,176.5z M179.4,176c0.1-0.1,0.2-0.1,0.2-0.2c0.1-0.1,0.1-0.2,0.1-0.3V175c0-0.1,0-0.2-0.1-0.3
		s-0.1-0.2-0.2-0.2c-0.1,0-0.2-0.1-0.3-0.1s-0.2,0-0.3,0.1c-0.1,0-0.2,0.1-0.2,0.2s-0.1,0.2-0.1,0.3v0.4c0,0.1,0,0.2,0.1,0.3
		s0.1,0.2,0.2,0.2c0.1,0,0.2,0.1,0.3,0.1S179.3,176,179.4,176z M179.4,173.7c0.1,0,0.1-0.1,0.2-0.2s0.1-0.2,0.1-0.3v-0.3
		c0-0.1,0-0.2-0.1-0.3c0-0.1-0.1-0.2-0.2-0.2c-0.1,0-0.2-0.1-0.3-0.1s-0.2,0-0.3,0.1c-0.1,0-0.1,0.1-0.2,0.2c0,0.1-0.1,0.2-0.1,0.3
		v0.3c0,0.1,0,0.2,0.1,0.3c0,0.1,0.1,0.2,0.2,0.2c0.1,0,0.2,0.1,0.3,0.1S179.3,173.8,179.4,173.7z"/>
	<path d="M188.8,173.1h0.7v0.7h-0.7V173.1z M188.8,175.9h0.7v0.7h-0.7V175.9z"/>
	<path d="M199.4,174.2l0.1,0.1c-0.1,0.1-0.2,0.2-0.3,0.2c-0.1,0.1-0.2,0.1-0.4,0.1s-0.4-0.1-0.6-0.2c-0.2-0.1-0.3-0.2-0.4-0.4
		c-0.1-0.2-0.1-0.4-0.1-0.7V173c0-0.3,0-0.5,0.1-0.7s0.2-0.4,0.4-0.5s0.4-0.2,0.7-0.2s0.5,0.1,0.7,0.2c0.2,0.1,0.3,0.3,0.4,0.5
		c0.1,0.2,0.1,0.4,0.1,0.7v0.3c0,0.2,0,0.4-0.1,0.5c0,0.2-0.1,0.4-0.2,0.6v0.1v0.1l-0.9,2h-0.7L199.4,174.2z M199.4,173.8
		c0.1-0.1,0.1-0.3,0.1-0.5V173c0-0.2,0-0.4-0.1-0.5s-0.2-0.2-0.4-0.2s-0.3,0.1-0.4,0.2s-0.1,0.3-0.1,0.5v0.3c0,0.2,0,0.4,0.1,0.5
		s0.2,0.2,0.4,0.2C199.1,174,199.3,173.9,199.4,173.8z"/>
	<path d="M208.5,173.1h0.7v0.7h-0.7V173.1z M208.5,175.9h0.7v0.7h-0.7V175.9z"/>
	<path d="M218.7,176.6H218v-4.2l-0.7,0.4v-0.7l0.7-0.5h0.7V176.6z"/>
	<path d="M227.6,176.4c-0.2-0.2-0.3-0.5-0.3-0.9V173c0-0.4,0.1-0.7,0.3-0.9s0.5-0.3,0.9-0.3s0.7,0.1,0.9,0.3s0.3,0.5,0.3,0.9v2.5
		c0,0.4-0.1,0.7-0.3,0.9s-0.5,0.3-0.9,0.3S227.8,176.6,227.6,176.4z M229,175.9c0.1-0.1,0.1-0.3,0.1-0.5v-2.5c0-0.2,0-0.4-0.1-0.5
		s-0.2-0.2-0.4-0.2s-0.3,0.1-0.4,0.2c-0.1,0.1-0.1,0.3-0.1,0.5v2.5c0,0.2,0,0.4,0.1,0.5s0.2,0.2,0.4,0.2
		C228.7,176.1,228.9,176,229,175.9z"/>
</g>
<g>
	<g>
		<g>
			<path class="st5" d="M87.5,135.1c-0.3-0.2-0.6-0.5-0.8-0.8c-0.2-0.4-0.3-0.8-0.3-1.2v-1.7c0-0.5,0.1-0.9,0.3-1.2
				c0.2-0.4,0.4-0.6,0.8-0.8s0.7-0.3,1.1-0.3s0.7,0.1,1,0.2s0.6,0.4,0.8,0.7s0.3,0.6,0.4,1h-0.9c-0.1-0.2-0.1-0.4-0.3-0.5
				c-0.1-0.2-0.3-0.3-0.5-0.4s-0.4-0.1-0.5-0.1c-0.3,0-0.5,0.1-0.7,0.2s-0.3,0.3-0.4,0.5s-0.2,0.5-0.2,0.8v1.7
				c0,0.3,0.1,0.6,0.2,0.8s0.3,0.4,0.4,0.5s0.4,0.2,0.7,0.2c0.2,0,0.4,0,0.5-0.1c0.2-0.1,0.3-0.2,0.4-0.3c0.1-0.2,0.2-0.3,0.3-0.5
				h0.9c-0.1,0.4-0.2,0.7-0.4,1c-0.2,0.3-0.5,0.5-0.8,0.7s-0.6,0.2-1,0.2C88.2,135.3,87.8,135.3,87.5,135.1z"/>
		</g>
	</g>
</g>
<g>
	<g>
		<path class="st4" d="M108.6,128.4h1.1v6.9h-1.1V128.4z M109.3,134.4h1.5c0.2,0,0.4,0,0.5-0.1s0.2-0.2,0.2-0.4v-4
			c0-0.2-0.1-0.3-0.2-0.4s-0.3-0.1-0.5-0.1h-1.5v-0.9h1.5c0.4,0,0.7,0.1,1,0.2c0.3,0.1,0.5,0.3,0.6,0.5s0.2,0.5,0.2,0.8v4
			c0,0.3-0.1,0.6-0.2,0.8s-0.3,0.4-0.6,0.5s-0.6,0.2-1,0.2h-1.5V134.4z"/>
	</g>
</g>
<g>
	<g>
		<g>
			<path class="st5" d="M130.7,129h0.9v6.3h-0.9V129z M131.1,129h3.6v0.8h-3.6V129z M131.1,131.7h3.1v0.8h-3.1V131.7z M131.1,134.4
				h3.6v0.8h-3.6V134.4z"/>
		</g>
	</g>
</g>
<g>
	<g>
		<path class="st4" d="M152.9,128.4h1.1v6.9h-1.1V128.4z M153.5,128.4h3.1v0.9h-3.1V128.4z M153.5,131.5h2.8v0.9h-2.8V131.5z"/>
	</g>
</g>
</svg>
