<?xml version="1.0" encoding="utf-8"?>
<!-- Generator: Adobe Illustrator 25.3.1, SVG Export Plug-In . SVG Version: 6.00 Build 0)  -->
<svg version="1.1" id="Layer_1" xmlns="http://www.w3.org/2000/svg" xmlns:xlink="http://www.w3.org/1999/xlink" x="0px" y="0px"
	 viewBox="0 0 250 167" style="enable-background:new 0 0 250 167;" xml:space="preserve">
<style type="text/css">
	.st0{fill:#F7F7F7;}
	.st1{fill:none;}
	.st2{fill:#432918;}
	.st3{fill:#8A5E3C;}
	.st4{fill:#E6B35B;}
	.st5{enable-background:new    ;}
</style>
<rect x="0.1" class="st0" width="250" height="167"/>
<g>
	<g>
		<g>
			<rect x="159.2" y="142.4" class="st1" width="0" height="0.1"/>
			<polygon class="st1" points="143.1,132.4 150.1,132.4 146.6,123.8 			"/>
		</g>
		<g>
			<path class="st2" d="M53.9,89.5H63v13.1c-0.5,0.4-1.1,0.8-1.8,1.3c-0.7,0.5-1.6,0.9-2.5,1.2c-0.9,0.4-2,0.6-3.2,0.9
				c-1.2,0.2-2.5,0.4-4,0.4c-2.2,0-4.2-0.4-6-1.1c-1.8-0.7-3.3-1.9-4.6-3.5c-1.3-1.6-2.2-3.7-2.9-6.3c-0.7-2.6-1-5.7-1-9.4
				c0-3.7,0.3-6.8,1-9.4c0.7-2.6,1.6-4.7,2.9-6.3c1.2-1.6,2.8-2.8,4.6-3.5c1.8-0.7,3.8-1.1,6-1.1c1.5,0,2.9,0.1,4,0.3
				c1.2,0.2,2.3,0.5,3.2,0.9s1.8,0.8,2.5,1.2c0.7,0.5,1.4,0.9,1.9,1.3V82h-9.2v-3.6c0-1.3-0.2-2.3-0.6-2.9s-1.1-0.9-1.9-0.9
				s-1.5,0.3-1.9,0.9s-0.6,1.5-0.6,2.9v15.3c0,1.3,0.2,2.3,0.6,2.9c0.4,0.6,1.1,0.9,1.9,0.9s1.5-0.3,1.9-0.9s0.6-1.5,0.6-2.9V89.5
				L53.9,89.5z"/>
			<path class="st2" d="M126.9,74.6h-3.4V83h5.7v5.8h-5.7v8.6h5v8.3h-17.8v-8.3h2.3V74.6h-2.3v-8.3h23v13.1h-6.8V74.6L126.9,74.6z"
				/>
			<path class="st2" d="M151.2,74.6h-3.4V83h5.7v5.8h-5.7v8.6h5v8.3h-17.9v-8.3h2.3V74.6h-2.3v-8.3h23v13.1h-6.7V74.6L151.2,74.6z"
				/>
			<path class="st2" d="M176.6,74.6H172v8h3.3v5.8H172v9h4.6v-8h8.5v16.3h-25.9v-8.3h2.3V74.6h-2.3v-8.3h25.9v15.3h-8.5V74.6z"/>
			<path class="st2" d="M204.4,74.6h-4.5v8h3.3v5.8h-3.3v9h4.6v-8h8.5v16.3h-25.9v-8.3h2.3V74.6h-2.3v-8.3h25.8v15.3h-8.5V74.6z"/>
		</g>
		<g>
			<path class="st3" d="M86.2,89.2c-2,4.9-1.6,11.2-0.5,16.3c7.8-0.6,14-9.4,14-20.1c0-10.6-6.1-19.3-13.8-20.1
				C87.3,71.3,89.1,82,86.2,89.2z"/>
			<path class="st4" d="M83,89.2c2.9-7,1.2-17.4-0.2-23.5c-6.8,1.9-11.9,10-11.9,19.7c0,9.5,4.8,17.4,11.4,19.6
				C81.4,99.9,81.1,93.9,83,89.2z"/>
		</g>
		<g>
			<rect x="53.8" y="115.6" class="st4" width="42.3" height="1.2"/>
			<rect x="64.5" y="126.2" class="st4" width="34" height="1.2"/>
			<rect x="46.3" y="131.7" class="st4" width="44.4" height="1.2"/>
			<rect x="41.8" y="120.6" class="st4" width="64.1" height="1.2"/>
		</g>
		<path class="st4" d="M98.5,66.7c0,0,0.6-0.4,1.6-1.3c0.5-0.4,1-1,1.6-1.6c0.6-0.7,1.2-1.4,1.8-2.3c0.6-0.9,1.2-1.9,1.6-3
			c0.2-0.6,0.4-1.1,0.5-1.7c0.1-0.6,0.2-1.2,0.3-1.8c0.1-1.2-0.1-2.5-0.6-3.6c-0.5-1.2-1.2-2.3-2.1-3.4c-0.9-1.1-1.9-2.2-2.8-3.3
			c-1-1.1-1.9-2.3-2.6-3.6c-0.8-1.3-1.3-2.7-1.6-4c-0.3-1.4-0.3-2.7-0.2-3.8c0.1-1.2,0.4-2.2,0.7-3.1c0.3-0.9,0.6-1.6,0.9-2.2
			s0.5-1,0.7-1.3s0.3-0.5,0.3-0.5s-0.1,0.2-0.1,0.5c-0.1,0.3-0.2,0.8-0.4,1.5c-0.2,0.6-0.3,1.4-0.5,2.3c-0.1,0.9-0.2,1.9-0.2,2.9
			c0,1.1,0.2,2.2,0.6,3.3c0.3,1.1,0.9,2.2,1.7,3.3c1.4,2.2,3.6,4.1,5.6,6.5c1,1.2,1.9,2.6,2.5,4.1s0.8,3.3,0.6,4.8
			c-0.2,1.5-0.6,3-1.3,4.2c-0.6,1.2-1.4,2.3-2.2,3.1c-1.6,1.7-3.2,2.8-4.4,3.4C99.3,66.5,98.5,66.7,98.5,66.7z"/>
		<path class="st4" d="M71.2,68.5c0,0,0.6-0.4,1.6-1.3c0.5-0.4,1-1,1.6-1.6c0.6-0.7,1.2-1.4,1.8-2.3c0.6-0.9,1.2-1.9,1.6-3
			c0.2-0.6,0.4-1.1,0.5-1.7c0.1-0.6,0.2-1.2,0.3-1.8c0.1-1.2-0.1-2.5-0.6-3.6c-0.5-1.2-1.2-2.3-2.1-3.4c-0.9-1.1-1.9-2.2-2.8-3.3
			c-1-1.1-1.9-2.3-2.6-3.6c-0.8-1.3-1.3-2.7-1.6-4c-0.3-1.4-0.3-2.7-0.2-3.8c0.1-1.2,0.4-2.2,0.7-3.1c0.3-0.9,0.6-1.6,0.9-2.2
			s0.5-1,0.7-1.3s0.3-0.5,0.3-0.5s-0.1,0.2-0.1,0.5c-0.1,0.3-0.2,0.8-0.4,1.5c-0.2,0.6-0.3,1.4-0.5,2.3c-0.1,0.9-0.2,1.9-0.2,2.9
			c0,1.1,0.2,2.2,0.6,3.3c0.3,1.1,0.9,2.2,1.7,3.3c1.4,2.2,3.6,4.1,5.6,6.5c1,1.2,1.9,2.6,2.5,4.1s0.8,3.3,0.6,4.8
			c-0.2,1.5-0.6,3-1.3,4.2c-0.6,1.2-1.4,2.3-2.2,3.1c-1.6,1.7-3.2,2.8-4.4,3.4C72,68.3,71.2,68.5,71.2,68.5z"/>
		<path class="st4" d="M84.2,62.5c0,0,0.6-0.5,1.5-1.4s2.2-2.3,3.4-4c0.6-0.9,1.2-1.9,1.7-3s0.9-2.3,1.1-3.5l0.1-0.5l0.1-0.5
			l0.1-0.5v-0.4c0-0.6,0-1.2-0.1-1.9c-0.2-1.3-0.7-2.5-1.4-3.7c-1.3-2.5-3.1-5-4.2-7.8c-0.5-1.4-0.8-2.9-0.9-4.2
			c-0.1-1.4,0.1-2.7,0.3-3.8c0.1-0.6,0.3-1.1,0.5-1.6s0.4-1,0.6-1.4s0.4-0.8,0.6-1.2c0.2-0.3,0.4-0.7,0.5-1c0.3-0.6,0.6-1,0.8-1.3
			c0.2-0.3,0.3-0.4,0.3-0.4s-0.1,0.2-0.2,0.5s-0.3,0.8-0.5,1.4c-0.1,0.3-0.2,0.7-0.3,1c-0.1,0.4-0.2,0.8-0.3,1.2
			c-0.1,0.4-0.2,0.9-0.3,1.4c0,0.5-0.2,1-0.2,1.5c-0.1,1.1,0,2.2,0.2,3.4c0.2,1.2,0.6,2.3,1.1,3.5c0.6,1.2,1.3,2.3,2.1,3.5
			c0.8,1.2,1.6,2.5,2.4,3.9c0.7,1.4,1.4,3,1.6,4.6c0.1,0.8,0.2,1.6,0.1,2.5l0,0.8l-0.1,0.5l-0.1,0.6l-0.1,0.6c-0.4,1.5-1,2.8-1.7,4
			s-1.5,2.2-2.3,3s-1.6,1.5-2.4,2.1c-0.7,0.6-1.4,1-2,1.3C85,62.3,84.2,62.5,84.2,62.5z"/>
	</g>
	<g class="st5">
		<path class="st2" d="M114.6,125h-4.1v-1c0-1.1,0.1-1.9,0.4-2.5s0.8-1.1,1.5-1.6c0.8-0.5,1.8-0.7,3-0.7c1.5,0,2.6,0.3,3.3,0.8
			c0.7,0.5,1.2,1.2,1.3,1.9c0.2,0.8,0.2,2.3,0.2,4.6v7.1h-4.2v-1.3c-0.3,0.5-0.6,0.9-1,1.1c-0.4,0.3-0.9,0.4-1.5,0.4
			c-0.8,0-1.5-0.2-2.1-0.6s-0.9-1.4-0.9-2.8v-1.2c0-1.1,0.2-1.8,0.5-2.2c0.3-0.4,1.2-0.8,2.5-1.3c1.4-0.6,2.2-0.9,2.3-1.1
			c0.1-0.2,0.1-0.6,0.1-1.2c0-0.7-0.1-1.2-0.2-1.5c-0.1-0.2-0.3-0.3-0.6-0.3c-0.3,0-0.5,0.1-0.5,0.3c-0.1,0.2-0.1,0.7-0.1,1.5
			L114.6,125L114.6,125z M116,126.9c-0.7,0.5-1.1,0.9-1.2,1.3c-0.1,0.3-0.2,0.8-0.2,1.5s0,1.2,0.1,1.4s0.3,0.3,0.6,0.3
			c0.3,0,0.4-0.1,0.5-0.3s0.1-0.6,0.1-1.3L116,126.9L116,126.9z"/>
		<path class="st2" d="M126.2,116.4v17.3h-4.5v-17.3C121.8,116.4,126.2,116.4,126.2,116.4z"/>
		<path class="st2" d="M128.1,121.9l-0.6-2.9v-2.7h3.3v2.7l-0.5,2.9H128.1z"/>
		<path class="st2" d="M135.8,125h-4.1v-1c0-1.1,0.1-1.9,0.4-2.5c0.3-0.6,0.8-1.1,1.5-1.6c0.8-0.5,1.8-0.7,3-0.7
			c1.5,0,2.6,0.3,3.3,0.8s1.2,1.2,1.3,1.9c0.2,0.8,0.2,2.3,0.2,4.6v7.1h-4.2v-1.3c-0.3,0.5-0.6,0.9-1,1.1c-0.4,0.3-0.9,0.4-1.5,0.4
			c-0.8,0-1.5-0.2-2.1-0.6c-0.6-0.4-0.9-1.4-0.9-2.8v-1.2c0-1.1,0.2-1.8,0.5-2.2c0.3-0.4,1.2-0.8,2.5-1.3c1.4-0.6,2.2-0.9,2.3-1.1
			s0.1-0.6,0.1-1.2c0-0.7-0.1-1.2-0.2-1.5c-0.1-0.2-0.3-0.3-0.6-0.3s-0.5,0.1-0.5,0.3c-0.1,0.2-0.1,0.7-0.1,1.5v1.6H135.8z
			 M137.1,126.9c-0.7,0.5-1.1,0.9-1.2,1.3c-0.1,0.3-0.2,0.8-0.2,1.5s0,1.2,0.1,1.4s0.3,0.3,0.6,0.3s0.4-0.1,0.5-0.3s0.1-0.6,0.1-1.3
			L137.1,126.9L137.1,126.9z"/>
		<path class="st2" d="M147.3,119.5l-0.1,1.3c0.3-0.5,0.7-0.9,1.2-1.2c0.5-0.3,1-0.4,1.6-0.4c0.7,0,1.3,0.2,1.8,0.5s0.8,0.8,0.9,1.3
			c0.1,0.5,0.2,1.4,0.2,2.7v10h-4.3v-9.8c0-1,0-1.6-0.1-1.8s-0.2-0.3-0.5-0.3s-0.5,0.1-0.6,0.4c-0.1,0.2-0.1,0.9-0.1,2v9.6h-4.4
			v-14.2h4.4V119.5z"/>
		<path class="st2" d="M168.3,119.5l-1.7,14.2h-4.7c-0.3-1.7-0.6-4-0.9-6.9c-0.1,1.2-0.3,2.5-0.5,3.8l-0.5,3.1h-4.7l-1.8-14.2h3.7
			c0,0.4,0.3,3.1,0.9,8.1c0-0.5,0.4-3.2,1-8.1h3.6l0.9,8.1c0.1-2.4,0.5-5.1,1-8.1H168.3z"/>
		<path class="st2" d="M172.9,125h-4.1v-1c0-1.1,0.1-1.9,0.4-2.5c0.3-0.6,0.8-1.1,1.5-1.6c0.8-0.5,1.8-0.7,3-0.7
			c1.5,0,2.6,0.3,3.3,0.8s1.2,1.2,1.3,1.9c0.2,0.8,0.2,2.3,0.2,4.6v7.1h-4.2v-1.3c-0.3,0.5-0.6,0.9-1,1.1c-0.4,0.3-0.9,0.4-1.5,0.4
			c-0.8,0-1.5-0.2-2.1-0.6c-0.6-0.4-0.9-1.4-0.9-2.8v-1.2c0-1.1,0.2-1.8,0.5-2.2c0.3-0.4,1.2-0.8,2.5-1.3c1.4-0.6,2.2-0.9,2.3-1.1
			s0.1-0.6,0.1-1.2c0-0.7-0.1-1.2-0.2-1.5c-0.1-0.2-0.3-0.3-0.6-0.3s-0.5,0.1-0.5,0.3c-0.1,0.2-0.1,0.7-0.1,1.5v1.6H172.9z
			 M174.2,126.9c-0.7,0.5-1.1,0.9-1.2,1.3c-0.1,0.3-0.2,0.8-0.2,1.5s0,1.2,0.1,1.4s0.3,0.3,0.6,0.3s0.4-0.1,0.5-0.3s0.1-0.6,0.1-1.3
			L174.2,126.9L174.2,126.9z"/>
		<path class="st2" d="M184.4,119.5l-0.2,1.9c0.6-1.3,1.5-2,2.7-2.1v5c-0.8,0-1.4,0.1-1.7,0.3s-0.6,0.5-0.7,0.9
			c-0.1,0.4-0.1,1.3-0.1,2.6v5.6h-4.3v-14.2L184.4,119.5L184.4,119.5z"/>
	</g>
</g>
</svg>
