<?xml version="1.0" encoding="utf-8"?>
<!-- Generator: Adobe Illustrator 25.3.1, SVG Export Plug-In . SVG Version: 6.00 Build 0)  -->
<svg version="1.1" id="Layer_1" xmlns="http://www.w3.org/2000/svg" xmlns:xlink="http://www.w3.org/1999/xlink" x="0px" y="0px"
	 viewBox="0 0 250 167" style="enable-background:new 0 0 250 167;" xml:space="preserve">
<style type="text/css">
	.st0{fill:#F7F7F7;}
	.st1{fill:url(#SVGID_1_);}
	.st2{fill:url(#SVGID_2_);}
	.st3{fill:url(#SVGID_3_);}
	.st4{fill:url(#SVGID_4_);}
	.st5{fill:url(#SVGID_5_);}
	.st6{fill:url(#SVGID_6_);}
	.st7{fill:url(#SVGID_7_);}
	.st8{enable-background:new    ;}
	.st9{fill:#00B8C6;}
	.st10{fill:#00E7A7;}
	.st11{font-family:'ArialMT';}
	.st12{font-size:10.7961px;}
</style>
<rect x="-0.7" y="-0.1" class="st0" width="250" height="167"/>
<g id="Objects">
	<g>
		<g>
			<g>
				<g>
					<linearGradient id="SVGID_1_" gradientUnits="userSpaceOnUse" x1="75.3647" y1="125.0169" x2="122.7577" y2="21.8932">
						<stop  offset="0" style="stop-color:#1277C5"/>
						<stop  offset="1" style="stop-color:#5ED376"/>
					</linearGradient>
					<path class="st1" d="M109.3,85.2V65.6c0-2.6-2.1-4.6-4.6-4.6H92.1c-2.6,0-4.6,2.1-4.6,4.6v22.7C93.5,88.1,101,87,109.3,85.2z"
						/>
					<linearGradient id="SVGID_2_" gradientUnits="userSpaceOnUse" x1="131.909" y1="152.972" x2="181.5117" y2="45.0403">
						<stop  offset="0" style="stop-color:#1277C5"/>
						<stop  offset="1" style="stop-color:#5ED376"/>
					</linearGradient>
					<path class="st2" d="M147.1,82v28.4h21.8V71.1C162.6,74.8,155.2,78.5,147.1,82z"/>
				</g>
				<linearGradient id="SVGID_3_" gradientUnits="userSpaceOnUse" x1="85.7564" y1="131.7617" x2="135.3591" y2="23.8298">
					<stop  offset="0" style="stop-color:#1277C5"/>
					<stop  offset="1" style="stop-color:#5ED376"/>
				</linearGradient>
				<path class="st3" d="M105.2,99.8h4.1v-5.4c-7.8,1.9-15.2,3.2-21.8,3.9v11.9h21.8V105L105.2,99.8z"/>
				<linearGradient id="SVGID_4_" gradientUnits="userSpaceOnUse" x1="109.0498" y1="142.4666" x2="158.6525" y2="34.5349">
					<stop  offset="0" style="stop-color:#1277C5"/>
					<stop  offset="1" style="stop-color:#5ED376"/>
				</linearGradient>
				<path class="st4" d="M130.4,88.3c-4.5,1.5-9,2.9-13.4,4.2v7.4h4.5l-4.5,5.8v4.7h21.8V85.3C136.1,86.3,133.3,87.3,130.4,88.3z"/>
				<linearGradient id="SVGID_5_" gradientUnits="userSpaceOnUse" x1="95.1677" y1="134.0504" x2="143.1626" y2="29.617">
					<stop  offset="0" style="stop-color:#1277C5"/>
					<stop  offset="1" style="stop-color:#5ED376"/>
				</linearGradient>
				<path class="st5" d="M135,56l3.8-4.9v-1.2c0-2.4-1.9-4.3-4.3-4.3h-13.2c-2.4,0-4.3,1.9-4.3,4.3v33.5c5.2-1.4,10.5-3,16-4.8
					c2-0.7,4-1.4,5.9-2.1V56H135z"/>
				<linearGradient id="SVGID_6_" gradientUnits="userSpaceOnUse" x1="113.9875" y1="141.7488" x2="161.8826" y2="37.5327">
					<stop  offset="0" style="stop-color:#1277C5"/>
					<stop  offset="1" style="stop-color:#5ED376"/>
				</linearGradient>
				<path class="st6" d="M147.1,30.7v19.9l4.2,5.4h-4.2v17.2c8.7-3.6,16-7.2,21.8-10.7V30.7c0-3.1-2.5-5.6-5.6-5.6h-10.7
					C149.6,25.1,147.1,27.6,147.1,30.7z"/>
				<linearGradient id="SVGID_7_" gradientUnits="userSpaceOnUse" x1="123.6485" y1="109.8061" x2="126.0981" y2="46.7309">
					<stop  offset="0" style="stop-color:#1277C5"/>
					<stop  offset="1" style="stop-color:#5ED376"/>
				</linearGradient>
				<path class="st7" d="M190.3,43.8l-12,8.7h6.2c-4.6,7.8-25,19.3-50.8,28c-31,10.5-58.1,13.2-60.6,5.9c-1.2-3.5,3.5-8.6,12.1-14.1
					v-6.1C68.1,75.4,57.9,84.8,60,90.9c3.2,9.4,34.4,7.3,69.8-4.7c29-9.8,51.7-23.3,57.2-33l3.4,4.4L190.3,43.8z"/>
			</g>
		</g>
		<g>
			<g>
				<g>
					<g class="st8">
						<path class="st9" d="M87.1,113.9c0-0.1,0.1-0.2,0.2-0.2H88c0.1,0,0.2,0.1,0.2,0.2l4.2,11.7c0,0.1,0,0.2-0.1,0.2h-0.7
							c-0.1,0-0.2-0.1-0.2-0.2l-1.1-3H85l-1.1,3c0,0.1-0.1,0.2-0.2,0.2H83c-0.1,0-0.2-0.1-0.1-0.2L87.1,113.9z M89.9,121.7l-2.3-6.3
							h-0.1l-2.3,6.3H89.9z"/>
						<path class="st9" d="M96.3,125.9c-0.6,0-1.1-0.2-1.4-0.5s-0.4-0.8-0.4-1.5v-10c0-0.1,0.1-0.2,0.2-0.2h0.6
							c0.1,0,0.2,0.1,0.2,0.2v9.9c0,0.4,0.1,0.7,0.2,0.9s0.4,0.2,0.7,0.2h0.3c0.1,0,0.2,0.1,0.2,0.2v0.6c0,0.1-0.1,0.2-0.2,0.2
							C96.7,125.9,96.3,125.9,96.3,125.9z"/>
						<path class="st9" d="M98.4,121.4v-0.6c0-0.1,0.1-0.2,0.2-0.2h4.5c0.1,0,0.2,0.1,0.2,0.2v0.6c0,0.1-0.1,0.2-0.2,0.2h-4.5
							C98.5,121.5,98.4,121.5,98.4,121.4z"/>
						<path class="st9" d="M105.9,113.9c0-0.1,0.1-0.2,0.2-0.2h0.7c0.1,0,0.2,0.1,0.3,0.2l3.9,8.7h0.1l3.8-8.7
							c0-0.1,0.1-0.2,0.2-0.2h0.7c0.1,0,0.2,0.1,0.2,0.2v11.7c0,0.1-0.1,0.2-0.2,0.2h-0.7c-0.1,0-0.2-0.1-0.2-0.2v-9.5h-0.1
							l-3.5,7.7c0,0.1-0.1,0.1-0.1,0.2c0,0-0.1,0-0.2,0h-0.4c-0.1,0-0.2-0.1-0.3-0.2l-3.5-7.7h-0.1v9.5c0,0.1-0.1,0.2-0.2,0.2h-0.7
							c-0.1,0-0.2-0.1-0.2-0.2v-11.7H105.9z"/>
						<path class="st9" d="M122.1,118.1c-0.5,0-0.9,0.1-1.3,0.2c-0.3,0.1-0.6,0.3-0.9,0.5c-0.1,0.1-0.2,0.1-0.3,0l-0.3-0.4
							c-0.1-0.1,0-0.2,0.1-0.2c0.3-0.3,0.7-0.5,1.1-0.6s1-0.2,1.6-0.2c0.5,0,1,0,1.4,0.1s0.7,0.3,1,0.5s0.4,0.5,0.6,0.9
							s0.2,0.8,0.2,1.3v5.7c0,0.1-0.1,0.2-0.2,0.2h-0.6c-0.1,0-0.2-0.1-0.2-0.2V125l0,0c-0.2,0.4-0.5,0.7-0.9,0.9
							c-0.4,0.2-1,0.4-1.7,0.4c-0.9,0-1.5-0.2-2.1-0.6c-0.5-0.4-0.8-1-0.8-1.9s0.3-1.5,0.8-1.9c0.6-0.4,1.3-0.6,2.4-0.6h2.1
							c0.1,0,0.1,0,0.1-0.1V120c0-0.3,0-0.6-0.1-0.9c-0.1-0.2-0.2-0.5-0.4-0.6c-0.2-0.2-0.4-0.3-0.7-0.3
							C122.8,118.1,122.5,118.1,122.1,118.1z M121.8,125.1c0.7,0,1.3-0.2,1.8-0.5c0.4-0.3,0.7-0.8,0.7-1.4v-1.3c0-0.1,0-0.1-0.1-0.1
							h-2c-0.9,0-1.5,0.1-1.8,0.4s-0.6,0.7-0.6,1.3c0,0.5,0.2,0.9,0.5,1.2S121.2,125.1,121.8,125.1z"/>
					</g>
					<g class="st8">
						<path class="st9" d="M138.7,125.8c-0.1,0-0.2-0.1-0.2-0.2v-4.9c0-0.6-0.1-1-0.4-1.3c-0.3-0.3-0.7-0.5-1.2-0.5
							s-0.9,0.2-1.2,0.5s-0.4,0.8-0.4,1.3v4.9c0,0.1-0.1,0.2-0.2,0.2h-1.6c-0.1,0-0.2-0.1-0.2-0.2v-4.9c0-0.6-0.1-1-0.4-1.3
							c-0.3-0.3-0.7-0.5-1.2-0.5s-0.9,0.2-1.2,0.5s-0.4,0.8-0.4,1.3v4.9c0,0.1-0.1,0.2-0.2,0.2h-1.6c-0.1,0-0.2-0.1-0.2-0.2v-8.2
							c0-0.1,0.1-0.2,0.2-0.2h1.6c0.1,0,0.2,0.1,0.2,0.2v0.6l0,0c0.2-0.3,0.5-0.5,0.8-0.7s0.8-0.3,1.4-0.3c0.5,0,1,0.1,1.4,0.3
							s0.7,0.5,1,0.8l0,0c0.3-0.4,0.7-0.6,1.2-0.8c0.4-0.2,1-0.3,1.6-0.3c0.5,0,0.9,0.1,1.3,0.2c0.4,0.2,0.7,0.4,1,0.7
							s0.5,0.6,0.6,1s0.2,0.8,0.2,1.3v5.4c0,0.1-0.1,0.2-0.2,0.2H138.7z"/>
						<path class="st9" d="M146.4,126c-0.9,0-1.6-0.2-2.2-0.6c-0.6-0.4-1.1-1-1.3-1.7c-0.1-0.3-0.2-0.6-0.2-0.9s-0.1-0.7-0.1-1.2
							s0-0.9,0.1-1.2c0-0.3,0.1-0.6,0.2-0.9c0.2-0.7,0.7-1.3,1.3-1.7c0.6-0.4,1.4-0.6,2.2-0.6c0.9,0,1.6,0.2,2.2,0.6
							c0.6,0.4,1.1,1,1.3,1.7c0.1,0.3,0.2,0.6,0.2,0.9s0.1,0.7,0.1,1.2s0,0.9-0.1,1.2c0,0.3-0.1,0.6-0.2,0.9
							c-0.2,0.7-0.7,1.3-1.3,1.7C148,125.8,147.2,126,146.4,126z M146.4,124.2c0.4,0,0.7-0.1,1-0.3s0.5-0.5,0.6-0.8
							c0.1-0.2,0.1-0.5,0.1-0.7s0-0.5,0-0.9s0-0.7,0-0.9c0-0.2-0.1-0.5-0.1-0.7c-0.1-0.4-0.3-0.6-0.6-0.8s-0.6-0.3-1-0.3
							s-0.7,0.1-1,0.3s-0.5,0.5-0.6,0.8c-0.1,0.2-0.1,0.5-0.1,0.7s0,0.5,0,0.9s0,0.7,0,0.9c0,0.2,0.1,0.5,0.1,0.7
							c0.1,0.4,0.3,0.6,0.6,0.8S146,124.2,146.4,124.2z"/>
						<path class="st9" d="M157.6,125.8c-0.1,0-0.2-0.1-0.2-0.2V125l0,0c-0.2,0.3-0.5,0.5-0.9,0.7c-0.3,0.2-0.8,0.3-1.3,0.3
							s-0.9-0.1-1.2-0.2c-0.4-0.2-0.7-0.4-0.9-0.7s-0.5-0.6-0.6-1s-0.2-0.8-0.2-1.3v-5.4c0-0.1,0.1-0.2,0.2-0.2h1.6
							c0.1,0,0.2,0.1,0.2,0.2v4.9c0,0.6,0.1,1,0.4,1.3c0.3,0.3,0.7,0.5,1.2,0.5s0.9-0.2,1.2-0.5s0.4-0.8,0.4-1.3v-5
							c0-0.1,0.1-0.2,0.2-0.2h1.6c0.1,0,0.2,0.1,0.2,0.2v8.2c0,0.1-0.1,0.2-0.2,0.2h-1.7V125.8z"/>
						<path class="st9" d="M167.4,125.8c-0.1,0-0.2-0.1-0.2-0.2v-4.9c0-0.6-0.1-1-0.4-1.3c-0.3-0.3-0.7-0.5-1.2-0.5
							s-0.9,0.2-1.2,0.5s-0.4,0.8-0.4,1.3v4.9c0,0.1-0.1,0.2-0.2,0.2h-1.6c-0.1,0-0.2-0.1-0.2-0.2v-8.2c0-0.1,0.1-0.2,0.2-0.2h1.6
							c0.1,0,0.2,0.1,0.2,0.2v0.6l0,0c0.2-0.3,0.5-0.5,0.8-0.7s0.8-0.3,1.4-0.3c0.5,0,0.9,0.1,1.2,0.2c0.4,0.2,0.7,0.4,0.9,0.7
							s0.5,0.6,0.6,1s0.2,0.8,0.2,1.3v5.4c0,0.1-0.1,0.2-0.2,0.2H167.4z"/>
					</g>
				</g>
			</g>
			<g>
				<g>
					<g class="st8">
						<path class="st10" d="M87.3,134.6l1-0.1c0,0.4,0.2,0.7,0.3,1c0.2,0.2,0.4,0.4,0.8,0.6c0.4,0.2,0.7,0.2,1.2,0.2
							c0.4,0,0.7-0.1,1-0.2c0.3-0.1,0.5-0.3,0.7-0.5c0.1-0.2,0.2-0.4,0.2-0.7c0-0.2-0.1-0.5-0.2-0.6c-0.1-0.2-0.4-0.3-0.7-0.5
							c-0.2-0.1-0.7-0.2-1.4-0.4c-0.7-0.2-1.2-0.3-1.5-0.5c-0.4-0.2-0.6-0.4-0.8-0.7c-0.2-0.3-0.3-0.6-0.3-1s0.1-0.8,0.3-1.1
							c0.2-0.3,0.5-0.6,1-0.8c0.4-0.2,0.9-0.3,1.4-0.3c0.6,0,1.1,0.1,1.5,0.3s0.8,0.5,1,0.8s0.4,0.8,0.4,1.2l-1,0.1
							c-0.1-0.5-0.2-0.9-0.5-1.1c-0.3-0.2-0.8-0.4-1.3-0.4c-0.6,0-1.1,0.1-1.4,0.3s-0.4,0.5-0.4,0.8s0.1,0.5,0.3,0.7
							c0.2,0.2,0.7,0.4,1.5,0.6c0.8,0.2,1.4,0.4,1.7,0.5c0.4,0.2,0.8,0.5,1,0.8s0.3,0.7,0.3,1.1c0,0.4-0.1,0.8-0.4,1.2
							c-0.2,0.4-0.6,0.6-1,0.8s-0.9,0.3-1.5,0.3c-0.7,0-1.3-0.1-1.8-0.3s-0.8-0.5-1.1-0.9C87.4,135.5,87.3,135.1,87.3,134.6z"/>
						<path class="st10" d="M94.7,139.2v-7.7h0.9v0.7c0.2-0.3,0.4-0.5,0.7-0.6c0.3-0.1,0.6-0.2,0.9-0.2c0.5,0,0.9,0.1,1.3,0.4
							c0.4,0.2,0.6,0.6,0.8,1c0.2,0.4,0.3,0.9,0.3,1.5s-0.1,1.1-0.3,1.5c-0.2,0.5-0.5,0.8-0.9,1.1c-0.4,0.2-0.8,0.4-1.2,0.4
							c-0.3,0-0.6-0.1-0.9-0.2c-0.3-0.1-0.5-0.3-0.6-0.5v2.7L94.7,139.2L94.7,139.2z M95.6,134.3c0,0.7,0.1,1.3,0.4,1.6
							s0.6,0.5,1.1,0.5c0.4,0,0.8-0.2,1.1-0.5s0.5-0.9,0.5-1.7c0-0.7-0.1-1.2-0.4-1.6c-0.3-0.4-0.6-0.5-1.1-0.5
							c-0.4,0-0.8,0.2-1.1,0.6S95.6,133.6,95.6,134.3z"/>
						<path class="st10" d="M104.5,135.2l1,0.1c-0.2,0.6-0.4,1-0.9,1.3c-0.4,0.3-1,0.5-1.6,0.5c-0.8,0-1.5-0.3-1.9-0.8
							c-0.5-0.5-0.7-1.2-0.7-2.1c0-0.9,0.2-1.7,0.7-2.2s1.1-0.8,1.9-0.8c0.7,0,1.4,0.3,1.8,0.8c0.5,0.5,0.7,1.2,0.7,2.2
							c0,0.1,0,0.1,0,0.3h-4.2c0,0.6,0.2,1.1,0.5,1.4c0.3,0.3,0.7,0.5,1.2,0.5c0.3,0,0.6-0.1,0.9-0.3S104.4,135.6,104.5,135.2z
							 M101.4,133.7h3.1c0-0.5-0.2-0.8-0.4-1.1c-0.3-0.4-0.7-0.5-1.2-0.5c-0.4,0-0.8,0.1-1.1,0.4
							C101.6,132.8,101.5,133.2,101.4,133.7z"/>
						<path class="st10" d="M110.5,135.2l1,0.1c-0.2,0.6-0.4,1-0.9,1.3c-0.4,0.3-1,0.5-1.6,0.5c-0.8,0-1.5-0.3-1.9-0.8
							c-0.5-0.5-0.7-1.2-0.7-2.1c0-0.9,0.2-1.7,0.7-2.2s1.1-0.8,1.9-0.8c0.7,0,1.4,0.3,1.8,0.8c0.5,0.5,0.7,1.2,0.7,2.2
							c0,0.1,0,0.1,0,0.3h-4.2c0,0.6,0.2,1.1,0.5,1.4c0.3,0.3,0.7,0.5,1.2,0.5c0.3,0,0.6-0.1,0.9-0.3S110.4,135.6,110.5,135.2z
							 M107.4,133.7h3.1c0-0.5-0.2-0.8-0.4-1.1c-0.3-0.4-0.7-0.5-1.2-0.5c-0.4,0-0.8,0.1-1.1,0.4
							C107.6,132.8,107.5,133.2,107.4,133.7z"/>
						<path class="st10" d="M116.4,137v-0.7c-0.4,0.6-0.9,0.8-1.6,0.8c-0.4,0-0.9-0.1-1.2-0.4c-0.4-0.2-0.7-0.6-0.9-1
							c-0.2-0.4-0.3-0.9-0.3-1.5s0.1-1.1,0.3-1.5c0.2-0.5,0.5-0.8,0.8-1c0.4-0.2,0.8-0.4,1.2-0.4c0.3,0,0.6,0.1,0.9,0.2
							c0.3,0.1,0.5,0.3,0.6,0.6v-2.8h0.9v7.7L116.4,137L116.4,137z M113.4,134.2c0,0.7,0.2,1.3,0.5,1.6c0.3,0.4,0.7,0.5,1.1,0.5
							s0.8-0.2,1.1-0.5c0.3-0.3,0.4-0.9,0.4-1.6c0-0.8-0.1-1.3-0.4-1.7s-0.7-0.5-1.1-0.5s-0.8,0.2-1.1,0.5S113.4,133.5,113.4,134.2z
							"/>
					</g>
					<text transform="matrix(1 0 0 1 115.3856 137.0403)" class="st10 st11 st12">​​</text>
					<g class="st8">
						<path class="st10" d="M121.3,137c-0.1,0-0.1,0-0.1-0.1v-0.4l0,0c-0.1,0.2-0.3,0.3-0.6,0.4s-0.6,0.2-0.9,0.2
							c-0.2,0-0.5,0-0.7-0.1s-0.4-0.2-0.6-0.3s-0.3-0.3-0.4-0.5s-0.1-0.4-0.1-0.7c0-0.6,0.2-1,0.6-1.3s0.9-0.4,1.5-0.4h1.1
							c0,0,0.1,0,0.1-0.1v-0.2c0-0.3-0.1-0.5-0.2-0.7s-0.5-0.2-0.9-0.2c-0.3,0-0.5,0-0.7,0.1s-0.3,0.2-0.5,0.3c-0.1,0-0.1,0-0.2,0
							l-0.4-0.7c0-0.1,0-0.1,0-0.1c0.2-0.2,0.5-0.3,0.8-0.4c0.3-0.1,0.7-0.1,1.1-0.1c0.8,0,1.4,0.1,1.7,0.4s0.5,0.7,0.5,1.4v3.4
							c0,0.1,0,0.1-0.1,0.1L121.3,137L121.3,137z M120.1,136.2c0.4,0,0.7-0.1,0.9-0.2c0.2-0.1,0.3-0.4,0.3-0.7v-0.4
							c0,0,0-0.1-0.1-0.1h-0.9c-0.4,0-0.7,0.1-0.9,0.2s-0.3,0.3-0.3,0.5C119.2,136,119.5,136.2,120.1,136.2z"/>
						<path class="st10" d="M127.2,137c-0.1,0-0.1,0-0.1-0.1v-3c0-0.3-0.1-0.6-0.2-0.8s-0.4-0.3-0.7-0.3c-0.3,0-0.6,0.1-0.7,0.3
							c-0.2,0.2-0.3,0.5-0.3,0.8v3c0,0.1,0,0.1-0.1,0.1h-1c-0.1,0-0.1,0-0.1-0.1v-5c0-0.1,0-0.1,0.1-0.1h1c0.1,0,0.1,0,0.1,0.1v0.4
							l0,0c0.1-0.2,0.3-0.3,0.5-0.4c0.2-0.1,0.5-0.2,0.9-0.2c0.3,0,0.5,0,0.8,0.1c0.2,0.1,0.4,0.2,0.6,0.4c0.2,0.2,0.3,0.4,0.4,0.6
							c0.1,0.2,0.1,0.5,0.1,0.8v3.3c0,0.1,0,0.1-0.1,0.1L127.2,137L127.2,137z"/>
						<path class="st10" d="M133,137c-0.1,0-0.1,0-0.1-0.1v-0.4l0,0c-0.1,0.2-0.3,0.3-0.5,0.4c-0.2,0.1-0.5,0.2-0.9,0.2
							s-0.8-0.1-1.1-0.3s-0.5-0.5-0.7-0.9c-0.1-0.2-0.1-0.4-0.1-0.6c0-0.2,0-0.5,0-0.8s0-0.6,0-0.8s0.1-0.4,0.1-0.6
							c0.1-0.4,0.4-0.7,0.7-0.9s0.7-0.3,1.1-0.3c0.4,0,0.6,0.1,0.9,0.2c0.2,0.1,0.4,0.3,0.5,0.4l0,0V130c0-0.1,0-0.1,0.1-0.1h1
							c0.1,0,0.1,0,0.1,0.1v7.1c0,0.1,0,0.1-0.1,0.1h-1V137z M131.8,136.1c0.5,0,0.8-0.2,1-0.7c0-0.1,0.1-0.3,0.1-0.4
							c0-0.1,0-0.3,0-0.6c0-0.2,0-0.4,0-0.6c0-0.1,0-0.3-0.1-0.4c-0.1-0.4-0.5-0.7-1-0.7s-0.8,0.2-1,0.7c0,0.1-0.1,0.3-0.1,0.4
							c0,0.1,0,0.3,0,0.6c0,0.2,0,0.4,0,0.6c0,0.1,0,0.3,0.1,0.4C131,135.9,131.3,136.1,131.8,136.1z"/>
						<path class="st10" d="M140.2,137.2c-0.5,0-1-0.1-1.4-0.3s-0.7-0.4-0.9-0.6c0,0,0-0.1,0-0.2l0.6-0.6c0,0,0.1,0,0.2,0
							c0.2,0.2,0.4,0.3,0.7,0.4c0.3,0.1,0.6,0.2,0.8,0.2c0.3,0,0.6-0.1,0.7-0.2c0.2-0.1,0.2-0.3,0.2-0.4c0-0.2-0.1-0.3-0.2-0.4
							c-0.1-0.1-0.3-0.2-0.7-0.2l-0.6-0.1c-0.5-0.1-0.9-0.2-1.2-0.5s-0.4-0.6-0.4-1.1s0.2-0.9,0.5-1.2s0.8-0.4,1.5-0.4
							c0.4,0,0.8,0.1,1.1,0.2c0.3,0.1,0.6,0.3,0.8,0.5c0.1,0,0.1,0.1,0,0.2l-0.5,0.6c0,0.1-0.1,0.1-0.2,0c-0.2-0.1-0.4-0.2-0.6-0.3
							c-0.2-0.1-0.5-0.1-0.8-0.1s-0.5,0.1-0.6,0.2s-0.2,0.2-0.2,0.4s0.1,0.3,0.2,0.4s0.3,0.2,0.7,0.2l0.6,0.1c0.5,0.1,1,0.2,1.2,0.5
							s0.4,0.6,0.4,1c0,0.5-0.2,0.9-0.6,1.3C141.4,137,140.9,137.2,140.2,137.2z"/>
						<path class="st10" d="M146.7,137c-0.1,0-0.1,0-0.1-0.1v-0.4l0,0c-0.1,0.2-0.3,0.3-0.6,0.4c-0.2,0.1-0.5,0.2-0.9,0.2
							c-0.2,0-0.5,0-0.7-0.1s-0.4-0.2-0.6-0.3c-0.2-0.1-0.3-0.3-0.4-0.5c-0.1-0.2-0.1-0.4-0.1-0.7c0-0.6,0.2-1,0.6-1.3
							c0.4-0.3,0.9-0.4,1.5-0.4h1.1c0,0,0.1,0,0.1-0.1v-0.2c0-0.3-0.1-0.5-0.2-0.7c-0.2-0.1-0.5-0.2-0.9-0.2c-0.3,0-0.5,0-0.7,0.1
							s-0.3,0.2-0.5,0.3c-0.1,0-0.1,0-0.2,0l-0.4-0.7c0-0.1,0-0.1,0-0.1c0.2-0.2,0.5-0.3,0.8-0.4c0.3-0.1,0.7-0.1,1.1-0.1
							c0.8,0,1.4,0.1,1.7,0.4s0.5,0.7,0.5,1.4v3.4c0,0.1,0,0.1-0.1,0.1L146.7,137L146.7,137z M145.4,136.2c0.4,0,0.7-0.1,0.9-0.2
							c0.2-0.1,0.3-0.4,0.3-0.7v-0.4c0,0,0-0.1-0.1-0.1h-0.9c-0.4,0-0.7,0.1-0.9,0.2s-0.3,0.3-0.3,0.5
							C144.5,136,144.8,136.2,145.4,136.2z"/>
						<path class="st10" d="M149.5,137c-0.1,0-0.1,0-0.1-0.1v-4.1c0,0,0-0.1-0.1-0.1H149c-0.1,0-0.1,0-0.1-0.1v-0.7
							c0-0.1,0-0.1,0.1-0.1h0.3c0,0,0.1,0,0.1-0.1v-0.3c0-0.6,0.1-1.1,0.4-1.3c0.3-0.3,0.7-0.4,1.3-0.4h0.5c0.1,0,0.1,0,0.1,0.1v0.9
							c0,0.1,0,0.1-0.1,0.1h-0.3c-0.1,0-0.2,0-0.3,0s-0.2,0.1-0.2,0.1s-0.1,0.1-0.1,0.2c0,0.1,0,0.2,0,0.3v0.4c0,0,0,0.1,0.1,0.1
							h0.9c0.1,0,0.1,0,0.1,0.1v0.7c0,0.1,0,0.1-0.1,0.1h-0.9c0,0-0.1,0-0.1,0.1v4.1c0,0.1,0,0.1-0.1,0.1h-1.1V137z"/>
						<path class="st10" d="M154.9,137.2c-0.6,0-1-0.1-1.4-0.4c-0.4-0.3-0.6-0.6-0.8-1.1c-0.1-0.2-0.1-0.4-0.1-0.6
							c0-0.2,0-0.4,0-0.7s0-0.5,0-0.7s0.1-0.4,0.1-0.6c0.1-0.5,0.4-0.8,0.8-1.1s0.8-0.4,1.3-0.4s1,0.1,1.4,0.4
							c0.4,0.3,0.6,0.6,0.8,1.1c0,0.1,0.1,0.2,0.1,0.3s0,0.2,0.1,0.3c0,0.1,0,0.3,0,0.4c0,0.2,0,0.3,0,0.5c0,0.1,0,0.1-0.1,0.1h-3.2
							c0,0-0.1,0-0.1,0.1s0,0.2,0,0.2s0,0.1,0.1,0.2c0.2,0.5,0.6,0.8,1.2,0.8c0.3,0,0.5,0,0.7-0.1s0.4-0.2,0.5-0.4
							c0.1-0.1,0.1-0.1,0.2,0l0.6,0.6c0,0,0.1,0.1,0,0.2c-0.2,0.3-0.5,0.5-0.9,0.6C155.8,137.1,155.4,137.2,154.9,137.2z
							 M155.9,133.9c0-0.2,0-0.3-0.1-0.4c-0.1-0.2-0.2-0.4-0.4-0.5s-0.4-0.2-0.6-0.2c-0.3,0-0.5,0.1-0.6,0.2
							c-0.2,0.1-0.3,0.3-0.4,0.5c0,0.1-0.1,0.3-0.1,0.4c0,0,0,0.1,0.1,0.1L155.9,133.9L155.9,133.9z"/>
						<path class="st10" d="M159.9,137.1c-0.5,0-0.9-0.1-1.1-0.4c-0.2-0.3-0.3-0.6-0.3-1.1v-2.7c0,0,0-0.1-0.1-0.1h-0.3
							c-0.1,0-0.1,0-0.1-0.1V132c0-0.1,0-0.1,0.1-0.1h0.3c0,0,0.1,0,0.1-0.1v-1.4c0-0.1,0-0.1,0.1-0.1h1c0.1,0,0.1,0,0.1,0.1v1.4
							c0,0,0,0.1,0.1,0.1h0.7c0.1,0,0.1,0,0.1,0.1v0.7c0,0.1,0,0.1-0.1,0.1h-0.7c0,0-0.1,0-0.1,0.1v2.7c0,0.2,0,0.3,0.1,0.4
							s0.2,0.1,0.4,0.1h0.3c0.1,0,0.1,0,0.1,0.1v0.9c0,0.1,0,0.1-0.1,0.1h-0.6V137.1z"/>
						<path class="st10" d="M162.1,139c-0.1,0-0.1,0-0.1-0.1V138c0-0.1,0-0.1,0.1-0.1h0.2c0.2,0,0.4,0,0.5-0.1s0.2-0.3,0.3-0.5
							l0.2-0.4l-1.9-4.9c0-0.1,0-0.1,0.1-0.1h1.1c0.1,0,0.1,0,0.1,0.1l1.2,3.4l0,0l1.1-3.4c0-0.1,0.1-0.1,0.1-0.1h1
							c0.1,0,0.1,0,0.1,0.1l-2,5.4c-0.1,0.3-0.2,0.6-0.3,0.8s-0.2,0.4-0.4,0.5s-0.3,0.2-0.5,0.3s-0.4,0.1-0.6,0.1h-0.3V139z"/>
					</g>
				</g>
			</g>
		</g>
	</g>
</g>
</svg>
