<?xml version="1.0" encoding="utf-8"?>
<!-- Generator: Adobe Illustrator 25.3.1, SVG Export Plug-In . SVG Version: 6.00 Build 0)  -->
<svg version="1.1" id="Layer_1" xmlns="http://www.w3.org/2000/svg" xmlns:xlink="http://www.w3.org/1999/xlink" x="0px" y="0px"
	 viewBox="0 0 250 167" style="enable-background:new 0 0 250 167;" xml:space="preserve">
<style type="text/css">
	.st0{fill:#F7F7F7;}
	.st1{fill:#D01B2D;}
	.st2{opacity:0.99;}
	.st3{fill:#1E1E1E;}
	.st4{fill:none;stroke:#1E1E1E;stroke-width:0.5037;stroke-miterlimit:10;}
	.st5{fill:none;stroke:#1E1E1E;stroke-width:2.5187;stroke-miterlimit:10;}
</style>
<rect x="-0.5" class="st0" width="250" height="167"/>
<g>
	<g>
		<g>
			<path class="st1" d="M73,95.6h6c3.9,0,6.4,0.2,7.8,0.5c1.3,0.4,2.3,0.9,3,1.7c0.7,0.8,1,1.7,1.1,2.7s0.1,2.9-0.2,5.8L89.9,117
				c-0.2,2.7-0.5,4.6-0.8,5.5s-0.8,1.7-1.5,2.2s-1.5,0.9-2.5,1.1s-2.4,0.3-4.3,0.3h-10L73,95.6z M80.6,100.8l-1.4,20.1
				c1.1,0,1.9-0.2,2.2-0.7s0.5-1.7,0.7-3.8l0.9-11.9c0.1-1.4,0.1-2.3,0.1-2.7s-0.3-0.7-0.6-0.9C82.1,100.9,81.5,100.8,80.6,100.8z"
				/>
			<path class="st1" d="M93.8,95.6h13.3l-0.4,6.1h-5.3l-0.4,5.8h5l-0.4,5.8h-5l-0.5,6.7h5.8l-0.4,6.1H91.7L93.8,95.6z"/>
			<path class="st1" d="M117.3,95.6l-1.7,24.5h4.8l-0.4,6.1h-12.8l2.2-30.6H117.3z"/>
			<path class="st1" d="M131.4,95.6l-2.2,30.6h-8l2.2-30.6H131.4z"/>
			<path class="st1" d="M153,95.6l-6.2,30.6h-12.1l-2.4-30.6h8.4c0.4,8.4,0.6,15.6,0.6,21.4c0.8-5.9,1.6-11.1,2.4-15.7l1-5.7
				L153,95.6L153,95.6z"/>
			<path class="st1" d="M153.7,95.6H167l-0.4,6.1h-5.3l-0.4,5.8h5l-0.4,5.8h-5L160,120h5.8l-0.4,6.1h-13.8L153.7,95.6z"/>
			<path class="st1" d="M169.3,95.6h5.6c3.8,0,6.3,0.2,7.6,0.4c1.3,0.3,2.3,1,3.1,2.2s1,3.1,0.9,5.7c-0.2,2.4-0.6,4-1.2,4.8
				s-1.8,1.3-3.6,1.5c1.5,0.4,2.6,0.9,3.1,1.6s0.8,1.3,0.9,1.8c0.1,0.6,0.1,2.1-0.1,4.5l-0.6,8.1h-7.4l0.7-10.2
				c0.1-1.6,0.1-2.6-0.2-3c-0.2-0.4-0.9-0.6-2-0.6l-1,13.8h-8L169.3,95.6z M176.8,100.8l-0.5,6.8c0.9,0,1.5-0.1,1.9-0.4
				s0.6-1,0.7-2.4l0.1-1.7c0.1-1-0.1-1.6-0.4-1.9C178.4,100.9,177.7,100.8,176.8,100.8z"/>
			<path class="st1" d="M206.5,95.6l-7.2,19.5l-0.8,11.1h-7.4l0.8-11.1l-4.2-19.5h7.3c0.7,6,1.1,10,1.1,12.1
				c0.7-3.3,1.7-7.3,3.1-12.1H206.5L206.5,95.6z"/>
		</g>
	</g>
	<g>
		<g>
			<path class="st1" d="M76.1,53.7H93l-0.6,7.7h-6.9L85,68.6h6.1l-0.5,7.3h-6.1L83.4,92h-9.9L76.1,53.7z"/>
			<path class="st1" d="M113.7,53.7l3,38.3h-10.2l-0.1-6.9h-3.6l-1.1,6.9H91.6l7.8-38.3H113.7z M106.7,78.3
				c-0.2-4.3-0.3-9.7-0.4-16.1c-1.5,7.3-2.5,12.7-3,16.1H106.7z"/>
			<path class="st1" d="M142.5,65.3h-9.2l0.2-2.8c0.1-1.3,0-2.2-0.2-2.5c-0.2-0.4-0.6-0.6-1.1-0.6c-0.6,0-1.1,0.3-1.4,0.7
				c-0.4,0.5-0.6,1.2-0.6,2.2c-0.1,1.3,0,2.2,0.3,2.9s1.2,1.4,2.6,2.3c4.2,2.6,6.9,4.8,7.9,6.5s1.4,4.4,1.1,8.2
				c-0.2,2.7-0.7,4.7-1.4,6s-2,2.4-3.9,3.2c-1.9,0.9-4.1,1.3-6.5,1.3c-2.7,0-4.9-0.5-6.7-1.5s-2.9-2.3-3.4-3.9s-0.6-3.8-0.4-6.6
				l0.2-2.5h9.2l-0.3,4.7c-0.1,1.4-0.1,2.4,0.2,2.8c0.2,0.4,0.7,0.6,1.3,0.6c0.7,0,1.2-0.3,1.5-0.8c0.4-0.5,0.6-1.3,0.7-2.3
				c0.2-2.2-0.1-3.7-0.6-4.4c-0.6-0.7-2-1.9-4.4-3.5s-3.9-2.8-4.7-3.6c-0.8-0.8-1.3-1.8-1.8-3.1c-0.4-1.3-0.6-3-0.4-5
				c0.2-2.9,0.7-5.1,1.6-6.4c0.8-1.4,2.1-2.4,3.9-3.2s3.8-1.1,6.1-1.1c2.6,0,4.8,0.4,6.5,1.3s2.9,1.9,3.4,3.1
				c0.5,1.3,0.6,3.4,0.4,6.5L142.5,65.3z"/>
			<path class="st1" d="M168.5,53.7l-0.6,7.7H162L159.8,92h-9.9l2.2-30.6h-5.9l0.6-7.7H168.5z"/>
		</g>
	</g>
	<polygon class="st1" points="165.8,72.3 164.3,91.9 188.7,91.9 	"/>
	<g class="st2">
		<path class="st3" d="M169.6,52.9c0.3-0.4,0.6-0.9,0.9-1.3l1-1.2c0.4-0.4,0.7-0.8,1.1-1.2l1.2-1.1c1.6-1.4,3.3-2.7,5.2-3.7
			c3.8-2.1,8-3.3,12.4-3.6s8.8,0.5,12.9,2.1c2,0.8,4,1.9,5.8,3.1c1.8,1.3,3.5,2.7,5,4.3s2.8,3.4,4,5.3s2,3.9,2.7,6s1.1,4.3,1.3,6.4
			c0,0.3,0.1,0.6,0.1,0.8l0.1,0.8c0,0.6,0,1.1,0,1.6c-0.1,1.1-0.1,2.2-0.3,3.3c-0.3,2.2-0.8,4.3-1.5,6.3s-1.7,4-2.9,5.8
			s-2.5,3.5-4.1,4.9c-0.8,0.7-1.6,1.4-2.4,2.1c-0.4,0.3-0.9,0.6-1.3,0.9c-0.5,0.3-0.9,0.6-1.3,0.8c0.4-0.4,0.8-0.7,1.2-1.1
			s0.7-0.7,1.1-1.1c0.7-0.8,1.4-1.5,2-2.3c1.3-1.6,2.4-3.3,3.3-5.1l0.3-0.7c0.1-0.2,0.2-0.5,0.3-0.7c0.2-0.5,0.4-0.9,0.6-1.4
			l0.5-1.4l0.4-1.4c0.5-1.9,0.9-3.9,1-5.9c0.3-4-0.3-7.9-1.6-11.6c-0.7-1.8-1.5-3.6-2.5-5.3s-2.2-3.2-3.6-4.7
			c-1.3-1.4-2.8-2.7-4.4-3.9c-1.6-1.1-3.3-2.1-5.1-2.9c-1.8-0.8-3.7-1.4-5.6-1.8c-1.9-0.4-3.9-0.6-5.9-0.6c-4,0-8,0.8-11.7,2.3
			c-1.9,0.8-3.7,1.8-5.4,2.9l-1.3,0.9l-1.2,1l-1.2,1C170.3,52.2,169.9,52.5,169.6,52.9z"/>
	</g>
	<line class="st4" x1="195.6" y1="47" x2="195.6" y2="51.2"/>
	<line class="st4" x1="184.1" y1="49.5" x2="186.2" y2="53.1"/>
	<line class="st4" x1="175.5" y1="57.4" x2="179.1" y2="59.4"/>
	<line class="st4" x1="204.9" y1="89.7" x2="202.8" y2="86.1"/>
	<line class="st4" x1="213.5" y1="81.8" x2="209.9" y2="79.8"/>
	<line class="st4" x1="217.1" y1="70.7" x2="212.9" y2="70.7"/>
	<line class="st4" x1="214.6" y1="59.2" x2="211" y2="61.3"/>
	<line class="st4" x1="204.8" y1="54" x2="206.6" y2="50.8"/>
	<g>
		<circle class="st5" cx="191.3" cy="75.1" r="2.6"/>
		<g>
			<polygon class="st3" points="190.9,72 201,59.9 194.3,74.1 			"/>
		</g>
	</g>
	<g>
		<polygon class="st1" points="26.9,54.9 71.6,55.6 71.8,54.2 		"/>
		<polygon class="st1" points="26.9,62 71,62.7 71.2,61.2 		"/>
		<polygon class="st1" points="26.9,69 70.5,69.8 70.7,68.3 		"/>
		<polygon class="st1" points="26.9,76.1 69.9,76.8 70.2,75.4 		"/>
		<polygon class="st1" points="26.9,83.2 69.4,83.9 69.6,82.5 		"/>
		<polygon class="st1" points="26.9,90.2 68.9,90.9 69.1,89.5 		"/>
		<polygon class="st1" points="26.9,97.3 68.3,98 68.5,96.6 		"/>
		<polygon class="st1" points="26.9,104.4 67.8,105 68,103.7 		"/>
		<polygon class="st1" points="26.9,111.4 67.2,112.1 67.4,110.8 		"/>
		<polygon class="st1" points="26.9,118.5 66.7,119.1 66.9,117.8 		"/>
		<polygon class="st1" points="26.9,125.5 66.2,126.2 66.4,124.9 		"/>
	</g>
</g>
</svg>
