<?xml version="1.0" encoding="utf-8"?>
<!-- Generator: Adobe Illustrator 25.3.1, SVG Export Plug-In . SVG Version: 6.00 Build 0)  -->
<svg version="1.1" id="Layer_1" xmlns="http://www.w3.org/2000/svg" xmlns:xlink="http://www.w3.org/1999/xlink" x="0px" y="0px"
	 viewBox="0 0 250 167" style="enable-background:new 0 0 250 167;" xml:space="preserve">
<style type="text/css">
	.st0{fill:#F7F7F7;}
	.st1{fill-rule:evenodd;clip-rule:evenodd;fill:#FF0000;}
	.st2{clip-path:url(#SVGID_2_);fill:#232323;}
	.st3{fill:#232323;}
	.st4{fill:#FF0000;}
</style>
<rect x="-0.5" class="st0" width="250" height="167"/>
<g>
	<path class="st1" d="M75.5,88.1c-12.7-18.4-17.9-37-12.1-49.4c6.8-14.7,26.9-17,50.6-8.1c-19.8-6.2-36.3-3.5-42.3,9
		C65.9,51.7,71.3,70.1,84.4,88L75.5,88.1z M193.3,122.9c-0.4,1.9-1,3.7-1.8,5.4c-9.2,19.8-42.8,17.1-76.7-5.5h14.1
		c26.1,13.9,50.4,14.5,58.9,0L193.3,122.9L193.3,122.9z"/>
	<g>
		<g>
			<g>
				<g>
					<defs>
						<path id="SVGID_1_" d="M102.3,80.4c-1,0-1.8,1.6-1.8,3.6s0.8,3.6,1.8,3.6c0.4,0,0.7-0.2,1-0.6c-0.7-0.3-1.3-1.5-1.3-3.1
							c0-1.5,0.5-2.8,1.3-3.1C103,80.6,102.6,80.4,102.3,80.4 M108.3,80.4c-1,0-1.8,1.6-1.8,3.6s0.8,3.6,1.8,3.6
							c0.4,0,0.7-0.2,1-0.6c-0.7-0.3-1.3-1.5-1.3-3.1c0-1.5,0.5-2.8,1.3-3.1C109,80.6,108.7,80.4,108.3,80.4z M176,79.5h-1.7
							c-0.1,0-0.2,0.1-0.2,0.2v1c0,0.1,0.1,0.2,0.2,0.2h1.7c0.1,0,0.2-0.1,0.2-0.2v-1C176.2,79.6,176.1,79.5,176,79.5z M153.5,79.5
							h-3.3c-0.1,0-0.2,0.1-0.2,0.2v1c0,0.1,0.1,0.2,0.2,0.2h3.3c0.1,0,0.2-0.1,0.2-0.2v-1C153.7,79.6,153.6,79.5,153.5,79.5z
							 M142.2,78.9c-0.5,0-0.9,0.3-1.2,0.8c0.4-0.9,1-1.4,1.6-1.4c1.2,0,2.1,1.9,2.1,4.2s-1,4.2-2.1,4.2c-0.6,0-1.2-0.5-1.6-1.4
							c0.3,0.5,0.8,0.8,1.2,0.8c0.3,0,0.6-0.1,0.8-0.4l0,0c-0.7,0-1.2-0.7-1.5-1.8c0.2,0.4,0.4,0.6,0.7,0.6c0.5,0,1-0.9,1-2.1
							s-0.4-2.1-1-2.1c-0.3,0-0.5,0.2-0.7,0.6c0.3-1,0.9-1.8,1.5-1.8l0,0C142.8,79.1,142.5,78.9,142.2,78.9z M143.9,82.3
							c-0.2,0-0.3,0.1-0.3,0.3c0,0.1,0.1,0.3,0.3,0.3s0.3-0.1,0.3-0.3C144.2,82.5,144.1,82.3,143.9,82.3z M143.7,81.1
							c-0.2,0-0.3,0.1-0.3,0.3c0,0.1,0.2,0.2,0.4,0.2s0.3-0.1,0.3-0.3S143.9,81.1,143.7,81.1z M143.7,84c-0.2,0-0.3-0.1-0.3-0.3
							c0-0.1,0.2-0.2,0.4-0.2s0.3,0.1,0.3,0.3C144.1,83.9,143.9,84,143.7,84z M143.3,80c-0.2,0.1-0.3,0.2-0.3,0.4
							c0,0.1,0.2,0.2,0.4,0.2c0.2-0.1,0.3-0.2,0.3-0.4C143.6,80,143.5,79.9,143.3,80z M143.2,85.1c-0.2-0.1-0.3-0.2-0.3-0.4
							c0-0.1,0.2-0.2,0.4-0.2c0.2,0.1,0.3,0.2,0.3,0.4S143.4,85.2,143.2,85.1z M80.7,75.8c-0.5-1-1-1.9-1.5-2.9l27.7-3.7l0.6-25.7
							l-28.3,7.3l29.3-9.2c1.1-0.3,2.2-0.2,2.2,1.1c-0.1,9.5-0.4,18.5-0.5,28l-30.4,3.6C80.1,74.6,80.4,75.2,80.7,75.8z M113.4,35.6
							c1.8,0.1,3.6,0.2,5.2,0.3c1.9-1.4,3.3-1.6,5.5-1.5c8,0.2,14.4,0.9,22.1,2c4,0.6,7.5,2.5,10.1,5.2c3.6,3.6,6.3,7.7,9.2,11.8
							c0.6,0.8,0.5,1.8-0.8,1.9c-0.4,0-0.8,0.1-1.3,0.1c0.6,2.4,1.2,4.7,1.8,7.1c1.9,1,3.7,1.9,5.6,2.9c1.5,0.8,2.3,1.9,2.3,3.6
							c0,0.8,0,1.6,0,2.3c3.3,2.9,4.4,3.6,4.3,7.8c-0.1,1.6-0.3,3.2-0.4,4.9c-0.1,0.9-1,2-1.9,2c-0.7,0-1.7,0-2.4,0
							c-0.2,0.7-0.3,1.2-1,1.7c1.3,0,26.6,0,27.8,0c1.1,0,1.6,0.3,2.1,1c-0.2,0-0.4-0.1-0.5-0.1h-31.7c0.9-0.7,1.7-2.1,2-3.8
							c1,0,2.1,0,3,0c0.5,0,0.9-0.3,1.2-0.8c-9.9-0.1-19.8-0.2-29.7-0.3c-0.1-1.8-0.2-3.5-0.3-5.2c0-0.1,0-0.2,0-0.2l10,0.2
							l21.1,0.3l-0.1-0.8c-0.1-2.2-0.7-3.5-2.8-4.8c0.8,1.6,0.8,3,0.8,4.7h-2.2l-0.2-9.3c-0.1-1.7-1.5-2.2-2.9-2.7
							c1.1,0.7,1.5,1.1,1.9,2.1l-11.5-0.5c-2.3-1.1-4.8-2-7.3-2.7c1.9,0.9,3.8,1.8,5.6,2.8c0.6,0.4,0.9,0.6,0.9,1.4l0.1,7.6
							c0,0.5,0.1,0.9,0.3,1.1h-2c-1.2-1.5-2.4-2.8-3.8-3.7l0,0c-1.1-0.7-2.2-1.3-3.2-2c-4.2-2.2-8.1-3.9-11.8-0.4
							c2.8-2,6-1.4,7.8-0.2c1.3,0.9,2,2.2,2.6,3.9l0.5,2.2h-4c-0.7-3.9-2.6-4.6-3.9-4.5c-4.1,0.1-4.4,6.4-4.5,11
							c-6.2-0.1-12.4-0.2-18.5-0.3c-0.1-0.1-0.3-0.3-0.4-0.4V83l18.1,0.2c0-3.1,0.2-4.9,1-8c-0.5,0.5-0.9,1.1-1.6,1.1l-17.9,0.1
							v-0.7c0.2-0.2,0.4-0.5,0.5-0.7l0,0l17.8-0.1l1-1.1l-14.5-0.1l0.5-20.8h10.2l-0.3,8.4c0,0.4,0.1,0.6,0.4,0.6c2,0.2,4,0.5,6,0.7
							c0.6,0.1,0.6-0.3,0.6-0.8l-1.1-9h1.6l0.9,7.4c0.1,0.9,0.5,1.3,1.4,1.4c6.6,0.2,13.7,0.4,20.3,0.6c0.6,0,1-0.1,0.8-0.8
							l-1.8-6.9c0.4,0,0.7,0,1.1,0c1.2,0,1.3-0.7,0.7-1.5c-0.4-0.5-0.8-1-1.2-1.5c0.2,0.4,0.4,0.9,0.7,1.3c0.4,0.8,0.1,0.9-0.6,0.9
							c-0.6,0-1.3,0-1.9,0l0,0l-18.1-1c-2.8-5.3-6.6-8.4-13-10.8c3.7,2,8.1,5,10,8.5c0.5,0.9,0.4,1.3-0.7,1.3
							c-5.4,0-10.7-0.1-16.1-0.1c-0.1-2.6,0.3-5.2,0.9-7.8c-0.9,2.5-1.5,5.1-1.7,7.8c-1.2,0-2.4,0-3.6,0c0.3-4.9,0.8-9.3,1.8-13.1
							c0.4-0.8,1.1-1.3,2.2-1.5c3.2,0.3,5.8,0.9,8.5,2.1c-1-0.8-1.7-1.3-2.7-1.8c5.8,0.3,11.9,0.8,17.2,1.6c5,0.8,7.7,2.5,12.2,6.9
							c-3.2-4.7-6.8-7.4-12.6-8.3c-7.5-1.1-14.1-1.9-21.7-2c-2.3,0-3.6,0.7-4.5,1.8l-6.6-0.4c-1.4-0.1-2.2,0-3.5,0.4
							c-3.6,1.3-36.6,13.1-36.6,12.8l32.1-12.6C108.1,36.3,109.8,35.4,113.4,35.6z M118.2,73.4c0.1-5.7,0.2-13.5,0.6-20.6h3.6
							l-0.5,20.8h-3.2l-0.3-0.1l0,0l0,0L118.2,73.4L118.2,73.4z"/>
					</defs>
					<clipPath id="SVGID_2_">
						<use xlink:href="#SVGID_1_"  style="overflow:visible;"/>
					</clipPath>
					<rect x="72.8" y="34.3" class="st2" width="129" height="54.3"/>
				</g>
			</g>
		</g>
	</g>
	<g>
		<path class="st3" d="M61.5,117.7c-0.1-0.1-0.2-0.1-0.3-0.3c-0.1-0.1-0.1-0.2-0.2-0.4c0-0.1,0-0.3,0-0.5l0.9-3.2
			c0-0.2,0.1-0.3,0.2-0.5c0.1-0.1,0.2-0.3,0.4-0.4c0.1-0.1,0.3-0.2,0.4-0.3c0.2-0.1,0.3-0.1,0.5-0.1h0.4c0.2,0,0.3,0,0.4,0.1
			s0.2,0.1,0.3,0.3c0.1,0.1,0.1,0.2,0.2,0.4s0,0.3,0,0.5l-0.9,3.2c0,0.2-0.1,0.3-0.2,0.5c-0.1,0.1-0.2,0.3-0.4,0.4
			c-0.1,0.1-0.3,0.2-0.4,0.3c-0.2,0.1-0.3,0.1-0.5,0.1h-0.4C61.8,117.8,61.6,117.7,61.5,117.7z M62.5,117c0.1,0,0.2,0,0.3-0.1
			s0.2-0.2,0.2-0.3l0.9-3.2c0-0.1,0-0.2,0-0.3c-0.1-0.1-0.1-0.1-0.3-0.1h-0.4c-0.1,0-0.2,0-0.3,0.1s-0.2,0.2-0.2,0.3l-0.9,3.2
			c0,0.1,0,0.2,0,0.3c0.1,0.1,0.1,0.1,0.3,0.1H62.5z M62.1,116.8C62,116.8,62,116.8,62.1,116.8c-0.1-0.1-0.1-0.2-0.1-0.3l0.9-3.2
			c0-0.1,0-0.1,0.1-0.2s0.1-0.1,0.2-0.1c-0.1,0.1-0.1,0.2-0.2,0.3l-0.9,3.2C62.1,116.7,62.1,116.8,62.1,116.8z M62.4,116.8
			C62.3,116.8,62.3,116.8,62.4,116.8c-0.1-0.1-0.1-0.2-0.1-0.3l0.9-3.2c0-0.1,0-0.1,0.1-0.2s0.1-0.1,0.2-0.1
			c-0.1,0.1-0.1,0.2-0.2,0.3l-0.9,3.2C62.3,116.7,62.3,116.8,62.4,116.8z M63.7,117.2c-0.2,0.2-0.4,0.3-0.6,0.4
			C63.3,117.5,63.5,117.4,63.7,117.2c0.1-0.2,0.2-0.4,0.2-0.6l0.9-3.2c0.1-0.2,0.1-0.4,0-0.6s-0.2-0.3-0.3-0.5
			c0.2,0.1,0.3,0.2,0.4,0.4c0.1,0.2,0.1,0.4,0,0.6l-0.9,3.2C64,116.8,63.9,117,63.7,117.2z M64,117.2c-0.2,0.2-0.4,0.3-0.6,0.4
			C63.5,117.5,63.7,117.4,64,117.2c0.1-0.2,0.2-0.4,0.2-0.6l0.9-3.2c0.1-0.2,0.1-0.4,0-0.6s-0.2-0.3-0.3-0.5
			c0.2,0.1,0.3,0.2,0.4,0.4c0.1,0.2,0.1,0.4,0,0.6l-0.9,3.2C64.3,116.8,64.1,117,64,117.2z"/>
		<path class="st3" d="M70.5,117.8h-0.8l1.5-5.6h1.6c0.2,0,0.3,0,0.4,0.1s0.2,0.1,0.3,0.3c0.1,0.1,0.1,0.2,0.2,0.4
			c0,0.1,0,0.3,0,0.4l-0.2,0.8c0,0.1-0.1,0.2-0.1,0.3c-0.1,0.1-0.1,0.2-0.2,0.3c-0.1,0.1-0.2,0.1-0.3,0.2c-0.1,0-0.2,0.1-0.3,0.1
			c0.1,0,0.2,0,0.3,0.1s0.1,0.1,0.2,0.2c0,0.1,0.1,0.2,0.1,0.4c0,0.1,0,0.3-0.1,0.5l-0.4,1.6h-0.8l0.4-1.6c0-0.2,0-0.3,0.1-0.4
			c0-0.1,0-0.2,0-0.3c0-0.1-0.1-0.1-0.2-0.1h-0.8L70.5,117.8z M71.4,115.5l-0.6,2.3h-0.1L71.4,115.5L71.4,115.5z M71.6,115.5
			l-0.6,2.3h-0.1L71.6,115.5L71.6,115.5z M71.4,114.6h0.8c0.1,0,0.2,0,0.3-0.1c0.1-0.1,0.2-0.2,0.2-0.3l0.2-0.8c0-0.1,0-0.2-0.1-0.3
			c-0.1-0.1-0.1-0.1-0.2-0.1h-0.8L71.4,114.6z M72,113.1l-0.4,1.3h-0.1L72,113.1L72,113.1z M72.2,113.1l-0.4,1.3h-0.1L72.2,113.1
			L72.2,113.1z M72.6,117.8l0.4-1.6c0.1-0.3,0.1-0.5,0.1-0.7s-0.1-0.3-0.2-0.4c0.1,0.1,0.2,0.2,0.3,0.4c0.1,0.2,0,0.4,0,0.8
			l-0.4,1.6L72.6,117.8L72.6,117.8z M72.9,117.8l0.4-1.6c0.1-0.3,0.1-0.5,0.1-0.7s-0.1-0.3-0.2-0.4c0.1,0.1,0.2,0.2,0.3,0.4
			c0.1,0.2,0.1,0.4,0,0.8l-0.4,1.6h-0.2V117.8z M73.6,114.4c0,0.1-0.1,0.1-0.2,0.2s-0.1,0.1-0.2,0.2c-0.1,0-0.2,0.1-0.2,0.1
			c0.1-0.1,0.3-0.2,0.4-0.3s0.2-0.3,0.2-0.4l0.2-0.8c0.1-0.2,0.1-0.4,0-0.6s-0.2-0.3-0.3-0.4c0.1,0,0.2,0.1,0.2,0.2
			c0.1,0.1,0.1,0.2,0.2,0.2c0,0.1,0.1,0.2,0.1,0.3c0,0.1,0,0.2,0,0.3l-0.2,0.8C73.7,114.3,73.6,114.3,73.6,114.4z M73.8,114.4
			c0,0.1-0.1,0.1-0.2,0.2s-0.1,0.1-0.2,0.2s-0.2,0.1-0.2,0.1c0.1-0.1,0.3-0.2,0.4-0.3c0.1-0.1,0.2-0.3,0.2-0.4l0.2-0.8
			c0.1-0.2,0.1-0.4,0-0.6s-0.2-0.3-0.3-0.4c0.1,0,0.2,0.1,0.2,0.2s0.1,0.2,0.2,0.2c0,0.1,0.1,0.2,0.1,0.3c0,0.1,0,0.2,0,0.3
			l-0.2,0.8C73.9,114.3,73.9,114.3,73.8,114.4z"/>
		<path class="st3" d="M80.3,117.8h-0.8l1.3-4.8h-1l0.2-0.8h2.8l-0.2,0.8h-1L80.3,117.8z M81.8,113.1l-1.3,4.7h-0.1L81.8,113.1
			L81.8,113.1z M82,113.1l-1.3,4.7h-0.1L82,113.1L82,113.1z M82.7,113l0.2-0.8H83l-0.2,0.8H82.7z M83,113l0.2-0.8h0.1L83,113L83,113
			z"/>
		<path class="st3" d="M88.3,117.8h-0.8l1.5-5.6h1.6c0.2,0,0.3,0,0.4,0.1s0.2,0.1,0.3,0.3c0.1,0.1,0.1,0.2,0.2,0.4
			c0,0.1,0,0.3,0,0.4l-0.2,0.8c0,0.1-0.1,0.2-0.1,0.3c-0.1,0.1-0.1,0.2-0.2,0.3c-0.1,0.1-0.2,0.1-0.3,0.2c-0.1,0-0.2,0.1-0.3,0.1
			c0.1,0,0.2,0,0.3,0.1c0.1,0,0.1,0.1,0.2,0.2c0,0.1,0.1,0.2,0.1,0.4c0,0.1,0,0.3-0.1,0.5l-0.4,1.6h-0.8l0.4-1.6
			c0-0.2,0-0.3,0.1-0.4c0-0.1,0-0.2,0-0.3c0-0.1-0.1-0.1-0.2-0.1h-0.8L88.3,117.8z M89.1,115.5l-0.6,2.3h-0.1L89.1,115.5L89.1,115.5
			z M89.4,115.5l-0.6,2.3h-0.1L89.4,115.5L89.4,115.5z M89.1,114.6H90c0.1,0,0.2,0,0.3-0.1c0.1-0.1,0.2-0.2,0.2-0.3l0.2-0.8
			c0-0.1,0-0.2-0.1-0.3c-0.1-0.1-0.1-0.1-0.2-0.1h-0.8L89.1,114.6z M89.8,113.1l-0.4,1.3h-0.1L89.8,113.1L89.8,113.1z M90,113.1
			l-0.4,1.3h-0.1L90,113.1L90,113.1z M90.4,117.8l0.4-1.6c0.1-0.3,0.1-0.5,0.1-0.7s-0.1-0.3-0.2-0.4c0.1,0.1,0.2,0.2,0.3,0.4
			c0.1,0.2,0,0.4,0,0.8l-0.4,1.6L90.4,117.8L90.4,117.8z M90.6,117.8l0.4-1.6c0.1-0.3,0.1-0.5,0.1-0.7s-0.1-0.3-0.2-0.4
			c0.1,0.1,0.2,0.2,0.3,0.4c0.1,0.2,0.1,0.4,0,0.8l-0.4,1.6h-0.2V117.8z M91.4,114.4c0,0.1-0.1,0.1-0.2,0.2s-0.1,0.1-0.2,0.2
			c-0.1,0-0.2,0.1-0.2,0.1c0.1-0.1,0.3-0.2,0.4-0.3c0.1-0.1,0.2-0.3,0.2-0.4l0.2-0.8c0.1-0.2,0.1-0.4,0-0.6s-0.2-0.3-0.3-0.4
			c0.1,0,0.2,0.1,0.2,0.2c0.1,0.1,0.1,0.2,0.2,0.2c0,0.1,0.1,0.2,0.1,0.3c0,0.1,0,0.2,0,0.3l-0.2,0.8
			C91.5,114.3,91.4,114.3,91.4,114.4z M91.6,114.4c0,0.1-0.1,0.1-0.2,0.2s-0.1,0.1-0.2,0.2s-0.2,0.1-0.2,0.1
			c0.1-0.1,0.3-0.2,0.4-0.3c0.1-0.1,0.2-0.3,0.2-0.4l0.2-0.8c0.1-0.2,0.1-0.4,0-0.6s-0.2-0.3-0.3-0.4c0.1,0,0.2,0.1,0.2,0.2
			s0.1,0.2,0.2,0.2c0,0.1,0.1,0.2,0.1,0.3c0,0.1,0,0.2,0,0.3l-0.2,0.8C91.7,114.3,91.7,114.3,91.6,114.4z"/>
		<path class="st3" d="M97.9,115.4l-0.6,2.4h-0.8l1.2-4.4c0-0.2,0.1-0.3,0.2-0.5c0.1-0.1,0.2-0.3,0.4-0.4s0.3-0.2,0.4-0.3
			c0.2-0.1,0.3-0.1,0.5-0.1h0.4c0.2,0,0.3,0,0.4,0.1s0.2,0.1,0.3,0.3c0.1,0.1,0.1,0.2,0.2,0.4c0,0.1,0,0.3,0,0.5l-1.2,4.4h-0.8
			l0.6-2.4H97.9L97.9,115.4z M97.4,117.8l0.6-2.3h0.1L97.4,117.8L97.4,117.8z M97.6,117.8l0.6-2.3h0.1L97.6,117.8L97.6,117.8z
			 M98.6,113.1c-0.1,0.1-0.2,0.2-0.2,0.3l-0.3,1.2h1.2l0.3-1.2c0-0.1,0-0.2,0-0.3c-0.1-0.1-0.1-0.1-0.2-0.1H99
			C98.8,113,98.7,113,98.6,113.1z M98.4,114.5L98.4,114.5l0.2-1.1c0-0.1,0.1-0.1,0.1-0.2c0.1,0,0.1-0.1,0.2-0.1
			c-0.1,0.1-0.1,0.2-0.2,0.3L98.4,114.5z M98.6,114.5L98.6,114.5l0.2-1.1c0-0.1,0.1-0.1,0.1-0.2s0.1-0.1,0.2-0.1
			c-0.1,0.1-0.1,0.2-0.2,0.3L98.6,114.5z M99.4,117.8l1.2-4.4c0.1-0.2,0.1-0.4,0-0.6s-0.2-0.3-0.3-0.5c0.2,0.1,0.3,0.2,0.4,0.4
			c0.1,0.2,0.1,0.4,0,0.6L99.4,117.8L99.4,117.8L99.4,117.8z M99.6,117.8l1.2-4.4c0.1-0.2,0.1-0.4,0-0.6s-0.2-0.3-0.3-0.5
			c0.2,0.1,0.3,0.2,0.4,0.4c0.1,0.2,0.1,0.4,0,0.6L99.6,117.8L99.6,117.8L99.6,117.8z"/>
		<path class="st3" d="M107.3,117.8l-0.3-3.4l-0.9,3.4h-0.8l1.5-5.6h0.8l0.3,3.4l0.9-3.4h0.8l-1.5,5.6H107.3L107.3,117.8
			L107.3,117.8z M106.3,117.8l0.7-2.7v0.3L106.3,117.8C106.4,117.8,106.3,117.8,106.3,117.8z M106.5,117.8l0.5-2v0.3L106.5,117.8
			L106.5,117.8L106.5,117.8z M107.9,112.2l0.2,2.4l-0.1,0.3L107.9,112.2L107.9,112.2L107.9,112.2z M108.1,112.2l0.1,1.7l-0.1,0.3
			l-0.2-2H108.1L108.1,112.2z M108.3,117.8l1.5-5.6h0.1L108.3,117.8L108.3,117.8z M108.5,117.8l1.5-5.6h0.1L108.5,117.8L108.5,117.8
			z"/>
		<path class="st3" d="M115.5,116.9c0,0.1,0.1,0.1,0.2,0.1h0.4c0.1,0,0.2,0,0.3-0.1c0.1-0.1,0.2-0.2,0.2-0.3l0.1-0.4
			c0-0.1,0-0.1,0-0.2s0-0.2,0-0.3c0-0.1,0-0.2-0.1-0.2c0,0-0.1-0.1-0.2-0.1l0,0H116c-0.1,0-0.2,0-0.3-0.1c-0.1,0-0.2-0.1-0.3-0.2
			c-0.1-0.1-0.2-0.2-0.2-0.4s0-0.3,0-0.5l0.2-0.8c0-0.2,0.1-0.3,0.2-0.5s0.2-0.3,0.4-0.4s0.3-0.2,0.4-0.3c0.2-0.1,0.3-0.1,0.5-0.1
			h0.4c0.2,0,0.3,0,0.4,0.1s0.2,0.1,0.3,0.3c0.1,0.1,0.1,0.2,0.2,0.4c0,0.1,0,0.3,0,0.5l-0.2,0.8h-0.8l0.2-0.8c0-0.1,0-0.2,0-0.3
			s-0.1-0.1-0.2-0.1h-0.4c-0.1,0-0.2,0-0.3,0.1c-0.1,0.1-0.2,0.2-0.2,0.3l-0.1,0.4c0,0.1,0,0.1,0,0.2s0,0.2,0,0.3s0,0.2,0,0.2
			c0,0.1,0.1,0.1,0.2,0.1h0.4c0.1,0,0.2,0,0.3,0.1c0.1,0,0.2,0.1,0.3,0.2c0.1,0.1,0.2,0.2,0.2,0.4c0,0.1,0,0.3,0,0.5l-0.2,0.8
			c0,0.2-0.1,0.3-0.2,0.5c-0.1,0.1-0.2,0.3-0.4,0.4c-0.1,0.1-0.3,0.2-0.4,0.3c-0.2,0.1-0.3,0.1-0.5,0.1h-0.4c-0.2,0-0.3,0-0.4-0.1
			s-0.2-0.1-0.3-0.3c-0.1-0.1-0.1-0.2-0.1-0.4c0-0.1,0-0.3,0-0.5l0.2-0.8h0.8l-0.2,0.8C115.4,116.7,115.4,116.8,115.5,116.9z
			 M115.8,115.8L115.8,115.8l-0.1,0.8c0,0.1,0,0.2,0,0.3c-0.1,0-0.1,0-0.1-0.1c0,0,0-0.1,0-0.2L115.8,115.8z M116,115.8L116,115.8
			l-0.1,0.8c0,0.1,0,0.2,0,0.3l0,0c-0.1,0-0.1,0-0.1-0.1c0,0,0-0.1,0-0.2L116,115.8z M116.4,113.9c0,0.1,0,0.1,0,0.2s0,0.1,0,0.2
			s0,0.1,0,0.2c-0.1,0-0.1,0-0.1-0.1v-0.1c0,0,0-0.1,0-0.2S116.3,114,116.4,113.9C116.3,113.9,116.3,113.9,116.4,113.9
			C116.3,113.8,116.3,113.8,116.4,113.9v-0.5c0-0.1,0.1-0.1,0.1-0.2c0,0,0.1-0.1,0.2-0.1c-0.1,0.1-0.1,0.2-0.2,0.3L116.4,113.9
			C116.4,113.8,116.4,113.9,116.4,113.9z M116.6,113.9c0,0.1,0,0.1,0,0.2s0,0.1,0,0.2s0,0.1,0,0.2l0,0c0,0-0.1,0-0.1-0.1v-0.1
			c0,0,0-0.1,0-0.2S116.5,114,116.6,113.9C116.5,113.9,116.5,113.9,116.6,113.9c-0.1-0.1-0.1-0.1-0.1-0.2l0.1-0.4
			c0-0.1,0.1-0.1,0.1-0.2c0,0,0.1-0.1,0.2-0.1c-0.1,0.1-0.1,0.2-0.2,0.3l-0.1,0.4C116.6,113.8,116.6,113.9,116.6,113.9z
			 M117.5,116.9c-0.1,0.1-0.1,0.2-0.2,0.3s-0.2,0.2-0.3,0.3c-0.1,0.1-0.2,0.1-0.3,0.2c0.2-0.1,0.4-0.3,0.5-0.5
			c0.2-0.2,0.3-0.4,0.3-0.6l0.2-0.8c0.1-0.3,0.1-0.5,0-0.6c-0.1-0.2-0.2-0.3-0.3-0.4c0.1,0,0.2,0.1,0.2,0.2c0.1,0.1,0.1,0.1,0.2,0.2
			c0,0.1,0.1,0.2,0.1,0.3c0,0.1,0,0.2,0,0.4l-0.2,0.8C117.6,116.7,117.6,116.8,117.5,116.9z M117.8,116.9c-0.1,0.1-0.1,0.2-0.2,0.3
			c-0.1,0.1-0.2,0.2-0.3,0.3c-0.1,0.1-0.2,0.1-0.3,0.2c0.2-0.1,0.4-0.3,0.5-0.5c0.2-0.2,0.3-0.4,0.3-0.6l0.2-0.8
			c0.1-0.3,0.1-0.5,0-0.6c-0.1-0.2-0.2-0.3-0.3-0.4c0.1,0,0.2,0.1,0.2,0.2c0.1,0.1,0.1,0.1,0.2,0.2c0,0.1,0.1,0.2,0.1,0.3
			s0,0.2,0,0.4l-0.2,0.8C117.9,116.7,117.8,116.8,117.8,116.9z M118.2,114.2l0.2-0.8c0.1-0.2,0.1-0.4,0-0.6s-0.2-0.3-0.3-0.5
			c0.2,0.1,0.3,0.2,0.4,0.4c0.1,0.2,0.1,0.4,0,0.6L118.2,114.2L118.2,114.2L118.2,114.2z M118.4,114.2l0.2-0.8
			c0.1-0.2,0.1-0.4,0-0.6s-0.2-0.3-0.3-0.5c0.2,0.1,0.3,0.2,0.4,0.4s0.1,0.4,0,0.6L118.4,114.2L118.4,114.2L118.4,114.2z"/>
		<path class="st3" d="M124.1,117.8h-0.8l1.5-5.6h1.6c0.2,0,0.3,0,0.4,0.1s0.2,0.1,0.3,0.3c0.1,0.1,0.1,0.2,0.2,0.4
			c0,0.1,0,0.3,0,0.5l-0.2,0.8c0,0.2-0.1,0.3-0.2,0.5c-0.1,0.1-0.2,0.3-0.4,0.4s-0.3,0.2-0.4,0.3s-0.3,0.1-0.5,0.1h-0.8L124.1,117.8
			z M124.9,115.5l-0.6,2.3h-0.1L124.9,115.5L124.9,115.5z M125.2,115.5l-0.6,2.3h-0.1L125.2,115.5L125.2,115.5z M124.9,114.6h0.8
			c0.1,0,0.2,0,0.3-0.1s0.2-0.2,0.2-0.3l0.2-0.8c0-0.1,0-0.2,0-0.3c-0.1-0.1-0.1-0.1-0.3-0.1h-0.8L124.9,114.6z M125.6,113.1
			l-0.4,1.3h-0.1L125.6,113.1L125.6,113.1z M125.8,113.1l-0.4,1.3h-0.1L125.8,113.1L125.8,113.1z M126.9,114.8
			c-0.2,0.2-0.4,0.3-0.6,0.4C126.5,115.1,126.7,115,126.9,114.8c0.1-0.2,0.2-0.4,0.2-0.6l0.2-0.8c0.1-0.2,0.1-0.4,0-0.6
			s-0.2-0.3-0.3-0.5c0.2,0.1,0.3,0.2,0.4,0.4s0.1,0.4,0,0.7l-0.2,0.8C127.2,114.4,127.1,114.6,126.9,114.8z M127.2,114.8
			c-0.2,0.2-0.4,0.3-0.6,0.4C126.7,115.1,126.9,115,127.2,114.8c0.1-0.2,0.2-0.4,0.2-0.6l0.2-0.8c0.1-0.2,0.1-0.4,0-0.6
			s-0.2-0.3-0.3-0.5c0.2,0.1,0.3,0.2,0.4,0.4s0.1,0.4,0,0.7l-0.2,0.8C127.4,114.4,127.3,114.6,127.2,114.8z"/>
		<path class="st3" d="M133,117.7c-0.1-0.1-0.2-0.1-0.3-0.3c-0.1-0.1-0.1-0.2-0.2-0.4c0-0.1,0-0.3,0-0.5l0.9-3.2
			c0-0.2,0.1-0.3,0.2-0.5c0.1-0.1,0.2-0.3,0.4-0.4c0.1-0.1,0.3-0.2,0.4-0.3s0.3-0.1,0.5-0.1h0.4c0.2,0,0.3,0,0.4,0.1
			c0.1,0.1,0.2,0.1,0.3,0.3c0.1,0.1,0.1,0.2,0.2,0.4c0,0.1,0,0.3,0,0.5l-0.9,3.2c0,0.2-0.1,0.3-0.2,0.5c-0.1,0.1-0.2,0.3-0.4,0.4
			s-0.3,0.2-0.4,0.3s-0.3,0.1-0.5,0.1h-0.4C133.3,117.8,133.2,117.7,133,117.7z M134.1,117c0.1,0,0.2,0,0.3-0.1s0.2-0.2,0.2-0.3
			l0.9-3.2c0-0.1,0-0.2,0-0.3c-0.1-0.1-0.1-0.1-0.3-0.1h-0.4c-0.1,0-0.2,0-0.3,0.1s-0.2,0.2-0.2,0.3l-0.9,3.2c0,0.1,0,0.2,0,0.3
			c0.1,0.1,0.1,0.1,0.3,0.1H134.1z M133.6,116.8c-0.1,0-0.1,0-0.1-0.1c0,0,0-0.1,0-0.2l0.9-3.2c0-0.1,0.1-0.1,0.1-0.2
			c0.1,0,0.1-0.1,0.2-0.1c-0.1,0.1-0.1,0.2-0.2,0.3l-0.9,3.2C133.6,116.7,133.6,116.8,133.6,116.8z M133.9,116.8
			c-0.1,0-0.1,0-0.1-0.1c0,0,0-0.1,0-0.2l0.9-3.2c0-0.1,0.1-0.1,0.1-0.2c0.1,0,0.1-0.1,0.2-0.1c-0.1,0.1-0.1,0.2-0.2,0.3l-0.9,3.2
			C133.8,116.7,133.8,116.8,133.9,116.8z M135.2,117.2c-0.2,0.2-0.4,0.3-0.6,0.4C134.8,117.5,135,117.4,135.2,117.2
			c0.1-0.2,0.2-0.4,0.2-0.6l0.9-3.2c0.1-0.2,0.1-0.4,0-0.6s-0.2-0.3-0.3-0.5c0.2,0.1,0.3,0.2,0.4,0.4c0.1,0.2,0.1,0.4,0,0.6
			l-0.9,3.2C135.5,116.8,135.4,117,135.2,117.2z M135.5,117.2c-0.2,0.2-0.4,0.3-0.6,0.4C135.1,117.5,135.2,117.4,135.5,117.2
			c0.1-0.2,0.2-0.4,0.2-0.6l0.9-3.2c0.1-0.2,0.1-0.4,0-0.6s-0.2-0.3-0.3-0.5c0.2,0.1,0.3,0.2,0.4,0.4c0.1,0.2,0.1,0.4,0,0.6
			l-0.9,3.2C135.8,116.8,135.7,117,135.5,117.2z"/>
		<path class="st3" d="M142,117.8h-0.8l1.5-5.6h1.6c0.2,0,0.3,0,0.4,0.1c0.1,0.1,0.2,0.1,0.3,0.3c0.1,0.1,0.1,0.2,0.2,0.4
			c0,0.1,0,0.3,0,0.4l-0.2,0.8c0,0.1-0.1,0.2-0.1,0.3s-0.1,0.2-0.2,0.3c-0.1,0.1-0.2,0.1-0.3,0.2c-0.1,0-0.2,0.1-0.3,0.1
			c0.1,0,0.2,0,0.3,0.1s0.1,0.1,0.2,0.2c0,0.1,0.1,0.2,0.1,0.4c0,0.1,0,0.3-0.1,0.5l-0.4,1.6h-0.8l0.4-1.6c0-0.2,0.1-0.3,0.1-0.4
			s0-0.2,0-0.3c0-0.1-0.1-0.1-0.2-0.1h-0.8L142,117.8z M142.9,115.5l-0.6,2.3h-0.1l0.6-2.3H142.9z M143.1,115.5l-0.6,2.3h-0.1
			l0.6-2.3H143.1z M142.9,114.6h0.8c0.1,0,0.2,0,0.3-0.1s0.2-0.2,0.2-0.3l0.2-0.8c0-0.1,0-0.2-0.1-0.3c-0.1-0.1-0.1-0.1-0.2-0.1
			h-0.8L142.9,114.6z M143.5,113.1l-0.4,1.3H143l0.4-1.3H143.5z M143.8,113.1l-0.4,1.3h-0.1l0.4-1.3H143.8z M144.1,117.8l0.4-1.6
			c0.1-0.3,0.1-0.5,0.1-0.7s-0.1-0.3-0.2-0.4c0.1,0.1,0.2,0.2,0.3,0.4c0.1,0.2,0,0.4,0,0.8l-0.4,1.6L144.1,117.8L144.1,117.8z
			 M144.4,117.8l0.4-1.6c0.1-0.3,0.1-0.5,0.1-0.7s-0.1-0.3-0.2-0.4c0.1,0.1,0.2,0.2,0.3,0.4c0.1,0.2,0.1,0.4,0,0.8l-0.4,1.6h-0.2
			V117.8z M145.1,114.4c0,0.1-0.1,0.1-0.2,0.2c-0.1,0.1-0.1,0.1-0.2,0.2c-0.1,0-0.2,0.1-0.2,0.1c0.1-0.1,0.3-0.2,0.4-0.3
			s0.2-0.3,0.2-0.4l0.2-0.8c0.1-0.2,0.1-0.4,0-0.6s-0.2-0.3-0.3-0.4c0.1,0,0.2,0.1,0.2,0.2c0.1,0.1,0.1,0.2,0.2,0.2
			c0,0.1,0.1,0.2,0.1,0.3c0,0.1,0,0.2,0,0.3l-0.2,0.8C145.2,114.3,145.2,114.3,145.1,114.4z M145.3,114.4c0,0.1-0.1,0.1-0.2,0.2
			c-0.1,0.1-0.1,0.1-0.2,0.2c-0.1,0.1-0.2,0.1-0.2,0.1c0.1-0.1,0.3-0.2,0.4-0.3c0.1-0.1,0.2-0.3,0.2-0.4l0.2-0.8
			c0.1-0.2,0.1-0.4,0-0.6s-0.2-0.3-0.3-0.4c0.1,0,0.2,0.1,0.2,0.2s0.1,0.2,0.2,0.2c0,0.1,0.1,0.2,0.1,0.3c0,0.1,0,0.2,0,0.3
			l-0.2,0.8C145.4,114.3,145.4,114.3,145.3,114.4z"/>
		<path class="st3" d="M151.8,117.8H151l1.3-4.8h-1l0.2-0.8h2.8l-0.2,0.8h-1L151.8,117.8z M153.3,113.1l-1.3,4.7l0,0L153.3,113.1
			L153.3,113.1z M153.6,113.1l-1.3,4.7h-0.1l1.3-4.7H153.6z M154.2,113l0.2-0.8h0.1l-0.2,0.8H154.2z M154.5,113l0.2-0.8h0.1
			l-0.2,0.8H154.5z"/>
		<path class="st3" d="M160.4,115.4l-0.6,2.4H159l1.2-4.4c0-0.2,0.1-0.3,0.2-0.5c0.1-0.1,0.2-0.3,0.4-0.4c0.1-0.1,0.3-0.2,0.4-0.3
			c0.2-0.1,0.3-0.1,0.5-0.1h0.4c0.2,0,0.3,0,0.4,0.1c0.1,0.1,0.2,0.1,0.3,0.3c0.1,0.1,0.1,0.2,0.2,0.4c0,0.1,0,0.3,0,0.5l-1.2,4.4
			H161l0.6-2.4H160.4L160.4,115.4z M159.9,117.8l0.6-2.3h0.1l-0.6,2.3H159.9z M160.2,117.8l0.6-2.3h0.1l-0.6,2.3H160.2z
			 M161.2,113.1c-0.1,0.1-0.2,0.2-0.2,0.3l-0.3,1.2h1.2l0.3-1.2c0-0.1,0-0.2,0-0.3s-0.1-0.1-0.2-0.1h-0.4
			C161.4,113,161.3,113,161.2,113.1z M160.9,114.5h-0.1l0.3-1.1c0-0.1,0.1-0.1,0.1-0.2s0.1-0.1,0.2-0.1c-0.1,0.1-0.1,0.2-0.2,0.3
			L160.9,114.5z M161.2,114.5h-0.1l0.3-1.1c0-0.1,0.1-0.1,0.1-0.2s0.1-0.1,0.2-0.1c-0.1,0.1-0.1,0.2-0.2,0.3L161.2,114.5z
			 M161.9,117.8l1.2-4.4c0.1-0.2,0.1-0.4,0-0.6s-0.2-0.3-0.3-0.5c0.2,0.1,0.3,0.2,0.4,0.4c0.1,0.2,0.1,0.4,0,0.6L161.9,117.8
			L161.9,117.8L161.9,117.8z M162.2,117.8l1.2-4.4c0.1-0.2,0.1-0.4,0-0.6s-0.2-0.3-0.3-0.5c0.2,0.1,0.3,0.2,0.4,0.4
			c0.1,0.2,0.1,0.4,0,0.6L162.2,117.8L162.2,117.8L162.2,117.8z"/>
		<path class="st3" d="M169.6,117.8h-0.8l1.3-4.8h-1l0.2-0.8h2.8l-0.2,0.8h-1L169.6,117.8z M171,113.1l-1.3,4.7h-0.1l1.3-4.7H171z
			 M171.3,113.1l-1.3,4.7h-0.1l1.3-4.7H171.3z M171.9,113l0.2-0.8h0.1L172,113H171.9z M172.2,113l0.2-0.8h0.1l-0.2,0.8H172.2z"/>
		<path class="st3" d="M177.6,117.8h-0.8l1.5-5.6h0.8L177.6,117.8z M177.8,117.8h-0.1l1.5-5.6h0.1L177.8,117.8z M178.1,117.8H178
			l1.5-5.6h0.1L178.1,117.8z"/>
		<path class="st3" d="M184.5,117.7c-0.1-0.1-0.2-0.1-0.3-0.3c-0.1-0.1-0.1-0.2-0.2-0.4c0-0.1,0-0.3,0-0.5l0.9-3.2
			c0-0.2,0.1-0.3,0.2-0.5c0.1-0.1,0.2-0.3,0.4-0.4c0.1-0.1,0.3-0.2,0.4-0.3s0.3-0.1,0.5-0.1h0.4c0.2,0,0.3,0,0.4,0.1
			c0.1,0.1,0.2,0.1,0.3,0.3c0.1,0.1,0.1,0.2,0.2,0.4c0,0.1,0,0.3,0,0.5l-0.9,3.2c0,0.2-0.1,0.3-0.2,0.5c-0.1,0.1-0.2,0.3-0.4,0.4
			s-0.3,0.2-0.4,0.3s-0.3,0.1-0.5,0.1H185C184.8,117.8,184.7,117.7,184.5,117.7z M185.6,117c0.1,0,0.2,0,0.3-0.1s0.2-0.2,0.2-0.3
			l0.9-3.2c0-0.1,0-0.2,0-0.3c-0.1-0.1-0.1-0.1-0.3-0.1h-0.4c-0.1,0-0.2,0-0.3,0.1s-0.2,0.2-0.2,0.3l-0.9,3.2c0,0.1,0,0.2,0,0.3
			c0.1,0.1,0.1,0.1,0.3,0.1H185.6z M185.2,116.8c-0.1,0-0.1,0-0.1-0.1c0,0,0-0.1,0-0.2l0.9-3.2c0-0.1,0.1-0.1,0.1-0.2
			c0.1,0,0.1-0.1,0.2-0.1c-0.1,0.1-0.1,0.2-0.2,0.3l-0.9,3.2C185.1,116.7,185.1,116.8,185.2,116.8z M185.4,116.8
			c-0.1,0-0.1,0-0.1-0.1c0,0,0-0.1,0-0.2l0.9-3.2c0-0.1,0.1-0.1,0.1-0.2c0.1,0,0.1-0.1,0.2-0.1c-0.1,0.1-0.1,0.2-0.2,0.3l-0.9,3.2
			C185.3,116.7,185.4,116.8,185.4,116.8z M186.8,117.2c-0.2,0.2-0.4,0.3-0.6,0.4C186.4,117.5,186.5,117.4,186.8,117.2
			c0.1-0.2,0.2-0.4,0.2-0.6l0.9-3.2c0.1-0.2,0.1-0.4,0-0.6s-0.2-0.3-0.3-0.5c0.2,0.1,0.3,0.2,0.4,0.4c0.1,0.2,0.1,0.4,0,0.6
			l-0.9,3.2C187.1,116.8,186.9,117,186.8,117.2z M187,117.2c-0.2,0.2-0.4,0.3-0.6,0.4C186.6,117.5,186.8,117.4,187,117.2
			c0.1-0.2,0.2-0.4,0.2-0.6l0.9-3.2c0.1-0.2,0.1-0.4,0-0.6s-0.2-0.3-0.3-0.5c0.2,0.1,0.3,0.2,0.4,0.4c0.1,0.2,0.1,0.4,0,0.6
			l-0.9,3.2C187.3,116.8,187.2,117,187,117.2z"/>
		<path class="st3" d="M194.7,117.8l-0.3-3.4l-0.9,3.4h-0.8l1.5-5.6h0.8l0.3,3.4l0.9-3.4h0.8l-1.5,5.6H194.7L194.7,117.8
			L194.7,117.8z M193.7,117.8l0.7-2.7v0.3L193.7,117.8C193.8,117.8,193.7,117.8,193.7,117.8z M193.9,117.8l0.5-2v0.3l-0.4,1.7H193.9
			L193.9,117.8z M195.3,112.2l0.2,2.4l-0.1,0.3l-0.2-2.7L195.3,112.2L195.3,112.2z M195.5,112.2l0.1,1.7l-0.1,0.3l-0.2-2H195.5
			L195.5,112.2z M195.7,117.8l1.5-5.6h0.1l-1.5,5.6H195.7z M195.9,117.8l1.5-5.6h0.1l-1.5,5.6H195.9z"/>
	</g>
	<g>
		<path class="st4" d="M55.3,103.5h7.2l-0.9,3.6h-7.1l-2.4,8.4l-0.6,2.3H48l6.7-24.9h12.4l-1,3.6h-9L55.3,103.5z M52,117.7l0.6-2.3
			c0.4-1.3,0.8-2.6,1.1-3.9c0.4-1.3,0.7-2.6,1.1-3.9h0.5l-2.2,7.8l-0.6,2.3H52z M53.1,117.7l0.6-2.3c0.4-1.3,0.8-2.6,1.1-3.9
			c0.4-1.3,0.7-2.6,1.1-3.9h0.5l-2.2,7.8l-0.6,2.3H53.1z M58.1,96.9l-1.6,6H56l1.6-6H58.1z M59.2,96.9l-1.6,6H57l1.6-6H59.2z
			 M62.1,107l0.9-3.6h0.5l-0.9,3.6H62.1z M63.1,107l0.9-3.6h0.5l-0.9,3.6H63.1z M66.7,96.4l1-3.6h0.5l-1,3.6H66.7z M67.7,96.4l1-3.6
			h0.5l-1,3.6H67.7z"/>
		<path class="st4" d="M69.7,102.1l-1.9,7.1h-2.4l3.5-13c0.1-0.5,0.4-0.9,0.7-1.4c0.3-0.4,0.7-0.8,1.1-1.1c0.4-0.3,0.9-0.6,1.3-0.8
			c0.5-0.2,1-0.3,1.4-0.3h1.2c0.5,0,0.9,0.1,1.3,0.3c0.4,0.2,0.7,0.4,0.9,0.8c0.2,0.3,0.4,0.7,0.5,1.1s0,0.9-0.1,1.3l-3.5,13h-2.4
			l1.9-7.1L69.7,102.1L69.7,102.1z M68.2,109.2l1.8-6.7h0.4l-1.8,6.7H68.2z M68.9,109.2l1.8-6.7H71l-1.8,6.7H68.9z M71.9,95.4
			c-0.3,0.2-0.5,0.5-0.6,0.8l-0.9,3.5h3.5l0.9-3.5c0.1-0.3,0-0.6-0.1-0.8S74.3,95,74,95h-1.2C72.4,95.1,72.1,95.2,71.9,95.4z
			 M71.1,99.4h-0.4l0.8-3.2c0-0.2,0.2-0.4,0.3-0.5c0.2-0.1,0.4-0.3,0.6-0.3c-0.3,0.2-0.4,0.5-0.5,0.8L71.1,99.4z M71.8,99.4h-0.4
			l0.8-3.2c0-0.2,0.2-0.4,0.3-0.5c0.2-0.1,0.4-0.3,0.6-0.3c-0.3,0.2-0.4,0.5-0.5,0.8L71.8,99.4z M74,109.2l3.5-13
			c0.2-0.7,0.2-1.3,0-1.8c-0.2-0.6-0.5-1-0.9-1.4c0.5,0.3,0.9,0.7,1.1,1.3c0.2,0.6,0.3,1.2,0.1,1.9l-3.5,13H74L74,109.2z
			 M74.7,109.2l3.5-13c0.2-0.7,0.2-1.3,0-1.8c-0.2-0.6-0.5-1-0.9-1.4c0.5,0.3,0.9,0.7,1.1,1.3c0.2,0.6,0.3,1.2,0.1,1.9l-3.5,13H74.7
			L74.7,109.2z"/>
		<path class="st4" d="M79.1,109.2l4.4-16.5h2.4l-3.8,14.1H88l-0.6,2.4H79.1L79.1,109.2z M82.9,106.5h-0.4l3.7-13.8h0.4L82.9,106.5z
			 M83.6,106.5h-0.4l3.7-13.8h0.4L83.6,106.5z M87.7,109.2l0.6-2.4h0.4l-0.6,2.4H87.7z M88.4,109.2l0.6-2.4h0.4l-0.6,2.4H88.4z"/>
		<path class="st4" d="M99.3,95.4c-0.3,0.2-0.5,0.5-0.6,0.8l-2.5,9.4c-0.1,0.3-0.1,0.6,0.1,0.8s0.4,0.4,0.8,0.4h1.2
			c0.3,0,0.7-0.1,0.9-0.4c0.3-0.2,0.5-0.5,0.6-0.8l0.6-2.4h2.4l-0.6,2.4c-0.1,0.5-0.3,0.9-0.6,1.4c-0.3,0.4-0.7,0.8-1.1,1.1
			c-0.4,0.3-0.9,0.6-1.3,0.8c-0.5,0.2-1,0.3-1.4,0.3l0,0h-1.2l0,0c-0.5,0-0.9-0.1-1.3-0.3c-0.4-0.2-0.7-0.4-0.9-0.8
			c-0.2-0.3-0.4-0.7-0.5-1.1s0-0.9,0.1-1.4l2.5-9.4c0.1-0.5,0.4-0.9,0.7-1.4c0.3-0.4,0.7-0.8,1.1-1.1c0.4-0.3,0.9-0.6,1.3-0.8
			c0.5-0.2,1-0.3,1.4-0.3h1.2c0.5,0,0.9,0.1,1.3,0.3c0.4,0.2,0.7,0.4,0.9,0.8c0.2,0.3,0.4,0.7,0.5,1.1s0,0.9-0.1,1.4l-0.3,1.2H102
			l0.3-1.2c0.1-0.3,0.1-0.6-0.1-0.8c-0.2-0.2-0.4-0.3-0.8-0.3h-1.2C99.9,95.1,99.6,95.2,99.3,95.4z M97,106.5
			c-0.2,0-0.3-0.2-0.4-0.3s-0.1-0.3,0-0.5l2.5-9.4c0.1-0.2,0.2-0.4,0.3-0.5s0.3-0.2,0.5-0.3c-0.2,0.2-0.4,0.5-0.5,0.8l-2.5,9.4
			C96.9,106,96.9,106.3,97,106.5z M97.8,106.5c-0.2,0-0.3-0.2-0.4-0.3s-0.1-0.3,0-0.5l2.5-9.4c0.1-0.2,0.2-0.4,0.3-0.5
			s0.3-0.2,0.5-0.3c-0.2,0.2-0.4,0.5-0.5,0.8l-2.5,9.4C97.6,106,97.6,106.3,97.8,106.5z M101.8,107.6c-0.5,0.6-1.1,1-1.8,1.3
			c0.6-0.4,1.1-0.8,1.6-1.4s0.8-1.2,1-1.8l0.6-2.4h0.4l-0.6,2.4C102.6,106.4,102.3,107,101.8,107.6z M102.5,107.6
			c-0.5,0.6-1.1,1-1.8,1.3c0.6-0.4,1.1-0.8,1.6-1.4s0.8-1.2,1-1.8l0.6-2.4h0.4l-0.6,2.4C103.3,106.4,103,107,102.5,107.6z
			 M104.7,97.4l0.3-1.2c0.2-0.7,0.2-1.3,0-1.8c-0.2-0.6-0.4-1-0.9-1.4c0.5,0.3,0.9,0.7,1.1,1.3c0.2,0.6,0.2,1.2,0,1.9l-0.3,1.2
			H104.7L104.7,97.4z M105.4,97.4l0.3-1.2c0.2-0.7,0.2-1.3,0-1.8c-0.2-0.6-0.4-1-0.9-1.4c0.5,0.3,0.9,0.7,1.1,1.3
			c0.2,0.6,0.2,1.2,0,1.9l-0.3,1.2H105.4L105.4,97.4z"/>
		<path class="st4" d="M109,108.9c-0.4-0.2-0.7-0.4-0.9-0.8c-0.2-0.3-0.4-0.7-0.5-1.1s0-0.9,0.1-1.4l2.5-9.4
			c0.1-0.5,0.3-0.9,0.6-1.4c0.3-0.4,0.7-0.8,1.1-1.1c0.4-0.3,0.9-0.6,1.3-0.8c0.5-0.2,1-0.3,1.4-0.3h1.2c0.5,0,0.9,0.1,1.3,0.3
			c0.4,0.2,0.7,0.4,0.9,0.8c0.2,0.3,0.4,0.7,0.5,1.1s0,0.9-0.1,1.4l-2.5,9.4c-0.1,0.5-0.4,1-0.6,1.4c-0.3,0.4-0.7,0.8-1.1,1.1
			c-0.4,0.3-0.9,0.6-1.3,0.8c-0.5,0.2-1,0.3-1.4,0.3h-1.2C109.9,109.2,109.4,109.1,109,108.9z M112.1,106.8c0.3,0,0.7-0.1,0.9-0.3
			s0.5-0.5,0.6-0.8l2.5-9.4c0.1-0.3,0.1-0.6-0.1-0.8c-0.2-0.2-0.4-0.4-0.8-0.4H114c-0.3,0-0.7,0.1-0.9,0.4c-0.3,0.2-0.5,0.5-0.6,0.8
			l-2.5,9.4c-0.1,0.3-0.1,0.6,0.1,0.8c0.2,0.2,0.4,0.3,0.8,0.3H112.1z M110.9,106.5c-0.2,0-0.3-0.1-0.4-0.3s-0.1-0.3,0-0.5l2.5-9.4
			c0-0.2,0.2-0.3,0.3-0.5c0.2-0.1,0.4-0.2,0.6-0.3c-0.2,0.2-0.4,0.5-0.5,0.8l-2.5,9.4C110.7,106,110.7,106.3,110.9,106.5z
			 M111.6,106.5c-0.2,0-0.3-0.1-0.4-0.3c-0.1-0.1-0.1-0.3,0-0.5l2.5-9.4c0-0.2,0.2-0.3,0.3-0.5c0.2-0.1,0.4-0.2,0.6-0.3
			c-0.2,0.2-0.4,0.5-0.5,0.8l-2.5,9.4C111.4,106,111.5,106.3,111.6,106.5z M115.6,107.6c-0.5,0.6-1.1,1-1.8,1.3
			c0.6-0.4,1.1-0.8,1.6-1.4s0.8-1.2,1-1.8l2.5-9.4c0.2-0.7,0.2-1.3,0-1.8c-0.2-0.6-0.5-1-0.9-1.4c0.5,0.3,0.9,0.7,1.2,1.3
			c0.2,0.6,0.3,1.2,0.1,1.9l-2.5,9.4C116.5,106.4,116.1,107,115.6,107.6z M116.3,107.6c-0.5,0.6-1.1,1-1.8,1.3
			c0.6-0.4,1.1-0.8,1.6-1.4s0.8-1.2,1-1.8l2.5-9.4c0.2-0.7,0.2-1.3,0-1.8c-0.2-0.6-0.5-1-0.9-1.4c0.5,0.3,0.9,0.7,1.2,1.3
			c0.2,0.6,0.3,1.2,0.1,1.9l-2.5,9.4C117.2,106.4,116.8,107,116.3,107.6z"/>
		<path class="st4" d="M126.6,109.2l-0.9-10l-2.7,10h-2.4l4.4-16.5h2.4l0.8,10l2.7-10h2.4l-4.4,16.5H126.6L126.6,109.2L126.6,109.2z
			 M123.4,109.2l2.1-8l0.1,1l-1.9,7H123.4L123.4,109.2z M124.1,109.2l1.6-6l0.1,1l-1.3,5H124.1L124.1,109.2z M128.1,92.7l0.6,7
			l-0.3,0.9l-0.7-8L128.1,92.7L128.1,92.7z M128.9,92.7l0.4,5l-0.3,1l-0.5-6H128.9L128.9,92.7z M129.3,109.2l4.4-16.5h0.4l-4.4,16.5
			H129.3z M130,109.2l4.4-16.5h0.4l-4.4,16.5H130z"/>
		<path class="st4" d="M141.7,92.7l-3.3,12.4l5.1-5.9l2,5.9l3.3-12.4h2.4l-4.4,16.5h-2.4l-2-5.9l-5.1,5.9h-2.4l4.4-16.5H141.7z
			 M137.7,109.2c0.7-0.8,1.5-1.7,2.2-2.6c0.8-0.9,1.5-1.8,2.3-2.6l0.1,0.3l-4.3,4.9L137.7,109.2L137.7,109.2z M138.4,109.2
			c0.7-0.7,1.3-1.5,2-2.3s1.3-1.6,2-2.3l0.1,0.3l-3.8,4.4L138.4,109.2L138.4,109.2z M139.6,103.2c-0.1,0.1-0.2,0.2-0.3,0.3
			c-0.1,0.1-0.2,0.2-0.2,0.3l3-11.1h0.4L139.6,103.2z M140.6,102.1c-0.1,0.1-0.2,0.2-0.3,0.3c-0.1,0.1-0.2,0.2-0.3,0.3l2.7-10h0.4
			L140.6,102.1z M144.2,99.2l1.4,4.1l-0.1,0.5l-1.5-4.4L144.2,99.2z M144.9,99.2l1,2.9l-0.2,0.5l-1.1-3.2L144.9,99.2z M147.1,109.2
			l4.4-16.5h0.4l-4.4,16.5H147.1z M147.8,109.2l4.4-16.5h0.4l-4.4,16.5H147.8z"/>
		<path class="st4" d="M155.4,109.2H153l4.4-16.5h2.4L155.4,109.2z M156.1,109.2h-0.4l4.4-16.5h0.4L156.1,109.2z M156.8,109.2h-0.4
			l4.4-16.5h0.4L156.8,109.2z"/>
		<path class="st4" d="M166.9,109.2l-0.9-10l-2.7,10H161l4.4-16.5h2.4l0.8,10l2.7-10h2.4l-4.4,16.5H166.9L166.9,109.2L166.9,109.2z
			 M163.7,109.2l2.1-8l0.1,1l-1.9,7H163.7L163.7,109.2z M164.4,109.2l1.6-6l0.1,1l-1.3,5H164.4L164.4,109.2z M168.5,92.7l0.6,7
			l-0.3,0.9l-0.7-8L168.5,92.7L168.5,92.7z M169.2,92.7l0.4,5l-0.3,1l-0.5-6H169.2L169.2,92.7z M169.6,109.2l4.4-16.5h0.4l-4.4,16.5
			H169.6z M170.3,109.2l4.4-16.5h0.4l-4.4,16.5H170.3z"/>
		<path class="st4" d="M180.9,99.8h4.7l-1.6,5.9c-0.1,0.5-0.4,0.9-0.6,1.4c-0.3,0.4-0.7,0.8-1.1,1.1c-0.4,0.3-0.9,0.6-1.3,0.8
			c-0.5,0.2-1,0.3-1.4,0.3l0,0h-1.2l0,0c-0.5,0-0.9-0.1-1.3-0.3c-0.4-0.2-0.7-0.4-0.9-0.8c-0.2-0.3-0.4-0.7-0.5-1.1s0-0.9,0.1-1.4
			l2.5-9.4c0.1-0.5,0.4-0.9,0.7-1.4c0.3-0.4,0.7-0.8,1.1-1.1c0.4-0.3,0.9-0.6,1.3-0.8c0.5-0.2,1-0.3,1.4-0.3h1.2
			c0.5,0,0.9,0.1,1.3,0.3c0.4,0.2,0.7,0.4,0.9,0.8c0.2,0.3,0.4,0.7,0.5,1.1s0,0.9-0.1,1.4l-0.3,1.2h-2.4l0.3-1.2
			c0.1-0.3,0.1-0.6-0.1-0.8c-0.2-0.2-0.4-0.3-0.8-0.3h-1.2c-0.3,0-0.7,0.1-0.9,0.3c-0.3,0.2-0.5,0.5-0.6,0.8l-2.5,9.4
			c-0.1,0.3-0.1,0.6,0.1,0.8c0.2,0.2,0.4,0.4,0.8,0.4h1.2c0.3,0,0.7-0.1,0.9-0.4c0.3-0.2,0.5-0.5,0.6-0.8l0.9-3.5h-2.4L180.9,99.8z
			 M179,106.5c-0.2,0-0.3-0.2-0.4-0.3c-0.1-0.1-0.1-0.3,0-0.5l2.5-9.4c0.1-0.2,0.2-0.4,0.3-0.5s0.3-0.2,0.5-0.3
			c-0.2,0.2-0.4,0.5-0.5,0.8l-2.5,9.4C178.8,106,178.8,106.3,179,106.5z M179.7,106.5c-0.2,0-0.3-0.2-0.4-0.3s-0.1-0.3,0-0.5
			l0.8-3.2h0.4l-0.8,3.2C179.5,106,179.5,106.3,179.7,106.5z M181.2,99.4h-0.4l0.8-3.2c0.1-0.2,0.2-0.4,0.3-0.5
			c0.2-0.1,0.3-0.2,0.5-0.3c-0.2,0.2-0.4,0.5-0.5,0.8L181.2,99.4z M183.7,107.6c-0.5,0.6-1.1,1-1.8,1.3c0.6-0.4,1.1-0.8,1.6-1.4
			s0.8-1.2,1-1.8l1.6-5.9h0.4l-1.6,5.9C184.6,106.4,184.2,107,183.7,107.6z M184.4,107.6c-0.5,0.6-1.1,1-1.8,1.3
			c0.6-0.4,1.1-0.8,1.6-1.4s0.8-1.2,1-1.8l1.6-5.9h0.4l-1.6,5.9C185.3,106.4,184.9,107,184.4,107.6z M186.6,97.4l0.3-1.2
			c0.2-0.7,0.2-1.3,0-1.8c-0.2-0.6-0.4-1-0.9-1.4c0.5,0.3,0.9,0.7,1.1,1.3c0.2,0.6,0.2,1.2,0,1.9l-0.3,1.2H186.6L186.6,97.4z
			 M187.3,97.4l0.3-1.2c0.2-0.7,0.2-1.3,0-1.8c-0.2-0.6-0.4-1-0.9-1.4c0.5,0.3,0.9,0.7,1.1,1.3c0.2,0.6,0.2,1.2,0,1.9l-0.3,1.2
			H187.3L187.3,97.4z"/>
		<path class="st4" d="M192.1,106.5c0.1,0.2,0.4,0.3,0.7,0.3h1.3c0.3,0,0.6-0.1,0.9-0.3c0.3-0.2,0.5-0.5,0.6-0.8l0.3-1.2
			c0-0.2,0.1-0.4,0.1-0.6c0-0.3,0.1-0.5,0.1-0.7s-0.1-0.4-0.2-0.6s-0.3-0.3-0.6-0.3l0,0h-1.2c-0.3,0-0.6-0.1-1-0.2s-0.7-0.4-1-0.7
			c-0.3-0.3-0.5-0.7-0.6-1.1s-0.1-0.9,0-1.5l0.6-2.4c0.1-0.5,0.3-0.9,0.6-1.4c0.3-0.4,0.6-0.8,1-1.1c0.4-0.3,0.9-0.6,1.3-0.7
			c0.5-0.2,1-0.3,1.4-0.3h1.2c0.5,0,0.9,0.1,1.3,0.3c0.4,0.2,0.7,0.4,0.9,0.7s0.4,0.7,0.5,1.1s0,0.9-0.1,1.4l-0.6,2.4h-2.4l0.6-2.4
			c0.1-0.3,0-0.6-0.1-0.8c-0.2-0.2-0.4-0.3-0.7-0.4h-1c-0.3,0-0.6,0.1-0.9,0.3s-0.5,0.5-0.5,0.8l-0.3,1.2c0,0.2-0.1,0.4-0.1,0.7
			c-0.1,0.3-0.1,0.5-0.1,0.8s0,0.5,0.2,0.6c0.1,0.2,0.3,0.3,0.6,0.3h1.2c0.3,0,0.6,0.1,1,0.2s0.7,0.4,1,0.7c0.3,0.3,0.5,0.7,0.6,1.1
			s0.1,0.9-0.1,1.5l-0.6,2.4c-0.1,0.5-0.4,0.9-0.7,1.4c-0.3,0.4-0.7,0.8-1.1,1.1c-0.4,0.3-0.9,0.6-1.3,0.8c-0.5,0.2-0.9,0.3-1.4,0.3
			h-1.3c-0.5,0-0.9-0.1-1.3-0.3c-0.4-0.2-0.7-0.4-0.9-0.8c-0.2-0.3-0.4-0.7-0.4-1.1c-0.1-0.4,0-0.9,0.1-1.4l0.6-2.4h2.4l-0.6,2.4
			C191.9,106,191.9,106.3,192.1,106.5z M193,103.3h0.4l-0.6,2.4c-0.1,0.3-0.1,0.6,0.1,0.8c-0.2,0-0.3-0.1-0.4-0.3
			c-0.1-0.1-0.1-0.3,0-0.5L193,103.3z M193.7,103.3h0.4l-0.6,2.4c-0.1,0.3-0.1,0.6,0.1,0.8l0,0c-0.2,0-0.3-0.1-0.4-0.3
			c-0.1-0.1-0.1-0.3,0-0.5L193.7,103.3z M194.8,97.9c0,0.2-0.1,0.4-0.1,0.5c0,0.2,0,0.4,0,0.5c0,0.2,0,0.3,0.1,0.5
			c-0.2,0-0.3-0.1-0.3-0.2c-0.1-0.1-0.1-0.2-0.1-0.4s0-0.3,0-0.5s0.1-0.4,0.1-0.5s0-0.1,0-0.2s0-0.1,0-0.2l0.3-1.2
			c0.1-0.2,0.2-0.4,0.3-0.5c0.2-0.1,0.3-0.2,0.5-0.3c-0.2,0.2-0.4,0.5-0.5,0.8l-0.3,1.2C194.9,97.5,194.9,97.7,194.8,97.9z
			 M195.5,97.9c0,0.2-0.1,0.4-0.1,0.5c0,0.2,0,0.4,0,0.5c0,0.2,0,0.3,0.1,0.5l0,0c-0.2,0-0.3-0.1-0.3-0.2s-0.1-0.3-0.1-0.4
			c0-0.2,0-0.3,0-0.5s0.1-0.4,0.1-0.5s0-0.1,0-0.2s0-0.1,0-0.2l0.3-1.2c0.1-0.2,0.2-0.4,0.3-0.5c0.2-0.1,0.3-0.2,0.5-0.3
			c-0.2,0.2-0.4,0.5-0.5,0.8l-0.3,1.2C195.6,97.5,195.6,97.7,195.5,97.9z M198.2,106.7c-0.2,0.3-0.4,0.6-0.7,0.9s-0.5,0.5-0.9,0.8
			c-0.3,0.2-0.6,0.4-1,0.5c0.6-0.4,1.2-0.8,1.6-1.4c0.5-0.6,0.8-1.2,1-1.8l0.6-2.4c0.2-0.7,0.2-1.4,0-1.9s-0.6-0.9-1-1.3
			c0.2,0.1,0.5,0.3,0.7,0.5s0.4,0.4,0.5,0.7s0.2,0.6,0.3,0.9c0,0.3,0,0.7-0.1,1.1l-0.6,2.4C198.5,106,198.4,106.4,198.2,106.7z
			 M198.9,106.7c-0.2,0.3-0.4,0.6-0.7,0.9s-0.5,0.5-0.9,0.8c-0.3,0.2-0.6,0.4-1,0.5c0.6-0.4,1.2-0.8,1.6-1.4c0.5-0.6,0.8-1.2,1-1.8
			l0.6-2.4c0.2-0.7,0.2-1.4,0-1.9s-0.6-0.9-1-1.3c0.2,0.1,0.5,0.3,0.7,0.5s0.4,0.4,0.5,0.7c0.1,0.3,0.2,0.6,0.3,0.9
			c0,0.3,0,0.7-0.1,1.1l-0.6,2.4C199.2,106,199.1,106.4,198.9,106.7z M200.1,98.6l0.6-2.4c0.2-0.7,0.2-1.3,0-1.8
			c-0.2-0.6-0.4-1-0.9-1.3c0.5,0.3,0.9,0.7,1.1,1.3c0.2,0.6,0.3,1.2,0.1,1.9l-0.6,2.4L200.1,98.6L200.1,98.6z M200.8,98.6l0.6-2.4
			c0.2-0.7,0.2-1.3,0-1.8c-0.2-0.6-0.4-1-0.9-1.3c0.5,0.3,0.9,0.7,1.1,1.3c0.2,0.6,0.3,1.2,0.1,1.9l-0.6,2.4L200.8,98.6L200.8,98.6z
			"/>
	</g>
</g>
</svg>
