<?xml version="1.0" encoding="utf-8"?>
<!-- Generator: Adobe Illustrator 25.3.1, SVG Export Plug-In . SVG Version: 6.00 Build 0)  -->
<svg version="1.1" id="Layer_1" xmlns="http://www.w3.org/2000/svg" xmlns:xlink="http://www.w3.org/1999/xlink" x="0px" y="0px"
	 viewBox="0 0 250 167" style="enable-background:new 0 0 250 167;" xml:space="preserve">
<style type="text/css">
	.st0{fill:#F7F7F7;}
	.st1{fill:none;}
	.st2{fill:#FFFFFF;}
	.st3{fill:#020203;}
	.st4{fill:#54932B;}
	.st5{fill:#878787;}
	.st6{fill:#E99B41;}
	.st7{fill:#EEB644;}
	.st8{fill:#FFF8B7;}
	.st9{fill:#DADADA;}
	.st10{fill:#89BD24;}
	.st11{fill:#FFFFFF;stroke:#FFFFFF;stroke-width:3.6936;stroke-miterlimit:10;}
	.st12{fill:#71B62B;}
</style>
<rect x="-0.5" class="st0" width="250" height="167"/>
<g>
	<g>
		<path class="st1" d="M153.9,31.9L153.9,31.9L153.9,31.9z"/>
		<path class="st1" d="M154.2,37.4c0,0.2-0.1,0.4-0.1,0.5c-0.9-0.1-1.9-0.5-2.7-0.8c-0.2-0.1-0.3-0.1-0.5-0.2c0-0.1,0-0.3,0.1-0.4
			c0.3,0.2,0.7,0.3,1,0.4C152.6,37.1,153.4,37.3,154.2,37.4z"/>
		<path class="st1" d="M154.5,36.3c0,0.1-0.1,0.1-0.1,0.2l0,0C154.4,36.4,154.5,36.3,154.5,36.3z"/>
		<path class="st2" d="M154.1,37.9c-0.2,1-0.4,2.1-0.5,3.1l0,0c-0.3-0.2-0.5-0.7-0.7-1.1c0,0.1,0,0.2-0.1,0.2
			c-0.2,0.5-0.7,0.5-1.1,0.6c-0.4,0.1-0.9,0.1-1.4,0.1c0.2-1.3,0.4-2.6,0.6-3.9c0.2,0.1,0.3,0.2,0.5,0.2
			C152.2,37.4,153.2,37.8,154.1,37.9z"/>
		<path class="st2" d="M156.7,34c-0.1,0-0.2,0.1-0.3,0.1s-0.2,0.1-0.3,0.1s-0.1-0.1-0.2-0.1c-0.1-0.1-0.1-0.1-0.2-0.2
			c-0.4-0.3-0.8-0.7-1.2-1.1c-0.1-0.1-0.3-0.3-0.4-0.4c-0.1-0.1-0.2-0.3-0.3-0.4c0,0,0-0.1-0.1-0.1c-0.1-0.2-0.2-0.4-0.2-0.6
			c-0.1-0.2-0.1-0.5,0-0.7c0.5-0.2,1-0.2,1.5-0.3C154.9,31.6,155.8,33.1,156.7,34z"/>
		<path class="st2" d="M155.4,34.7C155.4,34.7,155.4,34.8,155.4,34.7c-0.1,0.1-0.1,0.1-0.2,0.2c-0.1,0.1-0.1,0.2-0.2,0.2
			c-0.5-0.2-1.2-0.6-1.5-0.8c0,0-0.1,0-0.1-0.1c0,0-0.1,0-0.1-0.1c-0.1,0-0.1-0.1-0.2-0.1c-0.1,0-0.2-0.1-0.2-0.2
			c-0.3-0.2-0.6-0.4-0.8-0.7c-0.3-0.3-0.4-0.5-0.4-0.8c0-0.1,0.1-0.2,0.1-0.3c0-0.1,0.1-0.1,0.1-0.2l0,0c0-0.1,0.1-0.1,0.1-0.2
			c0.1-0.2,0.3-0.4,0.5-0.6c0.1-0.1,0.2-0.1,0.2-0.2c0,0,0,0,0,0.1s0,0.2,0.1,0.3c0,0.1,0.1,0.2,0.1,0.3c0,0,0,0,0,0.1
			c0.2,0.4,0.4,0.7,0.7,1.1s0.7,0.8,1.1,1.2C154.9,34.3,155.2,34.5,155.4,34.7z"/>
		<path class="st2" d="M176.1,35.1c-0.3,0.1-0.7,0.2-1,0.3c-0.4,0.1-0.7,0.1-1.1,0.1l0,0c-0.4,0-0.7,0-1.1-0.1c-0.3,0-0.7-0.1-1-0.1
			c0,0,0,0-0.1,0c-3.3-0.3-6.6-0.7-9.8-1c-0.2,0-0.3,0-0.5-0.1c-1-0.1-2.1-0.3-3.1-0.3c-0.2,0-0.4,0-0.5,0c0,0,0-0.1-0.1-0.1
			l-0.1-0.1c-0.2-0.1-0.3-0.3-0.5-0.4c-0.1-0.1-0.2-0.2-0.3-0.4c-0.2-0.2-0.3-0.4-0.5-0.7c-0.1-0.1-0.1-0.2-0.2-0.4
			c-0.2-0.4-0.2-0.7-0.2-1.1c0-0.2,0-0.3,0.1-0.5c0.5,0,1,0,1.4-0.1l0,0c1.6-0.1,3.3-0.2,4.9-0.2c1.6,0,3.3,0,4.9,0.1
			c1.5,0.1,3.1,0.2,4.6,0.3c0.9,0.1,1.7,0.2,2.6,0.3c0.1,0,0.1,0,0.2,0l0,0c0.3,0,0.8,0.1,1.2,0.1c-0.2,0.2-0.3,0.4-0.5,0.6
			c-0.5,0.8-0.6,2-0.3,2.7C175.4,34.7,175.7,35,176.1,35.1z"/>
		<path class="st2" d="M154.6,35.9L154.6,35.9c0,0.2-0.1,0.2-0.1,0.3c0,0.1-0.1,0.1-0.1,0.2c-0.3,0-0.7,0-1.1-0.1
			c-0.2-0.1-0.5-0.1-0.7-0.2c-0.2-0.1-0.4-0.1-0.5-0.2c-0.1,0-0.2-0.1-0.3-0.1s-0.2-0.1-0.3-0.1c-0.1-0.1-0.3-0.2-0.4-0.3l0,0
			c0-0.2,0.1-0.3,0.1-0.5c0.1-0.4,0.1-0.8,0.2-1.3c0.1,0.1,0.2,0.2,0.3,0.3c0.3,0.3,0.7,0.6,1,0.8c0.2,0.1,0.4,0.3,0.6,0.4
			c0.3,0.2,0.7,0.4,1.1,0.6C154.4,35.9,154.5,35.9,154.6,35.9z"/>
		<path class="st3" d="M178.6,31.6c0-0.1,0-0.1-0.1-0.2c-0.2-0.6-0.7-1-1.3-1c-0.4-0.1-0.8-0.3-1.2-0.3c-3.5-0.5-6.9-0.8-10.4-0.9
			c-3.1-0.1-6.3,0-9.4,0.3c-0.2-0.2-0.5-0.2-0.7,0.1l0,0c-0.1,0-0.3,0-0.4,0c-1.8,0.2-3.1,0.7-3.8,2l0,0c-0.3,0.3-0.4,0.6-0.4,0.9
			c-0.1,0.2-0.1,0.5-0.2,0.7c-0.1,0.5-0.2,1-0.3,1.5c-0.2,0.1-0.3,0.2-0.3,0.4s0,0.4,0.1,0.6c-0.2,1.2-0.5,2.9-0.7,4.9
			c-0.7,5-1.4,11.7-1.7,14.7h0.7c0.1-1,1.2-9,1.3-10c0.2-1.5,0.4-3,0.6-4.4c0.2-1.3,0.4-2.6,0.6-3.9c0-0.1,0-0.3,0.1-0.4
			c0.3,0.2,0.7,0.3,1,0.4c0.6,0.2,1.4,0.5,2.2,0.5c0,0.2-0.1,0.4-0.1,0.5c-0.2,1-0.4,2.1-0.5,3.1c0,0.3-0.1,0.5-0.1,0.8
			c-0.4,2.2-1.9,11.3-2.2,13.4h0.7c0.4-2.6,1.6-9.4,2.4-13.9c0.3-1.4,0.5-2.5,0.6-3.3c0.1-0.3,0.1-0.5,0.2-0.8
			c0.1,0,0.2-0.1,0.3-0.1c0.3-0.2,0.2-0.5,0-0.7c0-0.1,0.1-0.2,0.2-0.3c0.4,0,0.7-0.2,0.8-0.6c0-0.1,0-0.2,0-0.3
			c0.4-0.3,1-0.5,1.7-0.5c1.8,0,3.6,0.3,5.3,0.5c3.5,0.4,7.1,1.1,10.6,1c2,0,4.2-0.7,4.6-2.9C178.9,32.7,178.8,32.1,178.6,31.6z
			 M154.6,36.1c0,0.1-0.1,0.1-0.1,0.2c0,0.1-0.1,0.1-0.1,0.2l0,0c-0.3,0-0.7,0-1.1-0.1c-0.2-0.1-0.5-0.1-0.7-0.2
			c-0.2-0.1-0.4-0.1-0.5-0.2c-0.1,0-0.2-0.1-0.3-0.1s-0.2-0.1-0.3-0.1c-0.1-0.1-0.3-0.2-0.4-0.3l0,0c0-0.2,0.1-0.3,0.1-0.5
			c0.1-0.4,0.1-0.8,0.2-1.3c0.1,0.1,0.2,0.2,0.3,0.3c0.3,0.3,0.7,0.6,1,0.8c0.2,0.1,0.4,0.3,0.6,0.4c0.3,0.2,0.7,0.4,1.1,0.6
			c0.1,0,0.2,0.1,0.3,0.1C154.6,36,154.6,36,154.6,36.1z M155.4,34.8l-0.1,0.1c-0.1,0.1-0.1,0.2-0.2,0.2c-0.5-0.2-1.2-0.6-1.5-0.8
			c0,0-0.1,0-0.1-0.1c0,0-0.1,0-0.1-0.1c-0.1,0-0.1-0.1-0.2-0.1c-0.1,0-0.2-0.1-0.2-0.2c-0.3-0.2-0.6-0.4-0.8-0.7
			c-0.3-0.3-0.4-0.5-0.4-0.8c0-0.1,0.1-0.2,0.1-0.3c0-0.1,0.1-0.1,0.1-0.2l0,0c0-0.1,0.1-0.1,0.1-0.2c0.1-0.2,0.3-0.4,0.5-0.6
			c0.1-0.1,0.2-0.1,0.2-0.2c0,0,0,0,0,0.1s0,0.2,0.1,0.3c0,0.1,0.1,0.2,0.1,0.3c0,0,0,0,0,0.1c0.2,0.4,0.4,0.7,0.7,1.1
			s0.7,0.8,1.1,1.2C154.9,34.3,155.2,34.5,155.4,34.8C155.4,34.7,155.4,34.8,155.4,34.8z M156.5,34.1c-0.1,0-0.2,0.1-0.3,0.1
			s-0.1-0.1-0.2-0.1c-0.1-0.1-0.1-0.1-0.2-0.2c-0.4-0.3-0.8-0.7-1.2-1.1c-0.1-0.1-0.3-0.3-0.4-0.4c-0.1-0.1-0.2-0.3-0.3-0.4
			c0,0,0-0.1-0.1-0.1c-0.1-0.2-0.2-0.4-0.2-0.6c-0.1-0.2-0.1-0.5,0-0.7c0.5-0.2,1-0.2,1.5-0.3c-0.2,1.3,0.7,2.8,1.6,3.7
			C156.6,34,156.6,34.1,156.5,34.1z M175.1,35.4c-0.4,0.1-0.7,0.1-1.1,0.1l0,0c-0.4,0-0.7,0-1.1-0.1c-0.3,0-0.7-0.1-1-0.1
			c0,0,0,0-0.1,0c-3.3-0.3-6.6-0.7-9.8-1c-0.2,0-0.3,0-0.5-0.1c-1-0.1-2.1-0.3-3.1-0.3c-0.2,0-0.4,0-0.5,0c0,0,0-0.1-0.1-0.1
			l-0.1-0.1c-0.2-0.1-0.3-0.3-0.5-0.4c-0.1-0.1-0.2-0.2-0.3-0.4c-0.2-0.2-0.3-0.4-0.5-0.7c-0.1-0.1-0.1-0.2-0.2-0.4
			c-0.2-0.4-0.2-0.7-0.2-1.1c0-0.2,0-0.3,0.1-0.5c0.5,0,1,0,1.4-0.1l0,0c1.6-0.1,3.3-0.2,4.9-0.2c1.6,0,3.3,0,4.9,0.1
			c1.5,0.1,3.1,0.2,4.6,0.3c0.9,0.1,1.7,0.2,2.6,0.3c0.1,0,0.1,0,0.2,0l0,0c0.3,0,0.8,0.1,1.2,0.1c-0.2,0.2-0.3,0.4-0.5,0.6
			c-0.5,0.8-0.6,2-0.3,2.7c0.2,0.5,0.6,0.7,0.9,0.8C175.8,35.2,175.4,35.3,175.1,35.4z"/>
		<path class="st4" d="M153.6,41c0,0.3-0.1,0.5-0.1,0.8c-0.4,2.2-1.9,11.3-2.2,13.4h-2.8c0.1-1,1.2-9,1.3-10c0.2-1.5,0.4-3,0.6-4.4
			c0.5,0,0.9-0.1,1.4-0.1c0.5-0.1,0.9-0.1,1.1-0.6c0-0.1,0.1-0.1,0.1-0.2C153,40.4,153.2,40.8,153.6,41C153.5,41,153.6,41,153.6,41z
			"/>
	</g>
	<g>
		<path class="st5" d="M83.1,104.4c0.4,0.4,0.5,1,0.5,1.7c0,1.7-0.2,3.4-0.4,5.4c-0.3,2-0.7,3.6-1.2,5.1c-0.8,2.4-2,4.2-3.7,5.6
			c-1.7,1.5-3.7,2.2-6.1,2.2c-2.7,0-4.7-0.8-6.2-2.5s-2.2-3.9-2.2-6.6c0-0.8,0.3-2,0.7-3.4c0.5-1.4,1.2-2.6,2-3.6
			c0.7-1,1.6-1.5,2.3-1.5c0.5,0,0.8,0.2,1.2,0.7s0.5,0.9,0.5,1.4c0,0.3-0.1,0.5-0.2,0.6c-0.2,0.2-0.4,0.4-0.6,0.5
			c-0.5,0.3-0.8,0.7-1.2,1.1c-0.4,0.4-0.7,1.1-1.1,2c-0.2,0.3-0.2,0.7-0.2,1.1c0,1.1,0.5,2,1.4,2.8c0.8,0.8,1.9,1.2,3,1.2
			c1.6,0,2.8-0.3,3.8-0.9s1.8-1.5,2.6-2.5c0.7-1.1,1.2-2.1,1.2-3c0-0.4-0.1-0.7-0.2-1.2c-0.2-0.4-0.3-0.8-0.5-1.2
			c-0.3-0.7-0.5-1.4-0.7-2s-0.3-1.2-0.3-2c0-0.5,0.3-0.7,0.9-1c0.6-0.2,1.7,1.4,3.2,4.8C82.3,105.6,82.7,104.1,83.1,104.4z
			 M77,130.7c0.4,0.6,0.6,1.3,0.6,2c0,0.6-0.2,1.1-0.5,1.5s-0.7,0.6-1.4,0.6c-0.7,0-1.3-0.2-1.8-0.6c-0.5-0.4-0.7-0.9-0.7-1.6
			c0-0.7,0.2-1.5,0.6-2c0.4-0.6,0.8-0.1,1.5,1.4C76,130.5,76.6,130.1,77,130.7z"/>
		<path class="st5" d="M105.2,118.6h0.3v5.6h-0.3c-0.5,0-1-0.2-1.7-0.5s-1.4-0.9-2-1.9c-1.4-2.2-2.3-4-2.7-5.5
			c-0.4-1.5-0.6-2.3-0.7-2.4c-0.3,1.4-0.9,2.9-1.8,4.5c-1,1.9-2,3.5-3.1,4.9c-1.1,1.5-2.1,2.2-3.1,2.2c-0.5,0,0.2-1.2,1.8-3.5
			c1.7-2.3,0.6-2.4-3.4-0.3c0-0.4,0.1-0.7,0.1-1.3c0.1-0.4,0.6-1,1.5-1.8c0.8-0.7,1.9-1.6,3.1-2.4c-1.1-3.4-2.1-6-3-7.9
			c-1-1.9-2-3.7-3.1-5.3c-0.7-1.1-1.1-1.9-1.4-2.5s-0.4-1.3-0.4-2.2c2.7,2.3,3.4,1.8,2.4-1.5c-1.1-3.3-1.4-4.9-1-4.9
			c0.5,0,1,0.7,1.5,2.2c0.6,1.5,1.3,3.8,2.3,7c0.2,0.6,0.5,1.7,1,3.2c0.5,1.6,0.9,2.9,1.3,3.8l1.9,4.7c0.3-0.4,0.5-1.3,0.8-2.8
			s0.5-2.9,0.5-4c0-2.6-0.3-5.7-0.8-9.3c-0.3-2.1-0.5-3.5-0.5-4.4c-0.1-1,0.1-1.9,0.5-2.8s0.8-1.4,1.4-1.7c0.2-0.1,0.5,0.7,1,2.6
			s1,0.7,1.3-3.6c1,0,1.4,1.1,1.4,3.2l-0.1,17.4c0.1,0.3,0.1,0.7,0.1,1.4c0.1,1.4,0.3,2.6,0.6,3.8c0.4,1.2,1.2,2.6,2.4,4.1
			c0.1,0.1,0.3,0.3,0.5,0.6c0.2,0.3,0.4,0.5,0.7,0.7C104.7,118.5,105,118.6,105.2,118.6z"/>
		<path class="st5" d="M106.6,112.6c-0.7-1.5-1-3.2-1-5.4c0-6,2.9-7.7,8.7-5.4c-0.7-2.4-0.5-2.8,0.7-1.4c1.1,1.5,2,3.3,2.6,5.4
			s0.9,4.1,0.9,5.8c0,2.4-0.4,4.4-1.2,6.1c-0.8,1.8-1.8,3.1-2.9,4.1s-2.2,1.6-3.2,1.9c-1.5,0.4-2.9,0.6-4.2,0.6
			c-0.4,0-1-0.1-1.9-0.2c-0.1,0-0.1,0-0.2,0s-0.1,0-0.1,0v-5.6h0.3l1,0.3c0.5,0.2,1.1,0.3,1.7,0.4c0.6,0.2,1.2,0.2,1.7,0.2
			s1-0.1,1.3-0.2c1-0.3,1.8-0.7,2.4-1.3c0.6-0.6,1-1.2,1.1-1.9c-0.3,0.2-0.5,0.4-0.8,0.6c-0.4,0.2-0.6,0.3-0.8,0.3
			c-1.3,0-2.5-0.4-3.5-1.1C108.2,115.2,107.3,114.1,106.6,112.6z M109.5,91.3c0.6,0.6,0.9,1.2,0.9,1.9c0,0.7-0.3,1.3-0.7,1.8
			c-0.5,0.6-1.1,0.8-1.8,0.8c-0.8,0-1.4-0.3-2-0.8c-0.6-0.6-0.8-1.2-0.8-1.9c0-0.7,0.3-1.3,0.7-1.8c0.5-0.5,1.1,0.1,1.8,1.9
			C108.3,91.4,108.9,90.8,109.5,91.3z M112.4,113.2c1.7,0,2.5-1.2,2.4-3.7c-0.5-2.3-1-4-1.6-5.2c-0.7-1.2-1.3-1.8-1.9-1.8
			c-0.8,0-1.4,0.6-1.8,1.7s-0.6,2.3-0.6,3.5c0,0.9,0.2,1.8,0.6,2.6c0.4,0.8,0.7,1.6,1.3,2.1C111.4,113,111.9,113.2,112.4,113.2z"/>
		<path class="st5" d="M138.6,118.6v5.6c-0.2,0-0.3,0-0.5-0.1c-0.3,0-0.5-0.1-0.6-0.1c-0.2-0.1-0.4-0.2-0.6-0.4l-0.6-0.6
			c-0.4-0.4-0.6-0.6-0.7-0.7c-0.2-0.2-0.3-0.2-0.4-0.2c-0.1,0-0.2,0.1-0.3,0.1c-0.1,0.1-0.1,0.2-0.1,0.3c0,0.1,0.1,0.2,0.2,0.3
			c0.1,0.1,0.4,0.4,1,1.1s0.8,1.3,1,1.5c0.3,0.5,0.4,0.8,0.5,1.3s0.2,1,0.2,1.7c0,1.2-0.3,2.3-0.8,3.3c-0.6,1-1.3,1.7-2.1,2.3
			s-1.7,0.8-2.4,0.8c-1.4,0-2.8-0.4-4.2-1.1c-1.4-0.7-2.6-1.9-3.6-3.4c-1-1.6-1.5-3.5-1.5-5.9c-0.1-0.1-0.1-0.3-0.1-0.8
			c-0.1-0.5-0.1-1.2-0.1-2.1c0-3.9,0.6-5.9,1.7-5.9c0.3,3,0.8,4,1.7,3.1c0.8-0.9,1.3-1.2,1.3-0.8c0,0.1,0,0.3,0,0.5
			c0,0.3,0,0.5-0.1,0.7s-0.2,0.5-0.3,0.8c-0.5,1-0.7,2.2-0.7,3.6c0.1,1.8,0.5,3.3,1.4,4.5c0.8,1.2,2.1,1.8,3.6,1.8
			c0.7,0,1.4-0.1,1.9-0.3s0.7-0.7,0.7-1.4c-0.1-0.9-0.2-1.6-0.4-2c-0.3-0.4-0.6-0.7-1.1-0.9c-0.4-0.2-0.7-0.3-1.1-0.3
			c-0.1-0.1-0.3-0.1-0.7-0.2s-0.6-0.2-0.8-0.4c-0.7-0.5,0.1-2.2,2.2-5c-2.2,0.2-2.9-0.1-2.1-0.7c0.8-0.6,1.7-0.8,2.5-0.9
			c0.8,0,1.5,0.1,1.9,0.2c0.9,0.4,1.6,0.6,2,0.6l0.8,0.2C137.9,118.6,138.2,118.6,138.6,118.6z M134.2,135.8
			c0.4,0.1,0.8,0.3,1.4,0.6c0.5,0.3,0.7,0.7,0.7,1.2c0,0.4-0.1,0.7-0.4,1c-0.3,0.3-0.6,0.5-1,0.5c-0.3,0-0.5-0.1-0.7-0.2
			c-0.1-0.1-0.3-0.2-0.6-0.3s-0.6-0.2-1-0.2c-0.6,0-1.1,0.1-1.4,0.2c-0.4,0.1-0.7,0.3-1.2,0.6c-0.2,0.2-0.5,0.3-0.8,0.3
			c-0.4,0,0.1-0.6,1.4-1.6c1.3-1.1,0.3-1-2.8,0.2c0-0.5,0.2-0.8,0.7-1.1c0.7-0.5,1.4-0.8,2-1s1.3-0.3,2.1-0.3
			S133.9,135.7,134.2,135.8z"/>
		<path class="st5" d="M143.9,96.5c-5.1,0.7-5.1,1-0.1,0.7c-0.1,0.7-0.6,1.1-1.4,1.4c-0.8,0.3-1.7,0.4-2.6,0.4
			c-1.5,0-2.6-0.2-3.4-0.6c-0.8-0.4-1.4-1.1-1.5-2c-0.2-1,0.2-1.4,1.1-1.4c0.4,0,1,0.1,1.8,0.3c0.6,0.2,1,0.3,1.2,0.3
			c0.4,0,0.7-0.1,1.2-0.1c0.5-0.1,0.8-0.1,1-0.1c0.6-0.1,1.1-0.2,1.4-0.2c0.5,0,0.7,0.1,1,0.3C143.8,95.7,143.9,96,143.9,96.5z
			 M140.4,110.9c-0.9-2.6-1.6-4.8-2.2-6.8c-0.1-0.3,0.3-0.5,1.1-0.7c0.8-0.3,1.6,0.8,2.4,3c0.7-2.2,1.1-3.2,1.2-3.1
			c-0.1-0.1,0.1-0.3,0.3-0.4c0.2-0.2,0.4-0.3,0.5-0.3s0.2,0.1,0.2,0.3v0.2c-0.3,1-0.4,2-0.4,3.1c0,1,0.1,1.9,0.2,2.8
			c0.2,1,0.4,2.1,0.6,3.4c0.4,1.4,0.5,2.4,0.5,3c0,3.2-0.7,5.5-2,6.8c-1.4,1.4-3,2-4.8,2v-5.6c2.2,0,3.2-1.4,3.2-4.1
			c0-0.5,0-0.7-0.1-1C141.2,113.5,141,112.6,140.4,110.9z"/>
		<path class="st5" d="M149.9,118.9c-0.7-1.4-1.2-2.8-1.5-4.2c-0.2-1.2-0.3-2.3-0.3-3.4c0-2.3,0.4-4.1,1.2-5.6
			c0.7-1.5,3-1.1,6.7,1.3c-0.3-2.4,0.3-2.9,1.7-1.7c1.3,1.3,2.4,2.9,3.2,5s1.3,4.3,1.4,6.8c0.2,2,0.2,4.1,0.2,6.1c0,4-0.3,7-0.8,9.1
			c-0.6,2.1-1.4,3.1-2.3,3.1c-0.7,0-1.4-0.5-2.2-1.4c-0.5-0.5-0.3-1.3,0.6-2.6c-0.5-0.7-1.3-0.9-2.5-0.7s-1.8,0.1-1.8-0.4
			s0.3-1,0.7-1.5c0.3-0.3,0.8-1.2,1.9-2.9c1-1.7,1.5-2.7,1.5-2.9c-0.1,0-0.3,0.1-0.6,0.3c-0.3,0.2-0.7,0.3-1.1,0.3
			c-1.3,0-2.4-0.4-3.5-1.3C151.5,121.3,150.6,120.3,149.9,118.9z M158.9,117.5c0.1-0.2,0.1-0.5,0.1-0.8c0-0.7-0.3-1.7-0.7-2.9
			c-0.5-1.2-1.2-2.2-2-3.1c-0.8-0.8-1.7-1.3-2.5-1.3s-1.4,0.3-1.7,1s-0.4,1.6-0.4,2.9s0.3,2.3,0.8,3.1c0.5,0.8,1.1,1.5,1.9,1.8
			c0.7,0.4,1.4,0.6,2,0.6c0.9,0,1.5-0.1,1.9-0.4C158.5,118.1,158.7,117.8,158.9,117.5z"/>
		<path class="st5" d="M174.3,118.6v5.6c-1.3,0-2.4-0.3-3.2-1s-1.6-1.5-2.4-2.7c0.1,1.8,0.1,3.3,0.1,4.7c0,3.7-0.3,5.6-0.8,5.6
			c-0.7-2.5-1.6-3.3-2.7-2.4c-1.1,0.9-1.7,0.9-1.7-0.1c0-0.3,0-0.5,0.1-0.7c0.1-0.8,0.5-2.5,1.2-4.9c0.5-1.8,0.9-3.3,1.2-4.6
			c0.3-1.3,0.4-2.4,0.5-3.5c1.4,2,2.2,1.7,2.5-1.1c0.6,0,1,0.4,1.2,1.1c0.3,1.3,0.7,2.3,1.3,2.9C172.1,118.4,173,118.7,174.3,118.6z
			"/>
		<path class="st5" d="M175.3,112.6c-0.7-1.5-1-3.2-1-5.4c0-6,2.9-7.7,8.7-5.4c-0.7-2.4-0.5-2.8,0.7-1.4c1.1,1.5,2,3.3,2.6,5.4
			s0.9,4.1,0.9,5.8c0,2.4-0.4,4.4-1.2,6.1c-0.8,1.8-1.8,3.1-2.9,4.1c-1.1,1-2.2,1.6-3.2,1.9c-1.5,0.4-2.9,0.6-4.2,0.6
			c-0.4,0-1-0.1-1.9-0.2c-0.1,0-0.1,0-0.2,0s-0.1,0-0.1,0v-5.6h0.3l1,0.3c0.5,0.2,1.1,0.3,1.7,0.4c0.6,0.2,1.2,0.2,1.7,0.2
			s1-0.1,1.3-0.2c1-0.3,1.8-0.7,2.4-1.3c0.6-0.6,1-1.2,1.1-1.9c-0.3,0.2-0.5,0.4-0.8,0.6c-0.4,0.2-0.6,0.3-0.8,0.3
			c-1.3,0-2.5-0.4-3.5-1.1C176.9,115.2,175.9,114.1,175.3,112.6z M178.2,91.3c0.6,0.6,0.9,1.2,0.9,1.9c0,0.7-0.3,1.3-0.7,1.8
			c-0.5,0.6-1.1,0.8-1.8,0.8s-1.4-0.3-2-0.8c-0.6-0.6-0.8-1.2-0.8-1.9c0-0.7,0.3-1.3,0.7-1.8c0.5-0.5,1.1,0.1,1.8,1.9
			C177,91.4,177.6,90.8,178.2,91.3z M181.1,113.2c1.7,0,2.5-1.2,2.4-3.7c-0.5-2.3-1-4-1.6-5.2c-0.7-1.2-1.3-1.8-1.9-1.8
			c-0.8,0-1.4,0.6-1.8,1.7c-0.4,1.1-0.6,2.3-0.6,3.5c0,0.9,0.2,1.8,0.6,2.6c0.4,0.8,0.7,1.6,1.3,2.1
			C180.1,113,180.6,113.2,181.1,113.2z"/>
	</g>
	<g>
		<g>
			<g id="XMLID_1_">
				<path class="st6" d="M109.5,27.6c23.6,0,42.8,19.1,42.8,42.8s-19.1,42.8-42.8,42.8S66.8,94,66.8,70.3S85.9,27.6,109.5,27.6z"/>
			</g>
			<ellipse class="st7" cx="109.5" cy="70.3" rx="38.2" ry="38.2"/>
			<ellipse class="st8" cx="109.5" cy="70.4" rx="35.9" ry="35.9"/>
			<g>
				<g>
					<g>
						<path class="st6" d="M78.8,69.4c0-7.9,3.2-15.1,8.4-20.4l20.4,20.4H78.8z"/>
						<path class="st9" d="M96.7,68.8c-4.8,0.3-11.1-2.1-13.4-6.7c-0.9-1.9-1.4-3.8-1.4-5.8c-2,3.9-3.1,8.3-3.1,13h28.8l-3.4-3.4
							C102.1,67.6,99.6,68.6,96.7,68.8z"/>
						<path class="st2" d="M84.8,55c0,0,1.2-2,2.8-3.5l9.2,9C96.8,60.5,86.3,64.6,84.8,55z"/>
					</g>
					<g>
						<path class="st6" d="M140.4,69.4c0-7.9-3.2-15.1-8.4-20.4l-20.4,20.4H140.4z"/>
						<path class="st9" d="M122.5,68.8c4.8,0.3,11.1-2.1,13.4-6.7c0.9-1.9,1.4-3.8,1.4-5.8c2,3.9,3.1,8.3,3.1,13h-28.8l3.4-3.4
							C117.1,67.6,119.6,68.6,122.5,68.8z"/>
						<path class="st2" d="M134.4,55c0,0-1.2-2-2.8-3.5l-9.2,9C122.4,60.5,133,64.6,134.4,55z"/>
					</g>
					<g>
						<path class="st6" d="M88.9,48.6c5.6-5.6,13-8.4,20.4-8.4V69L88.9,48.6z"/>
						<path class="st9" d="M102,60.9c-3.6-3.2-6.4-9.3-4.7-14.2c0.7-2,1.7-3.7,3.1-5.1c-4.2,1.4-8.1,3.7-11.4,7L109.3,69v-4.8
							C106.7,63.8,104.2,62.8,102,60.9z"/>
						<path class="st2" d="M103.4,42.7c0,0,2.2-0.6,4.5-0.5l0.1,12.9C108,55.1,97.6,50.5,103.4,42.7z"/>
					</g>
					<g>
						<path class="st6" d="M110.4,40.2c7.9,0,15.1,3.2,20.4,8.4L110.4,69V40.2z"/>
						<path class="st9" d="M111,58.1c-0.3-4.8,2.1-11.1,6.7-13.4c1.9-0.9,3.8-1.4,5.8-1.4c-3.9-2-8.3-3.1-13-3.1V69l3.4-3.4
							C112.3,63.5,111.2,61.1,111,58.1z"/>
						<path class="st2" d="M124.9,46.3c0,0,2,1.2,3.5,2.8l-9,9.2C119.4,58.3,115.3,47.7,124.9,46.3z"/>
					</g>
				</g>
				<g>
					<g>
						<path class="st6" d="M140.3,71.3c0,7.9-3.2,15.1-8.4,20.4l-20.4-20.4H140.3z"/>
						<path class="st9" d="M122.4,71.9c4.8-0.3,11.1,2.1,13.4,6.7c0.9,1.9,1.4,3.8,1.4,5.8c2-3.9,3.1-8.3,3.1-13h-28.8l3.4,3.4
							C117,73.1,119.4,72.1,122.4,71.9z"/>
						<path class="st2" d="M134.2,85.7c0,0-1.2,2-2.8,3.5l-9.2-9C122.2,80.2,132.8,76.1,134.2,85.7z"/>
					</g>
					<g>
						<path class="st6" d="M78.6,71.3c0,7.9,3.2,15.1,8.4,20.4l20.4-20.4H78.6z"/>
						<path class="st9" d="M96.5,71.9c-4.8-0.3-11.1,2.1-13.4,6.7c-0.9,1.9-1.4,3.8-1.4,5.8c-2-3.9-3.1-8.3-3.1-13h28.8l-3.4,3.4
							C102,73.1,99.5,72.1,96.5,71.9z"/>
						<path class="st2" d="M84.7,85.7c0,0,1.2,2,2.8,3.5l9.2-9C96.7,80.2,86.1,76.1,84.7,85.7z"/>
					</g>
					<g>
						<path class="st6" d="M130.2,92c-5.6,5.6-13,8.4-20.4,8.4V71.7L130.2,92z"/>
						<path class="st9" d="M117,79.8c3.6,3.2,6.4,9.3,4.7,14.2c-0.7,2-1.7,3.7-3,5.1c4.2-1.4,8.1-3.7,11.4-7l-20.4-20.4v4.8
							C112.4,76.8,114.8,77.9,117,79.8z"/>
						<path class="st2" d="M115.7,98c0,0-2.2,0.6-4.5,0.5L111,85.6C111,85.6,121.4,90.2,115.7,98z"/>
					</g>
					<g>
						<path class="st6" d="M108.6,100.5c-7.9,0-15.1-3.2-20.4-8.4l20.4-20.4V100.5z"/>
						<path class="st9" d="M108,82.6c0.3,4.8-2.1,11.1-6.7,13.4c-1.9,0.9-3.8,1.4-5.8,1.4c3.9,2,8.3,3.1,13,3.1V71.7l-3.4,3.4
							C106.8,77.1,107.8,79.6,108,82.6z"/>
						<path class="st2" d="M94.2,94.4c0,0-2-1.2-3.5-2.8l9-9.2C99.7,82.4,103.8,93,94.2,94.4z"/>
					</g>
				</g>
			</g>
		</g>
		<g>
			<path class="st4" d="M182,85.9c0,20-16.2,36.3-36.3,36.3c-20,0-36.3-16.2-36.3-36.3s16.2-36.3,36.3-36.3
				C165.8,49.7,182,65.9,182,85.9z"/>
			<path class="st10" d="M178.1,85.9c0,17.9-14.5,32.4-32.4,32.4s-32.4-14.5-32.4-32.4s14.5-32.4,32.4-32.4
				C163.7,53.6,178.1,68.1,178.1,85.9z"/>
			<ellipse class="st8" cx="145.8" cy="85.9" rx="30.4" ry="30.4"/>
			<g>
				<g>
					<g>
						<path class="st10" d="M119.7,85.1c0-6.7,2.7-12.8,7.1-17.3l17.3,17.3C144.1,85.1,119.7,85.1,119.7,85.1z"/>
						<path class="st9" d="M134.9,84.6c-4.1,0.2-9.4-1.8-11.3-5.7c-0.8-1.6-1.2-3.2-1.2-4.9c-1.7,3.3-2.6,7.1-2.6,11h24.4l-2.9-2.9
							C139.5,83.6,137.4,84.5,134.9,84.6z"/>
						<path class="st2" d="M124.8,72.9c0,0,1-1.7,2.4-3l7.8,7.7C135,77.6,126,81,124.8,72.9z"/>
					</g>
					<g>
						<path class="st10" d="M172,85.1c0-6.7-2.7-12.8-7.1-17.3l-17.3,17.3C147.6,85.1,172,85.1,172,85.1z"/>
						<path class="st9" d="M156.8,84.6c4.1,0.2,9.4-1.8,11.3-5.7c0.8-1.6,1.2-3.2,1.2-4.9c1.7,3.3,2.6,7.1,2.6,11h-24.4l2.9-2.9
							C152.2,83.6,154.3,84.5,156.8,84.6z"/>
						<path class="st2" d="M166.9,72.9c0,0-1-1.7-2.4-3l-7.8,7.7C156.7,77.6,165.6,81,166.9,72.9z"/>
					</g>
					<g>
						<path class="st10" d="M128.3,67.5c4.8-4.8,11-7.1,17.3-7.1v24.4L128.3,67.5z"/>
						<path class="st9" d="M139.4,77.9c-3.1-2.7-5.4-7.9-4-12c0.6-1.7,1.5-3.1,2.6-4.3c-3.5,1.2-6.8,3.1-9.7,5.9l17.3,17.3v-4.1
							C143.4,80.4,141.3,79.6,139.4,77.9z"/>
						<path class="st2" d="M140.6,62.5c0,0,1.9-0.5,3.8-0.4l0.1,10.9C144.5,73,135.7,69.1,140.6,62.5z"/>
					</g>
					<g>
						<path class="st10" d="M146.5,60.4c6.7,0,12.8,2.7,17.3,7.1l-17.3,17.3V60.4z"/>
						<path class="st9" d="M147.1,75.6c-0.2-4.1,1.8-9.4,5.7-11.3c1.6-0.8,3.2-1.2,4.9-1.2c-3.3-1.7-7.1-2.6-11-2.6v24.4l2.9-2.9
							C148.1,80.2,147.2,78.1,147.1,75.6z"/>
						<path class="st2" d="M158.8,65.5c0,0,1.7,1,3,2.4l-7.7,7.8C154.1,75.7,150.6,66.7,158.8,65.5z"/>
					</g>
				</g>
				<g>
					<g>
						<path class="st10" d="M171.9,86.7c0,6.7-2.7,12.8-7.1,17.3l-17.3-17.3H171.9z"/>
						<path class="st9" d="M156.7,87.3c4.1-0.2,9.4,1.8,11.3,5.7c0.8,1.6,1.2,3.2,1.2,4.9c1.7-3.3,2.6-7.1,2.6-11h-24.4l2.9,2.9
							C152.1,88.3,154.2,87.4,156.7,87.3z"/>
						<path class="st2" d="M166.7,99c0,0-1,1.7-2.4,3l-7.8-7.7C156.5,94.3,165.5,90.8,166.7,99z"/>
					</g>
					<g>
						<path class="st10" d="M119.6,86.7c0,6.7,2.7,12.8,7.1,17.3L144,86.7H119.6z"/>
						<path class="st9" d="M134.8,87.3c-4.1-0.2-9.4,1.8-11.3,5.7c-0.8,1.6-1.2,3.2-1.2,4.9c-1.7-3.3-2.6-7.1-2.6-11h24.4l-2.9,2.9
							C139.3,88.3,137.2,87.4,134.8,87.3z"/>
						<path class="st2" d="M124.7,99c0,0,1,1.7,2.4,3l7.8-7.7C134.9,94.3,125.9,90.8,124.7,99z"/>
					</g>
					<g>
						<path class="st10" d="M163.3,104.4c-4.8,4.8-11,7.1-17.3,7.1V87.1L163.3,104.4z"/>
						<path class="st9" d="M152.1,94c3.1,2.7,5.4,7.9,4,12c-0.6,1.7-1.5,3.1-2.6,4.3c3.5-1.2,6.8-3.1,9.7-5.9L146,87.1v4.1
							C148.2,91.5,150.3,92.3,152.1,94z"/>
						<path class="st2" d="M151,109.4c0,0-1.9,0.5-3.8,0.4L147,98.9C147,98.9,155.9,102.8,151,109.4z"/>
					</g>
					<g>
						<path class="st10" d="M145,111.5c-6.7,0-12.8-2.7-17.3-7.1L145,87.1V111.5z"/>
						<path class="st9" d="M144.5,96.3c0.2,4.1-1.8,9.4-5.7,11.3c-1.6,0.8-3.2,1.2-4.9,1.2c3.3,1.7,7.1,2.6,11,2.6V87.1L142,90
							C143.5,91.7,144.3,93.8,144.5,96.3z"/>
						<path class="st2" d="M132.8,106.4c0,0-1.7-1-3-2.4l7.7-7.8C137.4,96.2,140.9,105.2,132.8,106.4z"/>
					</g>
				</g>
			</g>
		</g>
	</g>
	<g>
		<path class="st11" d="M82.1,102.4c0.4,0.4,0.5,1,0.5,1.7c0,1.7-0.2,3.4-0.4,5.4c-0.3,2-0.7,3.6-1.2,5.1c-0.8,2.4-2,4.2-3.7,5.6
			c-1.7,1.5-3.7,2.2-6.1,2.2c-2.7,0-4.7-0.8-6.2-2.5s-2.2-3.9-2.2-6.6c0-0.8,0.3-2,0.7-3.4s1.2-2.6,2-3.6c0.7-1,1.6-1.5,2.3-1.5
			c0.5,0,0.8,0.2,1.2,0.7c0.4,0.5,0.5,0.9,0.5,1.4c0,0.3-0.1,0.5-0.2,0.6c-0.2,0.2-0.4,0.4-0.6,0.5c-0.5,0.3-0.8,0.7-1.2,1.1
			c-0.4,0.4-0.7,1.1-1.1,2c-0.2,0.3-0.2,0.7-0.2,1.1c0,1.1,0.5,2,1.4,2.8c0.8,0.8,1.9,1.2,3,1.2c1.6,0,2.8-0.3,3.8-0.9
			s1.8-1.5,2.6-2.5c0.7-1.1,1.2-2.1,1.2-3c0-0.4-0.1-0.7-0.2-1.2c-0.2-0.4-0.3-0.8-0.5-1.2c-0.3-0.7-0.5-1.4-0.7-2s-0.3-1.2-0.3-2
			c0-0.5,0.3-0.7,0.9-1c0.6-0.2,1.7,1.4,3.2,4.8C81.3,103.5,81.7,102,82.1,102.4z M75.9,128.6c0.4,0.6,0.6,1.3,0.6,2
			c0,0.6-0.2,1.1-0.5,1.5s-0.7,0.6-1.4,0.6c-0.7,0-1.3-0.2-1.8-0.6c-0.5-0.4-0.7-0.9-0.7-1.6c0-0.7,0.2-1.5,0.6-2
			c0.4-0.6,0.8-0.1,1.5,1.4C75,128.5,75.6,128,75.9,128.6z"/>
		<path class="st11" d="M104.2,116.6h0.3v5.6h-0.3c-0.5,0-1-0.2-1.7-0.5s-1.4-0.9-2-1.9c-1.4-2.2-2.3-4-2.7-5.5
			c-0.4-1.5-0.6-2.3-0.7-2.4c-0.3,1.4-0.9,2.9-1.8,4.5c-1,1.9-2,3.5-3.1,4.9c-1.1,1.5-2.1,2.2-3.1,2.2c-0.5,0,0.2-1.2,1.8-3.5
			c1.7-2.3,0.6-2.4-3.4-0.3c0-0.4,0.1-0.7,0.1-1.3c0.1-0.4,0.6-1,1.5-1.8c0.8-0.7,1.9-1.6,3.1-2.4c-1.1-3.4-2.1-6-3-7.9
			c-1-1.9-2-3.7-3.1-5.3c-0.7-1.1-1.1-1.9-1.4-2.5s-0.4-1.3-0.4-2.2c2.7,2.3,3.4,1.8,2.4-1.5c-1.1-3.3-1.4-4.9-1-4.9
			c0.5,0,1,0.7,1.5,2.2c0.6,1.5,1.3,3.8,2.3,7c0.2,0.6,0.5,1.7,1,3.2c0.5,1.6,0.9,2.9,1.3,3.8l1.9,4.7c0.3-0.4,0.5-1.3,0.8-2.8
			s0.5-2.9,0.5-4c0-2.6-0.3-5.7-0.8-9.3c-0.3-2.1-0.5-3.5-0.5-4.4c-0.1-1,0.1-1.9,0.5-2.8s0.8-1.4,1.4-1.7c0.2-0.1,0.5,0.7,1,2.6
			s1,0.7,1.3-3.6c1,0,1.4,1.1,1.4,3.2l-0.1,17.4c0.1,0.3,0.1,0.7,0.1,1.4c0.1,1.4,0.3,2.6,0.6,3.8c0.4,1.2,1.2,2.6,2.4,4.1
			c0.1,0.1,0.3,0.3,0.5,0.6c0.2,0.3,0.4,0.5,0.7,0.7C103.7,116.5,104,116.6,104.2,116.6z"/>
		<path class="st11" d="M105.6,110.6c-0.7-1.5-1-3.2-1-5.4c0-6,2.9-7.7,8.7-5.4c-0.7-2.4-0.5-2.8,0.7-1.4c1.1,1.5,2,3.3,2.6,5.4
			s0.9,4.1,0.9,5.8c0,2.4-0.4,4.4-1.2,6.1c-0.8,1.8-1.8,3.1-2.9,4.1s-2.2,1.6-3.2,1.9c-1.5,0.4-2.9,0.6-4.2,0.6
			c-0.4,0-1-0.1-1.9-0.2c-0.1,0-0.1,0-0.2,0s-0.1,0-0.1,0v-5.6h0.3l1,0.3c0.5,0.2,1.1,0.3,1.7,0.4c0.6,0.2,1.2,0.2,1.7,0.2
			s1-0.1,1.3-0.2c1-0.3,1.8-0.7,2.4-1.3c0.6-0.6,1-1.2,1.1-1.9c-0.3,0.2-0.5,0.4-0.8,0.6c-0.4,0.2-0.6,0.3-0.8,0.3
			c-1.3,0-2.5-0.4-3.5-1.1C107.2,113.1,106.3,112,105.6,110.6z M108.5,89.2c0.6,0.6,0.9,1.2,0.9,1.9c0,0.7-0.3,1.3-0.7,1.8
			c-0.5,0.6-1.1,0.8-1.8,0.8c-0.8,0-1.4-0.3-2-0.8c-0.6-0.6-0.8-1.2-0.8-1.9c0-0.7,0.3-1.3,0.7-1.8c0.5-0.5,1.1,0.1,1.8,1.9
			C107.3,89.3,107.9,88.7,108.5,89.2z M111.4,111.2c1.7,0,2.5-1.2,2.4-3.7c-0.5-2.3-1-4-1.6-5.2c-0.7-1.2-1.3-1.8-1.9-1.8
			c-0.8,0-1.4,0.6-1.8,1.7s-0.6,2.3-0.6,3.5c0,0.9,0.2,1.8,0.6,2.6s0.7,1.6,1.3,2.1C110.4,110.9,110.9,111.2,111.4,111.2z"/>
		<path class="st11" d="M137.5,116.6v5.6c-0.2,0-0.3,0-0.5-0.1c-0.3,0-0.5-0.1-0.6-0.1c-0.2-0.1-0.4-0.2-0.6-0.4l-0.6-0.6
			c-0.4-0.4-0.6-0.6-0.7-0.7c-0.2-0.2-0.3-0.2-0.4-0.2c-0.1,0-0.2,0.1-0.3,0.1c-0.1,0.1-0.1,0.2-0.1,0.3c0,0.1,0.1,0.2,0.2,0.3
			c0.1,0.1,0.4,0.4,1,1.1s0.8,1.3,1,1.5c0.3,0.5,0.4,0.8,0.5,1.3s0.2,1,0.2,1.7c0,1.2-0.3,2.3-0.8,3.3c-0.6,1-1.3,1.7-2.1,2.3
			s-1.7,0.8-2.4,0.8c-1.4,0-2.8-0.4-4.2-1.1c-1.4-0.7-2.6-1.9-3.6-3.4c-1-1.6-1.5-3.5-1.5-5.9c-0.1-0.1-0.1-0.3-0.1-0.8
			c-0.1-0.5-0.1-1.2-0.1-2.1c0-3.9,0.6-5.9,1.7-5.9c0.3,3,0.8,4,1.7,3.1c0.8-0.9,1.3-1.2,1.3-0.8c0,0.1,0,0.3,0,0.5
			c0,0.3,0,0.5-0.1,0.7s-0.2,0.5-0.3,0.8c-0.5,1-0.7,2.2-0.7,3.6c0.1,1.8,0.5,3.3,1.4,4.5c0.8,1.2,2.1,1.8,3.6,1.8
			c0.7,0,1.4-0.1,1.9-0.3c0.5-0.2,0.7-0.7,0.7-1.4c-0.1-0.9-0.2-1.6-0.4-2c-0.3-0.4-0.6-0.7-1.1-0.9c-0.4-0.2-0.7-0.3-1.1-0.3
			c-0.1-0.1-0.3-0.1-0.7-0.2s-0.6-0.2-0.8-0.4c-0.7-0.5,0.1-2.2,2.2-5c-2.2,0.2-2.9-0.1-2.1-0.7c0.8-0.6,1.7-0.8,2.5-0.9
			c0.8,0,1.5,0.1,1.9,0.2c0.9,0.4,1.6,0.6,2,0.6l0.8,0.2C136.9,116.5,137.2,116.6,137.5,116.6z M133.2,133.8
			c0.4,0.1,0.8,0.3,1.4,0.6c0.5,0.3,0.7,0.7,0.7,1.2c0,0.4-0.1,0.7-0.4,1c-0.3,0.3-0.6,0.5-1,0.5c-0.3,0-0.5-0.1-0.7-0.2
			c-0.1-0.1-0.3-0.2-0.6-0.3c-0.3-0.2-0.6-0.2-1-0.2c-0.6,0-1.1,0.1-1.4,0.2c-0.4,0.1-0.7,0.3-1.2,0.6c-0.2,0.2-0.5,0.3-0.8,0.3
			c-0.4,0,0.1-0.6,1.4-1.6c1.3-1.1,0.3-1-2.8,0.2c0-0.5,0.2-0.8,0.7-1.1c0.7-0.5,1.4-0.8,2-1s1.3-0.3,2.1-0.3
			C132.3,133.6,132.8,133.7,133.2,133.8z"/>
		<path class="st11" d="M142.9,94.5c-5.1,0.7-5.1,1-0.1,0.7c-0.1,0.7-0.6,1.1-1.4,1.4c-0.8,0.3-1.7,0.4-2.6,0.4
			c-1.5,0-2.6-0.2-3.4-0.6c-0.8-0.4-1.4-1.1-1.5-2c-0.2-1,0.2-1.4,1.1-1.4c0.4,0,1,0.1,1.8,0.3c0.6,0.2,1,0.3,1.2,0.3
			c0.4,0,0.7-0.1,1.2-0.1c0.5-0.1,0.8-0.1,1-0.1c0.6-0.1,1.1-0.2,1.4-0.2c0.5,0,0.7,0.1,1,0.3C142.8,93.6,142.9,94,142.9,94.5z
			 M139.4,108.9c-0.9-2.6-1.6-4.8-2.2-6.8c-0.1-0.3,0.3-0.5,1.1-0.7c0.8-0.3,1.6,0.8,2.4,3c0.7-2.2,1.1-3.2,1.2-3.1
			c-0.1-0.1,0.1-0.3,0.3-0.4c0.2-0.2,0.4-0.3,0.5-0.3s0.2,0.1,0.2,0.3v0.2c-0.3,1-0.4,2-0.4,3.1c0,1,0.1,1.9,0.2,2.8
			c0.2,1,0.4,2.1,0.6,3.4c0.4,1.4,0.5,2.4,0.5,3c0,3.2-0.7,5.5-2,6.8c-1.4,1.4-3,2-4.8,2v-5.6c2.2,0,3.2-1.4,3.2-4.1
			c0-0.5,0-0.7-0.1-1C140.2,111.4,140,110.5,139.4,108.9z"/>
		<path class="st11" d="M148.9,116.9c-0.7-1.4-1.2-2.8-1.5-4.2c-0.2-1.2-0.3-2.3-0.3-3.4c0-2.3,0.4-4.1,1.2-5.6
			c0.7-1.5,3-1.1,6.7,1.3c-0.3-2.4,0.3-2.9,1.7-1.7c1.3,1.3,2.4,2.9,3.2,5s1.3,4.3,1.4,6.8c0.2,2,0.2,4.1,0.2,6.1c0,4-0.3,7-0.8,9.1
			c-0.6,2.1-1.4,3.1-2.3,3.1c-0.7,0-1.4-0.5-2.2-1.4c-0.5-0.5-0.3-1.3,0.6-2.6c-0.5-0.7-1.3-0.9-2.5-0.7s-1.8,0.1-1.8-0.4
			s0.3-1,0.7-1.5c0.3-0.3,0.8-1.2,1.9-2.9c1-1.7,1.5-2.7,1.5-2.9c-0.1,0-0.3,0.1-0.6,0.3c-0.3,0.2-0.7,0.3-1.1,0.3
			c-1.3,0-2.4-0.4-3.5-1.3C150.5,119.3,149.6,118.2,148.9,116.9z M157.9,115.5c0.1-0.2,0.1-0.5,0.1-0.8c0-0.7-0.3-1.7-0.7-2.9
			c-0.5-1.2-1.2-2.2-2-3.1c-0.8-0.8-1.7-1.3-2.5-1.3s-1.4,0.3-1.7,1s-0.4,1.6-0.4,2.9s0.3,2.3,0.8,3.1c0.5,0.8,1.1,1.5,1.9,1.8
			c0.7,0.4,1.4,0.6,2,0.6c0.9,0,1.5-0.1,1.9-0.4C157.5,116,157.7,115.8,157.9,115.5z"/>
		<path class="st11" d="M173.3,116.6v5.6c-1.3,0-2.4-0.3-3.2-1s-1.6-1.5-2.4-2.7c0.1,1.8,0.1,3.3,0.1,4.7c0,3.7-0.3,5.6-0.8,5.6
			c-0.7-2.5-1.6-3.3-2.7-2.4c-1.1,0.9-1.7,0.9-1.7-0.1c0-0.3,0-0.5,0.1-0.7c0.1-0.8,0.5-2.5,1.2-4.9c0.5-1.8,0.9-3.3,1.2-4.6
			c0.3-1.3,0.4-2.4,0.5-3.5c1.4,2,2.2,1.7,2.5-1.1c0.6,0,1,0.4,1.2,1.1c0.3,1.3,0.7,2.3,1.3,2.9C171.1,116.3,172,116.6,173.3,116.6z
			"/>
		<path class="st11" d="M174.3,110.6c-0.7-1.5-1-3.2-1-5.4c0-6,2.9-7.7,8.7-5.4c-0.7-2.4-0.5-2.8,0.7-1.4c1.1,1.5,2,3.3,2.6,5.4
			s0.9,4.1,0.9,5.8c0,2.4-0.4,4.4-1.2,6.1c-0.8,1.8-1.8,3.1-2.9,4.1s-2.2,1.6-3.2,1.9c-1.5,0.4-2.9,0.6-4.2,0.6
			c-0.4,0-1-0.1-1.9-0.2c-0.1,0-0.1,0-0.2,0s-0.1,0-0.1,0v-5.6h0.3l1,0.3c0.5,0.2,1.1,0.3,1.7,0.4c0.6,0.2,1.2,0.2,1.7,0.2
			s1-0.1,1.3-0.2c1-0.3,1.8-0.7,2.4-1.3c0.6-0.6,1-1.2,1.1-1.9c-0.3,0.2-0.5,0.4-0.8,0.6c-0.4,0.2-0.6,0.3-0.8,0.3
			c-1.3,0-2.5-0.4-3.5-1.1C175.8,113.1,174.9,112,174.3,110.6z M177.2,89.2c0.6,0.6,0.9,1.2,0.9,1.9c0,0.7-0.3,1.3-0.7,1.8
			c-0.5,0.6-1.1,0.8-1.8,0.8s-1.4-0.3-2-0.8c-0.6-0.6-0.8-1.2-0.8-1.9c0-0.7,0.3-1.3,0.7-1.8c0.5-0.5,1.1,0.1,1.8,1.9
			C175.9,89.3,176.6,88.7,177.2,89.2z M180,111.2c1.7,0,2.5-1.2,2.4-3.7c-0.5-2.3-1-4-1.6-5.2c-0.7-1.2-1.3-1.8-1.9-1.8
			c-0.8,0-1.4,0.6-1.8,1.7c-0.4,1.1-0.6,2.3-0.6,3.5c0,0.9,0.2,1.8,0.6,2.6c0.4,0.8,0.7,1.6,1.3,2.1
			C179,110.9,179.5,111.2,180,111.2z"/>
	</g>
	<g>
		<path class="st12" d="M82.9,102.4c0.4,0.4,0.5,1,0.5,1.7c0,1.7-0.2,3.4-0.4,5.4c-0.3,2-0.7,3.6-1.2,5.1c-0.8,2.4-2,4.2-3.7,5.6
			c-1.7,1.5-3.7,2.2-6.1,2.2c-2.7,0-4.7-0.8-6.2-2.5s-2.2-3.9-2.2-6.6c0-0.8,0.3-2,0.7-3.4s1.2-2.6,2-3.6c0.7-1,1.6-1.5,2.3-1.5
			c0.5,0,0.8,0.2,1.2,0.7c0.4,0.5,0.5,0.9,0.5,1.4c0,0.3-0.1,0.5-0.2,0.6c-0.2,0.2-0.4,0.4-0.6,0.5c-0.5,0.3-0.8,0.7-1.2,1.1
			c-0.4,0.4-0.7,1.1-1.1,2c-0.2,0.3-0.2,0.7-0.2,1.1c0,1.1,0.5,2,1.4,2.8c0.8,0.8,1.9,1.2,3,1.2c1.6,0,2.8-0.3,3.8-0.9
			s1.8-1.5,2.6-2.5c0.7-1.1,1.2-2.1,1.2-3c0-0.4-0.1-0.7-0.2-1.2c-0.2-0.4-0.3-0.8-0.5-1.2c-0.3-0.7-0.5-1.4-0.7-2s-0.3-1.2-0.3-2
			c0-0.5,0.3-0.7,0.9-1c0.6-0.2,1.7,1.4,3.2,4.8C82.1,103.5,82.6,102,82.9,102.4z M76.8,128.6c0.4,0.6,0.6,1.3,0.6,2
			c0,0.6-0.2,1.1-0.5,1.5s-0.7,0.6-1.4,0.6c-0.7,0-1.3-0.2-1.8-0.6c-0.5-0.4-0.7-0.9-0.7-1.6c0-0.7,0.2-1.5,0.6-2
			c0.4-0.6,0.8-0.1,1.5,1.4C75.9,128.5,76.5,128,76.8,128.6z"/>
		<path class="st12" d="M105.1,116.6h0.3v5.6h-0.3c-0.5,0-1-0.2-1.7-0.5s-1.4-0.9-2-1.9c-1.4-2.2-2.3-4-2.7-5.5
			c-0.4-1.5-0.6-2.3-0.7-2.4c-0.3,1.4-0.9,2.9-1.8,4.5c-1,1.9-2,3.5-3.1,4.9s-2.1,2.2-3.1,2.2c-0.5,0,0.2-1.2,1.8-3.5
			c1.7-2.3,0.6-2.4-3.4-0.3c0-0.4,0.1-0.7,0.1-1.3c0.1-0.4,0.6-1,1.5-1.8c0.8-0.7,1.9-1.6,3.1-2.4c-1.1-3.4-2.1-6-3-7.9
			c-1-1.9-2-3.7-3.1-5.3c-0.7-1.1-1.1-1.9-1.4-2.5s-0.4-1.3-0.4-2.2c2.7,2.3,3.4,1.8,2.4-1.5c-1.1-3.3-1.4-4.9-1-4.9
			c0.5,0,1,0.7,1.5,2.2c0.6,1.5,1.3,3.8,2.3,7c0.2,0.6,0.5,1.7,1,3.2c0.5,1.6,0.9,2.9,1.3,3.8l1.9,4.7c0.3-0.4,0.5-1.3,0.8-2.8
			s0.5-2.9,0.5-4c0-2.6-0.3-5.7-0.8-9.3c-0.3-2.1-0.5-3.5-0.5-4.4c-0.1-1,0.1-1.9,0.5-2.8s0.8-1.4,1.4-1.7c0.2-0.1,0.5,0.7,1,2.6
			s1,0.7,1.3-3.6c1,0,1.4,1.1,1.4,3.2l-0.1,17.4c0.1,0.3,0.1,0.7,0.1,1.4c0.1,1.4,0.3,2.6,0.6,3.8c0.4,1.2,1.2,2.6,2.4,4.1
			c0.1,0.1,0.3,0.3,0.5,0.6c0.2,0.3,0.4,0.5,0.7,0.7C104.6,116.5,104.9,116.6,105.1,116.6z"/>
		<path class="st12" d="M106.5,110.6c-0.7-1.5-1-3.2-1-5.4c0-6,2.9-7.7,8.7-5.4c-0.7-2.4-0.5-2.8,0.7-1.4c1.1,1.5,2,3.3,2.6,5.4
			s0.9,4.1,0.9,5.8c0,2.4-0.4,4.4-1.2,6.1c-0.8,1.8-1.8,3.1-2.9,4.1s-2.2,1.6-3.2,1.9c-1.5,0.4-2.9,0.6-4.2,0.6
			c-0.4,0-1-0.1-1.9-0.2c-0.1,0-0.1,0-0.2,0s-0.1,0-0.1,0v-5.6h0.3l1,0.3c0.5,0.2,1.1,0.3,1.7,0.4c0.6,0.2,1.2,0.2,1.7,0.2
			s1-0.1,1.3-0.2c1-0.3,1.8-0.7,2.4-1.3c0.6-0.6,1-1.2,1.1-1.9c-0.3,0.2-0.5,0.4-0.8,0.6c-0.4,0.2-0.6,0.3-0.8,0.3
			c-1.3,0-2.5-0.4-3.5-1.1C108.1,113.1,107.2,112,106.5,110.6z M109.4,89.2c0.6,0.6,0.9,1.2,0.9,1.9c0,0.7-0.3,1.3-0.7,1.8
			c-0.5,0.6-1.1,0.8-1.8,0.8c-0.8,0-1.4-0.3-2-0.8c-0.6-0.6-0.8-1.2-0.8-1.9c0-0.7,0.3-1.3,0.7-1.8c0.5-0.5,1.1,0.1,1.8,1.9
			C108.2,89.3,108.8,88.7,109.4,89.2z M112.3,111.2c1.7,0,2.5-1.2,2.4-3.7c-0.5-2.3-1-4-1.6-5.2c-0.7-1.2-1.3-1.8-1.9-1.8
			c-0.8,0-1.4,0.6-1.8,1.7s-0.6,2.3-0.6,3.5c0,0.9,0.2,1.8,0.6,2.6c0.4,0.8,0.7,1.6,1.3,2.1C111.3,110.9,111.8,111.2,112.3,111.2z"
			/>
		<path class="st12" d="M138.4,116.6v5.6c-0.2,0-0.3,0-0.5-0.1c-0.3,0-0.5-0.1-0.6-0.1c-0.2-0.1-0.4-0.2-0.6-0.4l-0.6-0.6
			c-0.4-0.4-0.6-0.6-0.7-0.7c-0.2-0.2-0.3-0.2-0.4-0.2c-0.1,0-0.2,0.1-0.3,0.1c-0.1,0.1-0.1,0.2-0.1,0.3c0,0.1,0.1,0.2,0.2,0.3
			c0.1,0.1,0.4,0.4,1,1.1s0.8,1.3,1,1.5c0.3,0.5,0.4,0.8,0.5,1.3s0.2,1,0.2,1.7c0,1.2-0.3,2.3-0.8,3.3c-0.6,1-1.3,1.7-2.1,2.3
			s-1.7,0.8-2.4,0.8c-1.4,0-2.8-0.4-4.2-1.1c-1.4-0.7-2.6-1.9-3.6-3.4c-1-1.6-1.5-3.5-1.5-5.9c-0.1-0.1-0.1-0.3-0.1-0.8
			c-0.1-0.5-0.1-1.2-0.1-2.1c0-3.9,0.6-5.9,1.7-5.9c0.3,3,0.8,4,1.7,3.1c0.8-0.9,1.3-1.2,1.3-0.8c0,0.1,0,0.3,0,0.5
			c0,0.3,0,0.5-0.1,0.7s-0.2,0.5-0.3,0.8c-0.5,1-0.7,2.2-0.7,3.6c0.1,1.8,0.5,3.3,1.4,4.5c0.8,1.2,2.1,1.8,3.6,1.8
			c0.7,0,1.4-0.1,1.9-0.3c0.5-0.2,0.7-0.7,0.7-1.4c-0.1-0.9-0.2-1.6-0.4-2c-0.3-0.4-0.6-0.7-1.1-0.9c-0.4-0.2-0.7-0.3-1.1-0.3
			c-0.1-0.1-0.3-0.1-0.7-0.2s-0.6-0.2-0.8-0.4c-0.7-0.5,0.1-2.2,2.2-5c-2.2,0.2-2.9-0.1-2.1-0.7c0.8-0.6,1.7-0.8,2.5-0.9
			c0.8,0,1.5,0.1,1.9,0.2c0.9,0.4,1.6,0.6,2,0.6l0.8,0.2C137.8,116.5,138.1,116.6,138.4,116.6z M134.1,133.8
			c0.4,0.1,0.8,0.3,1.4,0.6c0.5,0.3,0.7,0.7,0.7,1.2c0,0.4-0.1,0.7-0.4,1c-0.3,0.3-0.6,0.5-1,0.5c-0.3,0-0.5-0.1-0.7-0.2
			c-0.1-0.1-0.3-0.2-0.6-0.3c-0.3-0.2-0.6-0.2-1-0.2c-0.6,0-1.1,0.1-1.4,0.2c-0.4,0.1-0.7,0.3-1.2,0.6c-0.2,0.2-0.5,0.3-0.8,0.3
			c-0.4,0,0.1-0.6,1.4-1.6c1.3-1.1,0.3-1-2.8,0.2c0-0.5,0.2-0.8,0.7-1.1c0.7-0.5,1.4-0.8,2-1s1.3-0.3,2.1-0.3
			C133.2,133.6,133.7,133.7,134.1,133.8z"/>
		<path class="st12" d="M143.7,94.5c-5.1,0.7-5.1,1-0.1,0.7c-0.1,0.7-0.6,1.1-1.4,1.4c-0.8,0.3-1.7,0.4-2.6,0.4
			c-1.5,0-2.6-0.2-3.4-0.6c-0.8-0.4-1.4-1.1-1.5-2c-0.2-1,0.2-1.4,1.1-1.4c0.4,0,1,0.1,1.8,0.3c0.6,0.2,1,0.3,1.2,0.3
			c0.4,0,0.7-0.1,1.2-0.1c0.5-0.1,0.8-0.1,1-0.1c0.6-0.1,1.1-0.2,1.4-0.2c0.5,0,0.7,0.1,1,0.3C143.6,93.6,143.7,94,143.7,94.5z
			 M140.3,108.9c-0.9-2.6-1.6-4.8-2.2-6.8c-0.1-0.3,0.3-0.5,1.1-0.7c0.8-0.3,1.6,0.8,2.4,3c0.7-2.2,1.1-3.2,1.2-3.1
			c-0.1-0.1,0.1-0.3,0.3-0.4c0.2-0.2,0.4-0.3,0.5-0.3c0.2,0,0.2,0.1,0.2,0.3v0.2c-0.3,1-0.4,2-0.4,3.1c0,1,0.1,1.9,0.2,2.8
			c0.2,1,0.4,2.1,0.6,3.4c0.4,1.4,0.5,2.4,0.5,3c0,3.2-0.7,5.5-2,6.8c-1.4,1.4-3,2-4.8,2v-5.6c2.2,0,3.2-1.4,3.2-4.1
			c0-0.5,0-0.7-0.1-1C141.1,111.4,140.8,110.5,140.3,108.9z"/>
		<path class="st12" d="M149.8,116.9c-0.7-1.4-1.2-2.8-1.5-4.2c-0.2-1.2-0.3-2.3-0.3-3.4c0-2.3,0.4-4.1,1.2-5.6
			c0.7-1.5,3-1.1,6.7,1.3c-0.3-2.4,0.3-2.9,1.7-1.7c1.3,1.3,2.4,2.9,3.2,5s1.3,4.3,1.4,6.8c0.2,2,0.2,4.1,0.2,6.1c0,4-0.3,7-0.8,9.1
			c-0.6,2.1-1.4,3.1-2.3,3.1c-0.7,0-1.4-0.5-2.2-1.4c-0.5-0.5-0.3-1.3,0.6-2.6c-0.5-0.7-1.3-0.9-2.5-0.7s-1.8,0.1-1.8-0.4
			s0.3-1,0.7-1.5c0.3-0.3,0.8-1.2,1.9-2.9c1-1.7,1.5-2.7,1.5-2.9c-0.1,0-0.3,0.1-0.6,0.3c-0.3,0.2-0.7,0.3-1.1,0.3
			c-1.3,0-2.4-0.4-3.5-1.3C151.4,119.3,150.5,118.2,149.8,116.9z M158.7,115.5c0.1-0.2,0.1-0.5,0.1-0.8c0-0.7-0.3-1.7-0.7-2.9
			c-0.5-1.2-1.2-2.2-2-3.1c-0.8-0.8-1.7-1.3-2.5-1.3s-1.4,0.3-1.7,1s-0.4,1.6-0.4,2.9s0.3,2.3,0.8,3.1c0.5,0.8,1.1,1.5,1.9,1.8
			c0.7,0.4,1.4,0.6,2,0.6c0.9,0,1.5-0.1,1.9-0.4C158.4,116,158.6,115.8,158.7,115.5z"/>
		<path class="st12" d="M174.2,116.6v5.6c-1.3,0-2.4-0.3-3.2-1s-1.6-1.5-2.4-2.7c0.1,1.8,0.1,3.3,0.1,4.7c0,3.7-0.3,5.6-0.8,5.6
			c-0.7-2.5-1.6-3.3-2.7-2.4c-1.1,0.9-1.7,0.9-1.7-0.1c0-0.3,0-0.5,0.1-0.7c0.1-0.8,0.5-2.5,1.2-4.9c0.5-1.8,0.9-3.3,1.2-4.6
			c0.3-1.3,0.4-2.4,0.5-3.5c1.4,2,2.2,1.7,2.5-1.1c0.6,0,1,0.4,1.2,1.1c0.3,1.3,0.7,2.3,1.3,2.9C172,116.3,172.9,116.6,174.2,116.6z
			"/>
		<path class="st12" d="M175.2,110.6c-0.7-1.5-1-3.2-1-5.4c0-6,2.9-7.7,8.7-5.4c-0.7-2.4-0.5-2.8,0.7-1.4c1.1,1.5,2,3.3,2.6,5.4
			s0.9,4.1,0.9,5.8c0,2.4-0.4,4.4-1.2,6.1c-0.8,1.8-1.8,3.1-2.9,4.1s-2.2,1.6-3.2,1.9c-1.5,0.4-2.9,0.6-4.2,0.6
			c-0.4,0-1-0.1-1.9-0.2c-0.1,0-0.1,0-0.2,0s-0.1,0-0.1,0v-5.6h0.3l1,0.3c0.5,0.2,1.1,0.3,1.7,0.4c0.6,0.2,1.2,0.2,1.7,0.2
			s1-0.1,1.3-0.2c1-0.3,1.8-0.7,2.4-1.3c0.6-0.6,1-1.2,1.1-1.9c-0.3,0.2-0.5,0.4-0.8,0.6c-0.4,0.2-0.6,0.3-0.8,0.3
			c-1.3,0-2.5-0.4-3.5-1.1C176.7,113.1,175.8,112,175.2,110.6z M178.1,89.2c0.6,0.6,0.9,1.2,0.9,1.9c0,0.7-0.3,1.3-0.7,1.8
			c-0.5,0.6-1.1,0.8-1.8,0.8s-1.4-0.3-2-0.8c-0.6-0.6-0.8-1.2-0.8-1.9c0-0.7,0.3-1.3,0.7-1.8c0.5-0.5,1.1,0.1,1.8,1.9
			C176.8,89.3,177.5,88.7,178.1,89.2z M180.9,111.2c1.7,0,2.5-1.2,2.4-3.7c-0.5-2.3-1-4-1.6-5.2c-0.7-1.2-1.3-1.8-1.9-1.8
			c-0.8,0-1.4,0.6-1.8,1.7c-0.4,1.1-0.6,2.3-0.6,3.5c0,0.9,0.2,1.8,0.6,2.6c0.4,0.8,0.7,1.6,1.3,2.1
			C179.9,110.9,180.4,111.2,180.9,111.2z"/>
	</g>
</g>
</svg>
