<?xml version="1.0" encoding="utf-8"?>
<!-- Generator: Adobe Illustrator 25.3.1, SVG Export Plug-In . SVG Version: 6.00 Build 0)  -->
<svg version="1.1" id="Layer_1" xmlns="http://www.w3.org/2000/svg" xmlns:xlink="http://www.w3.org/1999/xlink" x="0px" y="0px"
	 viewBox="0 0 250 167" style="enable-background:new 0 0 250 167;" xml:space="preserve">
<style type="text/css">
	.st0{fill:#F7F7F7;}
	.st1{fill:none;stroke:#268069;stroke-width:0.3514;stroke-miterlimit:10;}
	.st2{fill:#268069;}
	.st3{fill:#AF8F6C;}
	.st4{fill:#745855;}
	.st5{fill:#5E6E7C;}
</style>
<rect x="-0.5" class="st0" width="250" height="167"/>
<g>
	<polyline class="st1" points="89.2,101.3 82.5,93.7 94.8,80.4 94.8,60.4 112.7,60.4 125.2,46.3 137.9,60.8 155.6,60.7 155.6,80 
		168.2,93.6 160,103.1 	"/>
	<g>
		<path class="st2" d="M152.9,105.9l-0.6-0.5c-1-0.9-1.1-2.4-0.3-3.4l6.7-7.9l-10-11V67.8l-13.8-0.1L125.3,57l-9.5,10.5h-13.9v15.9
			l-9.7,10.8l4.6,5.3c0.9,1,0.7,2.5-0.2,3.4l-0.7,0.6c-1,0.9-2.6,0.8-3.4-0.3l-7.8-9.1l11.6-12.9V61.7h17.1l12.1-13.3l12,13.6
			l17,0.1v18.8L166.4,94l-9.9,11.6C155.6,106.6,154,106.8,152.9,105.9z"/>
	</g>
	<g>
		<g>
			<path class="st2" d="M78.2,61.5L77,60.9c-0.1,0-0.1,0-0.2,0L76.2,62c0,0.1,0,0.1,0.1,0.2l1.2,0.6c0.1,0,0.1,0,0.2,0l0.6-1.1
				C78.3,61.6,78.3,61.5,78.2,61.5z M77.3,63.2l-1.2-0.6c-0.1,0-0.1,0-0.2,0l-0.6,1.1c0,0.1,0,0.1,0.1,0.2l1.2,0.6
				c0.1,0,0.1,0,0.2-0.1l0.6-1.1C77.4,63.3,77.4,63.3,77.3,63.2z"/>
			<path class="st2" d="M90.3,61.4l-1.1-0.7c-0.1,0-0.1,0-0.2,0l-0.7,1.1c0,0.1,0,0.1,0,0.2l1.1,0.7c0.1,0,0.1,0,0.2,0l0.7-1.1
				C90.4,61.5,90.4,61.4,90.3,61.4z M89.2,63l-1.1-0.7c-0.1,0-0.1,0-0.2,0l-0.7,1.1c0,0.1,0,0.1,0,0.2l1.1,0.7c0.1,0,0.1,0,0.2,0
				l0.7-1.1C89.3,63.1,89.3,63.1,89.2,63z"/>
			<path class="st2" d="M98.4,52.4l-0.9-1c-0.1-0.1-0.1-0.1-0.2,0l-1.2,1c-0.1,0.1-0.1,0.1,0,0.2l0.9,1c0.1,0.1,0.1,0.1,0.2,0l1.2-1
				C98.5,52.6,98.5,52.5,98.4,52.4z"/>
			<path class="st2" d="M97.5,40.9l-0.8-1.1c0-0.1-0.1-0.1-0.2,0l-1,0.7c-0.1,0-0.1,0.1,0,0.2l0.8,1.1c0.1,0.1,0.1,0.1,0.2,0l1-0.7
				C97.6,41,97.6,40.9,97.5,40.9z M95.9,42l-0.8-1.1c0-0.1-0.1-0.1-0.2,0l-1,0.7c-0.1,0-0.1,0.1,0,0.2l0.8,1.1c0,0.1,0.1,0.1,0.2,0
				l1-0.7C96,42.1,96,42.1,95.9,42z"/>
			<path class="st2" d="M104.6,43l-3.6-6.4c0-0.1-0.1-0.1-0.2-0.1l-1.3,0.8c-0.1,0-0.1,0.1,0,0.2c0.6,1,3.8,5.4,3.3,6.4
				c-0.1,0.2-0.3,0.3-0.5,0.4c-0.5,0.3-1,0.6-1.5,0.9c0.3-1.2-0.4-2.7-1.6-3c-0.7-0.2-1.4,0-2.1,0.4c-0.8,0.5-1.5,1.2-1.6,2.1
				c-0.3,1.4,0.9,2.6,2.3,2.7c-0.5,0.3-0.9,0.7-1.4,1c-0.1,0.1-0.2,0.2-0.2,0.3c-0.2,0.1-0.4,0.2-0.5,0.2c-0.2,0-0.4-0.1-0.6-0.2
				L93,46.3c-0.1-0.1-0.1-0.1-0.2,0L92,47.1c-0.1,0.1-0.1,0.1-0.2,0.2c-0.1,0.1-0.1,0.2-0.1,0.2l1.9,2.1c0.6,0.7,0.5,1-0.3,1.5
				c-0.3,0.2-0.7,0.5-1.1,0.4c-0.2-0.1-0.3-0.2-0.5-0.4c-0.6-0.5-1.3-0.9-2.1-0.9c-0.9,0-1.8,0.5-2.3,1.3c-0.6,0.7-0.9,1.6-1.2,2.5
				c-0.9-0.8-1.8-1.6-2.7-2.3c-0.1-0.1-0.2-0.1-0.3-0.1c-0.1,0-0.2,0.1-0.2,0.2c-0.2,0.3-0.5,0.5-0.7,0.8c-0.1,0.1-0.2,0.2-0.2,0.3
				s0.1,0.2,0.2,0.2c0.8,0.7,5.5,3.8,5.1,4.9c-0.1,0.3-0.3,0.5-0.5,0.8c-0.1,0.1-0.1,0.3-0.2,0.4c-0.3,0.3-0.8,0.1-1.2-0.1
				c-0.7-0.5-1.4-0.9-2.1-1.4c-0.1-0.1-0.2-0.1-0.3-0.1c-0.1,0-0.1,0.1-0.2,0.2c-0.2,0.3-0.4,0.7-0.7,1c0,0.1-0.1,0.1-0.1,0.2
				c0,0.1,0.2,0.2,0.3,0.3c0.7,0.3,1.4,0.6,2,1.1c0.3,0.2,0.6,0.5,0.7,0.8c0.2,0.6-0.2,1.1-0.6,1.6c-0.1,0.2-0.3,0.4-0.5,0.4
				s-0.4-0.1-0.6-0.2c-0.9-0.5-1.8-0.9-2.7-1.4c-0.3-0.1-0.5-0.3-0.8-0.3c-1.4,0.1-0.3,1.7-0.3,1.7c-0.5,0.9-1.1,1.9-0.8,2.9
				c0.1,0.3,0.2,0.6,0.5,0.9c0.2,0.3,0.6,0.6,1.1,0.8c1,0.5,2,0.5,2.9-0.2c0.6-0.5,0.9-1.4,0.8-2.2c0.3,0.2,0.6,0.1,0.9-0.1
				s0.4-0.5,0.6-0.7c0.5-0.8,1-1.6,1.5-2.4c0.3-0.5,0.6-1,0.3-1.5c0.6-0.1,1-0.4,1.3-0.9c1.2-1.8,2.7-3.3,4-5
				c0.4-0.5,0.8-1.1,0.6-1.7c0.3,1,3.6-2.6,3.8-2.7c0.8-0.6,1.6-1,2.3-1.7c0.7-0.6,2.6-2.3,3.6-2.4c0.1,0,0.2,0,0.3-0.1l1.2-0.7
				c0.5-0.3,0.7-0.6,0.8-0.9C105,44,104.9,43.5,104.6,43z M82.3,65.6c-0.1,0.3-0.3,0.4-0.5,0.6c-0.2,0.1-0.5,0.1-0.8-0.1
				c-0.4-0.2-0.6-0.4-0.7-0.7c-0.1-0.2,0-0.5,0.1-0.8l0.5-0.9l0.8,0.4c0.4,0.2,0.6,0.4,0.7,0.7C82.5,65,82.5,65.3,82.3,65.6z
				 M91,53.4c0,0.1-0.1,0.3-0.2,0.4c-0.1,0.2-0.3,0.4-0.5,0.6l-1.6,1.9c-0.1-0.1-0.2-0.2-0.4-0.4l-1.1-1c0.1-0.3,0.2-0.7,0.4-1.1
				c0.2-0.4,0.4-0.8,0.7-1.1c0.2-0.2,0.4-0.4,0.6-0.5s0.4-0.2,0.5-0.2c0.2,0,0.4,0,0.5,0.1c0.2,0.1,0.4,0.2,0.5,0.4
				c0.2,0.2,0.4,0.3,0.4,0.5C91,53.2,91,53.3,91,53.4z M99.2,46.2c-0.3,0-0.6,0-0.9-0.1s-0.6-0.3-0.8-0.6c-0.2-0.3-0.3-0.6-0.2-0.9
				c0.1-0.3,0.2-0.5,0.4-0.6c0.2-0.2,0.5-0.2,0.7-0.2c0.3,0,0.5,0.2,0.8,0.5c0.2,0.3,0.3,0.7,0.3,1C99.4,45.6,99.3,45.9,99.2,46.2z"
				/>
			<path class="st2" d="M108.5,42.9c0,0.1,0,0.1-0.1,0.2l-1.4,0.6c-0.1,0-0.1,0-0.2-0.1l-3.7-8c0-0.1,0-0.1,0.1-0.2l1.4-0.6
				c0.1,0,0.1,0,0.2,0.1L108.5,42.9z"/>
			<path class="st2" d="M121.2,42.1l-0.2-1.3c0-0.1-0.1-0.1-0.1-0.1l-1.3,0.2c-0.1,0-0.1,0.1-0.1,0.2l0.2,1.3c0,0.1,0.1,0.1,0.1,0.1
				l1.3-0.2C121.2,42.2,121.3,42.2,121.2,42.1z M119.3,42.4l-0.2-1.3c0-0.1-0.1-0.1-0.1-0.1l-1.2,0.2c-0.1,0-0.1,0.1-0.1,0.2
				l0.2,1.3c0,0.1,0.1,0.1,0.1,0.1l1.2-0.2C119.3,42.6,119.3,42.5,119.3,42.4z"/>
			<path class="st2" d="M119.7,39.3c-0.2,0.3-0.5,0.5-1,0.6l-1.5,0.3l0,0l-1.2,0.3c-0.5,0.1-0.9,0.1-1.2-0.1
				c-0.3-0.2-0.5-0.6-0.7-1.2l-1.8-7.1c0-0.1,0-0.1,0.1-0.2l1.5-0.4c0.1,0,0.1,0,0.2,0.1l1.7,6.5c0.1,0.3,0.2,0.4,0.3,0.5
				c0.1,0.1,0.3,0.1,0.5,0h0.1c0,0,0.1,0,0.2,0l0.8-0.1c0.2,0,0.4-0.1,0.4-0.2c0.1-0.1,0.1-0.3,0-0.6l-0.6-3.1c0-0.1,0-0.1,0.1-0.2
				l1.5-0.3c0.1,0,0.1,0,0.1,0.1l0.7,3.8C120,38.5,119.9,39,119.7,39.3z"/>
			<path class="st2" d="M123.9,41.3c-0.4,0.5-1,0.7-1.8,0.8h-0.6c-0.1,0-0.1,0-0.1-0.1l-0.1-1.4c0-0.1,0-0.1,0.1-0.1h0.3
				c0.3,0,0.6-0.1,0.7-0.3s0.2-0.5,0.1-0.9l-0.5-5.5c0-0.1,0-0.1,0.1-0.1l1.5-0.1c0.1,0,0.1,0,0.1,0.1l0.5,5.6
				C124.4,40.2,124.2,40.9,123.9,41.3z"/>
			<path class="st2" d="M135.3,35.5c-0.1-0.4-0.3-0.7-0.5-1s-0.5-0.5-0.8-0.6s-0.7-0.2-1-0.3c-0.4,0-0.7,0-1,0s-0.7,0.2-0.9,0.4
				s-0.5,0.4-0.7,0.8c-0.2,0.3-0.3,0.8-0.4,1.3v0.3c-0.1,0.8-1.4,1.8-2,0.9c-0.2-0.3-0.2-0.7-0.2-1.1c0-1.9,0-3.8,0-5.7
				c0-0.1,0-0.3-0.1-0.4s-0.2-0.1-0.3-0.1c-0.3,0-0.7,0-1,0c-0.1,0-0.2,0-0.3,0.1c-0.1,0.1-0.1,0.2-0.1,0.3c0,2.4,0,4.7,0,7.1
				c0,0.6,0.1,1,0.3,1.3c0.2,0.3,0.6,0.4,1.1,0.4c1,0,2,0.1,2.8-0.6c1,1,2.9,1.5,4.1,0.6c0.3-0.2,0.5-0.5,0.7-0.8
				c0.2-0.4,0.3-0.8,0.4-1.3C135.5,36.4,135.5,35.9,135.3,35.5z M133.7,36.7c-0.1,0.5-0.2,0.9-0.4,1c-0.2,0.2-0.5,0.3-0.8,0.2
				c-0.3,0-0.6-0.2-0.7-0.4c-0.2-0.2-0.2-0.6-0.1-1.1c0.1-0.9,0.5-1.3,1.2-1.2C133.5,35.3,133.8,35.8,133.7,36.7z"/>
			<path class="st2" d="M148.2,34.3l-1.2-0.5c-0.1,0-0.1,0-0.2,0.1l-0.5,1.2c0,0.1,0,0.1,0.1,0.2l1.2,0.5c0.1,0,0.1,0,0.2-0.1
				l0.5-1.2C148.3,34.3,148.3,34.3,148.2,34.3z M146.4,33.5l-1.2-0.5c-0.1,0-0.1,0-0.2,0.1l-0.5,1.2c0,0.1,0,0.1,0.1,0.2l1.2,0.5
				c0.1,0,0.1,0,0.2-0.1l0.5-1.2C146.5,33.6,146.4,33.6,146.4,33.5z"/>
			<path class="st2" d="M166.4,51.5c0-0.4-0.2-0.7-0.5-0.9c-0.5-0.2-1.1,0.3-1.5,0.7c-0.3,0.3-0.6,0.7-0.9,1
				c-0.3,0.4-0.9,0.8-1.3,0.6c-0.5-0.3-0.3-1.1,0.1-1.5c0.4-0.4,1-0.8,1.1-1.4c0-0.6-0.5-1.1-1.1-1c-0.5,0.1-0.8,0.7-1.2,1.1
				c-0.4,0.4-1.1,0.7-1.4,0.3c-0.4-0.5,0.1-1.2,0.6-1.6c0.3-0.3,0.6-0.6,0.7-1.1c0.1-0.4-0.1-1-0.5-1.1s-0.8,0.1-1.1,0.4
				c-0.3,0.3-0.5,0.7-0.8,0.9c-0.7,0.5-2,0.1-2.2-0.8c-0.3-1.3,1.2-2.3,1.6-3.5c-0.4-0.4-0.9-0.7-1.4-0.9c-0.5,0.8-2.1,4.4-3.1,2.6
				c-0.1-0.2-0.1-0.4,0.1-0.6l1.2-1.9c0-0.1,0-0.1,0-0.2l-1.3-0.8c-0.1,0-0.1,0-0.2,0l-1,1.7c-0.1,0.1-0.2,0.3-0.3,0.4
				c-0.1,0.1-0.1,0.2-0.2,0.2c-0.5,0.3-1.1-0.4-1-0.9c0-0.3,0.2-0.5,0.3-0.7c0.3-0.4,0.6-0.9,0.8-1.3c0.1-0.1,0.1-0.2,0.1-0.3
				s-0.1-0.1-0.2-0.2c-0.3-0.2-0.7-0.4-1-0.6c-0.1,0-0.1-0.1-0.2-0.1c-0.1,0-0.2,0.1-0.2,0.2c-0.3,0.4-0.5,0.9-0.8,1.3
				c-0.6,1-1.2,0.6-2.1,0.3c-1.3-0.5,0.6-3.8,1-4.7c0-0.1,0-0.1-0.1-0.2l-1.4-0.6c-0.1,0-0.1,0-0.2,0.1l-0.2,0.5l-1.2-0.5
				c-0.3-0.1-0.6-0.2-0.9-0.2c-0.3,0-0.6,0-0.9,0.1c-0.3,0.1-0.6,0.3-0.9,0.6c-0.3,0.3-0.5,0.7-0.7,1.2c-0.7,1.8,0.7,3.9,2.8,3.4
				c-0.2,0.7,0.6,1.2,1.2,1.5c0.8,0.3,1.5,0.7,2.3,1c0.5,0.2,1,0.4,1.4,0.2c0.3,1.2,1.6,2,2.8,1.8c0.3,1.2,1.6,2,2.8,1.8
				c-0.2,0,1.5,1.9,1.6,2c0.3,0.3,0.6,0.5,0.8,0.6s0.5,0.1,0.8,0c-0.4,1.2,1.2,2.3,2.3,2.4c0.1,0.8,0.6,1.6,1.3,2
				c0.3,0.2,0.6,0.3,0.9,0.3c0.4,0,0.7-0.3,1-0.6c0.6-0.5,1.1-1.1,1.7-1.6c0.3-0.3,0.7-0.7,0.8-1.1
				C166.4,51.7,166.4,51.6,166.4,51.5z M145.5,39.4c-0.1,0.4-0.3,0.6-0.6,0.7c-0.2,0.1-0.5,0.1-0.8,0s-0.5-0.3-0.6-0.5
				s-0.1-0.5,0-0.8c0.2-0.4,0.4-0.6,0.6-0.7c0.2-0.1,0.5-0.1,0.8,0.1l0.9,0.4L145.5,39.4z"/>
			<path class="st2" d="M173.5,54c0-0.2-0.1-0.5-0.3-0.7c-0.1-0.2-0.3-0.4-0.5-0.5s-0.3-0.2-0.5-0.2s-0.3,0-0.5,0s-0.3,0.1-0.4,0.2
				c-0.1,0.1-0.2,0.2-0.3,0.3s-0.1,0.2-0.2,0.3l-0.3-0.4h-0.1l-0.5,0.4c0,0-0.1,0.1,0,0.1l1.7,2.3h0.1l0.5-0.4c0,0,0.1-0.1,0-0.1
				l-0.8-1.1c0-0.1,0-0.2,0-0.3s0.1-0.2,0.2-0.3c0.1-0.1,0.3-0.1,0.4-0.1c0.1,0,0.3,0.1,0.4,0.2c0.1,0.1,0.1,0.2,0.1,0.3
				s0,0.2,0,0.4c0,0.1,0,0.1,0,0.1l0.6,0.1c0.1,0,0.1,0,0.1-0.1C173.5,54.5,173.5,54.3,173.5,54z"/>
			<path class="st2" d="M168.6,60.8c0-0.1-0.1-0.1-0.1-0.2L168.6,60.8c0,0.1,0.1,0.1,0.1,0.1L168.6,60.8z"/>
			<path class="st2" d="M174.6,63.2c-0.1-0.3-0.2-0.7-0.4-1s-0.4-0.6-0.6-0.8c-0.2-0.2-0.5-0.4-0.8-0.6c-0.3-0.1-0.7-0.2-1.1-0.1
				c-0.4,0-0.8,0.2-1.3,0.4l-0.2,0.1c-0.4,0.2-0.7,0.3-1,0.2c-0.2-0.1-0.4-0.2-0.5-0.3l-0.1-0.2c0,0,0,0,0-0.1l-0.2-0.2l-0.3-0.5
				l1-0.7c0.5-0.3,0.8-0.7,1-1c0.2-0.4,0.4-0.7,0.4-1s0-0.7-0.1-1s-0.3-0.6-0.5-0.9c-0.2-0.3-0.5-0.5-0.7-0.7
				c-0.3-0.2-0.6-0.3-0.9-0.4c-0.3-0.1-0.7,0-1.1,0.1c-0.4,0.1-0.8,0.3-1.3,0.7c-0.8,0.6-1.3,1.2-1.3,1.8c-0.1,0.6,0.1,1.2,0.6,1.9
				l0.7,1c-0.2,0.1-0.4,0.2-0.5,0.3c-0.1,0-0.3,0.1-0.4,0c-0.1,0-0.2-0.1-0.3-0.2c-0.1-0.1-0.2-0.2-0.3-0.4l-0.9-1.2
				c0-0.1-0.1-0.1-0.2,0l-1.1,0.8c-0.1,0.1-0.1,0.1,0,0.2l1.1,1.5c0.5,0.7,1,1.1,1.6,1.1c0.6,0.1,1.2-0.1,1.9-0.6l0.2-0.2l0.5,0.7
				c0,0,0,0.1,0.1,0.1c0.1,0.1,0.2,0.2,0.3,0.4c0.1,0.1,0.3,0.2,0.4,0.3c0.2,0.1,0.3,0.1,0.6,0.2c-0.1,0.4-0.2,0.7-0.1,1.1
				c0.1,0.4,0.2,0.8,0.4,1.2c0.2,0.3,0.4,0.6,0.7,0.9c0.2,0.3,0.5,0.4,0.9,0.5c0.3,0.1,0.7,0.1,1.1,0.1c0.4-0.1,0.8-0.2,1.3-0.5
				s0.9-0.6,1.2-0.9s0.4-0.6,0.5-1C174.6,63.9,174.6,63.5,174.6,63.2z M166.5,58c-0.2-0.3-0.3-0.5-0.3-0.8s0.2-0.5,0.6-0.8
				c0.3-0.3,0.7-0.4,1-0.4s0.6,0.1,0.8,0.4c0.4,0.5,0.2,1.1-0.5,1.6l-1,0.8L166.5,58z M172.1,64.5c-0.4,0.2-0.8,0.3-1.1,0.3
				s-0.5-0.2-0.6-0.5c-0.2-0.3-0.2-0.6-0.1-0.8c0.1-0.3,0.4-0.5,0.8-0.7c0.8-0.4,1.4-0.3,1.7,0.3C173.1,63.6,172.9,64.1,172.1,64.5z
				"/>
		</g>
		<g>
			<g>
				<path class="st2" d="M125.8,122.3c-3.1-3.5-6.6-6.2-11.3-7.1c0.2-0.4,0.3-0.7,0.4-0.9c2-2.9,4-5.7,6-8.6c0.4-0.7,1-0.8,1.7-0.5
					c0.8,0.4,1.7,0.7,2.4,1.3c0.4,0.3,0.9,1,0.9,1.5c0.1,4.6,0,9.2,0.1,13.8C125.9,121.9,125.8,122,125.8,122.3z"/>
				<path class="st2" d="M127,122.3c0-0.4-0.1-0.8-0.1-1.1c0-4.4,0-8.7,0.1-13.1c0-0.5,0.3-1.1,0.7-1.4c0.9-0.6,1.9-1.1,2.9-1.6
					c0.3-0.1,0.9,0.1,1,0.3c2.2,3.1,4.4,6.2,6.5,9.3c0.1,0.1,0.1,0.3,0.2,0.4C133.8,116.1,130.2,118.7,127,122.3z"/>
				<path class="st3" d="M117.6,108.5c-1.6,2.4-3.2,4.9-5,7.6c2.6,0.1,4.8,1,6.9,2.2c2.1,1.1,4,2.5,5.5,4.4
					c-6.5-1.6-12.9-3.1-19.6-1.3c0-0.1-0.1-0.1-0.1-0.2c0.2-0.3,0.3-0.6,0.5-0.9c2.3-3.5,4.7-6.9,6.9-10.4c0.7-1.1,1.7-1.6,2.9-1.7
					c0.6,0,1.2,0,1.7,0C117.5,108.3,117.5,108.4,117.6,108.5z"/>
				<path class="st3" d="M127.9,122.6c3.4-3.4,7.2-6.1,12.3-6.6c-0.3-0.5-0.4-0.8-0.6-1.1c-1.3-1.9-2.5-3.8-3.8-5.7
					c-0.2-0.2-0.2-0.6-0.3-0.9c0.3-0.1,0.6-0.2,0.9-0.2c1.6-0.2,2.8,0.4,3.6,1.7c2.4,3.6,4.8,7.2,7.2,10.9c0.1,0.1,0.1,0.3,0.3,0.7
					C140.7,119.4,134.3,121,127.9,122.6z"/>
				<path class="st2" d="M109.9,112.3c-2.2,3.4-4.4,6.8-6.7,10.2c0,0.1,0.1,0.2,0.1,0.3c7.1-2.1,14.1-1.4,21.1,0.7
					c-2.5-0.1-5-0.4-7.5-0.4c-2.6,0-5.2,0.1-7.8,0.3c-2.5,0.2-5.1,0.6-7.6,1.2c-2.5,0.5-4.9,1.3-7.3,1.9c0-0.1-0.1-0.2-0.1-0.3
					c0.1-0.2,0.3-0.4,0.4-0.6c3.5-3.6,7-7.3,10.6-10.9c1.3-1.3,3-1.9,4.6-2.6C109.7,112.2,109.8,112.2,109.9,112.3z"/>
				<path class="st2" d="M143,112c1.9,0.6,3.6,1.6,5,3c2.4,2.4,4.8,5,7.2,7.4c0.4,0.4,0.5,0.9,0.1,1.3c-0.7,1-1.4,1.4-2.5,1.1
					c-4-0.8-8.1-1.4-12.3-1.7c-3.9-0.3-7.7,0-11.6,0.3c-0.2,0-0.4,0-0.5,0c0,0-0.1-0.1-0.2-0.3c3.5-0.6,7-1.3,10.6-1.6
					c3.6-0.4,7.1,0.6,11,1.3c-2.5-3.7-4.8-7.1-7.1-10.6C142.9,112.1,142.9,112,143,112z"/>
				<path class="st4" d="M134.8,78.6c-1,1.3-2,2.5-2.9,3.9c-2.9,4.3-4.9,9-5.6,14.2c-0.3,2.1,0.1,4.1,0.9,6.1
					c0.5,1.2,0.4,1.4-0.9,1.5c-1.1,0-2.2-0.1-3.3-0.2c-0.6-0.1-0.8-0.4-0.6-1c1.1-3.1,1.7-6.2,1.9-9.5c0.1-2.8,0.2-5.6-2.4-7.6
					c0.1-0.1,0.1-0.2,0.2-0.3c0.3,0.1,0.7,0.1,1,0.3c0.6,0.4,1,0.9,1.6,1.3c0.9,0.7,1.6,0.7,2.4-0.2c2.2-2.5,4.3-5,6.5-7.5
					C133.9,79.2,134.4,78.9,134.8,78.6C134.7,78.5,134.8,78.5,134.8,78.6z"/>
				<path class="st5" d="M111.2,81.4c2.6,1.6,4.2,3.9,5.6,6.5h0.1l0,0h0.1c0,0,0,0,0.1,0c-0.2-0.3-0.3-0.5-0.5-0.8
					c-0.1-0.2-0.2-0.3-0.2-0.5c0.1,0,0.1-0.1,0.2-0.1c0.2,0.3,0.4,0.6,0.6,0.9c0.1-0.1,0.2-0.1,0.3-0.2c0-0.3,0.1-0.6,0.1-0.9
					c-0.1-2-1-3.6-2.5-4.9c-1.6-1.3-3.6-1.9-5.6-2.2c-0.8-0.1-0.8,0.4-0.6,0.9c0.6,1.7,1.1,3.6,2,5.2c0.5,1,1.5,1.8,2.5,2.6
					c0.8,0.6,1.8,0.9,3,0.7C115,85.6,113.3,83.4,111.2,81.4z"/>
				<path class="st4" d="M123,91.5c-0.3,1-0.5,1.8-0.9,2.5c-0.3,0.7-0.8,0.8-1.3,0.2c-0.5-0.6-0.8-1.2-1.2-1.9
					c-0.8-1.3-1.6-2.7-2.3-4c0,0,0,0-0.1,0s-0.2,0.1-0.2,0.1c0.4,0.8,0.8,1.6,1.2,2.4c1.7,3.6,2.9,7.5,3.2,11.6
					C122.8,98.9,123.3,95.4,123,91.5z"/>
				<path class="st5" d="M139.5,75.3c-2.6,0.8-4.8,2.4-6.8,4.2c-0.3-1.4,0.6-3.4,2.1-4.5c2.3-1.6,4.9-1.5,7.7-1.1
					c-1,3.1-2.6,5.5-5.4,7c-0.7,0.4-1.6,0.4-2.5,0.5c-0.3,0-0.6-0.2-1-0.3c0.1-0.3,0.2-0.6,0.3-0.9c1.3-1.8,2.9-3.2,4.9-4.3
					c0.2-0.1,0.5-0.3,0.7-0.4C139.6,75.4,139.6,75.4,139.5,75.3z"/>
				<path class="st5" d="M137.8,84.1c2-0.3,3.6,0.2,5.3,0.8c0-0.1,0.1-0.2,0.1-0.3c-1.7-0.7-3.3-1.3-5-2c0.5-0.9,1.9-1.4,3-0.7
					c1.2,0.7,2.3,1.7,3.2,2.7c1.5,1.6,1.3,1.9-0.8,2.3s-3.9-0.2-5.2-1.9C138.2,84.8,138.1,84.5,137.8,84.1z"/>
				<path class="st5" d="M129.8,72.2c2,2.3,2.5,6.6,0.9,8.3c-0.2-0.9-0.4-1.6-0.6-2.4c-0.2-0.8-0.3-1.6-0.4-2.6c0,1.9,0,3.7,0,5.4
					C127.3,79.7,127.9,75.2,129.8,72.2z"/>
				<path class="st5" d="M109,86c-1.3-0.1-2.6-0.2-3.9-0.3c0,0.1,0,0.1,0,0.2c1.2,0.4,2.5,0.8,3.8,1.2c-0.5,1-1.2,1.3-2,1.3
					c-1.6,0.1-2.8-0.7-3.9-1.8c-0.1-0.1-0.1-0.7,0.1-0.8c1.1-0.9,2.3-1.4,3.7-1.4C107.9,84.4,108.7,85,109,86z"/>
				<path class="st5" d="M131.5,86c1.4-0.6,2.7-0.4,3.9-0.1c0-0.1,0-0.2,0.1-0.3c-1.3-0.3-2.6-0.6-3.9-0.9c0.3-0.8,1.3-1.3,2.3-1
					c1.5,0.4,2.5,1.4,3.4,2.5c0.1,0.1,0,0.5-0.1,0.6c-1.4,1.4-4.4,1.2-5.6-0.3C131.7,86.4,131.7,86.3,131.5,86z"/>
				<path class="st5" d="M117.3,80.5c0.1-1.6,0.2-3,0.3-4.5c-0.1,0-0.1,0-0.2,0c-0.3,1.3-0.6,2.7-0.9,4.1c-1.4-1.3-1.1-5.2,0.7-7.4
					C119,74,119.1,79,117.3,80.5z"/>
				<path class="st5" d="M111.9,89.4c-1.1,0.5-2.1,0.8-3.1,1.2v0.1c1-0.2,2-0.3,3.1-0.5c-0.6,1.9-3.2,2.8-4.6,1.7
					c-0.1-0.1-0.2-0.6-0.1-0.7c0.8-0.8,1.5-1.7,2.4-2.3C110.3,88.5,111.2,88.6,111.9,89.4z"/>
				<path class="st5" d="M114.3,78.4c-0.3-0.7-0.6-1.2-0.8-1.8c-0.3-0.5-0.5-1-1-1.4c0.4,1.2,0.8,2.4,1.2,3.6
					c-1.6-0.3-2.8-3.2-2.4-5.3C113.4,73.8,115,76.2,114.3,78.4z"/>
				<path class="st4" d="M124.3,84.3c0-1,0.6-1.8,1.5-1.8c0.8,0,1.5,0.8,1.5,1.8c0,1.1-0.7,1.9-1.5,1.8
					C124.9,86.1,124.3,85.3,124.3,84.3z"/>
				<path class="st5" d="M133.8,70.5c0.9,1.3,0.8,3.6-0.4,4.8c0-1,0-1.9,0-2.8c-0.1,0-0.2,0-0.3,0c-0.2,0.9-0.3,1.8-0.5,2.7
					C131.6,74.2,132.4,71.6,133.8,70.5z"/>
				<path class="st5" d="M119.1,81.6c1,1.3,1.1,3.7,0.1,4.5c0.1-0.9,0.1-1.7,0.1-2.5h-0.1c-0.2,0.8-0.4,1.6-0.6,2.4
					C117.8,84.7,118.1,82.5,119.1,81.6z"/>
				<path class="st4" d="M122.1,91.4c-0.1,0.6-0.2,1.2-1,1.2s-1-0.6-1-1.2s0.2-1.2,1-1.2C121.8,90.2,122,90.7,122.1,91.4z"/>
			</g>
		</g>
		<polyline class="st1" points="99.3,99.3 94.5,93.7 103.4,83.8 103.4,68.9 116.5,68.9 125.6,59 134.8,69.1 147.7,69.2 147.7,83.5 
			156.9,93.6 150.9,100.6 		"/>
		<g>
			<path class="st2" d="M96,131v-0.4c0-0.1,0-0.1,0.1-0.1h1.4c0.1,0,0.1,0,0.1,0.1v2.7c0,0.2,0,0.3,0.1,0.4c0.1,0.1,0.2,0.1,0.3,0.1
				h0.2c0.2,0,0.4,0.2,0.4,0.7c0,0.2,0,0.4-0.1,0.5s-0.2,0.1-0.3,0.1H97c-0.3,0-0.5,0-0.7-0.1s-0.3-0.3-0.3-0.5
				c-0.1,0.1-0.3,0.2-0.5,0.2c-0.2,0.1-0.4,0.1-0.6,0.1s-0.5,0-0.7-0.1s-0.4-0.2-0.6-0.3s-0.3-0.3-0.4-0.6c-0.1-0.2-0.2-0.5-0.2-0.9
				s0.1-0.7,0.2-0.9s0.3-0.4,0.4-0.6c0.2-0.1,0.4-0.2,0.6-0.3s0.5-0.1,0.7-0.1L96,131L96,131z M94.1,129.8
				C94,129.8,94,129.8,94.1,129.8l-0.1-1.1c0-0.1,0-0.1,0.1-0.1h1.1c0.1,0,0.1,0,0.1,0.1v1c0,0.1,0,0.1-0.1,0.1H94.1z M95.3,133.4
				c0.2,0,0.3,0,0.5-0.1c0.1-0.1,0.2-0.3,0.2-0.5v-0.5h-0.7c-0.2,0-0.4,0-0.5,0.1s-0.2,0.2-0.2,0.5c0,0.2,0.1,0.4,0.2,0.4
				C95,133.4,95.1,133.4,95.3,133.4z M95.6,129.8C95.5,129.8,95.5,129.8,95.6,129.8l-0.1-1.1c0-0.1,0-0.1,0.1-0.1h1.1
				c0.1,0,0.1,0,0.1,0.1v1c0,0.1,0,0.1-0.1,0.1H95.6z"/>
			<path class="st2" d="M99.3,131.2C99.3,131.1,99.3,131.1,99.3,131.2l1.5-0.1c0.1,0,0.1,0,0.1,0.1v2.1c0,0.1,0.1,0.2,0.2,0.3
				s0.3,0.1,0.5,0.1h0.3c0.2,0,0.4,0.2,0.4,0.7c0,0.2,0,0.4-0.1,0.5s-0.2,0.2-0.3,0.2c-0.2,0-0.4,0-0.6-0.1s-0.3-0.2-0.4-0.4
				c-0.1,0.1-0.1,0.2-0.2,0.2c-0.1,0.1-0.2,0.1-0.3,0.1s-0.2,0-0.4,0.1c-0.1,0-0.3,0-0.5,0h-1c-0.1,0-0.2,0-0.3-0.1
				c-0.1-0.1-0.1-0.3-0.1-0.5s0-0.4,0.1-0.5s0.2-0.1,0.3-0.1H99c0.2,0,0.3,0,0.4-0.1s0.1-0.3,0.1-0.5L99.3,131.2L99.3,131.2z
				 M98.7,137L98.7,137l-0.1-1.1c0-0.1,0-0.1,0.1-0.1h1.1c0.1,0,0.1,0,0.1,0.1v1c0,0.1,0,0.1-0.1,0.1H98.7z M100.3,137
				C100.2,137,100.2,137,100.3,137l-0.1-1.1c0-0.1,0-0.1,0.1-0.1h1.1c0.1,0,0.1,0,0.1,0.1v1c0,0.1,0,0.1-0.1,0.1H100.3z"/>
			<path class="st2" d="M104.7,135.1c-0.3,0-0.7,0-1-0.1s-0.5-0.2-0.8-0.5c-0.1,0.1-0.2,0.2-0.2,0.3c-0.1,0.1-0.2,0.1-0.3,0.2
				c-0.1,0-0.2,0.1-0.3,0.1c-0.1,0-0.2,0-0.3,0c-0.1,0-0.2,0-0.3-0.1s-0.1-0.3-0.1-0.5s0-0.4,0.1-0.5s0.2-0.2,0.3-0.2h0.2
				c0.1,0,0.2,0,0.3-0.1s0.1-0.1,0.2-0.2c0-0.1,0.1-0.2,0.1-0.3s0-0.2,0-0.3c0-0.4,0.1-0.7,0.2-0.9s0.3-0.4,0.5-0.6
				c0.2-0.1,0.4-0.2,0.7-0.3c0.2-0.1,0.5-0.1,0.7-0.1c0.3,0,0.6,0,0.9,0.1s0.5,0.2,0.7,0.4s0.4,0.4,0.5,0.7s0.2,0.6,0.2,1
				c0,0.2,0,0.3,0.1,0.5c0.1,0.1,0.2,0.2,0.4,0.2h0.3c0.2,0,0.4,0.2,0.4,0.7c0,0.2,0,0.4-0.1,0.5s-0.2,0.2-0.3,0.2
				c-0.2,0-0.5,0-0.7-0.1s-0.4-0.2-0.6-0.5c-0.2,0.2-0.5,0.4-0.8,0.5C105.4,135.1,105.1,135.1,104.7,135.1z M104.7,132.3
				c-0.2,0-0.4,0.1-0.5,0.2c-0.1,0.1-0.2,0.3-0.2,0.6s0.1,0.5,0.2,0.6s0.3,0.2,0.5,0.2s0.4-0.1,0.5-0.2c0.1-0.1,0.2-0.3,0.2-0.6
				s-0.1-0.5-0.2-0.6C105.1,132.3,104.9,132.3,104.7,132.3z"/>
			<path class="st2" d="M108.4,131.2C108.4,131.1,108.4,131.1,108.4,131.2l1.5-0.1c0.1,0,0.1,0,0.1,0.1v2.1c0,0.1,0.1,0.2,0.2,0.3
				s0.3,0.1,0.5,0.1h0.3c0.2,0,0.4,0.2,0.4,0.7c0,0.4-0.1,0.7-0.4,0.7c-0.2,0-0.4,0-0.6-0.1s-0.3-0.2-0.4-0.4
				c-0.1,0.2-0.3,0.3-0.5,0.4c-0.2,0-0.5,0.1-0.9,0.1h-0.8c-0.1,0-0.2,0-0.3-0.1s-0.1-0.3-0.1-0.5s0-0.4,0.1-0.5s0.2-0.2,0.3-0.2
				h0.2c0.2,0,0.3,0,0.4-0.1s0.1-0.3,0.1-0.5L108.4,131.2L108.4,131.2z M108.5,130.2C108.4,130.2,108.4,130.1,108.5,130.2l-0.1-1.1
				c0-0.1,0-0.1,0.1-0.1h1.4c0.1,0,0.1,0,0.1,0.1v1c0,0.1,0,0.1-0.1,0.1H108.5z"/>
			<path class="st2" d="M111.8,131.2C111.8,131.1,111.9,131.1,111.8,131.2l1.5-0.1c0.1,0,0.1,0,0.1,0.1v2.1c0,0.1,0.1,0.2,0.2,0.3
				s0.3,0.1,0.5,0.1h0.3c0.2,0,0.4,0.2,0.4,0.7c0,0.2,0,0.4-0.1,0.5s-0.2,0.2-0.3,0.2c-0.2,0-0.4,0-0.6-0.1s-0.3-0.2-0.4-0.4
				c-0.1,0.1-0.1,0.2-0.2,0.2s-0.2,0.1-0.3,0.1s-0.2,0-0.4,0.1c-0.1,0-0.3,0-0.5,0h-1c-0.1,0-0.2,0-0.3-0.1
				c-0.1-0.1-0.1-0.3-0.1-0.5s0-0.4,0.1-0.5s0.2-0.1,0.3-0.1h0.5c0.2,0,0.3,0,0.4-0.1s0.1-0.3,0.1-0.5L111.8,131.2L111.8,131.2z
				 M111.3,130.2C111.3,130.2,111.2,130.1,111.3,130.2l-0.1-1.1c0-0.1,0-0.1,0.1-0.1h1.1c0.1,0,0.1,0,0.1,0.1v1c0,0.1,0,0.1-0.1,0.1
				H111.3z M112.8,130.2C112.8,130.2,112.8,130.1,112.8,130.2l-0.1-1.1c0-0.1,0-0.1,0.1-0.1h1.1c0.1,0,0.1,0,0.1,0.1v1
				c0,0.1,0,0.1-0.1,0.1H112.8z"/>
			<path class="st2" d="M114.3,135.1c-0.1,0-0.2,0-0.3-0.1c-0.1-0.1-0.1-0.3-0.1-0.5s0-0.4,0.1-0.5s0.2-0.2,0.3-0.2h0.2
				c0.2,0,0.3,0,0.3-0.1c0.1-0.1,0.1-0.2,0.1-0.4v-4.4c0-0.1,0-0.1,0.1-0.1h1.4c0.1,0,0.1,0,0.1,0.1v5c0,0.4-0.1,0.7-0.2,0.9
				c-0.2,0.2-0.4,0.3-0.8,0.3H114.3z"/>
			<path class="st2" d="M119.4,135C119.4,135,119.4,135.1,119.4,135l-1.5,0.1c-0.1,0-0.1,0-0.1-0.1v-6.1c0-0.1,0-0.1,0.1-0.1h1.4
				c0.1,0,0.1,0,0.1,0.1V135z"/>
			<path class="st2" d="M121.4,137L121.4,137l-0.1-1.2c0-0.1,0-0.1,0.1-0.1h1c0.2,0,0.4,0,0.6-0.1c0.1-0.1,0.2-0.2,0.2-0.5h-0.6
				c-0.4,0-0.7,0-0.9-0.1c-0.3-0.1-0.5-0.2-0.7-0.3s-0.3-0.3-0.4-0.6c-0.1-0.2-0.1-0.6-0.1-1s0.1-0.8,0.2-1s0.3-0.5,0.5-0.7
				s0.4-0.3,0.7-0.4c0.3-0.1,0.5-0.1,0.8-0.1s0.5,0,0.8,0.1s0.5,0.2,0.7,0.3c0.2,0.2,0.4,0.4,0.5,0.6c0.1,0.3,0.2,0.6,0.2,1v2.2
				c0,0.6-0.1,1-0.4,1.3s-0.8,0.5-1.5,0.5L121.4,137L121.4,137z M122.7,132.3c-0.2,0-0.4,0.1-0.5,0.2c-0.1,0.1-0.2,0.3-0.2,0.6
				c0,0.1,0,0.3,0,0.4c0,0.1,0.1,0.2,0.1,0.2c0.1,0.1,0.1,0.1,0.2,0.1s0.2,0,0.3,0h0.6V133c0-0.3-0.1-0.5-0.2-0.6
				C123,132.3,122.9,132.3,122.7,132.3z"/>
			<path class="st2" d="M134.1,135.1c-0.3,0-0.5,0-0.7-0.1s-0.4-0.1-0.6-0.3l-0.1,0.1l-0.1,0.1c0,0,0,0.1-0.1,0.1c0,0.1,0,0.1,0,0.2
				v1.6h-1.6V135c0-0.2,0-0.4,0.1-0.5c0-0.1,0.1-0.3,0.2-0.3c0.1-0.1,0.1-0.2,0.2-0.2s0.2-0.1,0.2-0.2c0.1-0.1,0.1-0.1,0.2-0.2
				c0.1-0.1,0.1-0.2,0.1-0.3c0,0,0-0.1,0-0.2s0-0.1,0-0.2c0-0.4,0.1-0.8,0.2-1.1c0.1-0.3,0.3-0.5,0.5-0.7s0.4-0.3,0.7-0.3
				c0.3-0.1,0.5-0.1,0.8-0.1s0.5,0,0.8,0.1s0.5,0.2,0.7,0.3c0.2,0.2,0.4,0.4,0.5,0.7s0.2,0.6,0.2,1.1c0,0.2,0,0.3,0.1,0.5
				c0.1,0.1,0.2,0.2,0.4,0.2h0.3c0.2,0,0.4,0.2,0.4,0.7c0,0.2,0,0.4-0.1,0.5s-0.2,0.2-0.3,0.2c-0.2,0-0.5,0-0.7-0.1
				s-0.4-0.2-0.6-0.5c-0.2,0.2-0.5,0.4-0.8,0.5C134.8,135.1,134.4,135.1,134.1,135.1z M134.1,132.3c-0.2,0-0.4,0.1-0.5,0.2
				c-0.1,0.1-0.2,0.3-0.2,0.6s0.1,0.5,0.2,0.6c0.1,0.1,0.3,0.2,0.5,0.2s0.4-0.1,0.5-0.2c0.1-0.1,0.2-0.3,0.2-0.6s-0.1-0.5-0.2-0.6
				C134.4,132.3,134.3,132.3,134.1,132.3z"/>
			<path class="st2" d="M138.1,131.2C138.1,131.1,138.1,131.1,138.1,131.2l1.5-0.1c0.1,0,0.1,0,0.1,0.1v2.1c0,0.1,0.1,0.2,0.2,0.3
				c0.1,0.1,0.3,0.1,0.5,0.1h0.3c0.2,0,0.4,0.2,0.4,0.7c0,0.2,0,0.4-0.1,0.5s-0.2,0.2-0.3,0.2c-0.2,0-0.4,0-0.6-0.1
				c-0.2-0.1-0.3-0.2-0.4-0.4c-0.1,0.1-0.1,0.2-0.2,0.2s-0.2,0.1-0.3,0.1s-0.2,0-0.4,0.1c-0.1,0-0.3,0-0.5,0h-1
				c-0.1,0-0.2,0-0.3-0.1s-0.1-0.3-0.1-0.5s0-0.4,0.1-0.5s0.2-0.1,0.3-0.1h0.5c0.2,0,0.3,0,0.4-0.1c0.1-0.1,0.1-0.3,0.1-0.5
				L138.1,131.2L138.1,131.2z M137.6,137C137.5,137,137.5,137,137.6,137l-0.1-1.1c0-0.1,0-0.1,0.1-0.1h1.1c0.1,0,0.1,0,0.1,0.1v1
				c0,0.1,0,0.1-0.1,0.1H137.6z M139.1,137C139,137,139,137,139.1,137l-0.1-1.1c0-0.1,0-0.1,0.1-0.1h1.1c0.1,0,0.1,0,0.1,0.1v1
				c0,0.1,0,0.1-0.1,0.1H139.1z"/>
			<path class="st2" d="M141.2,128.9C141.2,128.8,141.3,128.8,141.2,128.9l1.5-0.1c0.1,0,0.1,0,0.1,0.1v4.5c0,0.1,0.1,0.2,0.2,0.3
				c0.1,0.1,0.3,0.1,0.5,0.1h0.3c0.2,0,0.4,0.2,0.4,0.7c0,0.2,0,0.4-0.1,0.5s-0.2,0.2-0.3,0.2c-0.2,0-0.4,0-0.6-0.1
				c-0.2-0.1-0.3-0.2-0.4-0.4c-0.1,0.2-0.2,0.3-0.4,0.4c-0.2,0.1-0.4,0.1-0.8,0.1h-0.9c-0.1,0-0.2,0-0.3-0.1s-0.1-0.3-0.1-0.5
				c0-0.3,0-0.4,0.1-0.5s0.2-0.1,0.3-0.1h0.2c0.2,0,0.3,0,0.3-0.1c0.1-0.1,0.1-0.2,0.1-0.4L141.2,128.9L141.2,128.9z"/>
			<path class="st2" d="M149.2,133.8c0.2,0,0.4,0.2,0.4,0.7c0,0.2,0,0.4-0.1,0.5s-0.2,0.2-0.3,0.2h-1.5c-0.2,0-0.4,0-0.6-0.1
				c-0.2,0-0.4-0.1-0.6-0.2c-0.2,0.1-0.4,0.2-0.6,0.2c-0.2,0-0.4,0.1-0.6,0.1h-1.5c-0.1,0-0.2,0-0.3-0.1s-0.1-0.3-0.1-0.5
				c0-0.5,0.1-0.7,0.4-0.7h0.9c0.1,0,0.2,0,0.3,0s0.2,0,0.4,0c-0.1-0.2-0.3-0.4-0.4-0.6c-0.2-0.1-0.4-0.3-0.6-0.4
				c-0.1,0-0.1-0.1-0.1-0.2c0-0.1,0-0.2,0-0.2v-0.6c0-0.1,0.1-0.2,0.2-0.2s0.3-0.2,0.5-0.2c0.2-0.1,0.5-0.1,0.7-0.2
				c0.3,0,0.5-0.1,0.8-0.1c0.4,0,0.8,0,1,0.1c0.3,0.1,0.5,0.2,0.7,0.3s0.3,0.3,0.4,0.5c0.1,0.2,0.1,0.4,0.1,0.6c0,0.1,0,0.3-0.1,0.4
				c0,0.1-0.1,0.3-0.2,0.4c-0.1,0.1-0.2,0.2-0.3,0.3s-0.2,0.2-0.3,0.2c0.1,0,0.2,0,0.2,0s0.2,0,0.3,0h0.9V133.8z M146.5,133.6
				c0.4-0.3,0.6-0.5,0.6-0.9c0-0.1-0.1-0.3-0.2-0.3s-0.3-0.1-0.5-0.1s-0.3,0-0.5,0c-0.1,0-0.2,0.1-0.3,0.1c0.2,0.2,0.4,0.4,0.5,0.6
				C146.3,133.2,146.4,133.4,146.5,133.6z"/>
			<path class="st2" d="M150.2,131.2C150.2,131.1,150.2,131.1,150.2,131.2l1.5-0.1c0.1,0,0.1,0,0.1,0.1v2.1c0,0.1,0.1,0.2,0.2,0.3
				c0.1,0.1,0.3,0.1,0.5,0.1h0.3c0.2,0,0.4,0.2,0.4,0.7c0,0.2,0,0.4-0.1,0.5s-0.2,0.2-0.3,0.2c-0.2,0-0.4,0-0.6-0.1
				c-0.2-0.1-0.3-0.2-0.4-0.4c-0.1,0.1-0.1,0.2-0.2,0.2s-0.2,0.1-0.3,0.1s-0.2,0-0.4,0.1c-0.1,0-0.3,0-0.5,0h-1
				c-0.1,0-0.2,0-0.3-0.1s-0.1-0.3-0.1-0.5s0-0.4,0.1-0.5s0.2-0.1,0.3-0.1h0.5c0.2,0,0.3,0,0.4-0.1c0.1-0.1,0.1-0.3,0.1-0.5
				L150.2,131.2L150.2,131.2z M149.7,130.2C149.6,130.2,149.6,130.1,149.7,130.2l-0.1-1.1c0-0.1,0-0.1,0.1-0.1h1.1
				c0.1,0,0.1,0,0.1,0.1v1c0,0.1,0,0.1-0.1,0.1H149.7z M151.2,130.2C151.1,130.2,151.1,130.1,151.2,130.2l-0.1-1.1
				c0-0.1,0-0.1,0.1-0.1h1.1c0.1,0,0.1,0,0.1,0.1v1c0,0.1,0,0.1-0.1,0.1H151.2z"/>
			<path class="st2" d="M153.3,128.9C153.3,128.8,153.4,128.8,153.3,128.9l1.5-0.1c0.1,0,0.1,0,0.1,0.1v4.5c0,0.1,0.1,0.2,0.2,0.3
				c0.1,0.1,0.3,0.1,0.5,0.1h0.3c0.2,0,0.4,0.2,0.4,0.7c0,0.2,0,0.4-0.1,0.5s-0.2,0.2-0.3,0.2c-0.2,0-0.4,0-0.6-0.1
				s-0.3-0.2-0.4-0.4c-0.1,0.2-0.2,0.3-0.4,0.4c-0.2,0.1-0.4,0.1-0.8,0.1h-0.9c-0.1,0-0.2,0-0.3-0.1s-0.1-0.3-0.1-0.5
				c0-0.3,0-0.4,0.1-0.5s0.2-0.1,0.3-0.1h0.2c0.2,0,0.3,0,0.3-0.1c0.1-0.1,0.1-0.2,0.1-0.4v-4.6H153.3z"/>
			<path class="st2" d="M155.8,135.1c-0.1,0-0.2,0-0.3-0.1s-0.1-0.3-0.1-0.5s0-0.4,0.1-0.5s0.2-0.2,0.3-0.2h0.2c0.2,0,0.3,0,0.3-0.1
				c0.1-0.1,0.1-0.2,0.1-0.4v-4.4c0-0.1,0-0.1,0.1-0.1h1.4c0.1,0,0.1,0,0.1,0.1v5c0,0.4-0.1,0.7-0.2,0.9c-0.2,0.2-0.4,0.3-0.8,0.3
				H155.8z"/>
		</g>
	</g>
</g>
</svg>
