<svg id="Layer_1" data-name="Layer 1" xmlns="http://www.w3.org/2000/svg" viewBox="0 0 454.31 189.83"><defs><style>.cls-1{fill:none;}.cls-2{fill:#c4c4c4;}.cls-3{fill:#bbbbba;}</style></defs><path class="cls-1" d="M289.85,157.68c13.34,22.25,26.86,44.4,40.32,66.57.45.74.95,1.44,1.76,2.67,7.37-10.95,14.45-21.46,21.5-32,8.62-12.87,17.16-25.78,25.88-38.58A7.38,7.38,0,0,1,382,154h-96A8.08,8.08,0,0,1,289.85,157.68Z" transform="translate(-53.03 -154.01)"/><path class="cls-2" d="M257.08,210.65a134.22,134.22,0,0,1,.95,71c-4.86,19.14-14.54,35.26-28,46.61a79.38,79.38,0,0,1-24.32,13.95v.44h77.68V235.71l.91-.38,30,47.24-.18.26q4.33,6.84,8.71,13.73c1.46,2.17,6.69,11.06,7.59,12.3,1.13-1.45,5.85-8.15,6.89-9.71L329,293.61l.84-1.25,8.32,5.54,3.45-5.18-8.32-5.54.84-1.26,8.32,5.54,3.46-5.18-8.33-5.55.83-1.25,8.34,5.55,3.46-5.18-8.34-5.55.83-1.26L351,278.6l3.46-5.19-17.56-11.69.84-1.25,17.56,11.7,3.41-5.11-8.35-5.57.83-1.26,8.36,5.57,3.45-5.17-8.36-5.58.84-1.25,8.36,5.57q1.74-2.58,3.46-5.18L359,248.62l.83-1.26,8.38,5.58,3.45-5.18-8.37-5.58.83-1.26,8.38,5.58q1.74-2.58,3.46-5.18l-17.6-11.72.83-1.25,17.61,11.72,3.41-5.11-8.4-5.59.84-1.25,8.39,5.59,3.47-5.18-8.41-5.59.83-1.26,8.41,5.6,3.46-5.18-8.41-5.61.83-1.25,8.41,5.6,3.47-5.17-8.43-5.61.84-1.26,8.42,5.61c1.16-1.72,2.31-3.46,3.46-5.18l-17.64-11.75.83-1.25L398.19,208l3.42-5.1-8.44-5.62L394,196l8.44,5.62c1.16-1.73,2.31-3.45,3.46-5.19l-8.44-5.62.83-1.25,8.45,5.63L410.2,190l-8.46-5.63.84-1.25,8.45,5.63,3.47-5.18L406,177.94l.83-1.26,8.47,5.64q1.73-2.59,3.46-5.18l-17.68-11.78.83-1.25,17.68,11.77,3.42-5.1-8.48-5.65.83-1.25,8.49,5.64,3.45-5.18-8.48-5.65.83-1.25,8.49,5.65,3.46-5.18,2.66-3.9H382a7.38,7.38,0,0,0-2.72,2.34c-8.72,12.8-17.26,25.71-25.88,38.58-7.05,10.53-14.13,21-21.5,32-.81-1.23-1.31-1.93-1.76-2.67-13.46-22.17-27-44.32-40.32-66.57a8.08,8.08,0,0,0-3.8-3.67H206.74c1.4.53,2.79,1.09,4.15,1.7C234.05,166,249.59,184.52,257.08,210.65Z" transform="translate(-53.03 -154.01)"/><path class="cls-2" d="M479.92,311.91c19-19.48,28.65-44.69,27.3-71-1.69-33-20.74-62.61-51-79.13l-.76-.41-20.27,31.77.91.46c20,10,32.59,28.44,33.65,49.24.81,15.75-5.13,31-16.71,42.88a69.23,69.23,0,0,1-46.37,20.49A70.53,70.53,0,0,1,369.36,298l-.76-.41-20.19,31.65.83.48a106.38,106.38,0,0,0,37.53,12.95h32.41A105.8,105.8,0,0,0,479.92,311.91Z" transform="translate(-53.03 -154.01)"/><path class="cls-3" d="M402.86,343.84c1.91,0,3.85,0,5.77-.15,3.55-.18,7.08-.54,10.55-1.05H386.77a110.3,110.3,0,0,0,16.08,1.2Z" transform="translate(-53.03 -154.01)"/><path class="cls-2" d="M225.51,213c-7.17-23.69-21.89-41.25-45-51-12.28-5.19-25.15-7.2-38.26-7.12h-.43c-13.11-.08-26,1.93-38.26,7.12-23.13,9.76-37.85,27.32-45,51a125.78,125.78,0,0,0-1,70c9.12,34,33.67,55.51,67.53,60.31V323.11H161V343c32.82-5.36,56.57-26.7,65.52-60A125.78,125.78,0,0,0,225.51,213ZM103.23,283l0-.78.22.39Zm58,37.85H125.51L103.23,276.3l37.14-52.5H142v45.13a6.36,6.36,0,1,0,3.53-.1v-45h1.24l37.5,52.5Zm48.27-41.21H201v-8.51h3.24A60.59,60.59,0,0,0,149.16,211v4.49H138.31V211a60.59,60.59,0,0,0-55.09,60.1h3.57v8.51H78.27v-8.51h3.56a62,62,0,0,1,48.86-60.34H93.93a5.73,5.73,0,1,1,0-1.39h44.38v-4.73h10.85v4.73h46.77a5.73,5.73,0,1,1,0,1.39H156.78a62,62,0,0,1,48.85,60.34h3.89Z" transform="translate(-53.03 -154.01)"/><polygon class="cls-2" points="56.7 123.53 56.44 123.89 56.66 124.31 76.31 162.63 78.91 161.24 58.21 123.99 83.03 86.69 56.7 123.53"/><rect class="cls-2" x="73.63" y="170.57" width="9.41" height="18.72"/><rect class="cls-2" x="86" y="170.57" width="2.98" height="18.72"/></svg>