<?xml version="1.0" encoding="utf-8"?>
<!-- Generator: Adobe Illustrator 25.3.1, SVG Export Plug-In . SVG Version: 6.00 Build 0)  -->
<svg version="1.1" id="Layer_1" xmlns="http://www.w3.org/2000/svg" xmlns:xlink="http://www.w3.org/1999/xlink" x="0px" y="0px"
	 viewBox="0 0 250 167" style="enable-background:new 0 0 250 167;" xml:space="preserve">
<style type="text/css">
	.st0{fill:#F7F7F7;}
	.st1{fill:#BABABA;}
	.st2{fill:none;stroke:#DCDCDC;stroke-width:0.25;stroke-miterlimit:10;}
</style>
<rect x="-0.5" class="st0" width="250" height="167"/>
<g>
	<g>
		<g>
			<g>
				<g>
					<path class="st1" d="M42.6,108.6c-0.3,0.3-0.6,0.6-0.8,0.9c-0.2,0.2-0.3,0.5-0.5,1c-0.1,0.3-0.2,0.6-0.3,1
						c-0.1,0.3-0.1,0.7-0.1,1.2c0,0.7,0.1,1.2,0.2,1.7c0.1,0.4,0.3,0.8,0.6,1c0.2,0.2,0.5,0.3,0.9,0.3c0.3,0,0.6-0.1,0.9-0.3
						c0.3-0.2,0.6-0.5,0.8-0.8s0.4-0.7,0.6-1.1c0.1-0.4,0.2-0.8,0.2-1.2c0-0.7-0.2-1.4-0.7-2.2c-0.2-0.3-0.3-0.5-0.3-0.6
						c0-0.2,0.1-0.4,0.3-0.6c0.3-0.2,0.6-0.5,0.9-0.7c0.3-0.2,0.6-0.3,0.8-0.3c0.1,0,0.2,0,0.4,0.1c0.1,0.1,0.2,0.1,0.3,0.2
						c0.2,0.2,0.3,0.5,0.4,0.9c0.1,0.4,0.2,0.9,0.2,1.4c0,1.2-0.2,2.3-0.7,3.3s-1.1,1.8-2,2.4c-0.8,0.6-1.7,0.9-2.7,0.9
						c-0.6,0-1.1-0.1-1.7-0.3c-0.5-0.2-1-0.5-1.3-0.8c-0.6-0.6-0.9-1.3-0.9-2.3c0-0.5,0.1-1.1,0.3-1.7s0.5-1.2,0.9-1.8
						c0.4-0.6,0.8-1.1,1.3-1.6s1-0.9,1.5-1.1c0.5-0.3,1-0.5,1.5-0.6c0.5-0.2,1-0.2,1.4-0.2c0.6,0,0.9,0.1,0.9,0.3
						c0,0.1-0.1,0.2-0.2,0.3c-0.2,0.2-0.4,0.4-0.6,0.4c-0.2,0.1-0.4,0.2-0.8,0.3c-0.4,0.1-0.7,0.2-0.9,0.3
						C43.1,108.1,42.9,108.3,42.6,108.6z"/>
				</g>
			</g>
		</g>
		<g>
			<g>
				<g>
					<path class="st1" d="M56,114l-2.1,2.1c-0.3,0.3-0.5,0.5-0.6,0.5s-0.3,0.1-0.5,0.1c-0.3,0-0.6-0.1-0.8-0.3
						c-0.2-0.2-0.3-0.5-0.3-0.8c0-0.2,0-0.4,0.1-0.7c0.1-0.2,0.2-0.6,0.4-1.1c0-0.1,0.1-0.2,0.1-0.3c0-0.1,0.1-0.1,0.1-0.2l0,0
						c-0.5,0.5-1,1.1-1.4,1.6s-0.7,0.8-0.9,1.1c-0.2,0.2-0.4,0.4-0.6,0.5c-0.2,0.1-0.4,0.2-0.5,0.2c-0.3,0-0.6-0.1-0.8-0.4
						s-0.3-0.6-0.3-1.1c0-0.6,0.2-1.5,0.7-2.7c0.4-1.1,0.8-1.9,1-2.2c0.3-0.5,0.7-0.8,1.2-0.8c0.3,0,0.5,0.1,0.7,0.2
						s0.3,0.3,0.3,0.5c0,0.4-0.1,1-0.4,1.7c-0.1,0.3-0.2,0.6-0.3,1l0,0c0.2-0.2,0.5-0.6,0.9-1.1c0.7-0.9,1.2-1.5,1.6-1.8
						c0.5-0.4,0.9-0.7,1.3-0.7c0.2,0,0.3,0.1,0.5,0.2s0.3,0.3,0.4,0.5c0.1,0.2,0.1,0.4,0.1,0.6s-0.2,0.8-0.5,1.7
						c-0.1,0.2-0.1,0.3-0.2,0.4c0,0.1-0.1,0.2-0.1,0.3l0,0c0.1-0.1,0.1-0.1,0.2-0.2c0.1-0.1,0.1-0.1,0.2-0.2
						c0.1-0.1,0.1-0.1,0.2-0.2c0.1-0.1,0.5-0.5,1-1c0.4-0.4,0.6-0.7,0.9-0.8c0.2-0.1,0.4-0.2,0.6-0.2c0.3,0,0.6,0.1,0.7,0.3
						c0.2,0.2,0.2,0.5,0.2,0.9c0,0.3,0,0.7-0.1,1.2c-0.1,0.6-0.1,1.1-0.1,1.5s0,0.6,0,0.7s0,0.2,0,0.4c0,0.2,0,0.3,0.1,0.5
						c0,0.2,0.1,0.4,0.1,0.6c0.1,0.3,0.1,0.5,0.1,0.7s-0.2,0.3-0.4,0.5c-0.2,0.1-0.5,0.2-0.7,0.2c-0.4,0-0.8-0.2-1.2-0.6
						c-0.2-0.2-0.3-0.3-0.4-0.5c-0.1-0.2-0.2-0.4-0.2-0.6s-0.1-0.6-0.1-0.9s0-0.8,0.1-1.6l0,0L56,114z"/>
				</g>
			</g>
		</g>
		<g>
			<g>
				<g>
					<path class="st1" d="M64.9,114.6L64.9,114.6L64.9,114.6c-0.5,0.5-0.9,1-1.3,1.4c-0.4,0.4-0.8,0.6-1.1,0.8
						c-0.3,0.2-0.6,0.3-0.9,0.3c-0.6,0-1-0.2-1.4-0.6s-0.6-0.9-0.6-1.4c0-0.4,0.1-0.8,0.3-1.3s0.4-1,0.7-1.4c0.5-0.8,1.2-1.4,2-2
						c0.8-0.5,1.6-0.8,2.4-0.8c0.6,0,1.2,0.1,1.6,0.4s0.6,0.6,0.6,1c0,0.3-0.1,0.6-0.3,0.9c0.3,0,0.4,0,0.5,0.1s0.1,0.2,0.1,0.4
						c0,0,0,0.1,0,0.3c0,0.5,0,1,0,1.4c0,0.2,0,0.4,0,0.5s0,0.2,0,0.4s0,0.3,0,0.4c0,0.2,0.1,0.5,0.2,0.7c-0.3,0.3-0.6,0.5-0.9,0.7
						c-0.3,0.1-0.6,0.2-0.8,0.2c-0.8,0-1.2-0.7-1.2-2C64.9,114.8,64.9,114.7,64.9,114.6z M65.4,112.9L65.4,112.9
						c-0.5,0.1-0.7,0.2-0.9,0.2c-0.2,0-0.3-0.1-0.3-0.2c0,0,0-0.1,0.1-0.3c0.3-0.4,0.4-0.8,0.4-1.2c0-0.2,0-0.4-0.1-0.6
						s-0.2-0.3-0.2-0.3c-0.1,0-0.2,0.1-0.4,0.3c-0.5,0.5-0.8,1-1.1,1.6c-0.3,0.5-0.4,1-0.4,1.4c0,0.3,0.1,0.5,0.2,0.7
						c0.1,0.2,0.3,0.3,0.4,0.3c0.1,0,0.4-0.2,0.8-0.5c0.4-0.3,0.9-0.7,1.4-1.2L65.4,112.9L65.4,112.9z"/>
				</g>
			</g>
		</g>
		<g>
			<g>
				<g>
					<path class="st1" d="M70.9,114.5v0.2c0,0.1,0,0.2,0,0.4c0,0.2,0,0.4-0.1,0.6c0,0.2-0.1,0.3-0.2,0.4s-0.2,0.2-0.3,0.3
						c-0.4,0.3-0.7,0.5-1.1,0.5c-0.3,0-0.5-0.1-0.7-0.3c-0.1-0.2-0.2-0.6-0.2-1.1c0-0.4,0-0.9,0.1-1.5s0.2-1.1,0.3-1.6l0.1-0.2
						c0,0,0-0.1,0-0.2c0.2-0.7,0.4-1.2,0.5-1.5c0.2-0.3,0.3-0.6,0.6-0.8c0.2-0.2,0.4-0.2,0.7-0.2c0.4,0,0.6,0.2,0.7,0.7
						c0.1-0.1,0.1-0.1,0.2-0.2c0.1-0.2,0.3-0.3,0.3-0.4c0.1-0.1,0.2-0.1,0.3-0.1c0.4,0,0.7,0.4,0.7,1.3c0,0.5-0.1,0.9-0.2,1.4
						c-0.1,0.4-0.2,0.8-0.4,1.1c-0.2,0.3-0.3,0.4-0.5,0.4s-0.2-0.3-0.2-0.9c0-0.3,0-0.6-0.1-0.8c0-0.2-0.1-0.3-0.2-0.4
						c-0.2,0.3-0.2,0.9-0.3,1.9C70.9,114,70.9,114.3,70.9,114.5z"/>
				</g>
			</g>
		</g>
		<g>
			<g>
				<g>
					<path class="st1" d="M77.4,115.5l1.8-6.1c0.1-0.5,0.3-0.8,0.4-1c0.1-0.1,0.2-0.2,0.3-0.3l0,0h-0.1c-0.1,0-0.5,0.1-0.9,0.2
						c-0.5,0.2-0.9,0.3-1.1,0.3c-0.1,0-0.2,0-0.2-0.1c0,0-0.1-0.1-0.1-0.2c0-0.2,0.1-0.4,0.2-0.7c0.1-0.2,0.3-0.5,0.4-0.6
						c0.2-0.2,0.4-0.3,0.6-0.4c0.4-0.2,1-0.3,1.8-0.4s1.6-0.1,2.5-0.1s1.8,0.1,2.4,0.4c0.7,0.3,1.2,0.7,1.5,1.3
						c0.3,0.6,0.5,1.3,0.5,2.1c0,0.8-0.2,1.7-0.5,2.5s-0.8,1.6-1.3,2.1c-1.3,1.4-3,2-5.1,2c-0.7,0-1.3-0.1-1.9-0.2s-0.9-0.2-1.1-0.4
						C77.4,115.8,77.3,115.7,77.4,115.5C77.4,115.7,77.4,115.6,77.4,115.5z M82.5,108l-1.5,5.8c0,0,0,0.1-0.1,0.3
						c-0.1,0.4-0.2,0.7-0.3,0.9c-0.1,0.2-0.2,0.4-0.4,0.6c0.1,0,0.3,0,0.5,0c0.4,0,0.8,0,1.1-0.1c0.3-0.1,0.6-0.2,0.8-0.3
						c0.3-0.1,0.5-0.3,0.7-0.5c0.4-0.4,0.7-0.9,1-1.5c0.2-0.6,0.3-1.2,0.3-1.8c0-0.6-0.1-1.2-0.3-1.6c-0.2-0.5-0.4-0.9-0.8-1.2
						C83.3,108.2,82.9,108,82.5,108z"/>
				</g>
			</g>
		</g>
		<g>
			<g>
				<g>
					<path class="st1" d="M90.6,114.7c0.1,0.3,0.3,0.5,0.6,0.5c0.4,0,0.9-0.2,1.5-0.7c0.4-0.3,0.6-0.4,0.7-0.4c0.2,0,0.3,0,0.4,0.1
						s0.2,0.2,0.2,0.2c0,0.1-0.1,0.2-0.2,0.4c-0.3,0.3-0.6,0.5-0.9,0.8s-0.7,0.5-1,0.6c-0.3,0.2-0.6,0.3-1,0.4
						c-0.3,0.1-0.6,0.1-0.9,0.1c-0.6,0-1.1-0.2-1.5-0.5c-0.4-0.4-0.6-0.8-0.6-1.4c0-0.5,0.1-1,0.3-1.6c0.2-0.6,0.5-1.1,0.8-1.6
						c0.4-0.6,0.9-1.1,1.5-1.5c0.7-0.5,1.4-0.7,2.1-0.7c0.5,0,0.8,0.2,1.1,0.5c0.3,0.3,0.4,0.7,0.4,1.2c0,0.4-0.1,0.8-0.3,1.3
						c-0.2,0.4-0.5,0.9-0.9,1.3c-0.3,0.3-0.7,0.6-1,0.8c-0.3,0.2-0.6,0.3-0.9,0.3C90.8,114.8,90.7,114.7,90.6,114.7z M90.6,114.4
						c0.2-0.2,0.4-0.3,0.5-0.5c0.3-0.3,0.5-0.7,0.6-1.1c0.1-0.3,0.2-0.6,0.3-0.9s0.1-0.7,0.1-1s-0.1-0.4-0.2-0.4
						c-0.2,0-0.4,0.4-0.7,1.1c-0.2,0.4-0.4,0.9-0.5,1.3s-0.2,0.8-0.2,1.1C90.5,114.1,90.5,114.2,90.6,114.4z"/>
				</g>
			</g>
		</g>
		<g>
			<g>
				<g>
					<path class="st1" d="M96.8,117.1c0.3,0,0.6-0.2,0.8-0.4c0.2-0.3,0.4-0.6,0.4-0.9c0-0.2-0.1-0.4-0.2-0.5
						c-0.2-0.2-0.5-0.3-1.1-0.5c-0.8-0.2-1.3-0.5-1.6-0.8c-0.2-0.2-0.3-0.5-0.3-0.8c0-0.6,0.2-1.2,0.6-1.7c0.4-0.6,1-1.1,1.6-1.4
						c0.7-0.4,1.3-0.6,2-0.6c0.3,0,0.6,0.1,0.9,0.2c0.3,0.2,0.5,0.4,0.7,0.6s0.2,0.5,0.2,0.8s-0.1,0.6-0.3,0.9
						c-0.2,0.3-0.4,0.6-0.7,0.8s-0.5,0.3-0.8,0.3c-0.1,0-0.3,0-0.4-0.1s-0.2-0.1-0.2-0.2s0-0.2,0.1-0.3c0.1-0.4,0.2-0.8,0.2-1.1
						c0-0.3-0.1-0.6-0.3-0.9c-0.2,0.2-0.4,0.3-0.5,0.4c-0.2,0.2-0.3,0.5-0.4,0.8s-0.2,0.6-0.2,0.8c0,0.2,0,0.3,0.1,0.4
						s0.2,0.2,0.4,0.3c0.2,0.1,0.5,0.2,0.9,0.3c0.6,0.2,1.1,0.3,1.4,0.5c0.1,0,0.2,0.1,0.3,0.2c0.2,0.2,0.3,0.5,0.3,0.8
						s-0.1,0.7-0.3,1.1c-0.2,0.4-0.6,0.7-1,1.1c-0.5,0.4-1,0.7-1.4,0.9c-0.5,0.2-1,0.3-1.6,0.3s-1-0.1-1.3-0.3
						c-0.3-0.2-0.5-0.5-0.5-0.9c0-0.3,0.1-0.5,0.3-0.8c0.2-0.3,0.5-0.5,0.8-0.7s0.6-0.3,0.9-0.3c0.2,0,0.3,0.1,0.3,0.2
						s0,0.1-0.1,0.2c-0.2,0.4-0.3,0.7-0.3,1C96.6,116.7,96.7,116.9,96.8,117.1z"/>
				</g>
			</g>
		</g>
		<g>
			<g>
				<g>
					<path class="st1" d="M102.6,116.9c-0.2,0-0.4-0.1-0.6-0.3c-0.2-0.2-0.3-0.4-0.4-0.7s-0.1-0.5-0.1-0.9c0-0.8,0.2-1.8,0.5-2.8
						s0.7-1.8,1.1-2.3c0.2-0.2,0.4-0.3,0.7-0.3c0.3,0,0.5,0.1,0.7,0.4s0.3,0.6,0.3,1.1c0,0.6-0.1,1.4-0.3,2.3
						c-0.2,0.9-0.4,1.8-0.8,2.7c-0.1,0.4-0.3,0.6-0.5,0.8C103,116.8,102.8,116.9,102.6,116.9L102.6,116.9z M103.5,109.3
						c-0.5,0-0.7-0.3-0.7-0.9c0-0.3,0.1-0.6,0.2-1s0.3-0.6,0.5-0.8c0.1-0.1,0.2-0.2,0.3-0.2c0.1,0,0.2-0.1,0.4-0.1
						c0.3,0,0.4,0.1,0.6,0.2c0.1,0.1,0.2,0.3,0.2,0.6c0,0.4-0.1,0.7-0.2,1s-0.3,0.6-0.5,0.8C104,109.2,103.8,109.3,103.5,109.3
						L103.5,109.3z"/>
				</g>
			</g>
		</g>
		<g>
			<g>
				<g>
					<path class="st1" d="M110.5,114.7l-0.2,0.2c0,0,0,0-0.1,0.1l-0.1,0.1c-0.9,0.7-1.6,1.2-2.1,1.4c-0.5,0.3-0.9,0.4-1.3,0.4
						s-0.7-0.1-1-0.4c-0.2-0.3-0.4-0.7-0.4-1.2c0-0.6,0.2-1.3,0.5-1.9c0.4-0.7,0.8-1.3,1.4-1.8c0.6-0.6,1.2-1,1.9-1.3
						c0.7-0.3,1.3-0.5,2-0.5c0.6,0,1.1,0.1,1.4,0.3c0.3,0.2,0.5,0.5,0.5,1c0,0.4-0.1,0.8-0.4,1.3c0.2,0,0.4,0.1,0.5,0.2
						s0.1,0.3,0.1,0.5c0,0.4-0.1,0.9-0.2,1.6c-0.2,0.7-0.4,1.4-0.6,1.9c-0.3,0.8-0.7,1.4-1.2,2c-0.4,0.4-0.9,0.8-1.5,1.1
						c-0.6,0.3-1.1,0.5-1.5,0.5s-0.7-0.1-0.9-0.4c-0.3-0.3-0.4-0.6-0.4-1c0-0.2,0.1-0.5,0.2-0.7c0.1-0.3,0.3-0.5,0.5-0.7
						c0.4-0.4,1-0.8,1.7-1.1c0.1-0.1,0.2-0.1,0.3-0.1h0.1v0.1c0,0,0,0.1-0.1,0.2c-0.2,0.3-0.3,0.6-0.4,1s-0.2,0.7-0.2,1
						s0.1,0.5,0.2,0.5s0.1-0.1,0.2-0.2s0.2-0.3,0.2-0.4c0.4-1.1,0.7-2.1,0.8-3C110.4,115.2,110.4,115,110.5,114.7z M110.8,113.1
						L110.8,113.1L110.8,113.1c-0.1,0-0.1,0-0.2,0s-0.2,0-0.4,0c-0.3,0-0.4,0-0.4-0.1s0-0.1,0.1-0.2c0.2-0.2,0.4-0.5,0.5-0.9
						s0.2-0.7,0.2-1c0-0.1,0-0.1,0-0.2c0,0,0,0,0-0.1l0,0c0-0.1,0-0.1-0.1-0.1c-0.2,0-0.5,0.2-0.9,0.6c-0.3,0.3-0.5,0.6-0.7,1
						s-0.4,0.7-0.5,1.1s-0.2,0.7-0.2,1s0.1,0.4,0.2,0.4s0.5-0.2,1.1-0.7C109.8,113.8,110.3,113.5,110.8,113.1z"/>
				</g>
			</g>
		</g>
		<g>
			<g>
				<g>
					<path class="st1" d="M117.2,112.8l0.5-0.5c0.5-0.5,0.8-0.9,1.1-1.1c0.3-0.3,0.5-0.4,0.7-0.5s0.4-0.2,0.7-0.2
						c0.4,0,0.6,0.1,0.8,0.3c0.1,0.2,0.2,0.5,0.2,1c0,0.2,0,0.5-0.1,0.9c-0.1,0.5-0.1,1-0.1,1.4c0,0.5,0,0.9,0.1,1.2
						c0,0.2,0.1,0.4,0.2,0.6s0.1,0.3,0.1,0.4s0,0.1-0.1,0.2c-0.2,0.1-0.4,0.3-0.6,0.4c-0.3,0.1-0.5,0.2-0.7,0.2
						c-0.3,0-0.5-0.1-0.8-0.3c-0.2-0.2-0.4-0.5-0.5-0.8s-0.2-0.7-0.2-1.2c0-0.3,0-0.6,0.1-1l0,0c-0.2,0.2-0.4,0.4-0.5,0.6
						c-0.1,0.1-0.3,0.3-0.4,0.4c-0.6,0.6-1,1.2-1.4,1.7c-0.2,0.2-0.3,0.4-0.4,0.5c-0.2,0.2-0.4,0.3-0.6,0.3c-0.3,0-0.6-0.1-0.8-0.4
						c-0.2-0.2-0.3-0.6-0.3-0.9c0-0.2,0-0.5,0.1-0.9c0.1-0.3,0.1-0.7,0.2-1.1s0.2-0.8,0.3-1.2c0.1-0.4,0.3-0.8,0.4-1.2
						c0.2-0.6,0.5-1.1,0.8-1.5c0.2-0.2,0.5-0.3,0.8-0.3c0.5,0,0.8,0.3,0.8,1C117.4,111.1,117.3,111.8,117.2,112.8L117.2,112.8z"/>
				</g>
			</g>
		</g>
	</g>
	<g>
		<g>
			<g>
				<g>
					<g>
						<path class="st1" d="M148.8,102.1c2.5,2.9,5.5,5.1,9.4,5.8c0,3.8-0.1,7.7-0.1,11.5c-0.5,0.1-1,0.2-1.5,0.3
							c-1.9,0.5-3.6,1.4-5.2,2.6c-1,0.8-1.9,1.6-2.8,2.6c-0.1,0.1-0.1,0.1-0.3,0c-2.4-1.3-4.7-2.6-7.1-3.9c-3-1.7-6-3.3-9-5
							c-1.1-0.6-2.3-1.3-3.4-1.9c-0.1,0-0.1-0.1-0.1-0.2c0.1-0.3,0.1-0.3,0.4-0.3c4.9,0,9.7,0.1,14.6,0.1c0.1,0,0.1,0,0.2,0
							c0,0.1,0,0.2,0,0.3c0.2,1,1,1.8,2,1.9s2-0.5,2.4-1.4c0.4-1,0.2-2.1-0.6-2.8c-1.4-1.2-3.5-0.4-3.8,1.4c0,0.2-0.1,0.2-0.3,0.2
							c-4.9-0.1-9.8-0.1-14.7-0.1c-0.1,0-0.1,0-0.2,0c-0.2-0.4-0.2-0.4,0.2-0.6c6.5-3.5,13-6.9,19.5-10.4
							C148.6,102.2,148.7,102.2,148.8,102.1z"/>
					</g>
				</g>
			</g>
		</g>
		<g>
			<g>
				<g>
					<g>
						<path class="st1" d="M147.4,111.8c1,0.6,1.3,1.8,0.7,2.8s-1.8,1.3-2.8,0.7c-0.9-0.6-1.2-1.8-0.7-2.8
							C145.2,111.5,146.5,111.2,147.4,111.8z M145.6,114.9c0.7,0.4,1.7,0.2,2.1-0.5c0.4-0.7,0.2-1.7-0.5-2.1s-1.7-0.2-2.1,0.6
							C144.6,113.5,144.8,114.4,145.6,114.9z"/>
					</g>
				</g>
			</g>
		</g>
	</g>
	<g>
		<g>
			<g>
				<path class="st1" d="M86.7,60C84.5,52.8,80,47.4,73,44.4c-3.7-1.6-7.7-2.2-11.7-2.2h-0.1c-4,0-7.9,0.6-11.7,2.2
					c-7.1,3-11.5,8.3-13.7,15.6c-2.1,7.1-2.2,14.2-0.3,21.4c3,11.2,11.6,18,23.2,18.7c0.8,0,1.6,0.1,2.4,0.1c0,0,0,0,0.1,0
					c0,0,0,0,0.1,0c0.8,0,1.6,0,2.5-0.1C75.5,99.4,84,92.6,87,81.4C88.9,74.3,88.9,67.1,86.7,60z M74.2,71.9c0,3.5-0.4,7.5-2.3,11.2
					c-2.2,4.5-5.7,7-10.6,7.1h-0.1c0,0,0,0-0.1,0s-0.1,0-0.2,0h-0.1c-4.3-0.1-7.5-2.2-9.5-5.7c-0.3-0.4-0.5-0.9-0.8-1.4
					c-1.3-2.7-1.9-5.5-2.1-8.2c-0.4-2.8-0.3-5.7,0.1-8.5c0.3-2.6,0.9-5,2-7.3c0.6-1.3,1.3-2.4,2.2-3.3c2-2.4,4.8-3.6,8.3-3.6l0,0
					l0,0h0.2c4.9,0.1,8.4,2.5,10.6,7C73.8,63,74.3,67.2,74.2,71.9z"/>
			</g>
		</g>
	</g>
	<g>
		<g>
			<g>
				<g>
					<path class="st1" d="M162.8,108.3c-1.1,0-2.1,0-3.1,0c0,3.6-0.1,7.1-0.1,10.7c1.1,0,2.1,0,3.1,0
						C162.7,115.5,162.8,111.9,162.8,108.3z"/>
				</g>
			</g>
		</g>
		<g>
			<g>
				<g>
					<path class="st1" d="M215.8,76.8c-0.1-1.4-0.2-2.7-0.5-4c-1.4-8.4-5.5-16.3-11.8-22c-5-4.5-11.4-7.2-18.1-8.3
						c-7.2-1.2-14.4,0.1-21.6,0.1c-2.2,0-2.5,0.2-2.5,2.4c0,14,0,28,0,42v12.8h15v-0.5l0,0v-1.5c0-12.2,0-24.3-0.1-36.5
						c0-2.2,0.3-2.7,2.5-3c3.3-0.5,6.5-0.4,9.5,0.1l0,0c0.2,0.1,2.7,0.8,5.8,2.9c0.1,0.2,0.2,0.3,0.3,0.5c0.5,0.3,0.9,0.7,1.4,1.1
						c7.1,6,8.2,18,5.4,26.4c-3,9-10,15-19,17.1c-1.4,0.3-2.8,0.6-4.2,0.7c-2.5,0.2-6.7,0.6-9.7,0.9v-0.1c-1.4,0-2.7,0-4.1,0
						c0,3.9-0.1,7.7-0.1,11.6c11.7,0.1,23.6,0.3,33.7-6.4l0,0c0.3-0.1,4.6-2.4,8.9-7.4C213.3,98,216.4,86.8,215.8,76.8z M185,106.4
						v-0.5l0,0c0,0,0,0,0,0.1c0.1,0.2,0.1,0.3,0.2,0.4C185.1,106.4,185,106.4,185,106.4z"/>
				</g>
			</g>
		</g>
		<g>
			<g>
				<g>
					<path class="st1" d="M185.2,106.3c-0.1,0-0.1,0-0.2,0.1v-0.5l0.1,0.2c0,0,0-0.1-0.1-0.2C185.1,106.1,185.1,106.2,185.2,106.3z"
						/>
				</g>
			</g>
		</g>
		<g>
			<g>
				<g>
					<path class="st1" d="M185.2,106.3c-0.1,0-0.1,0-0.2,0.1v-0.5c0,0,0,0,0,0.1C185.1,106.1,185.1,106.2,185.2,106.3z"/>
				</g>
			</g>
		</g>
	</g>
	<g>
		<g>
			<g>
				<rect x="148.9" y="78.9" class="st1" width="3.2" height="1"/>
			</g>
		</g>
	</g>
	<g>
		<g>
			<g>
				<rect x="145.6" y="73.6" class="st1" width="6.5" height="1"/>
			</g>
		</g>
	</g>
	<g>
		<g>
			<g>
				<rect x="148.9" y="84.2" class="st1" width="3.2" height="1"/>
			</g>
		</g>
	</g>
	<g>
		<g>
			<g>
				<rect x="148.9" y="89.4" class="st1" width="3.2" height="1"/>
			</g>
		</g>
	</g>
	<g>
		<g>
			<g>
				<rect x="148.9" y="68.4" class="st1" width="3.2" height="1"/>
			</g>
		</g>
	</g>
	<g>
		<g>
			<g>
				<rect x="148.9" y="94.7" class="st1" width="3.2" height="1"/>
			</g>
		</g>
	</g>
	<g>
		<g>
			<g>
				<rect x="145.6" y="47.4" class="st1" width="6.6" height="1"/>
			</g>
		</g>
	</g>
	<g>
		<g>
			<g>
				<rect x="148.9" y="63.2" class="st1" width="3.2" height="1"/>
			</g>
		</g>
	</g>
	<g>
		<g>
			<g>
				<rect x="148.9" y="52.6" class="st1" width="3.2" height="1"/>
			</g>
		</g>
	</g>
	<g>
		<g>
			<g>
				<rect x="148.9" y="57.9" class="st1" width="3.2" height="1"/>
			</g>
		</g>
	</g>
	<g>
		<path class="st1" d="M143.4,42.5v57.3H142c-0.1,0-0.3,0-0.4,0h-0.2c-0.8,0-1.6,0-2.4,0c-0.6,0-1,0-1.3-0.2
			c-0.4-0.2-0.6-0.7-0.6-1.6c0.1-11.3,0-22.5,0-33.8c0-0.4,0-0.8-0.3-1.3c-0.2,0.4-0.5,0.8-0.6,1.3c-2.9,6.9-5.9,13.7-8.8,20.6
			c-0.5,1.2-1.1,1.7-2.4,1.6c-2.1-0.1-4.2-0.1-6.4,0c-1.3,0.1-2-0.4-2.5-1.6c-2.9-6.9-5.9-13.8-8.8-20.7c-0.2-0.4-0.4-0.8-0.5-1.2
			c-0.1,0-0.3,0-0.4,0v36.8H86.1C95,92,98,82.2,98,71.2s-3-20.8-11.8-28.5c0.7-0.1,1.1-0.2,1.5-0.2c6.8,0,13.5,0,20.3,0
			c1.2,0,1.8,0.4,2.3,1.5c3.7,8.3,7.4,16.6,11.2,24.9c0.2,0.5,0.5,0.9,0.8,1.6c0.4-0.7,0.6-1.2,0.9-1.6c3.7-8.3,7.5-16.6,11.2-24.9
			c0.2-0.5,0.5-1.1,1.1-1.3c0.7-0.2,1.4-0.2,2-0.2c1.8,0,3.6,0,5.3,0C143,42.5,143.2,42.5,143.4,42.5z"/>
	</g>
	<rect x="141.4" y="42.6" class="st2" width="11.1" height="57.1"/>
</g>
</svg>
